/* XPM */
static char * rick_10_xpm[] = {
"50 81 257 2",
"  	c #FF000000",
". 	c #2B2402",
"+ 	c #221C01",
"@ 	c #442F0C",
"# 	c #433B35",
"$ 	c #343225",
"% 	c #34322B",
"& 	c #524434",
"* 	c #262613",
"= 	c #353333",
"- 	c #2C312B",
"; 	c #2A2D24",
"> 	c #563926",
", 	c #3B3113",
"' 	c #6C6255",
") 	c #5B4C44",
"! 	c #37383B",
"~ 	c #623E2B",
"{ 	c #875737",
"] 	c #523A45",
"^ 	c #75460D",
"/ 	c #3B3324",
"( 	c #A9766A",
"_ 	c #3B332C",
": 	c #CB9A95",
"< 	c #443423",
"[ 	c #74695D",
"} 	c #96654C",
"| 	c #B4796B",
"1 	c #756C63",
"2 	c #83756C",
"3 	c #543622",
"4 	c #2C3132",
"5 	c #2B2B1C",
"6 	c #B6B0C6",
"7 	c #A46C63",
"8 	c #7C7067",
"9 	c #675649",
"0 	c #8D827C",
"a 	c #332D32",
"b 	c #AB7A74",
"c 	c #C38C83",
"d 	c #BC938B",
"e 	c #775847",
"f 	c #857A74",
"g 	c #704F36",
"h 	c #2B260B",
"i 	c #B89896",
"j 	c #996956",
"k 	c #AC725C",
"l 	c #3B310B",
"m 	c #997467",
"n 	c #C48B78",
"o 	c #CC9FA2",
"p 	c #BB826A",
"q 	c #C4948A",
"r 	c #B37C78",
"s 	c #BC7C5C",
"t 	c #6B5964",
"u 	c #A59998",
"v 	c #955928",
"w 	c #B8867B",
"x 	c #8B5115",
"y 	c #A7817A",
"z 	c #B66E27",
"A 	c #9A6139",
"B 	c #AA8985",
"C 	c #A15C1A",
"D 	c #9B98A2",
"E 	c #897C84",
"F 	c #96837D",
"G 	c #8A6556",
"H 	c #A5928D",
"I 	c #A59CA4",
"J 	c #866B65",
"K 	c #CE936F",
"L 	c #7E7A82",
"M 	c #B5AEC1",
"N 	c #C8823E",
"O 	c #C37B38",
"P 	c #B4765A",
"Q 	c #433424",
"R 	c #C17D4E",
"S 	c #7C726B",
"T 	c #9C928D",
"U 	c #B4ACB2",
"V 	c #C9968B",
"W 	c #E0BA9F",
"X 	c #CAAAA9",
"Y 	c #74450D",
"Z 	c #2A2613",
"` 	c #CCA1A5",
" .	c #1C2102",
"..	c #C49995",
"+.	c #342B0B",
"@.	c #A56B4A",
"#.	c #CAB9B8",
"$.	c #B97C73",
"%.	c #987976",
"&.	c #1D1B01",
"*.	c #5E4D60",
"=.	c #958C8B",
"-.	c #3B3105",
";.	c #43310B",
">.	c #3A2D05",
",.	c #35310C",
"'.	c #2B2D24",
").	c #824C0F",
"!.	c #B97B73",
"~.	c #332D1B",
"{.	c #613E2D",
"].	c #775959",
"^.	c #D6A991",
"/.	c #A8A5AA",
"(.	c #6E6A73",
"_.	c #B8A8A9",
":.	c #C28E87",
"<.	c #B7B1B5",
"[.	c #443424",
"}.	c #D19D95",
"|.	c #BB857A",
"1.	c #D6C9C9",
"2.	c #CDB4B1",
"3.	c #DEC2B5",
"4.	c #2B2A14",
"5.	c #AB6523",
"6.	c #DDA16E",
"7.	c #35311C",
"8.	c #BBB2C2",
"9.	c #332602",
"0.	c #BC8B84",
"a.	c #C59DA0",
"b.	c #AB8E91",
"c.	c #7B675A",
"d.	c #332E23",
"e.	c #3A2C05",
"f.	c #9A9498",
"g.	c #2B2B14",
"h.	c #7B7378",
"i.	c #8C8586",
"j.	c #B48983",
"k.	c #D09FA1",
"l.	c #835F64",
"m.	c #332E2C",
"n.	c #C89487",
"o.	c #B26D67",
"p.	c #3B3433",
"q.	c #8F613D",
"r.	c #43352C",
"s.	c #D08E52",
"t.	c #64544B",
"u.	c #927A83",
"v.	c #433634",
"w.	c #CB9C9B",
"x.	c #332B14",
"y.	c #C9BCBF",
"z.	c #161200",
"A.	c #BA8473",
"B.	c #1C1B01",
"C.	c #352A04",
"D.	c #322603",
"E.	c #1D1500",
"F.	c #363114",
"G.	c #120D00",
"H.	c #363639",
"I.	c #84848A",
"J.	c #3B3434",
"K.	c #B2A5A3",
"L.	c #2C3126",
"M.	c #392D05",
"N.	c #252301",
"O.	c #8D6C6C",
"P.	c #2C2A05",
"Q.	c #25250B",
"R.	c #ADA19D",
"S.	c #978D93",
"T.	c #161100",
"U.	c #332E24",
"V.	c #2C3125",
"W.	c #866C75",
"X.	c #161B01",
"Y.	c #3C3433",
"Z.	c #242301",
"`.	c #353114",
" +	c #1C1500",
".+	c #332603",
"++	c #120C00",
"@+	c #352A03",
"#+	c #857A73",
"$+	c #BB8B84",
"%+	c #A27E81",
"&+	c #BA8474",
"*+	c #D9B6A7",
"=+	c #433534",
"-+	c #D5B6AC",
";+	c #342B14",
">+	c #CC9C9B",
",+	c #43352B",
"'+	c #64544A",
")+	c #B58C8C",
"!+	c #CC894B",
"~+	c #D49457",
"{+	c #E4D3CD",
"]+	c #C2B7C1",
"^+	c #4E4952",
"/+	c #AC6F4A",
"(+	c #DAAA86",
"_+	c #DDA779",
":+	c #B19CA2",
"<+	c #34311C",
"[+	c #D6AD99",
"}+	c #E3CFC8",
"|+	c #1B2102",
"1+	c #BBB9C6",
"2+	c #8E8077",
"3+	c #5F605B",
"4+	c #D1A89A",
"5+	c #D7C3BE",
"6+	c #272914",
"7+	c #D19D8A",
"8+	c #D99C66",
"9+	c #221C00",
"0+	c #DBC3BA",
"a+	c #B0A7AB",
"b+	c #B5AEBB",
"c+	c #2D3232",
"d+	c #2A2B1C",
"e+	c #242302",
"f+	c #948C8B",
"g+	c #B99EA1",
"h+	c #8D8B94",
"i+	c #B87648",
"j+	c #110C00",
"k+	c #332C1B",
"l+	c #2C3232",
"m+	c #342A04",
"n+	c #BBB5B7",
"o+	c #AEA9B4",
"p+	c #D2C4C6",
"q+	c #C5BFC4",
"r+	c #342B0C",
"s+	c #8F7375",
"t+	c #937F8B",
"u+	c #322602",
"v+	c #AC796C",
"w+	c #D2C0BE",
"x+	c #C49894",
"y+	c #E1BFA9",
"z+	c #252302",
"A+	c #CDBFC2",
"B+	c #E1B694",
"C+	c #D8C5C3",
"D+	c #DCB399",
"E+	c #E9E1DF",
"F+	c #BC948B",
"G+	c #9FA09C",
"H+	c #BFC0BA",
"                                                                                                    ",
"                                                                                                    ",
"                                                                                                    ",
"                                                                                                    ",
"                                                                                                    ",
"                                                                                                    ",
"                                          D+(+_+_+8+8+_+                                            ",
"                                        (+8+!+N 5.C i+i+s _+                                        ",
"                                      4+i+5.O z v v v v v A s                                       ",
"                                      ^.O v x v q.v ).{ q.q.v A                                     ",
"                                      _+z v ).x x Y Y ^ { { q.q.q.                                  ",
"                                      _+O v ).{ ).^ ^ x { ).g { { j                                 ",
"                                      (+8+p k j ( v+( m j q.g g { }                                 ",
"                                    *+^.7+n |.0.V V }.w.: w } g g G                                 ",
"                                    #.*+n n 0.0.:.q >+` ` q j { g }                                 ",
"                                    #.w.|.&+c c n.: >+o o x+7 { g G                                 ",
"                                    X n k | |.|.n.: >+o w.V 7 { { m                                 ",
"                                    a.p | k p | | A.c w.: q j q.{ m                                 ",
"                                    a.$.( ( &+n.| | $.w d V ( { q.                                  ",
"                                    X |.| | c >+:.( w 0.q q 7 { j                                   ",
"                                    q &+$.$.V o : c q : : x+7 7 d                                   ",
"                                    q $.| $.V : V n.: : : q |.V x+                                  ",
"                                    x+&+| | |.c V V V q q q : :.:                                   ",
"                                      A.p &+q : : : : a.a.i : w.                                    ",
"                                      | /+k p c c $+F F =.H ..                                      ",
"                                      r | | &+q w $+s+#+f T                                         ",
"                                      )+| | &+0.:.$+s+2 2+K.                                        ",
"                                      i | | |.w 0...2 #+2+R.                                        ",
"                                      $+$.k P $.w d 2 2 f R.                                        ",
"                                    [+A.k @.A j r j.2 2 2+R.                                        ",
"                                i $+7+| k k /+| q j.s+S #+u                                         ",
"                            F+B ( b V v+7 k k | |.w %.f =./.i.                                      ",
"                        j.j } e { 7 w.y 7 7 7 | |.:.d =.t+I E ) 9                                   ",
"                  i j.j g > > < > e -+a+%+( 7 | |.:.)+f.S.b+L ] # v.) ].                            ",
"              i w j g 3 3 @ @ @ @ g a.8.u r | !.&+0.i /.I 6 h.] # Y.r.< & 9 c.                      ",
"            y j g > 3 < @ @ l l @ m g+b+b+B 0.w |.0.i /.I b+*.# J.Y._ / _ Q < & '+                  ",
"        %.G ~ 3 < < < < l l >.>.@ y K.o+6 o+i d |.v+i a+/.b+t # # Y./ / $ / Q Q r.& 9               ",
"        ) 3 < < / / / 7., l e.M.>.2 R./.M 6 a+j.r )+_.U /.o+*.# J.Y.% % $ / r.r._ Y.r.&             ",
"      t > < , , / / / 7.F.`.r+m+m+t.0 f+f+f.I u :+b+o+f.f.I.] v.J.Y.% $ % _ _ Y.Y.Y.Y.v.)           ",
"      t.[./ , l , 7./ 7.F.,.C.m+D..+e.) [ ' 1 i.f.a+b+h.f.] v.J.J._ % % % _ _ Y._ Y.=+v.]           ",
"      ) < 7.r+;+F.F.7.F.~.x.r+k+h D.m+,+' 8 f 2+2 8 f+2 [ v.J.p.= % $ U.% % Y.Y._ J.Y.Y.v.'         ",
"    (.] , l +., ~.x.7.7.~.x.x.~.4.. D.Q 2+f.i.h.1 1 2 2 S # p.% = % % L.U.% p.= % J.p./ v.)         ",
"    9 3 , ,.C., F.x.~.7.~.x.r++.P.h P.F.& 1 S i.f.I f.2 ) Y.% % % % $ $ $ $ % % % p.% $ p.)         ",
"    9 @ l C.m+r+r+F.r+`.~.h h P.P.h h ;+' S.u f.h+L S S t.v.= $ $ $ % d.~.d.$ $ p.p.$ % % )         ",
"    '+@ >.C.D.u+D.F.h 4.4.h . . P.P.Z h & S S 1 S i.S.S ' p.% V.L.V.U.d.4.~.d.d.% _ U.$ $ )         ",
"    t.@ C.C.D.z+. r+Q.P.h h . . . . * 4.,+1 i.f.u f.E S & / $ V.$ U.U.d.5 ~.~.d._ _ V.U.% )         ",
"    ) , D.C.m+. z+m+Q.. P.h . . D.@ ~ g {.0 f+h.1 1 S 8 t._ $ L.V.L.5 5 5 5 ~.d.$ U.'.x.$ )         ",
"    t k+. D.D.. z+. . e+. Q.. {.( n.7+n.|.v+s+f f+f.i.8 ) _ $ L.V.V.L.'.5 4.5 d./ % V.h % &         ",
"    *.d.. . . . z+z+. e+Q.h e &+&+k v+$.| m u f.L 1 ' 1 ) / % L.- % V.'.5 4.5 d.$ L.5 Z a ]         ",
"    ) , h . Z.e+e+Z.z+Z.e+D.{ k r v+!.w b G S (.1 f 2+S ' _ = - L.- - 5 5 Z '.L.d.5 Q.d.m.&         ",
"    > F.h z+ .e+ . .Z. . .e.j &+$.| b r r J f+f.f+f 1 1 & ~.% - '.L.'.; 6+Q.5 L.5 e+7.& Y.)         ",
"  t [.x.k+h z+e+e+ . .B.B.r+{ k ( ( | w b e 1 L 3+' [ 8 ' 7.% - V.- ; d+* e+6+d+* . 3 e G %.        ",
"  t.< ,.r+P.z+ .&.B.B.B.&., q.k ( ( 7 ( 7 g ) h.f f 2 1 '+, `.d.5 - '.d+Q.e+h d+Q.N.3 g } w i       ",
"  t.,+`.m++.. Z.&. +B.e+z+@ q.j k ( | |.( g & 0 S ' ' [ & r+x.% L.- '.6+ .Q.d+d+Q.. > { 7 b j.i K.  ",
"  t Q +.m+D.z+e+ .B.z+. . , { j k k j { 3 r+d.& ' 1 S 8 ' & `.- c+- '.* e+Q.6+*  .+.~ q.( j.)+)+g+  ",
"  t./ r+P.. Z.+ B.e+z+. z+, g q.} q.~ .+. Z V.t.#+#+S [ ) < r+L.= c+L.* e+Q.Z Q. ., g q.b y )+i g+  ",
"  ) / . z+z+. e+e+z+e+z+. 3 ~ { A { +. . .* L.# & ) 9 [ t.> r+5 - c+L.Q. .z+Q.|+B., g q.m j.)+$+d   ",
"  r.D.. P.h h z+. +.. . , g g ~ 3 r+&. .z+Q.6+$ t.S S 1 1 9 Q z+'.- L.Q. .e+Q. .X.r+g } b b j.F+B i ",
"t > @ +.;+x.h e+. x.r+;+, 3 3 . +  +B.|+e+* 6+r.) '+' ' ) [.;++ Q.L.; e+e+z+ .B.T.r+g q.7 $+)+r b B ",
") < C., F.+.z+z+D.[.& < C.@ C.z+z. +B.B.e+* Q.4.t.' [ [ [ '+> + e+5 d+e+e+e+ .z.G.r+g { { 7 w y j J ",
") l D.F.+.. e+z+P.) > z+N.N.e+ +G.G.B.|+e+Q.Q.6+# & 9 [ [ 9 & ;+&.Q.Q.e+&. .B.G.G.. g v A q.} j g ' ",
") , . +..+. e+. . m+. + + &.X.T.G.G.B.B. . .e+6+t.2 [ ' & ,+, ;+&.&.+ &.B.T.G.G.G. +3 { A { g ~ > 1 ",
"*.[.D..+D.. . D.. . z++ &.&.z.z.z.G. +B. . . .e+~.) t.1 [ '+[.r++ + B.B. +G.G.G.G.G.z+3 ~ ~ 3 , &   ",
"  t., C.. . m+u+u+z++ + &.z.B.B.B.T.T.&. . . . .x.) ' ' ' ' & , . + &.B.z.G.G.G.G.G.z+, e..+N.4.&   ",
"    ] e..+C.M.D.u+. + &. + +B.|+|+z.G.X.|+|+ . .4.9 ' [ ) , > 3 C.+ &.z.G.G.G.G.G.G.z.~., . u+Q &   ",
"    t , e.l l C.D.. N.&.&.&.B. . .z.G.z.|+ . .|+ .& ' ' t.' & < C.D.+ e+ +G.G.G.G.G.G.+ / Q.. 7.)   ",
"      ) < @ @ > &   ) h B.e+> g ;+B.T.G.X. .|+|+B.< ) ' & {.{.< @ >.. 5 * G.G.G.G.G.G.z.k+7.d.Y.    ",
"                    1 D.e+e+3 > D.B.G.G.z. . . .Q.& [ [ ) , D.> [.>.C.x.d+B.G.G.G.T.B. +&.x.]       ",
"                    ) C.z+z+z++ e++  +z.T.&.e+Q.Z h r.[ > > {.3 & < < D.5 d+ +G.j+x.) &             ",
"                    > D.z+N.N.Z.Z.+ &.B.B.T.&.e+4.5 & 1 > > ~ > 9 ) & , h '.+ z.G.z+                ",
"                    3 m+. z+e+Z.+ &.|+&.B.G.z.e+6+L.& [ ' t h.E 8 ' ) < D.5 d+B.+ h )               ",
"                    < +.u+. z+Z.Z. .&.&.&.T.G.&.Q.$ t.2 S.S.f+f+f [ 9 & , 4.L.d+'.m.Y.              ",
"                  t < u+D.. z+e+Z. .+ &.&. +G.z.Q.% ) 2 f.S.f+f+0 8 ' ) [.D.5 - - m.% )             ",
"                  1 < D.. z+N.N.+ + + + &. +T.G.&.'.] 2 f.f.=.f+i.f 8 ' & , x.L.- % % % '           ",
"                  t < D.. . . z++ + + + +  + +z.z.4.) f S.f.=.f+f+i.h.1 9 & x.$ % % % % t.          ",
"                                                                                                    ",
"                                                                                                    ",
"                                                                                                    ",
"                                                                                                    ",
"                                                                                                    ",
"                                                                                                    "};
