/* XPM */
static char * rick_09_xpm[] = {
"50 81 257 2",
"  	c #FF000000",
". 	c #2B2402",
"+ 	c #221C01",
"@ 	c #442F0C",
"# 	c #433B35",
"$ 	c #343225",
"% 	c #34322B",
"& 	c #524434",
"* 	c #262613",
"= 	c #353333",
"- 	c #2C312B",
"; 	c #2A2D24",
"> 	c #563926",
", 	c #3B3113",
"' 	c #6C6255",
") 	c #5B4C44",
"! 	c #37383B",
"~ 	c #623E2B",
"{ 	c #875737",
"] 	c #523A45",
"^ 	c #75460D",
"/ 	c #3B3324",
"( 	c #A9766A",
"_ 	c #3B332C",
": 	c #CB9A95",
"< 	c #443423",
"[ 	c #74695D",
"} 	c #96654C",
"| 	c #B4796B",
"1 	c #756C63",
"2 	c #83756C",
"3 	c #543622",
"4 	c #2C3132",
"5 	c #2B2B1C",
"6 	c #B6B0C6",
"7 	c #A46C63",
"8 	c #7C7067",
"9 	c #675649",
"0 	c #8D827C",
"a 	c #332D32",
"b 	c #AB7A74",
"c 	c #C38C83",
"d 	c #BC938B",
"e 	c #775847",
"f 	c #857A74",
"g 	c #704F36",
"h 	c #2B260B",
"i 	c #B89896",
"j 	c #996956",
"k 	c #AC725C",
"l 	c #3B310B",
"m 	c #997467",
"n 	c #C48B78",
"o 	c #CC9FA2",
"p 	c #BB826A",
"q 	c #C4948A",
"r 	c #B37C78",
"s 	c #BC7C5C",
"t 	c #6B5964",
"u 	c #A59998",
"v 	c #955928",
"w 	c #B8867B",
"x 	c #8B5115",
"y 	c #A7817A",
"z 	c #B66E27",
"A 	c #9A6139",
"B 	c #AA8985",
"C 	c #A15C1A",
"D 	c #9B98A2",
"E 	c #897C84",
"F 	c #96837D",
"G 	c #8A6556",
"H 	c #A5928D",
"I 	c #A59CA4",
"J 	c #866B65",
"K 	c #CE936F",
"L 	c #7E7A82",
"M 	c #B5AEC1",
"N 	c #C8823E",
"O 	c #C37B38",
"P 	c #B4765A",
"Q 	c #433424",
"R 	c #C17D4E",
"S 	c #7C726B",
"T 	c #9C928D",
"U 	c #B4ACB2",
"V 	c #C9968B",
"W 	c #E0BA9F",
"X 	c #CAAAA9",
"Y 	c #74450D",
"Z 	c #2A2613",
"` 	c #CCA1A5",
" .	c #1C2102",
"..	c #C49995",
"+.	c #342B0B",
"@.	c #A56B4A",
"#.	c #CAB9B8",
"$.	c #B97C73",
"%.	c #987976",
"&.	c #1D1B01",
"*.	c #5E4D60",
"=.	c #958C8B",
"-.	c #3B3105",
";.	c #43310B",
">.	c #3A2D05",
",.	c #35310C",
"'.	c #2B2D24",
").	c #824C0F",
"!.	c #B97B73",
"~.	c #332D1B",
"{.	c #613E2D",
"].	c #775959",
"^.	c #D6A991",
"/.	c #A8A5AA",
"(.	c #6E6A73",
"_.	c #B8A8A9",
":.	c #C28E87",
"<.	c #B7B1B5",
"[.	c #443424",
"}.	c #D19D95",
"|.	c #BB857A",
"1.	c #D6C9C9",
"2.	c #CDB4B1",
"3.	c #DEC2B5",
"4.	c #2B2A14",
"5.	c #AB6523",
"6.	c #DDA16E",
"7.	c #35311C",
"8.	c #BBB2C2",
"9.	c #332602",
"0.	c #BC8B84",
"a.	c #C59DA0",
"b.	c #AB8E91",
"c.	c #7B675A",
"d.	c #332E23",
"e.	c #3A2C05",
"f.	c #9A9498",
"g.	c #2B2B14",
"h.	c #7B7378",
"i.	c #8C8586",
"j.	c #B48983",
"k.	c #D09FA1",
"l.	c #835F64",
"m.	c #332E2C",
"n.	c #C89487",
"o.	c #B26D67",
"p.	c #3B3433",
"q.	c #8F613D",
"r.	c #43352C",
"s.	c #D08E52",
"t.	c #64544B",
"u.	c #927A83",
"v.	c #433634",
"w.	c #CB9C9B",
"x.	c #332B14",
"y.	c #C9BCBF",
"z.	c #161200",
"A.	c #BA8473",
"B.	c #1C1B01",
"C.	c #352A04",
"D.	c #322603",
"E.	c #1D1500",
"F.	c #363114",
"G.	c #120D00",
"H.	c #363639",
"I.	c #84848A",
"J.	c #3B3434",
"K.	c #B2A5A3",
"L.	c #2C3126",
"M.	c #392D05",
"N.	c #252301",
"O.	c #8D6C6C",
"P.	c #2C2A05",
"Q.	c #25250B",
"R.	c #ADA19D",
"S.	c #978D93",
"T.	c #161100",
"U.	c #332E24",
"V.	c #2C3125",
"W.	c #866C75",
"X.	c #161B01",
"Y.	c #3C3433",
"Z.	c #242301",
"`.	c #353114",
" +	c #1C1500",
".+	c #332603",
"++	c #120C00",
"@+	c #352A03",
"#+	c #857A73",
"$+	c #BB8B84",
"%+	c #A27E81",
"&+	c #BA8474",
"*+	c #D9B6A7",
"=+	c #433534",
"-+	c #D5B6AC",
";+	c #342B14",
">+	c #CC9C9B",
",+	c #43352B",
"'+	c #64544A",
")+	c #B58C8C",
"!+	c #CC894B",
"~+	c #D49457",
"{+	c #E4D3CD",
"]+	c #C2B7C1",
"^+	c #4E4952",
"/+	c #AC6F4A",
"(+	c #DAAA86",
"_+	c #DDA779",
":+	c #B19CA2",
"<+	c #34311C",
"[+	c #D6AD99",
"}+	c #E3CFC8",
"|+	c #1B2102",
"1+	c #BBB9C6",
"2+	c #8E8077",
"3+	c #5F605B",
"4+	c #D1A89A",
"5+	c #D7C3BE",
"6+	c #272914",
"7+	c #D19D8A",
"8+	c #D99C66",
"9+	c #221C00",
"0+	c #DBC3BA",
"a+	c #B0A7AB",
"b+	c #B5AEBB",
"c+	c #2D3232",
"d+	c #2A2B1C",
"e+	c #242302",
"f+	c #948C8B",
"g+	c #B99EA1",
"h+	c #8D8B94",
"i+	c #B87648",
"j+	c #110C00",
"k+	c #332C1B",
"l+	c #2C3232",
"m+	c #342A04",
"n+	c #BBB5B7",
"o+	c #AEA9B4",
"p+	c #D2C4C6",
"q+	c #C5BFC4",
"r+	c #342B0C",
"s+	c #8F7375",
"t+	c #937F8B",
"u+	c #322602",
"v+	c #AC796C",
"w+	c #D2C0BE",
"x+	c #C49894",
"y+	c #E1BFA9",
"z+	c #252302",
"A+	c #CDBFC2",
"B+	c #E1B694",
"C+	c #D8C5C3",
"D+	c #DCB399",
"E+	c #E9E1DF",
"F+	c #BC948B",
"G+	c #9FA09C",
"H+	c #BFC0BA",
"                                                                                                    ",
"                                                                                                    ",
"                                                                                                    ",
"                                                                                                    ",
"                                    (+(+_+8+_+(+                                                    ",
"                                  (+s.s.z C 5.5.z p [+                                              ",
"                                s.O N O 5.v { v A A /+R K                                           ",
"                              4+s.5.v x v q.{ { { } q.} @.c                                         ",
"                              7+O v ).^ x { ~ ~ ^ { { q.A @.                                        ",
"                              _+N x ).^ ).^ ^ ^ x { { g { q.(                                       ",
"                              _+s.@.} } q.7 v+r | v+j g ^ { j                                       ",
"                              (+6.n &+|.0.F+x+: : : :.j g g m                                       ",
"                              7+(+|.n c :.q q : o o : ( { g j                                       ",
"                            x+^.V |.|.c :.:.V w.o o w.b q.{ j                                       ",
"                            2.*+4+|.&+c c :.: w.o o w.w } q.j                                       ",
"                              X n.@.@.| A.$.$.w q w.: j.} q.                                        ",
"                              X &+k k k n c ( k w $+:.d } q.                                        ",
"                              X |.( ( v+0.: $+b r d x+d j 7                                         ",
"                            ` X q $.$.$.q >+: q q w.w.d | q                                         ",
"                            X 2.|.$.| $.V : x+V : : : x+q x+                                        ",
"                              -+n p | k $.0.V V : V x+q : V                                         ",
"                              #.:.p $.|.:.: : q : V V x+: k.                                        ",
"                                ..$.| &+c : x+V V : x+:.`                                           ",
"                                ..| P k p c V : ....i ..                                            ",
"                                g+r | | A.q )+=.=.T b.a.                                            ",
"                                  )+| $.|.:.j.#+f 0 b.                                              ",
"                                  d | k | c j.2 f i.g+                                              ",
"                                  w | k @.| j.2 f 0 i _.                                            ",
"                                2.&+k /+@.| y 2 2 0 g+g+/.                                          ",
"                              )+4+p k k k $.y 2 S 0 i b.I t                                         ",
"                          g+y m w.b k ( v+$.b 8 8 f b.)+I ^+& '+].                                  ",
"                      i y j { { a.%+( ( v+$.b 2+0 u %.g+/.^+] v.,+> g G O.                          ",
"                  g+B G g ~ 3 {.a.U %+b | | $.y 2+F y U I ^+] # =+Y.r.,+> {.e c.                    ",
"                d m g > 3 @ @ 3 )+<./.y |.w |.b.f.%.i M I ^+# v.=+_ Q Q r.r.,+r.) ].                ",
"            i v+q.~ 3 @ @ ;.@ < %.a+M :+r :.j.i I S.b+6 b+*.# # =+/ / / r.v.=+v.Q r.&               ",
"        i y j g > @ @ ;.-.-.-., #+I o+M :+F+)+:+/./.6 6 o+^+] v.v._ 7./ ,+r.v.v.v.v.v.'+            ",
"      y j g > @ < < , , , -.>., f D I M 6 :+y g+/./.6 6 h+] # J.J._ Q Q v.r.v.v.v.v.v.#             ",
"    J g > < < < < / 7., , M.M.l [ u /./././.u _.U o+6 b+*.# ! H.p._ / r.Y.v.v.=+v.v.v.# t.          ",
"    t.< , < < , , 7., / F.+.@+C.& ' '+9 ' 8 2+T u S.o+L # J.J.p.= % % _ v.v.Y.=+v.Y._ v.)           ",
"    ] < l , , l < ,+/ / ~.+.m+m+D.C.) S 0 0 0 #+0 T f.' # H.= % $ % p.J.v.v._ Y.v._ / _ &           ",
"  1 > @ l l , , , r._ $ 7.`.`.g.. m+& f T =.0 2 1 1 t.# p.= % $ _ p.= _ p.Y._ Y.Y._ / _ #           ",
"  8 > @ l ,., ,.r+/ / $ ~.~.7.g.h D./ & ' 8 2 #+f =.0 '+_ = % % = = % % % $ / p.J.$ / $ r.          ",
"  8 3 l M.M., F.m+7._ % 5 4.`.5 g.P./ 8 T R.u i.f E [ r._ % % = = % $ d.$ $ $ p._ $ d.~.#           ",
"  ].3 l , +.r++..+7._ $ ~.4.5 g.4.6+~.& ' 8 1 [ 8 ' ' # p.% $ p.= % $ <+7.<+$ % $ d.5 7.#           ",
"  '+< l M.m+@+@+@+r+_ d.x.h 4.5 d+4.x.) S =.f.i.f 0 #+& Y.= = = H.= $ $ d.$ % = % m.h d.J.          ",
"  9 @ l M..+u+u+u+. $ $ 4.Z 6+4.4.h g.# S f+f+2 1 ) & / _ = ) ].9 # _ % d.$ p.= U.5 Z $ Y.)         ",
"  t.< ;.M..+u+. D.. `.~.4.h h 4.5 5 5 $ ) [ 2 8 2 f 2 & = = {.} r B O.) / % % % U.. x.$ _ '         ",
"  9 @ l M.C.u+. . . h ~.Z h h 4.5 k+5 % 1 f.u 0 S 1 '+,+p.= _ e 7 w )+)+s+& _ d.4.z+~.d.% &         ",
"  t < >.C..+u+. . . z+5 4.h h 5 '.d+4.d.# t.' ' 1 ' 9 ,+= c+_ c.y j.j.j.d m 3 ~.Q.h x.x.$ t.        ",
"  S [.>.C..+C.g j ~ . h 4.. r+5 L.'.6+$ ) 0 T #+2 f [ r.= % # J b y j.$+0.v+~ F.h x.k+h / t.        ",
"  h.[.m++.g w 7+p { C.z+P.h Z d+d+d+6+d+$ ' 1 [ [ ) [.+.4.'.,+J B )+j.j.|.( > r++ P.h x./ '+        ",
"  t [., G n.n.n k g .++ h 5 d+6+* Q.e+Q.~.t.[ [ 2 2 ' [.z+h & m b r j.$+w j 3 . Z.z+N.k+% )         ",
"  t.3 G n p A.$+w G @ + . 4.d+* Q.e+e+e+. t.2 8 1 ' & ;++ Z., G w w w j.w j @ z++ &.. d.m.#         ",
"  ) e &+k k $.w $+m 3 N.+ h * Q.Q. .e+ .e+, & ' [ ' ) < + B.+ , G v+w $+&+} < 5 + + 5 U.m.% #       ",
"  ) e j ( ( v+r $+b ~ .  +. h z+z+z+ . .z+& #+2 #+2 ' & N.B.z.G.< q.k A.v+{ < % '.Z 4.5 d.$ _ t.    ",
"  '+g v+k 7 b w j.r g D. ++ P.z+z+e+ .e+Z.h & ' ' & ,+, +  +z.G.r+{ @.( ( { < m.= m.'.5 z+Q.4./ 9   ",
"  ].G } 7 ( v+| $+j.e D.&.E.z+z+e+e+ .e+Z.7.[ [ S S c.9 ;+ + +G. +3 { j 7 { < $ % = % V.d.4.h +., ) ",
"  ) > G ( 7 7 r j.w g D.B.z.+  .e+ . . .e+. ' 1 1 ' ) ,+h &.T.G.G.&.@ ~ ~ 3 , L.% % m.m.U.Q.. z+7.& ",
"  ) c.%.j @.( b 0.j.e D.&. +B. .z+z+e+ .|+ .& ' [ ' ' '+< N.B.T. +&.D.. . . ~.m.a - m.m.% Z . 4.7.' ",
"W.].[ ].{ q.@.w $+r ~ . B. +z. .z+e+ .|+|+ .t.1 1 [ [ t.& r+Q.z.B.z+. [.. . ) # m.d.% % % 5 + ~.&   ",
"W.& 9 & {.~ { 7 ( { @ &.&.z.G.B.z+*  .e+|+|+Q ' [ '+& ,+F.. P.B.G.+ Z., ;+z+Q ) _ U.V.L.% d.h /     ",
"S & ) & 3 C.3 > 3 +.z+B.B. +G.G.e+6+6+d+6+Q.& ' ' '+' ' ) +.x.Q.z.z. +h h z+. ~.U.- L.V.$ - d.]     ",
"8 & ) ) [., C.. . . &.B.B.B.T.G. +Q.5 '.- '.r.' S 8 ) & < r+x.d+ +G.j+G. +&.+ Q.Z 5 ~.x.d.% Y.      ",
"  ] c.b {.& , u+. Z. +z.B. +z.G.G.e+5 L.= c+~.9 9 ) 9 '+& < P.'.* z.G.G.G. +Z.N.N.z+N.D.x._ ^+      ",
"  1 G G @ , D.z+N.+ z. +&.B. +G.G.X.d+L.c+c+<+' [ ' ) < < 3 D.5 L.Q.z.G.G.G.T.+ N.. N.. k+^+        ",
"  c.g {.@ .+. N.&.z.G.E. +B. +T.j+G.e+; 4 4 5 ' [ ' 9 '+& , r+r+L.5 h T.j+G. +& & # r.&             ",
"    {.3 >..+u+N.E.T. + + + + + +G.G.B.6+- c+d+t.9 & > [.3 < , . k+L.Q.B.z. +h                       ",
"    ' {.> & ,+[.. E. + + + +z+T.G.G.T.Q.L.4 d.9 ) ) , , r+, > D.r+V.L.- ; '.%                       ",
"              9 D.&. + + + +z.T.z.T.j+&.d.- d+'+) e @ g {.@ & D.P.d.- 4 m.m.= t.                    ",
"              3 . &.E. +E. +z. + +z.j+G.Q.L.d+t.'+e < > < 3 & r.F.5 - 4 m.c+= ]                     ",
"            g e.Z.N.N.+ + + &.&.+  +G.G.&.'.V.t.f i.0 f 2 1 ' '+[.+.L.- - - a #                     ",
"            @ u+N.N.N.Z.+ +  .Z.+  +G.++T.Z - t.i.f.S.=.i.2 1 ' & +.~.- - 4 c+= )                   ",
"          ' , . N.z+N.Z.+ Z.Z.+ E. +z.z.T.+ U.' i.f.f.=.f+f 8 ' ) , 4.- - c+c+c+#                   ",
"          ) , . . . N.Z.+ Z.N.+ &. +z. +z.T.x.' i.f.f.=.f+0 2 1 ' ) +.$ m.= c+a J.                  ",
"          ] , . . . . . z+Z.+ + E. + + +z.G.h ' i.f.f.S.f+i.f S 1 ' / % = = a - Y.                  ",
"        (.# , D.P.. D.. . z++ + &.&.&. + +T.Z ' f+f.f.=.f+f+i.#+1 [ & p.v.) p.= J.t.                ",
"                                                                                                    ",
"                                                                                                    ",
"                                                                                                    ",
"                                                                                                    ",
"                                                                                                    "};
