/* XPM */
static char * rick_07_xpm[] = {
"50 81 257 2",
"  	c #FF000000",
". 	c #2B2402",
"+ 	c #221C01",
"@ 	c #442F0C",
"# 	c #433B35",
"$ 	c #343225",
"% 	c #34322B",
"& 	c #524434",
"* 	c #262613",
"= 	c #353333",
"- 	c #2C312B",
"; 	c #2A2D24",
"> 	c #563926",
", 	c #3B3113",
"' 	c #6C6255",
") 	c #5B4C44",
"! 	c #37383B",
"~ 	c #623E2B",
"{ 	c #875737",
"] 	c #523A45",
"^ 	c #75460D",
"/ 	c #3B3324",
"( 	c #A9766A",
"_ 	c #3B332C",
": 	c #CB9A95",
"< 	c #443423",
"[ 	c #74695D",
"} 	c #96654C",
"| 	c #B4796B",
"1 	c #756C63",
"2 	c #83756C",
"3 	c #543622",
"4 	c #2C3132",
"5 	c #2B2B1C",
"6 	c #B6B0C6",
"7 	c #A46C63",
"8 	c #7C7067",
"9 	c #675649",
"0 	c #8D827C",
"a 	c #332D32",
"b 	c #AB7A74",
"c 	c #C38C83",
"d 	c #BC938B",
"e 	c #775847",
"f 	c #857A74",
"g 	c #704F36",
"h 	c #2B260B",
"i 	c #B89896",
"j 	c #996956",
"k 	c #AC725C",
"l 	c #3B310B",
"m 	c #997467",
"n 	c #C48B78",
"o 	c #CC9FA2",
"p 	c #BB826A",
"q 	c #C4948A",
"r 	c #B37C78",
"s 	c #BC7C5C",
"t 	c #6B5964",
"u 	c #A59998",
"v 	c #955928",
"w 	c #B8867B",
"x 	c #8B5115",
"y 	c #A7817A",
"z 	c #B66E27",
"A 	c #9A6139",
"B 	c #AA8985",
"C 	c #A15C1A",
"D 	c #9B98A2",
"E 	c #897C84",
"F 	c #96837D",
"G 	c #8A6556",
"H 	c #A5928D",
"I 	c #A59CA4",
"J 	c #866B65",
"K 	c #CE936F",
"L 	c #7E7A82",
"M 	c #B5AEC1",
"N 	c #C8823E",
"O 	c #C37B38",
"P 	c #B4765A",
"Q 	c #433424",
"R 	c #C17D4E",
"S 	c #7C726B",
"T 	c #9C928D",
"U 	c #B4ACB2",
"V 	c #C9968B",
"W 	c #E0BA9F",
"X 	c #CAAAA9",
"Y 	c #74450D",
"Z 	c #2A2613",
"` 	c #CCA1A5",
" .	c #1C2102",
"..	c #C49995",
"+.	c #342B0B",
"@.	c #A56B4A",
"#.	c #CAB9B8",
"$.	c #B97C73",
"%.	c #987976",
"&.	c #1D1B01",
"*.	c #5E4D60",
"=.	c #958C8B",
"-.	c #3B3105",
";.	c #43310B",
">.	c #3A2D05",
",.	c #35310C",
"'.	c #2B2D24",
").	c #824C0F",
"!.	c #B97B73",
"~.	c #332D1B",
"{.	c #613E2D",
"].	c #775959",
"^.	c #D6A991",
"/.	c #A8A5AA",
"(.	c #6E6A73",
"_.	c #B8A8A9",
":.	c #C28E87",
"<.	c #B7B1B5",
"[.	c #443424",
"}.	c #D19D95",
"|.	c #BB857A",
"1.	c #D6C9C9",
"2.	c #CDB4B1",
"3.	c #DEC2B5",
"4.	c #2B2A14",
"5.	c #AB6523",
"6.	c #DDA16E",
"7.	c #35311C",
"8.	c #BBB2C2",
"9.	c #332602",
"0.	c #BC8B84",
"a.	c #C59DA0",
"b.	c #AB8E91",
"c.	c #7B675A",
"d.	c #332E23",
"e.	c #3A2C05",
"f.	c #9A9498",
"g.	c #2B2B14",
"h.	c #7B7378",
"i.	c #8C8586",
"j.	c #B48983",
"k.	c #D09FA1",
"l.	c #835F64",
"m.	c #332E2C",
"n.	c #C89487",
"o.	c #B26D67",
"p.	c #3B3433",
"q.	c #8F613D",
"r.	c #43352C",
"s.	c #D08E52",
"t.	c #64544B",
"u.	c #927A83",
"v.	c #433634",
"w.	c #CB9C9B",
"x.	c #332B14",
"y.	c #C9BCBF",
"z.	c #161200",
"A.	c #BA8473",
"B.	c #1C1B01",
"C.	c #352A04",
"D.	c #322603",
"E.	c #1D1500",
"F.	c #363114",
"G.	c #120D00",
"H.	c #363639",
"I.	c #84848A",
"J.	c #3B3434",
"K.	c #B2A5A3",
"L.	c #2C3126",
"M.	c #392D05",
"N.	c #252301",
"O.	c #8D6C6C",
"P.	c #2C2A05",
"Q.	c #25250B",
"R.	c #ADA19D",
"S.	c #978D93",
"T.	c #161100",
"U.	c #332E24",
"V.	c #2C3125",
"W.	c #866C75",
"X.	c #161B01",
"Y.	c #3C3433",
"Z.	c #242301",
"`.	c #353114",
" +	c #1C1500",
".+	c #332603",
"++	c #120C00",
"@+	c #352A03",
"#+	c #857A73",
"$+	c #BB8B84",
"%+	c #A27E81",
"&+	c #BA8474",
"*+	c #D9B6A7",
"=+	c #433534",
"-+	c #D5B6AC",
";+	c #342B14",
">+	c #CC9C9B",
",+	c #43352B",
"'+	c #64544A",
")+	c #B58C8C",
"!+	c #CC894B",
"~+	c #D49457",
"{+	c #E4D3CD",
"]+	c #C2B7C1",
"^+	c #4E4952",
"/+	c #AC6F4A",
"(+	c #DAAA86",
"_+	c #DDA779",
":+	c #B19CA2",
"<+	c #34311C",
"[+	c #D6AD99",
"}+	c #E3CFC8",
"|+	c #1B2102",
"1+	c #BBB9C6",
"2+	c #8E8077",
"3+	c #5F605B",
"4+	c #D1A89A",
"5+	c #D7C3BE",
"6+	c #272914",
"7+	c #D19D8A",
"8+	c #D99C66",
"9+	c #221C00",
"0+	c #DBC3BA",
"a+	c #B0A7AB",
"b+	c #B5AEBB",
"c+	c #2D3232",
"d+	c #2A2B1C",
"e+	c #242302",
"f+	c #948C8B",
"g+	c #B99EA1",
"h+	c #8D8B94",
"i+	c #B87648",
"j+	c #110C00",
"k+	c #332C1B",
"l+	c #2C3232",
"m+	c #342A04",
"n+	c #BBB5B7",
"o+	c #AEA9B4",
"p+	c #D2C4C6",
"q+	c #C5BFC4",
"r+	c #342B0C",
"s+	c #8F7375",
"t+	c #937F8B",
"u+	c #322602",
"v+	c #AC796C",
"w+	c #D2C0BE",
"x+	c #C49894",
"y+	c #E1BFA9",
"z+	c #252302",
"A+	c #CDBFC2",
"B+	c #E1B694",
"C+	c #D8C5C3",
"D+	c #DCB399",
"E+	c #E9E1DF",
"F+	c #BC948B",
"G+	c #9FA09C",
"H+	c #BFC0BA",
"                                                                                                    ",
"                                                                                                    ",
"                                        (+(+(+_+8+6.                                                ",
"                                      _+~+N N 5.v v 5./+                                            ",
"                                    K O z O z v v { q.A @.s                                         ",
"                                    ~+z v x x v { { x { } } P                                       ",
"                                  B+!+C ).^ Y ^ { ).^ { q.q.} |                                     ",
"                                  6.O C ^ ^ ^ ^ ).x { { q.{ { j                                     ",
"                                  8+O A q.q.q.} 7 r w w r } { q.                                    ",
"                                W 8+R p p 0.0.c V V : : : w q.q.                                    ",
"                                7+O p |.A.0.q q q x+: k.>+:.j q.                                    ",
"                                c /+&+&+A.|.:.q V : >+o o : ( q.                                    ",
"                                &+@.A.A.A.A.:.q q V o o o x+( }                                     ",
"                                a.k p v+j j | 0.0.|.|.0.x+x+b j                                     ",
"                                  &+p | | | k &+V |.| |.c d y b                                     ",
"                                  : &+| 7 7 ( | : q | w d ..r j.                                    ",
"                                >+4+7+&+$.r !.&+V >+V x+w.>+:...                                    ",
"                                6.^.: p $.!.!.&+: >+: >+w.: V V                                     ",
"                                _+7+}.$.$.$.| P |.q : : : : : :                                     ",
"                                  V [+&+A.$.!.|.V >+: : : : :                                       ",
"                                  V *+0.p p $.c V : : : : w.                                        ",
"                                      $+p P o.$.n V q V ....                                        ",
"                                      d | p p n n.: : q i i                                         ",
"                                      ..&+$.A.|.q V V q F+g+                                        ",
"                                      $+n w &+|.q V q d x+`                                         ",
"                                      |.c )+i R.R.j.$+F+x+`                                         ",
"                                    #.|.$.y #+2 2+)+x+..: g+b+                                      ",
"                                  _.2.|.|.%.2 #+T i x+: : ..:+S                                     ",
"                                g+j.X $.c %.#+#+T d q : : i I ] ].%.                                ",
"                            i B m ( -+y :.%.2 #+=.)+q x+0.g+I ] ] & e G                             ",
"                        d b j g g j -+:+y m 2 2 =.)+:.:.r <.f.] ] # r.[.& ].J                       ",
"                      b } ~ ~ 3 3 e X 8.i O.8 2 =.B 0.b :+8.h+] # # v.r.v.v.# {.].                  ",
"                F+j.} g 3 @ @ @ @ g a.8./.%.#+0 T y | )+b+6 D ] # # v.r.Q r._ r.,+r.'+              ",
"            d y j g ~ 3 < @ ;.l ;.e 4+U b+f.J 2 %+b B U 6 6 D ] # # v.r.< ,+,+Q ,+r.,+> 9           ",
"        b.b } g ~ 3 < < ;.;.l -.l G a./.M M D H b j._.M 6 6 h.] # # v.Q , ,+v.r.r.r.r.v.r.)         ",
"        G ~ > < < < < , l , -.C.>.9 b./.o+b+f.f.T a+b+6 6 I ] # # v.Y._ / v.v.Y.=+r.v.v.v.# '       ",
"      u.{.3 < < < > < , l l M.M.@+< f i.L i.I I S.u a+M M h.# # # Y.Y._ Y.v.v.r.,+=+# # v.v.'       ",
"      S > @ @ , , < ,+/ 7., M.C.C.@+l '+f T I f.f 1 ' f h.& # J.v.Y._ / _ Y.v.v._ v.v.Y.Y.v.)       ",
"      1 3 , ;., , < v.,+7.l l r+C.D.r+& ' f a+u h.f i.i.1 r.v.J.J.Y.Y._ Y.Y.v.Y._ v.Y.$ r.v.)       ",
"      ].3 @ l ;., , ,+Y./ 7.`.`.P.D.r+& #+=.U u f.f.f+S & v.J.Y.v.J.H.J.Y.Y.Y._ _ v._ 7./ _ &       ",
"      9 3 l l l l F.Q Y.$ `.`.x.h m+h / S f 2+0 S 1 [ ' & v.Y._ Y.H.H.J._ _ _ % _ J.p._ $ _ #       ",
"    u.g @ ;.;.l , r+/ _ d.g.~.x.h P.P.$ ' S 8 f =.S.i.#+& J.H.Y.J.H.H.= $ / _ % _ Y._ $ $ _ #       ",
"    c.{., , >.M.>.+.7._ ~.g.r+g.4.4.r+<+1 T f E 0 1 9 & _ H.= J.J.H.p.% $ $ $ % _ p.$ 7.7.Y.#       ",
"    ].> @ @ >.C.M.m+~.$ ~.g.r++.+.4.g.`.& [ S S 8 8 2 [ r.= H.p.v.# # _ / $ ~.$ = = d.x.$ p.# 1     ",
"    c.{.@ ;.l M.C.m+r+7.<+4.4.r+r+4.g.x.t.T i.i.i.2+S ) _ J.H.& G b %.].# _ 7._ Y.% ~.~.d._ v.8     ",
"    G > @ l >.m+@+@+P.,.x.~.h h 4.4.g.g.# 1 S [ t.'+' & Y.J.= v.g 7 w d y 9 [.Y.= $ <+x.$ _ v.1     ",
"    e > @ -.>.@+.+D.. r+5 g.h h h 6+4.5 r.f #+#+0 0 f & Y.H.= # J y j.j.$+j.J & _ k+h ;+$ Y.v.'     ",
"    ].3 ;.l M.@+@+@+. m+x.4.h h Z 6+5 V._ 2 2 1 ' '+& Q p.= % & J b j.$+$+j.r 9 _ 4.4.$ _ Y.v.'     ",
"      > l l M.C.m+.+. . g.h h h 6+Z 6+d+$ t.1 8 8 #+8 # H.= % '+b $+j.r w $+v+{./ 4.U.% _ Y.v.[     ",
"      ~ @ l C.. D.D.z+e+x.h z+h * h 6+5 % [ 2 #+#+[ ) ~.= 4 _ 9 m b j.$+j.r j 3 r+. <+% p.p.v.S     ",
"      ~ @ l C.. . u+z+Z.h h z+. . z+h Z 5 & [ ' t.9 '+r+5 - _ ].b w r r w w } @ . . x.5 $ % #       ",
"      ~ < l D.N.. . z+Z.. z+e+. Z. .e+z+h '+1 #+f S '+. h d.'.[.G ( w j.w v+{ l z+z+. h d.% &       ",
"      {.< .+. . . . z+Z.+ Z.z+z+e+ .e+e+e+,+[ ' ) & < z+&.Z 4.4.Q e 7 | | ( { , Q.e+N.Z '.U.)       ",
"      & , .+u+z+z+. z+e+&.e+z+e+e+ .z+z+e+,+[ S S 1 '+. + + &.B., { } k v+j {./ L.* h 4.L.% _ '     ",
"    1 ,+e..+. + z+. . e+B. .e+e+e+ .e+e+Z./ [ 1 ' ) 7.N.B.&.&.z.+ ~ q.k ( 7 g / $ $ '.5 U.% _ )     ",
"    & l +..+. N.e+. e+e+&.&.Z.z+e+e+e+e+ .;+' t.'+9 & . + &.E.z.G.h ~ { j } 3 7.U.$ $ 5 z+h U.#     ",
"  l.9 e j g l N.+ . z+e++  + . . . . .e+e+, [ 8 8 ' & . &.z.&.z.T. +E.D.@ r+.+~.$ % L.'.5 5 4.4.&   ",
":+O.( &+&+7 ~ . &.. z+Z.&.z.+ Z.e+ . . . .h ' 9 & > [.. &. + + +T.+ z+h m+.+u+k+- - L.% '.Q.. 4.;+) ",
"u.].b V n $.m > + z+Z.Z. .B.&.z+Z. . .e+ .r+' [ ' 9 {.C.4.&. + +T.&.. [.< C.[.& _ d.$ % m.* . h $ ) ",
"u i V |.c c w ].C.+ e+Z.Z.B. +e+z+ . .e+ .h ' S [ & < ;+V.&. +z.T.T.&.x./ D., ) ) % % % % Z . r+/ 3+",
"X d |.|.&+c 0.m < +  . . .B.T.+ e+ . . . .h ' ' ) & & , ~.+ z.T.T.G.z.z+h P.. , _ % - % = 5 . ~.)   ",
"d ( k v+&+w $+b {..  . .&.B.z.B.e+* * Q. .h ' 2 2 ' & , <+*  +z.z.T.G.G. ++ z+h L.- m.% % U.k+&     ",
"B k k | | |.$+j.e .  . . .|+z.z.e+; - *  .D.' 9 ) 3 < C.~.d+ +z. +z.G.G.G.&.Z.z+4.5 5 d.U.$ _       ",
"i b k @.| &+0.0.e D.+  . .|+B.T.B.6+V.6+ .P.' 9 ' 9 9 , ~.L.d+&. + +z.z. +T. +z+. z+h x.d.% t.      ",
"  ( 7 @.k | 0.w ~ . + +  . .B.T.z.Q.'.Q. .P.' [ ' ) & r+x.% - * &.&.[.{.+ T.z.+ z+z+. ;+$ )         ",
"  T %.} @.k p } @ + &.&.h D.z.T.T.+ 6+e+ .x.' ) & ,+> , 4.L.- 6+Q.Q.{.3 &.T.x./ ;+D.D.Q ]           ",
"    O.{ A @.q.3 z+&. + +z++  +z.T. +*  .&.x.' ) [.< +.z+h m.4 '.'.d+Q.E.T.&.3                       ",
"    t ~ ~ 3 @ z+&.E. +z.z.T.z. +z.T.&.+ &.Z ' < > 3 D.r+z+'.4 - - '.d+* * Q.)                       ",
"      ) @ . . + + &.&.z.z. + + +z.G.z.&. +x.' Q > 3 , 3 D.5 4 4 - '.L.L.- L.)                       ",
"        & & D.. + + + E.E.B.B. +z.G.G.B.&.~.' S ' & < , . 4.- - L.5 V.- - - &                       ",
"          t , . z+N.e+ . .B.&. + +T.G.z.&.k+1 f+i.f 8 ' ,+4.5 ; L.'.L.- 4 c+#                       ",
"          t / . . z+z+e+Z.+ &.E.z.T.G.G.B.7.1 =.f+f 2 [ & h '.d+'.- - - - m.= '                     ",
"          *.7.D.u+. . z+Z.+ &. +z. +G.G. +,+1 f+f+f 2 1 '+x.'.6+d+'.- - - - m.)                     ",
"          ^+, D.D.. . z+e++ &. + + +T.G. +,+1 f+f+f 2 [ ' F.V.6+h '.- - 4 4 c+)                     ",
"        E ] , +..+. . z+Z.+ &. + + +z.T.B.,+1 f+f+f 2 [ ' [.$ L.5 L.c+c+- - a )                     ",
"        L ] , @+D.. z++ &.&.&.&.E. + + +&.& 8 =.T 0 S [ [ & p.a - p.a c+- m.= )                     ",
"        h.] @ D.. . r+z+&.&.E. + +E.E.z.&.& 8 =.S.E h.8 1 t.Y.= # '+J.= c+- % )                     ",
"        h.] r+. z+z+z++ + &.&.&.&.&.&.+ + ) 8 f+f+i.h.S 8 [ # = # & J.= = c+= )                     ",
"                                                                                                    ",
"                                                                                                    ",
"                                                                                                    "};
