/* XPM */
static char * rick_24_xpm[] = {
"50 81 257 2",
"  	c #FF000000",
". 	c #2B2402",
"+ 	c #221C01",
"@ 	c #442F0C",
"# 	c #433B35",
"$ 	c #343225",
"% 	c #34322B",
"& 	c #524434",
"* 	c #262613",
"= 	c #353333",
"- 	c #2C312B",
"; 	c #2A2D24",
"> 	c #563926",
", 	c #3B3113",
"' 	c #6C6255",
") 	c #5B4C44",
"! 	c #37383B",
"~ 	c #623E2B",
"{ 	c #875737",
"] 	c #523A45",
"^ 	c #75460D",
"/ 	c #3B3324",
"( 	c #A9766A",
"_ 	c #3B332C",
": 	c #CB9A95",
"< 	c #443423",
"[ 	c #74695D",
"} 	c #96654C",
"| 	c #B4796B",
"1 	c #756C63",
"2 	c #83756C",
"3 	c #543622",
"4 	c #2C3132",
"5 	c #2B2B1C",
"6 	c #B6B0C6",
"7 	c #A46C63",
"8 	c #7C7067",
"9 	c #675649",
"0 	c #8D827C",
"a 	c #332D32",
"b 	c #AB7A74",
"c 	c #C38C83",
"d 	c #BC938B",
"e 	c #775847",
"f 	c #857A74",
"g 	c #704F36",
"h 	c #2B260B",
"i 	c #B89896",
"j 	c #996956",
"k 	c #AC725C",
"l 	c #3B310B",
"m 	c #997467",
"n 	c #C48B78",
"o 	c #CC9FA2",
"p 	c #BB826A",
"q 	c #C4948A",
"r 	c #B37C78",
"s 	c #BC7C5C",
"t 	c #6B5964",
"u 	c #A59998",
"v 	c #955928",
"w 	c #B8867B",
"x 	c #8B5115",
"y 	c #A7817A",
"z 	c #B66E27",
"A 	c #9A6139",
"B 	c #AA8985",
"C 	c #A15C1A",
"D 	c #9B98A2",
"E 	c #897C84",
"F 	c #96837D",
"G 	c #8A6556",
"H 	c #A5928D",
"I 	c #A59CA4",
"J 	c #866B65",
"K 	c #CE936F",
"L 	c #7E7A82",
"M 	c #B5AEC1",
"N 	c #C8823E",
"O 	c #C37B38",
"P 	c #B4765A",
"Q 	c #433424",
"R 	c #C17D4E",
"S 	c #7C726B",
"T 	c #9C928D",
"U 	c #B4ACB2",
"V 	c #C9968B",
"W 	c #E0BA9F",
"X 	c #CAAAA9",
"Y 	c #74450D",
"Z 	c #2A2613",
"` 	c #CCA1A5",
" .	c #1C2102",
"..	c #C49995",
"+.	c #342B0B",
"@.	c #A56B4A",
"#.	c #CAB9B8",
"$.	c #B97C73",
"%.	c #987976",
"&.	c #1D1B01",
"*.	c #5E4D60",
"=.	c #958C8B",
"-.	c #3B3105",
";.	c #43310B",
">.	c #3A2D05",
",.	c #35310C",
"'.	c #2B2D24",
").	c #824C0F",
"!.	c #B97B73",
"~.	c #332D1B",
"{.	c #613E2D",
"].	c #775959",
"^.	c #D6A991",
"/.	c #A8A5AA",
"(.	c #6E6A73",
"_.	c #B8A8A9",
":.	c #C28E87",
"<.	c #B7B1B5",
"[.	c #443424",
"}.	c #D19D95",
"|.	c #BB857A",
"1.	c #D6C9C9",
"2.	c #CDB4B1",
"3.	c #DEC2B5",
"4.	c #2B2A14",
"5.	c #AB6523",
"6.	c #DDA16E",
"7.	c #35311C",
"8.	c #BBB2C2",
"9.	c #332602",
"0.	c #BC8B84",
"a.	c #C59DA0",
"b.	c #AB8E91",
"c.	c #7B675A",
"d.	c #332E23",
"e.	c #3A2C05",
"f.	c #9A9498",
"g.	c #2B2B14",
"h.	c #7B7378",
"i.	c #8C8586",
"j.	c #B48983",
"k.	c #D09FA1",
"l.	c #835F64",
"m.	c #332E2C",
"n.	c #C89487",
"o.	c #B26D67",
"p.	c #3B3433",
"q.	c #8F613D",
"r.	c #43352C",
"s.	c #D08E52",
"t.	c #64544B",
"u.	c #927A83",
"v.	c #433634",
"w.	c #CB9C9B",
"x.	c #332B14",
"y.	c #C9BCBF",
"z.	c #161200",
"A.	c #BA8473",
"B.	c #1C1B01",
"C.	c #352A04",
"D.	c #322603",
"E.	c #1D1500",
"F.	c #363114",
"G.	c #120D00",
"H.	c #363639",
"I.	c #84848A",
"J.	c #3B3434",
"K.	c #B2A5A3",
"L.	c #2C3126",
"M.	c #392D05",
"N.	c #252301",
"O.	c #8D6C6C",
"P.	c #2C2A05",
"Q.	c #25250B",
"R.	c #ADA19D",
"S.	c #978D93",
"T.	c #161100",
"U.	c #332E24",
"V.	c #2C3125",
"W.	c #866C75",
"X.	c #161B01",
"Y.	c #3C3433",
"Z.	c #242301",
"`.	c #353114",
" +	c #1C1500",
".+	c #332603",
"++	c #120C00",
"@+	c #352A03",
"#+	c #857A73",
"$+	c #BB8B84",
"%+	c #A27E81",
"&+	c #BA8474",
"*+	c #D9B6A7",
"=+	c #433534",
"-+	c #D5B6AC",
";+	c #342B14",
">+	c #CC9C9B",
",+	c #43352B",
"'+	c #64544A",
")+	c #B58C8C",
"!+	c #CC894B",
"~+	c #D49457",
"{+	c #E4D3CD",
"]+	c #C2B7C1",
"^+	c #4E4952",
"/+	c #AC6F4A",
"(+	c #DAAA86",
"_+	c #DDA779",
":+	c #B19CA2",
"<+	c #34311C",
"[+	c #D6AD99",
"}+	c #E3CFC8",
"|+	c #1B2102",
"1+	c #BBB9C6",
"2+	c #8E8077",
"3+	c #5F605B",
"4+	c #D1A89A",
"5+	c #D7C3BE",
"6+	c #272914",
"7+	c #D19D8A",
"8+	c #D99C66",
"9+	c #221C00",
"0+	c #DBC3BA",
"a+	c #B0A7AB",
"b+	c #B5AEBB",
"c+	c #2D3232",
"d+	c #2A2B1C",
"e+	c #242302",
"f+	c #948C8B",
"g+	c #B99EA1",
"h+	c #8D8B94",
"i+	c #B87648",
"j+	c #110C00",
"k+	c #332C1B",
"l+	c #2C3232",
"m+	c #342A04",
"n+	c #BBB5B7",
"o+	c #AEA9B4",
"p+	c #D2C4C6",
"q+	c #C5BFC4",
"r+	c #342B0C",
"s+	c #8F7375",
"t+	c #937F8B",
"u+	c #322602",
"v+	c #AC796C",
"w+	c #D2C0BE",
"x+	c #C49894",
"y+	c #E1BFA9",
"z+	c #252302",
"A+	c #CDBFC2",
"B+	c #E1B694",
"C+	c #D8C5C3",
"D+	c #DCB399",
"E+	c #E9E1DF",
"F+	c #BC948B",
"G+	c #9FA09C",
"H+	c #BFC0BA",
"                                                                                                    ",
"                                                                                                    ",
"                                                                                                    ",
"                                                                                                    ",
"                                                                                                    ",
"                                                                                                    ",
"                                                                                                    ",
"                                                                                                    ",
"                                                                                                    ",
"                                                                                                    ",
"                                (+(+_+_+(+                                                          ",
"                            ^.8+!+O 5.5.C 5.s 8+                                                    ",
"                          }.R O N z v { { A @./+s 4+                                                ",
"                          ^.s.C x x v { ^ x q.A @.@.                                                ",
"                          (+z v x ^ x ).^ { { { { }                                                 ",
"                          6.O v { { { } 7 ( ( } g { (                                               ",
"                          _+s.p A.w |.q V >+w.$+} { b                                               ",
"                          s.K |.c :.q V : o o x+7 { %.                                              ",
"                          p n.&+|.:.:.q w.o o : ( q.m                                               ",
"                          n n.&+&+:.:.q w.o o x+b } %.                                              ",
"                          7+7+k j ( w $.( r 0.x+j.}                                                 ",
"                            :.7 j k n : v+7 w q j.j                                                 ",
"                          X q $.v+| :.w.F+F+w.w.d w ..                                              ",
"                          o q p | $.q w.: : : : x+c o                                               ",
"                          : n.$.| k &+:.q x+q d i i X                                               ",
"                          w.V &+$.| n : x+q $+F 2+0 a+                                              ",
"                            a.$.| | |.:.:.:.j.2 f 0 _.                                              ",
"                              r | ( p c c w j.2 #+0 _.                                              ",
"                              )+| | $.0.:.d w 2 2 0 U                                               ",
"                              a.| | A.0.d $+y 2 2 0 U                                               ",
"                              )+| | k P $.w y O.8 f                                                 ",
"                              x+| k @.k w F+)+F f T f.                                              ",
"                            a.q | k k ( $+q x+d =.i.] J                                             ",
"                        B ( x+$+| k k k |.:...i f.S.] # & e G                                       ",
"                    b G e g d i ( | ( k $.c d i /.D ] # ,+r.Y.& 9 e                                 ",
"                y G ~ 3 < 3 y X y ( 7 7 !.0.w )+/.S.] # v._ _ _ _ < > )                             ",
"            y G ~ 3 @ @ , < m U a+b !.v+b w ( :+<.I ^+# =+_ _ $ / Q / / r.& ].                      ",
"        y j g 3 @ l ;.l l , y K.M :+r w v+v+b.a+I =.] ! J.% $ $ _ _ _ _ p.Y.v.t.                    ",
"      G g 3 @ @ l >.e.,.M., %+/.b+6 :+b ( b.b+o+0 h.# J.J.% $ % % _ p.Y.p.Y.v.)                     ",
"      > @ , , , ,.C.C.+.m+>.S I a+b+U B u o+6 M h.] Y.J.p.% d.% % % % _ ! J.=+#                     ",
"    ' 3 , , F.7.;+m++.C.m+m+) 1 [ ' c.2+=.I M o+h.# % = p.% ~.$ $ % % % = % p.v.'                   ",
"    '+, M.-.,.F.7.~.+.m+D.. D.+.) S #+#+#+f T S.S v.= % = = - d.$ % V.$ U.k+$ Y.)                   ",
"    t.@ +.M.l r+/ d.x.D.x.h . +.) f+f+f 8 1 1 #+1 v.= L.% - '.<+d.$ d.$ $ d.d.$ t.                  ",
"    & @ +.r+`.r+/ % 5 h r+h . D./ ' [ 1 2 i.T S.1 r.% '.U.'.5 g.x.d.5 $ % V.5 $ #                   ",
"    > l M.+.F.P.`.% ~.P.h h . D./ S i.=.T =.i.f [ Y.$ V.V.d.'.6+4.'.d+U.L.'.'.% _                   ",
"  ].3 , C.D.m+D.x.= 5 h . P.D.h $ S f+E S [ [ 1 [ J.= - L.'.5 4.4.5 d+V.$ 5 5 d._ t.                ",
"  t.< , C.D.. . h % d.+.{ j G 3 7.) [ [ S 0 f+0 [ v.= m.% L.'.5 6+h 4.L.L.5 Z k+$ )                 ",
"  ) @ +.C..+. P.z+r.J A.K n |.j > t.T T =.f+f 1 ' v.= $ $ % V.d+6+h k+L.L.5 Z d.% )                 ",
"  {.@ m+D.. z+z+, j p s k @.q.g < & i.E 1 ' 9 ' ' Y.% - L.L.'.d+6+* 4.V.; 5 Z 4.U.)                 ",
"  *.< x.D.z+z+. e k @.k A.A.G > ~.= ' S S #+2+#+[ Y.= - V.L.V.d+* * '.V.d+5 5 5 4.&                 ",
"  h.r.. D.. e++.G A.| v+r 0.j.m > p.f u =.f 8 [ ' / % % - L.V.; * Q.5 '.d+d+'.5 k+#                 ",
"  L v.x.. z+e+, } /+j ( r v+G g < % t.0 1 '+'+' [ ,+% = c+- L.; z+Q.5 '.d+d+L.5 4.U.                ",
"  t # x.h e++ D.e 7 7 7 v+( q.@ 5 L.# ' 1 1 S 8 [ ,+$ = = = L.d+Q.Q.d+'.;  .'.- d+5 #               ",
"  ].> h e+ +z+r+e j 7 v+w b g r+d+- ] f 0 f 8 ' ' ;+~.m.c+c+'.6+Q.* d+'.d++ Q.L.L.'.$ t.            ",
"  l.) +.. & & r+g j 7 7 } ~ +.h L.c+= ) ' t.'+9 [ ) ~.- c+c+- 6+* * d+; d+&. .* - c+m.#             ",
"  ) l +.< 9 {., {.} j j @ + + Z - - c+# t.[ 8 1 8 '+/ d.c+- - d+* * * d+d+&.&.e+6+d+Z 4.&           ",
"].< [.) ) ) '+3 ~ { } g D. . .6+L.- - & ' 2 S 1 [ ) [.x.- - - ; 6+* 6+d+6+Q. .e++ Q.Q.m.#           ",
"[ & & & ) ) & 3 ~ 3 3 +.B.&. .d+L.- - & t.t.t.9 ' ) , Q.L.- - ; 6+6+4.* * &.B.&.e+ .Q.* )           ",
"*.> r., ) J & < @ C.z+z.G.&. .* d+- % # ) '+[ 1 1 [ ) ;+d+- - ; d+Z Z * Q. +G.+ e+e+* m.)           ",
"t.r.;+, e e < < r+e+&.z.G.B.Q.d+; m.% # ) '+[ 1 8 1 9 & h 5 - - ; d+Z 6+* T.T.&. .&.e+d+&           ",
"t v.C.>.@ @ .+. + &. + +z.z.e+6+d+'.- # [ [ '+9 ' 9 '+> h Q.- - ; d+d+; * G.T.&.&.B.Q.~.& F         ",
"  t.+.C.l M.D.z++ E. +E.z.G.|+d+'.'.c+% t.' ' ' ' '+) & , &.6+'.d+* ; * + G.G.T.G. +Q.> { } m       ",
"  t , , , M.D.. z+E.T. + +G. +* d+'.- - & ) '+9 8 [ 9 & r++ e+; ; d+d+Q.&.++G.G.G.z.@ g q.j ( v+(   ",
"  (.,+< , l l r.) D.E.&.&. +T.e+d+L.- - t.1 8 [ t.& ' ) < r++ * L.L.* +  +G.G.j+G.+ > { } 7 7 j j b ",
"      & & &     ].@ + &.e+&. +&.6+- c+c+) [ [ ' 1 ' '+9 l 3 + + 5 Y.z+ +T.G.++G.G.+ ~ { } ( b 7 7 B ",
"                9 & z+, , e++  +h V.c+c+# ) ) 9 ) < < ]., & , + Q./ z+z.T. +;+ +T.+ ~ q.} j v+| r   ",
"                l., . . r+z++ B.+ d.a c+& ' 3 ' '+J e e & ) ,++ + h Q. +z. +  / Y.x.3 { A 7 v+r j.  ",
"                t.r+D.. z+e+e+&. +h m.= '.. l 9 ) e e 2 0 [ '+;++ + d+Q. + +)       t.e { } ( r y   ",
"                ] +..+D.. z++ + z.+ m.c+= ) ' 1 f i.S.S.=.f ' & + + Q.4.+  +&             G j b y   ",
"                ] h . . . z+z+N. + +4.m.# i.f.E f+D D f.S.i.1 t.7.+ + z++  +,                       ",
"                # +.D.D.. . z+z++  +z+$ # i.D E f+D D D f.i.i.[ ) h + z+. &.. )                     ",
"                                                                                                    ",
"                                                                                                    ",
"                                                                                                    ",
"                                                                                                    ",
"                                                                                                    ",
"                                                                                                    ",
"                                                                                                    ",
"                                                                                                    ",
"                                                                                                    ",
"                                                                                                    "};
