/* XPM */
static char * rick_18_xpm[] = {
"50 81 257 2",
"  	c #FF000000",
". 	c #2B2402",
"+ 	c #221C01",
"@ 	c #442F0C",
"# 	c #433B35",
"$ 	c #343225",
"% 	c #34322B",
"& 	c #524434",
"* 	c #262613",
"= 	c #353333",
"- 	c #2C312B",
"; 	c #2A2D24",
"> 	c #563926",
", 	c #3B3113",
"' 	c #6C6255",
") 	c #5B4C44",
"! 	c #37383B",
"~ 	c #623E2B",
"{ 	c #875737",
"] 	c #523A45",
"^ 	c #75460D",
"/ 	c #3B3324",
"( 	c #A9766A",
"_ 	c #3B332C",
": 	c #CB9A95",
"< 	c #443423",
"[ 	c #74695D",
"} 	c #96654C",
"| 	c #B4796B",
"1 	c #756C63",
"2 	c #83756C",
"3 	c #543622",
"4 	c #2C3132",
"5 	c #2B2B1C",
"6 	c #B6B0C6",
"7 	c #A46C63",
"8 	c #7C7067",
"9 	c #675649",
"0 	c #8D827C",
"a 	c #332D32",
"b 	c #AB7A74",
"c 	c #C38C83",
"d 	c #BC938B",
"e 	c #775847",
"f 	c #857A74",
"g 	c #704F36",
"h 	c #2B260B",
"i 	c #B89896",
"j 	c #996956",
"k 	c #AC725C",
"l 	c #3B310B",
"m 	c #997467",
"n 	c #C48B78",
"o 	c #CC9FA2",
"p 	c #BB826A",
"q 	c #C4948A",
"r 	c #B37C78",
"s 	c #BC7C5C",
"t 	c #6B5964",
"u 	c #A59998",
"v 	c #955928",
"w 	c #B8867B",
"x 	c #8B5115",
"y 	c #A7817A",
"z 	c #B66E27",
"A 	c #9A6139",
"B 	c #AA8985",
"C 	c #A15C1A",
"D 	c #9B98A2",
"E 	c #897C84",
"F 	c #96837D",
"G 	c #8A6556",
"H 	c #A5928D",
"I 	c #A59CA4",
"J 	c #866B65",
"K 	c #CE936F",
"L 	c #7E7A82",
"M 	c #B5AEC1",
"N 	c #C8823E",
"O 	c #C37B38",
"P 	c #B4765A",
"Q 	c #433424",
"R 	c #C17D4E",
"S 	c #7C726B",
"T 	c #9C928D",
"U 	c #B4ACB2",
"V 	c #C9968B",
"W 	c #E0BA9F",
"X 	c #CAAAA9",
"Y 	c #74450D",
"Z 	c #2A2613",
"` 	c #CCA1A5",
" .	c #1C2102",
"..	c #C49995",
"+.	c #342B0B",
"@.	c #A56B4A",
"#.	c #CAB9B8",
"$.	c #B97C73",
"%.	c #987976",
"&.	c #1D1B01",
"*.	c #5E4D60",
"=.	c #958C8B",
"-.	c #3B3105",
";.	c #43310B",
">.	c #3A2D05",
",.	c #35310C",
"'.	c #2B2D24",
").	c #824C0F",
"!.	c #B97B73",
"~.	c #332D1B",
"{.	c #613E2D",
"].	c #775959",
"^.	c #D6A991",
"/.	c #A8A5AA",
"(.	c #6E6A73",
"_.	c #B8A8A9",
":.	c #C28E87",
"<.	c #B7B1B5",
"[.	c #443424",
"}.	c #D19D95",
"|.	c #BB857A",
"1.	c #D6C9C9",
"2.	c #CDB4B1",
"3.	c #DEC2B5",
"4.	c #2B2A14",
"5.	c #AB6523",
"6.	c #DDA16E",
"7.	c #35311C",
"8.	c #BBB2C2",
"9.	c #332602",
"0.	c #BC8B84",
"a.	c #C59DA0",
"b.	c #AB8E91",
"c.	c #7B675A",
"d.	c #332E23",
"e.	c #3A2C05",
"f.	c #9A9498",
"g.	c #2B2B14",
"h.	c #7B7378",
"i.	c #8C8586",
"j.	c #B48983",
"k.	c #D09FA1",
"l.	c #835F64",
"m.	c #332E2C",
"n.	c #C89487",
"o.	c #B26D67",
"p.	c #3B3433",
"q.	c #8F613D",
"r.	c #43352C",
"s.	c #D08E52",
"t.	c #64544B",
"u.	c #927A83",
"v.	c #433634",
"w.	c #CB9C9B",
"x.	c #332B14",
"y.	c #C9BCBF",
"z.	c #161200",
"A.	c #BA8473",
"B.	c #1C1B01",
"C.	c #352A04",
"D.	c #322603",
"E.	c #1D1500",
"F.	c #363114",
"G.	c #120D00",
"H.	c #363639",
"I.	c #84848A",
"J.	c #3B3434",
"K.	c #B2A5A3",
"L.	c #2C3126",
"M.	c #392D05",
"N.	c #252301",
"O.	c #8D6C6C",
"P.	c #2C2A05",
"Q.	c #25250B",
"R.	c #ADA19D",
"S.	c #978D93",
"T.	c #161100",
"U.	c #332E24",
"V.	c #2C3125",
"W.	c #866C75",
"X.	c #161B01",
"Y.	c #3C3433",
"Z.	c #242301",
"`.	c #353114",
" +	c #1C1500",
".+	c #332603",
"++	c #120C00",
"@+	c #352A03",
"#+	c #857A73",
"$+	c #BB8B84",
"%+	c #A27E81",
"&+	c #BA8474",
"*+	c #D9B6A7",
"=+	c #433534",
"-+	c #D5B6AC",
";+	c #342B14",
">+	c #CC9C9B",
",+	c #43352B",
"'+	c #64544A",
")+	c #B58C8C",
"!+	c #CC894B",
"~+	c #D49457",
"{+	c #E4D3CD",
"]+	c #C2B7C1",
"^+	c #4E4952",
"/+	c #AC6F4A",
"(+	c #DAAA86",
"_+	c #DDA779",
":+	c #B19CA2",
"<+	c #34311C",
"[+	c #D6AD99",
"}+	c #E3CFC8",
"|+	c #1B2102",
"1+	c #BBB9C6",
"2+	c #8E8077",
"3+	c #5F605B",
"4+	c #D1A89A",
"5+	c #D7C3BE",
"6+	c #272914",
"7+	c #D19D8A",
"8+	c #D99C66",
"9+	c #221C00",
"0+	c #DBC3BA",
"a+	c #B0A7AB",
"b+	c #B5AEBB",
"c+	c #2D3232",
"d+	c #2A2B1C",
"e+	c #242302",
"f+	c #948C8B",
"g+	c #B99EA1",
"h+	c #8D8B94",
"i+	c #B87648",
"j+	c #110C00",
"k+	c #332C1B",
"l+	c #2C3232",
"m+	c #342A04",
"n+	c #BBB5B7",
"o+	c #AEA9B4",
"p+	c #D2C4C6",
"q+	c #C5BFC4",
"r+	c #342B0C",
"s+	c #8F7375",
"t+	c #937F8B",
"u+	c #322602",
"v+	c #AC796C",
"w+	c #D2C0BE",
"x+	c #C49894",
"y+	c #E1BFA9",
"z+	c #252302",
"A+	c #CDBFC2",
"B+	c #E1B694",
"C+	c #D8C5C3",
"D+	c #DCB399",
"E+	c #E9E1DF",
"F+	c #BC948B",
"G+	c #9FA09C",
"H+	c #BFC0BA",
"                                                                                                    ",
"                                                                                                    ",
"                                                                                                    ",
"                                                                                                    ",
"                                                                                                    ",
"                                                                                                    ",
"                                                                                                    ",
"                                                                                                    ",
"                                            8+8+R R K _+K                                           ",
"                                        (+8+!+z C ).x v v @.p                                       ",
"                                      D+~+z 5.C ).~ ~ { x { A                                       ",
"                                    ^.~+O 5.).Y Y ^ g g g Y x k                                     ",
"                                    K 5.).).^ Y ~ ^ g g Y ).} n                                     ",
"                                    A ^ Y Y g { { { { { { { w                                       ",
"                                  ( x Y Y ^ g } ( w :.: w.d w.                                      ",
"                                  v+).~ ~ g { k |.q x+o ` ` `                                       ",
"                                  k Y ~ ^ g q.( A.c V w.o ` o                                       ",
"                                  k ^ ~ Y g q.( A.|.V x+..>+w.                                      ",
"                                  A ^ Y ^ g j | $.| w j.v+q w                                       ",
"                                  q.{ } { { j $.&+0.j.j.q q $+                                      ",
"                                  k P p p j k p |.n.: w.x+c x+                                      ",
"                                    A.n p $.!.| p n q w.x+n q                                       ",
"                                    p A.A.| | | | A.c : q |.|.                                      ",
"                                      P p | | | $.&+c V x+w.w.                                      ",
"                                      |.p | | | | A.n c |.c q                                       ",
"                                      :.p | s P | p n n.V V                                         ",
"                                    *+n $.p | P | | p c : >+                                        ",
"                                  $+c $.!.!.!.| | k k $.|.                                          ",
"                                j e H | | !.!.!.$.$.|.2.                                            ",
"                          )+y e > > H b | !.|.$.|.q d g+F H R.K.                                    ",
"                      )+m g 3 < @ < =.:+b !.c |.|.0.d <.1 2 2 f _.                                  ",
"                  %+O.g r.[.< < , , [ U b.$.0.|.0.0.w b+t+2 2 0 %.G                                 ",
"              %+G {.3 ,+,+r.r./ 7.+.t./.b+r 0.0.0.( )+6 S.8 2 2+[ # & e                             ",
"            G {.[.< / _ r.v._ _ 7.+.' I M a+0.d w ( b+6 D 8 8 f [ # # # & ].                        ",
"          ) < < Q / / _ Y.Y._ Y.7.;+'+/.M 6 U d b g+6 6 E 8 8 #+' # # # # ]                         ",
"        h.> Q ,+/ 7./ _ _ _ p.Y.<+x.< u o+/./.R.a+M 6 D 3+8 #+F '+# # # # ] '                       ",
"        *.[.7._ $ ;+F.$ Y.% p.J.d.<+~.< 1 F 2 2 2 f I (.# '+f [ # Y.# v.# # t.                      ",
"        & Q , / ~.r+P.h / J.H.p.% % d.$ & 2 0 0 0 =.T ) # 3+=.S # Y.# J.J.r.)                       ",
"      h.r., l ,.r+h P.P.;+Y.J.% % p.$ ~.r.[ i.T S.f+h.# # 1 G+h.# v.v.Y.J.Y.&                       ",
"      8 < r+m+r+r+. h h P._ H.% d.% % d.$ 2 0 =.f 1 1 # ! S u 1 v.p.p.J.J.p.#                       ",
"      1 < C.m+. . z+P.h e+$ H.% 5 L.- d.'.3+2+S #+0 E # J.2 K.1 _ % _ Y.p._ #                       ",
"      ' , .+,.D.z+e+e+. e+Q.= = '.d.'.5 5 # 1 8 T f.f # J.[ H [ Y.$ % Y.p.% v.                      ",
"    2 & / h . D.. e+ .h e+ .U.= % '.5 5 5 _ 2 f F 0 ' r.H.& [ # % % $ % % % Y.1                     ",
"    t 3 / 4.z+z+e+e+ .z+ . .Q.% c+V.5 5 5 5 1 f [ 1 [ r.H.# [ _ % U.$ % U.$ Y.1                     ",
"    ) [./ d.Q. . . . . . . .|+5 = L.'.5 d+5 & 1 1 f+2 # H.# [ Y.% L.$ % % % Y.'                     ",
"    [., x.k+4.Q. . .B. . . . .&.U.L.5 6+d+Z / 8 2 f ' _ = # [ Y.- '.'.U.V.$ Y.'                     ",
"  t < C.m+h 4.4.Q. .X.&. . . .B.+ $ - d+6+h 5 [ 1 '+& _ % # ' Y.L.4.~.~.'.% _ )                     ",
"  t , m+m+. P.h Q.B.X.B.B.|+|+|+z.Q.'.- 6+Q.6+) [ t.' / % # ' _ L.4.5 5 5 % = )                     ",
"  *.;+D.P.. . Q.Q.|+B.B.B.|+|+B. +z.Q.- ; Q.Q.d.' ' ) $ % # ' p.L.5 d.d.5 % % #                     ",
"  ] x.D.. . z+Q.Q.B.X.z.B.B.|+B.B.z.B.5 - ; Q.~.' ' ) / = # ' p.'.'.d.5 6+5 $ r.                    ",
"  ] x.h . z+e+ . .B.|+z.z.B.|+B.|+B.G. .- c+/ & e j G < % # ' % '.5 5 4.* 5 d._                     ",
"  # . e+e++ B.|+B.B.|+z.T.B.B.B.B.B.B.B.k+) J m 7 ( ( J ] # ' $ '.'.5 6+4.4.d+x.{.                  ",
"t ;+e+P.e+e+Q.Q. .B.|+|+B.B.|+ .B.B.B.x.e } ( b b b b b & ] ' % ; ; d+* Q.e+Z 7.                    ",
") m+.++.h h  .Q.B.Q.d+ . .|+ .* B.B.B.& j j ( r b | r j Q ] ' % V.; d+Q. .e+Q.;+                    ",
"^++.D.. h  . .e+ .* * B.Q.B. . .B.B. .g } j k &+r $.r g 7.# ' $ '.d+6+e+&.* 5 5 9                   ",
"S / D.D.+ &.e+e+ . .Q.&. .B.B.|+B.|+B.{.} } k $.r r j @ ~.# t.~.d+d+6+B.z.Q.Q.e+z+> 9               ",
"  ] C.. + . e+ . .e+ .&.|+B.B. . .|+|+{.q.q.k $.b r G +.5 # t.x.Q.6+6+B. +&.B.z.z.+ , g } k ( ( (   ",
"  t / . . . z+z++ + &.B.B.B. .B.B.B.+ {.{ q.} ( ( 7 ~ +.h # '+Z * 6+*  +z.T.T.++++z.3 { @.( k } j   ",
"    ^+r+D.. e+e++ + &.B.&.+ + &. .&.+ @ ~ g g { g 3 D. ++ # t.Z  .h  .G.G.G.++G.G. +3 { A } A } j b ",
"      t.Q ,+x.h . z+z+e+B.&.&.x./ 7.&.z.&.+ + + Z B.++G.&.# t.5 B.h  +++++++G.++G. +3 { A @.j } 7 w ",
"                  # z++ +  .z+g g > + e+z.G.++G.Q.Q.G.B.e+# t.U.+ E./ ) h  +z.T.G.T.@ { } @.j j b j.",
"                  ^++  +T.T. +r+. + z. +G.z.G.++ +B.&./ 7.r.t.Z  + +;+    & . &.&. ++ 3 { A A } (   ",
"                  *.Q.&. +z.T.G.G.G.G.G.G.T.G.++G.z.Z ) & r.t.Q. + +z+        r.. + + . .+@ G w $+  ",
"                  3+Z + &. + +z. +z.z.G.G.T.G.+++++++ ) ) & t.h  + ++ &           & r+m+< r+        ",
"                  *.x.z++ + &. + + +z.T.G.T.G.++++++&.) ) & t.Z  +&.&.,               t.& )         ",
"                  ] +.. e+e+&. + +z.T.z.T.T.G.G.++++z.& t.t.t.Z &.z.&.z+                            ",
"                  r.D.z+z+e+z+&. + +z.z.z.z.T.G.++++G.& 3+t.t.Z  +z.&.z+                            ",
"                  _ D.. z+. 6+ . +T.z.z.T.G.++G.++++++# 3+' t.Q.z.z.&.Z #                           ",
"                *.Y.D.. . h 5 * &. ++ T.T.T.G.++++G.z.# 3+3+t.5 r.;+e+5 &                           ",
"                *.r.m+D.. Q.d+d+&.+ &. +z.z.T.++++G.z.& ' ' t./ & . Z '.&                           ",
"                *._ m+D.. . Z 4.Q.+ + &. + +z.z.G.G. +) [ ' ' / k+5 '.L.#                           ",
"                *.r.+.D.. . h d+Q.e++ + &. +z.G.G.T.z.9 1 [ [ v.% % - - _                           ",
"                t r.+.D.. . h 4.Q.+ + + &.&. + +z.z. +[ f 1 1 # a a a a Y.                          ",
"                                                                                                    ",
"                                                                                                    ",
"                                                                                                    ",
"                                                                                                    ",
"                                                                                                    ",
"                                                                                                    ",
"                                                                                                    ",
"                                                                                                    "};
