/* XPM */
static char * rick_22_xpm[] = {
"50 81 257 2",
"  	c #FF000000",
". 	c #2B2402",
"+ 	c #221C01",
"@ 	c #442F0C",
"# 	c #433B35",
"$ 	c #343225",
"% 	c #34322B",
"& 	c #524434",
"* 	c #262613",
"= 	c #353333",
"- 	c #2C312B",
"; 	c #2A2D24",
"> 	c #563926",
", 	c #3B3113",
"' 	c #6C6255",
") 	c #5B4C44",
"! 	c #37383B",
"~ 	c #623E2B",
"{ 	c #875737",
"] 	c #523A45",
"^ 	c #75460D",
"/ 	c #3B3324",
"( 	c #A9766A",
"_ 	c #3B332C",
": 	c #CB9A95",
"< 	c #443423",
"[ 	c #74695D",
"} 	c #96654C",
"| 	c #B4796B",
"1 	c #756C63",
"2 	c #83756C",
"3 	c #543622",
"4 	c #2C3132",
"5 	c #2B2B1C",
"6 	c #B6B0C6",
"7 	c #A46C63",
"8 	c #7C7067",
"9 	c #675649",
"0 	c #8D827C",
"a 	c #332D32",
"b 	c #AB7A74",
"c 	c #C38C83",
"d 	c #BC938B",
"e 	c #775847",
"f 	c #857A74",
"g 	c #704F36",
"h 	c #2B260B",
"i 	c #B89896",
"j 	c #996956",
"k 	c #AC725C",
"l 	c #3B310B",
"m 	c #997467",
"n 	c #C48B78",
"o 	c #CC9FA2",
"p 	c #BB826A",
"q 	c #C4948A",
"r 	c #B37C78",
"s 	c #BC7C5C",
"t 	c #6B5964",
"u 	c #A59998",
"v 	c #955928",
"w 	c #B8867B",
"x 	c #8B5115",
"y 	c #A7817A",
"z 	c #B66E27",
"A 	c #9A6139",
"B 	c #AA8985",
"C 	c #A15C1A",
"D 	c #9B98A2",
"E 	c #897C84",
"F 	c #96837D",
"G 	c #8A6556",
"H 	c #A5928D",
"I 	c #A59CA4",
"J 	c #866B65",
"K 	c #CE936F",
"L 	c #7E7A82",
"M 	c #B5AEC1",
"N 	c #C8823E",
"O 	c #C37B38",
"P 	c #B4765A",
"Q 	c #433424",
"R 	c #C17D4E",
"S 	c #7C726B",
"T 	c #9C928D",
"U 	c #B4ACB2",
"V 	c #C9968B",
"W 	c #E0BA9F",
"X 	c #CAAAA9",
"Y 	c #74450D",
"Z 	c #2A2613",
"` 	c #CCA1A5",
" .	c #1C2102",
"..	c #C49995",
"+.	c #342B0B",
"@.	c #A56B4A",
"#.	c #CAB9B8",
"$.	c #B97C73",
"%.	c #987976",
"&.	c #1D1B01",
"*.	c #5E4D60",
"=.	c #958C8B",
"-.	c #3B3105",
";.	c #43310B",
">.	c #3A2D05",
",.	c #35310C",
"'.	c #2B2D24",
").	c #824C0F",
"!.	c #B97B73",
"~.	c #332D1B",
"{.	c #613E2D",
"].	c #775959",
"^.	c #D6A991",
"/.	c #A8A5AA",
"(.	c #6E6A73",
"_.	c #B8A8A9",
":.	c #C28E87",
"<.	c #B7B1B5",
"[.	c #443424",
"}.	c #D19D95",
"|.	c #BB857A",
"1.	c #D6C9C9",
"2.	c #CDB4B1",
"3.	c #DEC2B5",
"4.	c #2B2A14",
"5.	c #AB6523",
"6.	c #DDA16E",
"7.	c #35311C",
"8.	c #BBB2C2",
"9.	c #332602",
"0.	c #BC8B84",
"a.	c #C59DA0",
"b.	c #AB8E91",
"c.	c #7B675A",
"d.	c #332E23",
"e.	c #3A2C05",
"f.	c #9A9498",
"g.	c #2B2B14",
"h.	c #7B7378",
"i.	c #8C8586",
"j.	c #B48983",
"k.	c #D09FA1",
"l.	c #835F64",
"m.	c #332E2C",
"n.	c #C89487",
"o.	c #B26D67",
"p.	c #3B3433",
"q.	c #8F613D",
"r.	c #43352C",
"s.	c #D08E52",
"t.	c #64544B",
"u.	c #927A83",
"v.	c #433634",
"w.	c #CB9C9B",
"x.	c #332B14",
"y.	c #C9BCBF",
"z.	c #161200",
"A.	c #BA8473",
"B.	c #1C1B01",
"C.	c #352A04",
"D.	c #322603",
"E.	c #1D1500",
"F.	c #363114",
"G.	c #120D00",
"H.	c #363639",
"I.	c #84848A",
"J.	c #3B3434",
"K.	c #B2A5A3",
"L.	c #2C3126",
"M.	c #392D05",
"N.	c #252301",
"O.	c #8D6C6C",
"P.	c #2C2A05",
"Q.	c #25250B",
"R.	c #ADA19D",
"S.	c #978D93",
"T.	c #161100",
"U.	c #332E24",
"V.	c #2C3125",
"W.	c #866C75",
"X.	c #161B01",
"Y.	c #3C3433",
"Z.	c #242301",
"`.	c #353114",
" +	c #1C1500",
".+	c #332603",
"++	c #120C00",
"@+	c #352A03",
"#+	c #857A73",
"$+	c #BB8B84",
"%+	c #A27E81",
"&+	c #BA8474",
"*+	c #D9B6A7",
"=+	c #433534",
"-+	c #D5B6AC",
";+	c #342B14",
">+	c #CC9C9B",
",+	c #43352B",
"'+	c #64544A",
")+	c #B58C8C",
"!+	c #CC894B",
"~+	c #D49457",
"{+	c #E4D3CD",
"]+	c #C2B7C1",
"^+	c #4E4952",
"/+	c #AC6F4A",
"(+	c #DAAA86",
"_+	c #DDA779",
":+	c #B19CA2",
"<+	c #34311C",
"[+	c #D6AD99",
"}+	c #E3CFC8",
"|+	c #1B2102",
"1+	c #BBB9C6",
"2+	c #8E8077",
"3+	c #5F605B",
"4+	c #D1A89A",
"5+	c #D7C3BE",
"6+	c #272914",
"7+	c #D19D8A",
"8+	c #D99C66",
"9+	c #221C00",
"0+	c #DBC3BA",
"a+	c #B0A7AB",
"b+	c #B5AEBB",
"c+	c #2D3232",
"d+	c #2A2B1C",
"e+	c #242302",
"f+	c #948C8B",
"g+	c #B99EA1",
"h+	c #8D8B94",
"i+	c #B87648",
"j+	c #110C00",
"k+	c #332C1B",
"l+	c #2C3232",
"m+	c #342A04",
"n+	c #BBB5B7",
"o+	c #AEA9B4",
"p+	c #D2C4C6",
"q+	c #C5BFC4",
"r+	c #342B0C",
"s+	c #8F7375",
"t+	c #937F8B",
"u+	c #322602",
"v+	c #AC796C",
"w+	c #D2C0BE",
"x+	c #C49894",
"y+	c #E1BFA9",
"z+	c #252302",
"A+	c #CDBFC2",
"B+	c #E1B694",
"C+	c #D8C5C3",
"D+	c #DCB399",
"E+	c #E9E1DF",
"F+	c #BC948B",
"G+	c #9FA09C",
"H+	c #BFC0BA",
"                                                                                                    ",
"                                                                                                    ",
"                                                                                                    ",
"                                                                                                    ",
"                                    (+(+_+8+_+(+                                                    ",
"                                  8+!+s.O 5.5.5.z K 8+                                              ",
"                                ~+O N z v v v A } @./+R 7+                                          ",
"                              P 5.C C C v q.{ { { } @.@.@.                                          ",
"                              6.i+x ).^ x { ^ Y ).{ { q.q.b                                         ",
"                              N v ^ ^ Y ^ ).Y ).{ { { ).{ (                                         ",
"                              !+5.x g x { q.j v+r &+( { g (                                         ",
"                            D+!+s | | r b d x+: : o q j { }                                         ",
"                            K i+A.&+n c :.V : : o o w.b q.}                                         ",
"                            | P &+A.&+c :.q V : o o w.w } }                                         ",
"                            b k A.p p n q :.q : o o w.j.} j                                         ",
"                            :.k p | | p n c |.:.q x+: q j b                                         ",
"                            X $.v+j j } k c r 7 ( w 0.d 7 y                                         ",
"                              q $.7 } 7 k c : w ( j.x+x+( 0.                                        ",
"                            X *+|.A.| v+| c : x+q w.w.w.0.w.                                        ",
"                            7+4+c A.$.$.$.c : w.V : w.x+V q                                         ",
"                            7+6.n $.$.| | n q x+: : V q : >+                                        ",
"                              n.V &+$.| k A.:.x+x+: : q ..                                          ",
"                              i w.&+$.| &+:.: : V : : w.                                            ",
"                                  w | k | $.|.:.0.V x+a.  #.                                        ",
"                                  )+| | | A.n.V V d d a.%+F i.T a+                                  ",
"                                  ..!.$.| &+c q d d 0.x+B #+#+2+a+                                  ",
"                                  F+$.| $.|.:.q $+$+d :.B 2 2 0 <.                                  ",
"                                  a.o.o.( ( | w $+$+:.:.%.2 #+0 <.                                  ",
"                                  4+| k 7 j 7 v+$+d q d %.8 2 2+R.                                  ",
"                              _.b 7+| k k 7 7 | $+:.x+q %.8 S f f ) e c.m                           ",
"                            _.O.{ :.v+o.k o.k o.w 0.q $+O.8 [ 2 S # ,+[.> & e ].                    ",
"                          B G ~ ~ j.y ( | ( 7 | &+c c v+%.E 0 T [ # v.r.,+r.,+,+> e J               ",
"                      )+G g > < 3 %._.y | b ( ( !.|.$.b U I f ' & v.,+r.r.,+,+r.r.v.# )             ",
"                    %.g 3 @ , < , ]._.:+b r |.$.!.$.7 b.M /.f.S ] v./ / Q r.v.v.v.v.# # t.          ",
"                j.G ~ 3 @ ;.l , l & u 8.I b |.0.!.( b U 6 o+I (.] J./ / ,+v.v.v.v.# # # ]           ",
"            i m e > < , l ;.>.>., & f.o+M :+j.|.( ( u M 6 o+I (.# J._ _ Y.Y.v.Y.v.# # v.# '         ",
"          y G ~ 3 , / / 7.+.C.m++.) f./.M 6 a+y 7 b.U 6 6 b+/.t # J._ % _ J.Y.J.=+v.Y._ v.'         ",
"        J g 3 , / / / / ~.;+r+m+m+< =.I o+M M K.H u o+6 M o+_.t # H.= _ _ J.v.Y.Y.Y._ _ =+3+        ",
"      ].> , 7., 7.$ $ $ x.F.+.m+P.m+#+I G+i.8 1 S 2 c.S 1 =.u *.J.= = % J.J.Y.p.= p.% % Y.)         ",
"      ) @ , F.F.`.$ _ $ 7.<+r+D.P.P.,+) c.T T =.f+S.f.f.f ' #+] J.= = = = J.J.= p.p.% _ _ &         ",
"      & , F.r+,.`.~.p.p.$ % d.x.x.h . r+& ' 2 h.S h.h.S ' '+' Y.= = = = % % = = % = $ d.$ #         ",
"      v., r+m+m++.P.7.p.= % L.d.~.4.h Z ) S 2+0 f f f 8 ' '+' J.% = = % % $ % % % % d.~.$ Y.2       ",
"    h.# l C.D.m+r+D.x.J.H.% 5 $ d.g.. 4.% 8 f+T T f.T 0 8 ' [ v.= H.= % % U.$ % % % d.4.$ v.'       ",
"    t r.e.m+. m+,.h h _ ! % d.5 ~.4.h h ~.) ' ' ' ' t.) & ) [ Y.= H.= % % % $ % % L.5 x.7._ t.      ",
"    t < M.C.D.m+M.h Q.<+H.c+L.Z Z 4.4.6+5 ) =.u u f.f+0 2 9 ' Y.= = = % % % % % $ L.5 4.U.= )       ",
"    t.[.M.D.D.. . D.. h % = V.5 4.6+d+5 4.d.) ' 1 t ' t.& ) ' J.H.H.= = % L.m.L.d.k+h 4.U.% &       ",
"    t.< C.m+D.z+z+. . z+7.c+V.g.4.Z * 6+d+'.[ 0 i.f 2 S [ t.' ! ] & = = - L.L.% L.Z . 7.U.% _       ",
"    t., M..+. . . e+. e+k+= - 5 6+6+d+d+d+'.# 8 f S S 8 t.'+' J.e m e # % % % '.5 Z h x.d.$ _ [     ",
"    t., C.D.. z+e+&.z+e+Q.- % '.d+* 6+6+6+d+/ t.' 9 t.9 & '+' r.{.} ( G ].) r.~.4.Q.e+5 U.U.= [     ",
"    *./ D.. . z+z+e+z+e+ .'.= L.d+* 6+6+d+; L.' f 0 0 f ' t.' ) c.m v+w j.j.y ].7.+ . ~.$ % H.)     ",
"    *., D.. . . z++ z+z+&.* = - d+* * 6+d+; L.,+& & & & < ) [ ].j 7 v+b y w $+r g D.D.x.d.% J.)     ",
"    *., .+. P.. . + &.e+e+B.'.L.d+* Q.* d+d+'.# 8 #+f 2 ' 9 ' g } j ( y j.$+$+j.G @ x.5 U.p.Y.      ",
"    t., m+D.. . z+&. + . .B.Q.V.; * e+ .Q.Q.* Q.) 9 9 ) & ) c.G j 7 ( b B B j.j.7 > ;+4.$ / r.1     ",
"    t., C.m+. . z+&. +e+e+B.B.6+- d+Q. . . . . .) ' [ ' ) '+' q.j 7 ( r j.j.$+j.7 3 r+Z 4.4.k+Q '+  ",
"    t., +.. D.. + &.T.&. .|+z.Q.'.d+Q. . . .&.&.& S S 1 t.9 9 ~ q.j 7 b j.j.j.r j > $ m.d.h r+h r+t.",
"    t., m++.D.z+&.B. +&. . .B. +6+; Q.e+ . . .|+x.& ) & [.) t.+ @ g } 7 r $+$+r e ,+% L.d.4.h . ;+) ",
"    ) @ F.~.Q.+ B.B.z. + . .&.z.&.d+* Q. .|+B.B.7.1 #+2 ' ' t.+ G. +@ 3 { j | ( g Y.% m.m.~.h ~.r.  ",
"    ) / ~.Z e+&.B. +G.z.|+B. .X.z.Q.d+*  . .B.B.B.& ) & r.) '++ G.j+j+z.3 v } q.> / U.m.m.$ 5 7.    ",
"    t./ 4.z++ B.B.z.G. +B.|+B.B.z.B.* d+d+Q.B.B.&.t.1 1 ' t.'+z+G.j+G.B.z+3 ~ ~ , d.d.% m.m.d.)     ",
"    ) r+e++ + +  +T.T.&.B.B.B. +T.G. .d+d+*  .B.B.) [ ' '+9 t.Z T.j+G.h x.z++ , r.$ d.L.- m._       ",
"    '+~ > , z++ B.z.G. +&.B.B. +z.G.B.* d+Q. .B.z./ ) ) & '+'+d.* T.B.e+7.x.+ ;+) & % - % % )       ",
"    )+w r b m e / &.T.z. +&.&.&. +z.G. .6+6+Q.&.B.& S 1 [ ' t.r+d+B. +e+e+h e+z+, ,+% U./ &         ",
"    q c 0.w d B ].k+ +G.G.z.B.&.B. +G. +Q.d+5 * B.4.) t.9 9 t.;+5 * T. ++ Q.Z h . h / t.            ",
"    :.&+|.r $+$+%.# Q.G.G.T. +&.B. + +G.e+d+'.d+B.4.t.'+) 9 t.r+5 L._ ;+ +&.Q.x._ t.                ",
"    x+|.!.|.0.0.j.) 5 z.j+G.z. + +z.T.G.z.Z - - B.+ & ) '+' t.;+h L._ < + T.h [                     ",
"  o :.$+$+$+$+$+$+G /  +j+j+j+G.z.z.G.T.G.+ '.- B.+ ) ' 9 ' 9 < h '.- d+&.&.;+                      ",
"g+w |.$+d $+F+0.0.m ,+&.G.j+G.T.z.G.j+G.j+z.* d+ .z.;+, l ) '+< . d+4 4 ; '.%                       ",
"i j.r w d d i 0.0.m < &.z.T.G.T.. z.j+j+G.G.&.d+Q. +& > , 9 ) & . e+L.4 - - a )                     ",
"    r w )+d d d $+G ,  + +B.T.T.Q. +G.j+G.G.G.Q.Q. +{.> > e 9 & .+e+d+4 4 c+c+)                     ",
"    u )+j.$+$+$+7 3 + B. + + +T.G.T.G.G.j+G.j+B.e+ +) '+) ' ' ) ,++.Q.- c+4 4 #                     ",
"      g+B w b j 3 . E.&. + + +T.T.T.j+G.j+j+G.G. .B.' i.i.8 1 ' ) [.. 4.- - 4 = t.                  ",
"        B ( { 3 . E.E. + +E. + + +T.G.G.T.G.j+G. +&.' f+f+S 8 ' ) & ;+h '.- a c+t.                  ",
"          ].< . z++ +  +z.z. + + +T.T.z.z.G.G.G.G.E.t.f+f+8 #+1 ' ) ,+. d.- a m.)                   ",
"          (._ . z+. + &. +E.E. + +G.z. + +G.G.z.z. +) f+f+S f f 1 ' ) < ~.a m.m.#                   ",
"          t r.D.z+. z++ + + &.&.&.E. +E. +z.z.T.G.T.) f+f+(.0 E S [ t.> , % a m.#                   ",
"          t r..+D.. z++ + + + + + &.E. + + + +T.G.G.& f+i.(.f i.f 1 ' & , _ J.m._ S                 ",
"          (.v.r++.. . + + &.&.&.+ &. +E.&.&. +z.z. +r.i.i.h.0 i.i.S 1 9 # ,+v.J.Y.1                 ",
"                                                                                                    ",
"                                                                                                    ",
"                                                                                                    ",
"                                                                                                    "};
