/* XPM */
static char * rick_16_xpm[] = {
"50 81 257 2",
"  	c #FF000000",
". 	c #2B2402",
"+ 	c #221C01",
"@ 	c #442F0C",
"# 	c #433B35",
"$ 	c #343225",
"% 	c #34322B",
"& 	c #524434",
"* 	c #262613",
"= 	c #353333",
"- 	c #2C312B",
"; 	c #2A2D24",
"> 	c #563926",
", 	c #3B3113",
"' 	c #6C6255",
") 	c #5B4C44",
"! 	c #37383B",
"~ 	c #623E2B",
"{ 	c #875737",
"] 	c #523A45",
"^ 	c #75460D",
"/ 	c #3B3324",
"( 	c #A9766A",
"_ 	c #3B332C",
": 	c #CB9A95",
"< 	c #443423",
"[ 	c #74695D",
"} 	c #96654C",
"| 	c #B4796B",
"1 	c #756C63",
"2 	c #83756C",
"3 	c #543622",
"4 	c #2C3132",
"5 	c #2B2B1C",
"6 	c #B6B0C6",
"7 	c #A46C63",
"8 	c #7C7067",
"9 	c #675649",
"0 	c #8D827C",
"a 	c #332D32",
"b 	c #AB7A74",
"c 	c #C38C83",
"d 	c #BC938B",
"e 	c #775847",
"f 	c #857A74",
"g 	c #704F36",
"h 	c #2B260B",
"i 	c #B89896",
"j 	c #996956",
"k 	c #AC725C",
"l 	c #3B310B",
"m 	c #997467",
"n 	c #C48B78",
"o 	c #CC9FA2",
"p 	c #BB826A",
"q 	c #C4948A",
"r 	c #B37C78",
"s 	c #BC7C5C",
"t 	c #6B5964",
"u 	c #A59998",
"v 	c #955928",
"w 	c #B8867B",
"x 	c #8B5115",
"y 	c #A7817A",
"z 	c #B66E27",
"A 	c #9A6139",
"B 	c #AA8985",
"C 	c #A15C1A",
"D 	c #9B98A2",
"E 	c #897C84",
"F 	c #96837D",
"G 	c #8A6556",
"H 	c #A5928D",
"I 	c #A59CA4",
"J 	c #866B65",
"K 	c #CE936F",
"L 	c #7E7A82",
"M 	c #B5AEC1",
"N 	c #C8823E",
"O 	c #C37B38",
"P 	c #B4765A",
"Q 	c #433424",
"R 	c #C17D4E",
"S 	c #7C726B",
"T 	c #9C928D",
"U 	c #B4ACB2",
"V 	c #C9968B",
"W 	c #E0BA9F",
"X 	c #CAAAA9",
"Y 	c #74450D",
"Z 	c #2A2613",
"` 	c #CCA1A5",
" .	c #1C2102",
"..	c #C49995",
"+.	c #342B0B",
"@.	c #A56B4A",
"#.	c #CAB9B8",
"$.	c #B97C73",
"%.	c #987976",
"&.	c #1D1B01",
"*.	c #5E4D60",
"=.	c #958C8B",
"-.	c #3B3105",
";.	c #43310B",
">.	c #3A2D05",
",.	c #35310C",
"'.	c #2B2D24",
").	c #824C0F",
"!.	c #B97B73",
"~.	c #332D1B",
"{.	c #613E2D",
"].	c #775959",
"^.	c #D6A991",
"/.	c #A8A5AA",
"(.	c #6E6A73",
"_.	c #B8A8A9",
":.	c #C28E87",
"<.	c #B7B1B5",
"[.	c #443424",
"}.	c #D19D95",
"|.	c #BB857A",
"1.	c #D6C9C9",
"2.	c #CDB4B1",
"3.	c #DEC2B5",
"4.	c #2B2A14",
"5.	c #AB6523",
"6.	c #DDA16E",
"7.	c #35311C",
"8.	c #BBB2C2",
"9.	c #332602",
"0.	c #BC8B84",
"a.	c #C59DA0",
"b.	c #AB8E91",
"c.	c #7B675A",
"d.	c #332E23",
"e.	c #3A2C05",
"f.	c #9A9498",
"g.	c #2B2B14",
"h.	c #7B7378",
"i.	c #8C8586",
"j.	c #B48983",
"k.	c #D09FA1",
"l.	c #835F64",
"m.	c #332E2C",
"n.	c #C89487",
"o.	c #B26D67",
"p.	c #3B3433",
"q.	c #8F613D",
"r.	c #43352C",
"s.	c #D08E52",
"t.	c #64544B",
"u.	c #927A83",
"v.	c #433634",
"w.	c #CB9C9B",
"x.	c #332B14",
"y.	c #C9BCBF",
"z.	c #161200",
"A.	c #BA8473",
"B.	c #1C1B01",
"C.	c #352A04",
"D.	c #322603",
"E.	c #1D1500",
"F.	c #363114",
"G.	c #120D00",
"H.	c #363639",
"I.	c #84848A",
"J.	c #3B3434",
"K.	c #B2A5A3",
"L.	c #2C3126",
"M.	c #392D05",
"N.	c #252301",
"O.	c #8D6C6C",
"P.	c #2C2A05",
"Q.	c #25250B",
"R.	c #ADA19D",
"S.	c #978D93",
"T.	c #161100",
"U.	c #332E24",
"V.	c #2C3125",
"W.	c #866C75",
"X.	c #161B01",
"Y.	c #3C3433",
"Z.	c #242301",
"`.	c #353114",
" +	c #1C1500",
".+	c #332603",
"++	c #120C00",
"@+	c #352A03",
"#+	c #857A73",
"$+	c #BB8B84",
"%+	c #A27E81",
"&+	c #BA8474",
"*+	c #D9B6A7",
"=+	c #433534",
"-+	c #D5B6AC",
";+	c #342B14",
">+	c #CC9C9B",
",+	c #43352B",
"'+	c #64544A",
")+	c #B58C8C",
"!+	c #CC894B",
"~+	c #D49457",
"{+	c #E4D3CD",
"]+	c #C2B7C1",
"^+	c #4E4952",
"/+	c #AC6F4A",
"(+	c #DAAA86",
"_+	c #DDA779",
":+	c #B19CA2",
"<+	c #34311C",
"[+	c #D6AD99",
"}+	c #E3CFC8",
"|+	c #1B2102",
"1+	c #BBB9C6",
"2+	c #8E8077",
"3+	c #5F605B",
"4+	c #D1A89A",
"5+	c #D7C3BE",
"6+	c #272914",
"7+	c #D19D8A",
"8+	c #D99C66",
"9+	c #221C00",
"0+	c #DBC3BA",
"a+	c #B0A7AB",
"b+	c #B5AEBB",
"c+	c #2D3232",
"d+	c #2A2B1C",
"e+	c #242302",
"f+	c #948C8B",
"g+	c #B99EA1",
"h+	c #8D8B94",
"i+	c #B87648",
"j+	c #110C00",
"k+	c #332C1B",
"l+	c #2C3232",
"m+	c #342A04",
"n+	c #BBB5B7",
"o+	c #AEA9B4",
"p+	c #D2C4C6",
"q+	c #C5BFC4",
"r+	c #342B0C",
"s+	c #8F7375",
"t+	c #937F8B",
"u+	c #322602",
"v+	c #AC796C",
"w+	c #D2C0BE",
"x+	c #C49894",
"y+	c #E1BFA9",
"z+	c #252302",
"A+	c #CDBFC2",
"B+	c #E1B694",
"C+	c #D8C5C3",
"D+	c #DCB399",
"E+	c #E9E1DF",
"F+	c #BC948B",
"G+	c #9FA09C",
"H+	c #BFC0BA",
"                                                                                                    ",
"                                                                                                    ",
"                                                                                                    ",
"                                                                                                    ",
"                                                                                                    ",
"                                              (+8+R s _+7+                                          ",
"                                          (+~+R O 5.x v v v /+p                                     ",
"                                        _+s.C x ).).Y ^ { g { @.                                    ",
"                                      (+!+z x Y Y Y ~ g g g Y x k                                   ",
"                                    (+s.5.).).Y Y Y ^ { ^ ~ Y {                                     ",
"                                    K x Y ~ ^ g g ^ { g g g x 7                                     ",
"                                  F+v ^ ~ ~ g g q.j ( A.$+$+b ..                                    ",
"                                  :.x ~ ^ g g e 7 w q : o ` ` o                                     ",
"                                  | ).~ g g g q.b w q ..o ` ` o                                     ",
"                                  k ^ ~ Y g e G v+|.c x+w.o o `                                     ",
"                                  @.^ ~ Y ^ g G | &+|.0.j.w q ..                                    ",
"                                  A ^ ^ Y Y { j $.&+r w $+$+c $+..                                  ",
"                                  } x k k q.{ 7 $.n q q d ..d ..                                    ",
"                                  r @.n n p k | A.&+c x+>+o V q                                     ",
"                                    @.n n A.| | | p A.n.: w.0.c w.                                  ",
"                                    v+@.n n | P | | A.c : : x+q                                     ",
"                                    d @.| p | P | $.|.c V V : a.                                    ",
"                                      w | | | | | $.&+n q |.c ..                                    ",
"                                      x+!.| | | k P $.|.q : : o                                     ",
"                                    -+V | s | s P k P $.c V w.                                      ",
"                                  i 4+n | | | s | k k k &+w q                                       ",
"                                  G j.v+| | !.!.| | | w X                                           ",
"                              B e > 0 y | !.$.|.&+|.q d i J J                                       ",
"                          B G g 3 < 8 K.r | $.c 0.0.0.F+<.t 0 H u u                                 ",
"                      )+G ~ 3 [.< < ) a+b.!.$.|.0.0.c )+M h.2 2 #+[ {.e                             ",
"                  B J {.[.,+[.r.< , , i.b+B $.0.$+c r i 6 S.S S f 2+& # & 9                         ",
"              u O.{.> [.,+r.,+v._ F.l S o+b+j.0.d |.( U 6 /.f 2 f #+& # # ] )                       ",
"          b.s+g 3 Q ,+Q r.Y./ r.Y.7.,.h.I M b+d x+v+)+M 6 h+8 8 #+#+] # # ] ] 1                     ",
"        i.) 3 < 7./ _ Y.Y._ / v.Y.$ F.1 I M 6 M b.b.b+6 o+(.8 8 2 2 ] # # # ] t.                    ",
"        S [./ / Q / _ Y.p._ % v.Y.% 7.# I b+o+D u D I o+S.' 1 [ S 1 # # # # v.&                     ",
"        ) < / / / ~.7./ _ k+Y.J.J.J.$ F.) i.D f+0 f+2+2 ) ) [ S 0 t.# # # # r.#                     ",
"      E > , F./ x.x.r+r+h . / J.J.J.= $ _ ' 0 f f h.S 1 ) # ) f+h.# # # v.v.=+# S                   ",
"      1 < , F.r+D.D.h 4.z+z+~.J.! ! H.% $ t.f i.i.f+=.f+t.# t.f.i.# v.J.Y.v.Y.# #+                  ",
"      *., C.m++.h . . h . N.. p.H.J.H.% $ # T u u f.T f ) J.1 G+S.] Y.Y.v._ _ #                     ",
"    /.^+, r+. . . z+z+P.z+N. .$ = = H.= $ % 1 i.f S 1 '+# Y.S I f+# p.p.J.p.= v.                    ",
"    i.^+r+m++.. Z.e+ .Z.Z.Z.+ 4.p.= = = % $ t.h.f E i.2 ) v.S K.=.# J.= J.= m._                     ",
"    S # x.D.D.D.z+ . .Z.Z.e+ .+ $ = = c+= c+^+f.f.f.=.S & ! ' T F # J.p.p.= % Y.                    ",
"    ) [.x.. . . . z+ .Z. .Z. .B.~.= = = = c+J.h.E S ' ) _ H.# [ ) Y.p.= $ U.d.v.                    ",
"  f.& < x.h N.N.e+e+Z.Z. . . .&.Q.c+= = = c+= 3+h.S 1 [ # J.# [ # = = % $ U.$ r.                    ",
"  f ,+/ x.. . e+ . . . . . . . .&.d.= H.= = = ' u =.f 8 # J.# 1 # H.% L.d.4.'.v.                    ",
"  [ , F.+.. e+ . . .|+ . . . . .B.Q.% = c+c+c+# f 8 t.& / J.# [ # = m.U.5 . d._ '                   ",
"  ) l m+m+D.h  . .|+B.|+|+|+|+ .&.B.d+% - - - = ' ' ' t._ = # [ v.= L.L.'.h 5 a t.                  ",
"  # ,.r+D.D.. e+B.B.B.B.B. .|+|+B.z. +'.c+- - = h.f 8 ' % = # [ v.= L.- 5 * 4.U.r.                  ",
"  =++.r+D.. e+ . .B. +z.B.|+|+|+B.T.G. .- - '.- t.[ t.& $ c+# [ Y.- V.'.* Q.5 d+~.'                 ",
"  =+. . . . z+z+ .B.z.z.z.B.|+|+B.T.G.T.* - - % ) e m 9 _ c+# ' Y.- '.d+Q.Q.* Q.4.s+_.              ",
"  ] x.. e+e+ .B.B.z.G.G.T. +B.B.B.T.T.T.X.5 ) c.} } j 9 r.p.# ' p.L.'.4. . .Q.e++.].y b j.%.m %.    ",
"  ^+k+z+ . .|+B.z. +B.z.G.z.B.B.B.z.X.|+;+e m 7 j j m %.O.& # ' _ L.5 * B. .&.z.. ~ q.k k j 7 B u   ",
"  v.z+Q. . .e+ .B.B.B.B.B.B.B.Q.B.B.B.+ g } 7 7 7 7 b y G # # ' _ '.6+Q. + +z.G.. ~ q.A } q.} B K.n+",
"3++.D.P.z+Q. .e+|+ .Q.B.B. .B.Q.B.B.B.;+G j 7 ( 7 7 v+r G ,+# ' _ d+* &. +G.G. +D.~ A A } } m B R._.",
") m+D.. .  .|+ . . .* B. .B.B.|+B.B.B., } j 7 | ( ( v+b {.d.# t.4.Q.B.z.T.++G. ++ ~ v } j 7 y R.U   ",
"*.+.. . Z.B. . .|+|+ .B.|+B.B.B.B.B.B.;+q.} j k 7 ( b m ,+c+& t.. &.z.G. +G.G. +z+@ g A j 7 B K.<.  ",
"  / . . Z. .e+ . . . .B.B.B.&.B.|+B.B.D.{ q.} /+7 7 b e 7.% & t.z+ +&.& . z.G. +. . @ { } v+R.U     ",
"  ) ;+N.. z+Z. .&. .B. +B.B.&.B.B.B. +D.~ { A @.j 7 ( 3 r+d.& t.. ) &   {.+ z.T.+ r+. D.3 J K.      ",
"    v.D.. z+Z.Z.&.&. +B.&.&.+ &.B.B.B.+ r+Y g g g g > . h V.& t., j g     [.< . + N., Q )           ",
"    t & r+. z+N.Z. . .Z.e+Z.&.B. .h  .B.z.z.E.. r+h  +T.* '.& t.z+. + {.                            ",
"          & & / h . +  .+ 9+&., ) '+~.B.B.T.T.e+6+6+&.T.Q.'.& t.N. + +&                             ",
"              t ) Z &.B. + + +, 3 ,  +X.z.++G. .d+'.&.z.Q.; & t..  +9+/                             ",
"              t.t.4.&.z. +z.G.G.G.G.G.G.G.G.G.&.; '.$ Z Q.V.& t.h 9+Q.$                             ",
"              t ^+5  .&.&.z.z.T.z.z.z.G.T.G.G.X.* d.& Q * - & t.4.e+'.= '+                          ",
"              (.] 4.Z.&.&.&.B.B.B.B. + +z.G.G.z.Q.$ ) r.Q.'.& t.k+6+- 4 &                           ",
"            f.t v.+.e++ + &.&. +&.B. +z.T.T.G.G.Q._ ) # z+d+& t.k+5 c+- &                           ",
"            f+*./ D.e++ + + + &.B. +z. +T.T.G.++Q.p.) & Q.6+& t.$ - c+- _                           ",
"            L ] , . Z.+ + + + B. + +z.z.T.G.T.G.B.# t.) h '.) t.& % c+4 %                           ",
"            h.v.x.. z++ + + &.&. + + +T.z.T.T.G.z.# 3+) '.'.) '+) / - c+= '                         ",
"            t Y.r+. . Z.+ &.&.&.&.+  + + +T.G.++T.# 3+3+= - ) t._ - - - a t.                        ",
"            t / r+P.. N.+ + + &.. z+E. +z. +z.G.G.) (.t J.m.) t.m.c+4 c+a )                         ",
"            *.d.;+D.D.N.+ + Z.&.&.&.&. + + + +T.T.t.f [ ) % ) t.% m.a a a #                         ",
"            ^+7.r+. . N.+ + + +  .&.&.E. + + +T. +' 0 1 *._ ) ) = m.m.= c+H.                        ",
"          E ] ;+r+P.z+z++ N.N.Z.9+&.E.E.E. +z.z. +' f+f t & '+) = c+a c+a J.t.                      ",
"          I.] r+D.D.. z+e+z+e+e+e++ + + &.&.&. +B.[ S.i.S '+t.) = a a a a J.t.                      ",
"                                                                                                    ",
"                                                                                                    ",
"                                                                                                    ",
"                                                                                                    ",
"                                                                                                    ",
"                                                                                                    "};
