/* XPM */
static char * rick_21_xpm[] = {
"50 81 257 2",
"  	c #FF000000",
". 	c #2B2402",
"+ 	c #221C01",
"@ 	c #442F0C",
"# 	c #433B35",
"$ 	c #343225",
"% 	c #34322B",
"& 	c #524434",
"* 	c #262613",
"= 	c #353333",
"- 	c #2C312B",
"; 	c #2A2D24",
"> 	c #563926",
", 	c #3B3113",
"' 	c #6C6255",
") 	c #5B4C44",
"! 	c #37383B",
"~ 	c #623E2B",
"{ 	c #875737",
"] 	c #523A45",
"^ 	c #75460D",
"/ 	c #3B3324",
"( 	c #A9766A",
"_ 	c #3B332C",
": 	c #CB9A95",
"< 	c #443423",
"[ 	c #74695D",
"} 	c #96654C",
"| 	c #B4796B",
"1 	c #756C63",
"2 	c #83756C",
"3 	c #543622",
"4 	c #2C3132",
"5 	c #2B2B1C",
"6 	c #B6B0C6",
"7 	c #A46C63",
"8 	c #7C7067",
"9 	c #675649",
"0 	c #8D827C",
"a 	c #332D32",
"b 	c #AB7A74",
"c 	c #C38C83",
"d 	c #BC938B",
"e 	c #775847",
"f 	c #857A74",
"g 	c #704F36",
"h 	c #2B260B",
"i 	c #B89896",
"j 	c #996956",
"k 	c #AC725C",
"l 	c #3B310B",
"m 	c #997467",
"n 	c #C48B78",
"o 	c #CC9FA2",
"p 	c #BB826A",
"q 	c #C4948A",
"r 	c #B37C78",
"s 	c #BC7C5C",
"t 	c #6B5964",
"u 	c #A59998",
"v 	c #955928",
"w 	c #B8867B",
"x 	c #8B5115",
"y 	c #A7817A",
"z 	c #B66E27",
"A 	c #9A6139",
"B 	c #AA8985",
"C 	c #A15C1A",
"D 	c #9B98A2",
"E 	c #897C84",
"F 	c #96837D",
"G 	c #8A6556",
"H 	c #A5928D",
"I 	c #A59CA4",
"J 	c #866B65",
"K 	c #CE936F",
"L 	c #7E7A82",
"M 	c #B5AEC1",
"N 	c #C8823E",
"O 	c #C37B38",
"P 	c #B4765A",
"Q 	c #433424",
"R 	c #C17D4E",
"S 	c #7C726B",
"T 	c #9C928D",
"U 	c #B4ACB2",
"V 	c #C9968B",
"W 	c #E0BA9F",
"X 	c #CAAAA9",
"Y 	c #74450D",
"Z 	c #2A2613",
"` 	c #CCA1A5",
" .	c #1C2102",
"..	c #C49995",
"+.	c #342B0B",
"@.	c #A56B4A",
"#.	c #CAB9B8",
"$.	c #B97C73",
"%.	c #987976",
"&.	c #1D1B01",
"*.	c #5E4D60",
"=.	c #958C8B",
"-.	c #3B3105",
";.	c #43310B",
">.	c #3A2D05",
",.	c #35310C",
"'.	c #2B2D24",
").	c #824C0F",
"!.	c #B97B73",
"~.	c #332D1B",
"{.	c #613E2D",
"].	c #775959",
"^.	c #D6A991",
"/.	c #A8A5AA",
"(.	c #6E6A73",
"_.	c #B8A8A9",
":.	c #C28E87",
"<.	c #B7B1B5",
"[.	c #443424",
"}.	c #D19D95",
"|.	c #BB857A",
"1.	c #D6C9C9",
"2.	c #CDB4B1",
"3.	c #DEC2B5",
"4.	c #2B2A14",
"5.	c #AB6523",
"6.	c #DDA16E",
"7.	c #35311C",
"8.	c #BBB2C2",
"9.	c #332602",
"0.	c #BC8B84",
"a.	c #C59DA0",
"b.	c #AB8E91",
"c.	c #7B675A",
"d.	c #332E23",
"e.	c #3A2C05",
"f.	c #9A9498",
"g.	c #2B2B14",
"h.	c #7B7378",
"i.	c #8C8586",
"j.	c #B48983",
"k.	c #D09FA1",
"l.	c #835F64",
"m.	c #332E2C",
"n.	c #C89487",
"o.	c #B26D67",
"p.	c #3B3433",
"q.	c #8F613D",
"r.	c #43352C",
"s.	c #D08E52",
"t.	c #64544B",
"u.	c #927A83",
"v.	c #433634",
"w.	c #CB9C9B",
"x.	c #332B14",
"y.	c #C9BCBF",
"z.	c #161200",
"A.	c #BA8473",
"B.	c #1C1B01",
"C.	c #352A04",
"D.	c #322603",
"E.	c #1D1500",
"F.	c #363114",
"G.	c #120D00",
"H.	c #363639",
"I.	c #84848A",
"J.	c #3B3434",
"K.	c #B2A5A3",
"L.	c #2C3126",
"M.	c #392D05",
"N.	c #252301",
"O.	c #8D6C6C",
"P.	c #2C2A05",
"Q.	c #25250B",
"R.	c #ADA19D",
"S.	c #978D93",
"T.	c #161100",
"U.	c #332E24",
"V.	c #2C3125",
"W.	c #866C75",
"X.	c #161B01",
"Y.	c #3C3433",
"Z.	c #242301",
"`.	c #353114",
" +	c #1C1500",
".+	c #332603",
"++	c #120C00",
"@+	c #352A03",
"#+	c #857A73",
"$+	c #BB8B84",
"%+	c #A27E81",
"&+	c #BA8474",
"*+	c #D9B6A7",
"=+	c #433534",
"-+	c #D5B6AC",
";+	c #342B14",
">+	c #CC9C9B",
",+	c #43352B",
"'+	c #64544A",
")+	c #B58C8C",
"!+	c #CC894B",
"~+	c #D49457",
"{+	c #E4D3CD",
"]+	c #C2B7C1",
"^+	c #4E4952",
"/+	c #AC6F4A",
"(+	c #DAAA86",
"_+	c #DDA779",
":+	c #B19CA2",
"<+	c #34311C",
"[+	c #D6AD99",
"}+	c #E3CFC8",
"|+	c #1B2102",
"1+	c #BBB9C6",
"2+	c #8E8077",
"3+	c #5F605B",
"4+	c #D1A89A",
"5+	c #D7C3BE",
"6+	c #272914",
"7+	c #D19D8A",
"8+	c #D99C66",
"9+	c #221C00",
"0+	c #DBC3BA",
"a+	c #B0A7AB",
"b+	c #B5AEBB",
"c+	c #2D3232",
"d+	c #2A2B1C",
"e+	c #242302",
"f+	c #948C8B",
"g+	c #B99EA1",
"h+	c #8D8B94",
"i+	c #B87648",
"j+	c #110C00",
"k+	c #332C1B",
"l+	c #2C3232",
"m+	c #342A04",
"n+	c #BBB5B7",
"o+	c #AEA9B4",
"p+	c #D2C4C6",
"q+	c #C5BFC4",
"r+	c #342B0C",
"s+	c #8F7375",
"t+	c #937F8B",
"u+	c #322602",
"v+	c #AC796C",
"w+	c #D2C0BE",
"x+	c #C49894",
"y+	c #E1BFA9",
"z+	c #252302",
"A+	c #CDBFC2",
"B+	c #E1B694",
"C+	c #D8C5C3",
"D+	c #DCB399",
"E+	c #E9E1DF",
"F+	c #BC948B",
"G+	c #9FA09C",
"H+	c #BFC0BA",
"                                                                                                    ",
"                                            _+_+(+_+_+D+                                            ",
"                                        ~+~+!+s.O z O O R V                                         ",
"                                      8+!+O 5.C C v v v A @.s                                       ",
"                                    7+5.C v x x x v q.{ { A @.P                                     ",
"                                    6.O x ).).).^ { { ^ ^ v A @.                                    ",
"                                  _+~+O x ^ ^ ^ Y ^ ^ ^ x { { v k                                   ",
"                                _+N z C x ).^ ^ ^ ^ { q.} j q.{ m                                   ",
"                                ~+O 5.C v q.} j j j b 0.q x+w q.j                                   ",
"                                _+5.v @.| &+|.q q x+w.>+>+>+x+( }                                   ",
"                                n C q.| &+|.c q x+: : >+>+o ..w j                                   ",
"                                n v } r |.&+|.c V x+: w.o o o $+j                                   ",
"                                V A } r |.A.&+n q : : : o o w.q m                                   ",
"                                  A } | &+| k v+A.c q c $+j.)+:.y                                   ",
"                                  v+@.$.( k ( | k | c c ( w d d )+                                  ",
"                                  w @.| | k j v+| k c x+j.j.d ..:.                                  ",
"                                [+K k &+A.A.w w | $.c : w.w.w.w.w.                                  ",
"                                7+~+s $.$.A.|.&+| $.0.V o o o ....                                  ",
"                                4+8+K | | p | $.$.| |.q : >+w...X                                   ",
"                                  7+K | s | p p | k p :.: : : w.                                    ",
"                                    c p | p p p p A.n.: >+: w.                                      ",
"                                      : |.| | | k | |.c c d x+                                      ",
"                                      ..0.| | | k | n V : x+..                                      ",
"                                        |.| | | p p c V : x+a.                                      ",
"                                        | k P | | A.:.x+V F+a.  u u S.f./.                          ",
"                                      w.!.P /+k k P &+|.:.:.a.g+%+#+#+#+R.                          ",
"                                    i : | P k k j k v+w 0.0.F+H 2 2 #+0 _.                          ",
"                                  %+j :.| P k k k ( b $+$+:.j._.f 2 #+0 K.                          ",
"                                y g {.B ( k k | k k r 0.$+:.j.2.#+8 2 2+0 c.O.B                     ",
"                            B j {.3 > =.y ( v+| ( ( !.|.0.|.)+<.f 8 8 f f & > & 9 c.                ",
"                          G {.> < , < 0 a+y v+| | | $.w $+( i b+f 8 8 #+2 & v.v.v.v.& c.            ",
"                      %.g 3 < @ < , < [ U I b !.w r $.|.r ( _.b+h.8 S 0 1 # v.v.v.v.v.# & '         ",
"                  %.e {.> [.< , , , , ) I M b.r |.$+|.r j B b+M S.1 8 #+) v.Y.v.v.v.v.v.v.& [       ",
"              %+G {.3 < < Q / , , l l & f.M M b.w q w 7 m K.M 6 o+0 =.1 # r./ r.# # # # # ] '+      ",
"            m g > [.< Q / _ 7.F.F.F.M.'+f./.6 M i :.v+7 b.b+6 6 i.0 S.t # v.v.v.v.v.# ] # ] &       ",
"        %.e {.< / / / _ _ / / 7.;+;++.& T /.M 6 M :+b b.o+6 6 D t.T I (.# Y.v.Y.v.v.v.# v.v.# [     ",
"      h.& < , , F.7.7.7./ $ / _ <+r+D., f+/.b+M b+/.u u /.M M (.) f.I t # _ Y.Y.v.J.v.v.v.Y.v.'+    ",
"      t ,+, 7., l ,.F.7.$ d.$ $ ~.+.D.m+[ f+S.i.S 1 S 2 1 8 1 # ) u K.t v.p.Y.v.v.v.Y.Y.= _ ,+'     ",
"      t.r.7.F.F.C.+.`.7.p.= % _ ~.4.4.Z h / ' =.T S.f+=.S.f.h.& ) K.a+3+v.H.p.v.J.v.Y.p._ Y./ '     ",
"      ] / 7.`.C.D.D.+.h _ ! H.% % $ V.4.4.<+'+f =.S.i.E i.0 ' r.& F u t.# J.% Y._ p.J.p.$ _ p.t.    ",
"    L ] , +.m+.+.+D.P.z+$ H.H.= % _ U.5 4.~.# ' 1 f h.h.h.S t.v.Y.t.2 ] J.p.% _ / _ p.% $ $ _ t.    ",
"    (.v.F.m+. . D.P.P.. x.J.H.= - % U.'.5 5 p.f T u I D f.i.' r.p.t.' # = = % % % _ p.% $ <+,+t.    ",
"    (.< C.D.D.D.. h . . e+% H.= L.d.V.'.d+5 L.) ' [ [ [ t ) & ,+p.t.' # = = % $ % % $ d.k+~._ )     ",
"    ) @ m+.+D.. z+. . z+ .d.H.= L.'.'.L.'.5 d.) =.f.u G+D 0 [ v.J.t.' J.H.% % U.d.= % d.x.d.$ &     ",
"    ] l m+D.. . z+e+. .  .* H.H.- ~.5 '.'.5 g.$ t.1 1 (.t ) r.,+J.t.' J.= % % ~.d.% $ k+4.$ / #     ",
"    ] , m+D.. z+e+ .e+. e+ .U.= % V.5 5 5 d+d+U.t i.=.S.E f ' J.H.t.' _ % % % '.$ $ d.. 4.~.$ r.    ",
"    v.r+m+. z+z+Z. . .e+e+&.5 = = - L.'.d+d+d+'.# 1 L h.t '+,+% # [ ' Y.= m.L.5 $ $ k+. ~.d.$ _ '   ",
"  W.,+.+. . e+e+ .e+&.e+ . .e+% = 4 L.'.6+6+d+L.Y.1 f h.8 1 ) % # ].2 ].t.] _ 7.U.d.Z h 4.5 % / '   ",
"  h.,+D.. . z+N.e+e+ . . . . +5 = % L.'.d+; '.- = 1 i.h.S ' # # t.J %.y )+)+B m & 7.Q.z+k+$ = % t.  ",
"  t < . D.D.. z+Z.e+&. . . .z.Q.% - '.; ; ; '.L.4 & ' t.' '+& ].( O.s+b r j.j.$+J Q z+h ~.$ % p.3+  ",
"  *./ D.D.. . z+e+e+&. . . .B.z.5 - L.d+d+; d+; '.) 2 S S t.& g } J s+y $+)+)+j.m < z+Z d.V.% Y.1   ",
"  *./ m+D.P.z+e+Q. . + . . .B.z.6+c+- ; 6+Q. . .Q.g.# & & # & } j J J ( r r j.$+w {.D.Z ~.d.= #     ",
"  *./ D.. . Q.e+ .|+z.B.&. .B.B.B.- 4 L.d+Q.|+|+ .. ' S 1 '+& { j O.s+y $+)+$+)+y 3 r+d+L.% = )     ",
"  ) l D.. . h e+ .B.z. . . .B.B.T.* c+L.Q. .|+ . . ./ & r./ r+> g c.J j v+b w j.( 3 4.Q.d.% % &     ",
"  ] r+m+m+P.z+ .B.|+X.B. . .B.B. +B.d+d+|+|+B.|+ . .# 1 1 9 & &.+ ' O.( w d $+0.G [.% L.d.h r+D.&   ",
"  ] d.r+D.P.e+ .B.B.X. . . .B.B.B.T.Q.'.d+ . . . .|+Z ) ) # ~.&.&.' ) 3 { 7 &+r e / c+m.% 5 x.h D.& ",
"  ] $ x.h Q.e+ . .B.z.B.B.B.|+|+B.T.B.5 '.Q. .|+B.|+Q.) ' '+r.+ + 9 & + < x A 7 {._ m.% m.'.h D.x.& ",
"  # ~.r+. e+e+Z. . +G.X.B.B.B.B.X.T.G.Q.d+*  .|+|+|+&.) 9 t.& h + 9 & + D.g q.{ @ $ m.% % m.4.r+/ t.",
"(.=+h + + &.z.X.B.z.G.z.B.&.&.B.z.z.G.B.Z d+Q.B.B.B. +7.& & , + e+9 & + + D.@ D.z+d.L.m.m.a '.~.'   ",
"h.U.z+ . .+  .B.X.T.G. +B.B.B.B. +T.G.G. .d+* B.B.B. +7.) ) & r+x.' # + Q.x.h &.7.) J.$ % a a t.    ",
"t / z+Z.e+B.B.|+B. +G.T.&.B. + +T.T.G.++z.Q.6+*  .B. +,+' & < h d.' # + e+Q , &.x.) # % m.% v.      ",
"h.v.D.z++  . .B.z.z.G.G.T.B.z.z.z.z.T.G.G.B.d+; ; 6+&.Q.& & & 7.d.' # E.+ + P.. D.r+U.% U.$ )       ",
"t v.D.+ + Z.B. . .B. +G.++G.z. +B. +z.T.G.z.Q.'.- 4 Q.Z ' t.& # 7.' #  +T.&.z+D.r+4.k+k+7.#         ",
"t Y.e+Q.Q.Z.e+z+Q.d+Q.z.G.G.G.G. +z.z.z.T.G. .d+'.- Q.&.& '+& , , ' #  +G.z.+ D.~.$ #               ",
"  ^++.x.e+z+e+e+* * Q.Q.B.G.++G.T.z.z.T.T.G.z.Q.'.- * z.,+> < , , ' & + G.r++ + ~.]                 ",
"  ) ;+r++..  .e+Z.e+7.& ] d. +T.T.T. +T.T.T.++ .L.- *  +& t.) & < ' & 5 &.h + '                     ",
"  *./ C.C.. e+Z.. 9 b b b l.,  +T.G.T.T. +T.G.G.6+- d+z.. . + z+[.' & U.6+4.5 '+                    ",
"  t v., +.. z+z+& y n $.r b & + T.z+G.G.G.z.G.G.B.5 6+ +;++ D.. & ' & % 4 4 c+#                     ",
"    *.r.x.D.. < m v+j o.!.b ].+. +h z.++G.G.G.G.z.Q.d+z.. + 3 @ & ' & % c+4 c+=                     ",
"      ^+d.D., J c n | | r j.O.3 &. +T.T.G.G.G.G.G.&.* z.Z / < < '+' # % c+4 c+a t.                  ",
"        *./ ) y n n.|.|.$+$+y & + E. +T.T.G.T.G.G.T.e+B.r.S 1 ' ' ' # % c+4 c+c+r.[                 ",
"          t t.b A.p p A.&+|.b {.z+&.E. +z.G.z.G.G.G.&. +Q f f 1 ' [ r.~.- - c+c+$ t.                ",
"            ) e } k k | w j.( e . E.E. +T.T.z.T.G.++G.z./ #+f 8 [ [ & +.5 L.- 4 - t.                ",
"            ] & { j k r j.j.%.]..+E. + +z. +T.G.G.G.G.G.k+2 f S 1 1 9 , 4.'.m.a m.#                 ",
"            ] ,+& e j v+r r m g D.E.E.E. + + +T.T.G.G.T.h 2 0 h.(.1 ' > ;+% a c+a =                 ",
"            # , r.& g } 7 7 q.@ + &.+ E. + +z.T.T.G.G.G.. 2 I.L (.1 [ ) 7.= ^+# a m.t.              ",
"            v.+.& ' 3 3 ~ ~ @ . &.E.E.E. + + + +z.G.G.G.+ 1 L L h.1 [ t.r.p.) ) = a )               ",
"            v.F.m+e.e.D.z++ +  + +E.z. + +z. +z.z.z. +T. +[ L I.h.1 1 9 ) Y.p._ a c+Y.f+            ",
"            # , m+. . N.z++ +  + +h + +  +T.z. +T. +T.G. +[ I.I.L 1 1 ' '+# = = = a = [             ",
"            v.F.+.D.D.P.h z++ + + < + +  +B. +&.&.E. +z.+ 8 h+f+E S 1 [ 9 ) v.p.J.= J.t.            ",
"                                                                                                    "};
