/* XPM */
static char * rick_15_xpm[] = {
"50 81 257 2",
"  	c #FF000000",
". 	c #2B2402",
"+ 	c #221C01",
"@ 	c #442F0C",
"# 	c #433B35",
"$ 	c #343225",
"% 	c #34322B",
"& 	c #524434",
"* 	c #262613",
"= 	c #353333",
"- 	c #2C312B",
"; 	c #2A2D24",
"> 	c #563926",
", 	c #3B3113",
"' 	c #6C6255",
") 	c #5B4C44",
"! 	c #37383B",
"~ 	c #623E2B",
"{ 	c #875737",
"] 	c #523A45",
"^ 	c #75460D",
"/ 	c #3B3324",
"( 	c #A9766A",
"_ 	c #3B332C",
": 	c #CB9A95",
"< 	c #443423",
"[ 	c #74695D",
"} 	c #96654C",
"| 	c #B4796B",
"1 	c #756C63",
"2 	c #83756C",
"3 	c #543622",
"4 	c #2C3132",
"5 	c #2B2B1C",
"6 	c #B6B0C6",
"7 	c #A46C63",
"8 	c #7C7067",
"9 	c #675649",
"0 	c #8D827C",
"a 	c #332D32",
"b 	c #AB7A74",
"c 	c #C38C83",
"d 	c #BC938B",
"e 	c #775847",
"f 	c #857A74",
"g 	c #704F36",
"h 	c #2B260B",
"i 	c #B89896",
"j 	c #996956",
"k 	c #AC725C",
"l 	c #3B310B",
"m 	c #997467",
"n 	c #C48B78",
"o 	c #CC9FA2",
"p 	c #BB826A",
"q 	c #C4948A",
"r 	c #B37C78",
"s 	c #BC7C5C",
"t 	c #6B5964",
"u 	c #A59998",
"v 	c #955928",
"w 	c #B8867B",
"x 	c #8B5115",
"y 	c #A7817A",
"z 	c #B66E27",
"A 	c #9A6139",
"B 	c #AA8985",
"C 	c #A15C1A",
"D 	c #9B98A2",
"E 	c #897C84",
"F 	c #96837D",
"G 	c #8A6556",
"H 	c #A5928D",
"I 	c #A59CA4",
"J 	c #866B65",
"K 	c #CE936F",
"L 	c #7E7A82",
"M 	c #B5AEC1",
"N 	c #C8823E",
"O 	c #C37B38",
"P 	c #B4765A",
"Q 	c #433424",
"R 	c #C17D4E",
"S 	c #7C726B",
"T 	c #9C928D",
"U 	c #B4ACB2",
"V 	c #C9968B",
"W 	c #E0BA9F",
"X 	c #CAAAA9",
"Y 	c #74450D",
"Z 	c #2A2613",
"` 	c #CCA1A5",
" .	c #1C2102",
"..	c #C49995",
"+.	c #342B0B",
"@.	c #A56B4A",
"#.	c #CAB9B8",
"$.	c #B97C73",
"%.	c #987976",
"&.	c #1D1B01",
"*.	c #5E4D60",
"=.	c #958C8B",
"-.	c #3B3105",
";.	c #43310B",
">.	c #3A2D05",
",.	c #35310C",
"'.	c #2B2D24",
").	c #824C0F",
"!.	c #B97B73",
"~.	c #332D1B",
"{.	c #613E2D",
"].	c #775959",
"^.	c #D6A991",
"/.	c #A8A5AA",
"(.	c #6E6A73",
"_.	c #B8A8A9",
":.	c #C28E87",
"<.	c #B7B1B5",
"[.	c #443424",
"}.	c #D19D95",
"|.	c #BB857A",
"1.	c #D6C9C9",
"2.	c #CDB4B1",
"3.	c #DEC2B5",
"4.	c #2B2A14",
"5.	c #AB6523",
"6.	c #DDA16E",
"7.	c #35311C",
"8.	c #BBB2C2",
"9.	c #332602",
"0.	c #BC8B84",
"a.	c #C59DA0",
"b.	c #AB8E91",
"c.	c #7B675A",
"d.	c #332E23",
"e.	c #3A2C05",
"f.	c #9A9498",
"g.	c #2B2B14",
"h.	c #7B7378",
"i.	c #8C8586",
"j.	c #B48983",
"k.	c #D09FA1",
"l.	c #835F64",
"m.	c #332E2C",
"n.	c #C89487",
"o.	c #B26D67",
"p.	c #3B3433",
"q.	c #8F613D",
"r.	c #43352C",
"s.	c #D08E52",
"t.	c #64544B",
"u.	c #927A83",
"v.	c #433634",
"w.	c #CB9C9B",
"x.	c #332B14",
"y.	c #C9BCBF",
"z.	c #161200",
"A.	c #BA8473",
"B.	c #1C1B01",
"C.	c #352A04",
"D.	c #322603",
"E.	c #1D1500",
"F.	c #363114",
"G.	c #120D00",
"H.	c #363639",
"I.	c #84848A",
"J.	c #3B3434",
"K.	c #B2A5A3",
"L.	c #2C3126",
"M.	c #392D05",
"N.	c #252301",
"O.	c #8D6C6C",
"P.	c #2C2A05",
"Q.	c #25250B",
"R.	c #ADA19D",
"S.	c #978D93",
"T.	c #161100",
"U.	c #332E24",
"V.	c #2C3125",
"W.	c #866C75",
"X.	c #161B01",
"Y.	c #3C3433",
"Z.	c #242301",
"`.	c #353114",
" +	c #1C1500",
".+	c #332603",
"++	c #120C00",
"@+	c #352A03",
"#+	c #857A73",
"$+	c #BB8B84",
"%+	c #A27E81",
"&+	c #BA8474",
"*+	c #D9B6A7",
"=+	c #433534",
"-+	c #D5B6AC",
";+	c #342B14",
">+	c #CC9C9B",
",+	c #43352B",
"'+	c #64544A",
")+	c #B58C8C",
"!+	c #CC894B",
"~+	c #D49457",
"{+	c #E4D3CD",
"]+	c #C2B7C1",
"^+	c #4E4952",
"/+	c #AC6F4A",
"(+	c #DAAA86",
"_+	c #DDA779",
":+	c #B19CA2",
"<+	c #34311C",
"[+	c #D6AD99",
"}+	c #E3CFC8",
"|+	c #1B2102",
"1+	c #BBB9C6",
"2+	c #8E8077",
"3+	c #5F605B",
"4+	c #D1A89A",
"5+	c #D7C3BE",
"6+	c #272914",
"7+	c #D19D8A",
"8+	c #D99C66",
"9+	c #221C00",
"0+	c #DBC3BA",
"a+	c #B0A7AB",
"b+	c #B5AEBB",
"c+	c #2D3232",
"d+	c #2A2B1C",
"e+	c #242302",
"f+	c #948C8B",
"g+	c #B99EA1",
"h+	c #8D8B94",
"i+	c #B87648",
"j+	c #110C00",
"k+	c #332C1B",
"l+	c #2C3232",
"m+	c #342A04",
"n+	c #BBB5B7",
"o+	c #AEA9B4",
"p+	c #D2C4C6",
"q+	c #C5BFC4",
"r+	c #342B0C",
"s+	c #8F7375",
"t+	c #937F8B",
"u+	c #322602",
"v+	c #AC796C",
"w+	c #D2C0BE",
"x+	c #C49894",
"y+	c #E1BFA9",
"z+	c #252302",
"A+	c #CDBFC2",
"B+	c #E1B694",
"C+	c #D8C5C3",
"D+	c #DCB399",
"E+	c #E9E1DF",
"F+	c #BC948B",
"G+	c #9FA09C",
"H+	c #BFC0BA",
"                                                  (+K 7+7+D+D+                                      ",
"                                              ^.8+s.z 5.i+i+s O s n V                               ",
"                                            (+~+O z v ).).).x ).A @.@.                              ",
"                                          ^.!+z O 5.).Y Y ).{ x { q.v v+                            ",
"                                        D+8+O C x ^ Y Y ^ g g ^ Y ^ x k                             ",
"                                      D+6.O z v ^ Y ^ Y g g ^ Y ^ g A :.                            ",
"                                      n 5.).g ).^ ^ ^ ^ ^ g g ^ ^ { v+                              ",
"                                      A ).^ ^ g g { { q.} 7 ( b ( b x+                              ",
"                                    b { ^ ^ Y g g q.7 w :.q }.` ` o o                               ",
"                                    |.v Y ~ g g { j | 0.d q w.` ` o o X                             ",
"                                    c A Y ~ g g { 7 | |.:.q w.o ` ` o `                             ",
"                                    n.v Y Y ^ g q.7 | $.c q x+w.o o o `                             ",
"                                    q { Y ^ ^ g { 7 | $.|.0.w w 0...d j.                            ",
"                                    w { g Y ^ g } ( !.| | |.:.j.&+q d F+                            ",
"                                    y { { x { { } | $.$.|.w j.d :.:.q i                             ",
"                                      @.k P @.q.j | A.|.q V w...:.|.V o                             ",
"                                      V p p p k | | $.A.c q : : :.|.c w.                            ",
"                                      ` K A.p $.| | | | &+n V V &+$.$.x+                            ",
"                                        n.n $.| P s s | p n n.: :.c n.w.                            ",
"                                        q p p | k s s | p n n.V n.V : ..                            ",
"                                          |.| | | | P s s &+n.|.&+|.c                               ",
"                                            w | | ( o.s | A.q V n.V w.                              ",
"                                            0.!.| k k P | | |.q V w.o                               ",
"                                          X :.| s P k k k o.| 0.q :                                 ",
"                                        X w.|.| | | o.k k @.k ( |.                                  ",
"                                        y F+| | P | | | P k | :.a.H                                 ",
"                                    g+O.g B v+| | | | | $.c V :.a.=.u u R.R.                        ",
"                                  g+G ~ 3 2+y | | !.$.!.$.|.c :.g+f #+2 #+c.e J                     ",
"                              g+%.e > @ < 8 K.y | | !.!.$.0.:.0.i f 2 2 F #+& ] & 9 J               ",
"                          _.y e > < < @ , '+K.i $.v+!.$.|.0.c b :+s+2 2 0 8 & v.# # & ) c.          ",
"                        )+G {.3 [.< < , l < T n+)+!.$.0.$+0.&+y :+2 8 2 0 1 ] # v.# ] ] ] c.        ",
"                    b.J g > ,+[.,+,+,+7., , 1 o+b+B $.0.:.0.( b.I S 8 S 0 1 ] v.# # # ] ] )         ",
"                g+%.g > ,+r.r.,+v.,+r./ F., 9 f.6 b+)+q q r b K./.2 8 8 0 [ ] # v.# # ] # & 0       ",
"              B G {.< Q _ ,+r.v.Y._ # _ 7.F.' f.o+6 M g+)+b i b+o+E S f i.t.# # v.# # # # # 1       ",
"            c.{.3 , / 7./ _ _ v._ / # v.$ ~.& f./.6 6 M u b.a+M M h+1 8 8 & # # v.# # # v.# t.      ",
"          [ & / / 7./ / / _ Y._ d.,+# v._ <+, 0 o+M M /.D I f+h.1 t 0 =.' # v.# # # # v.v.v.)       ",
"          *.,+/ Q / $ 7.7./ % Y.% Y.# # p.<+F.) f.I f.E E S.f.f.0 #+f+f+t.# # # # # # v.v.v.)       ",
"        E ] < , / $ ~.r++.x.g./ Y.v.J.J.J.% U./ ) 1 L L E E E (.' ' u I 3+# # J.v.v.v.v.Y.Y.)       ",
"        h.# , , 7.~.x.D.m++.. x.Y.J.J.J.! Y._ _ ] S.I I I I I f+0 0 I I t.# J.J.v.v.v.=+_ _ &       ",
"        t ,+, +.;+x.h P.P.P.. z+/ Y.J.J.! J.% $ _ ' h.h.h.h.L (.1 S /.K.t.# J.Y.Y.J.J.p._ _ &       ",
"        # l r+r+P.h P.P.. . . Z.r+= J.J.J.H.= % $ ' f.f.S.S.E S [ 1 _.K.t.v.J.Y.Y.Y.J.p._ = )       ",
"      h.v.+.r+P.. h h z+. P.. z+e+$ H.= J.H.H.= = & E i.f+S.i.0 0 2 F H ) v.J.p.Y.Y.J.p.% % &       ",
"      (.,+M.m+D.. N.z+Z.Z.e+. Z.&.5 H.= = H.H.= H.# S E h.h.' t.'+& 9 [ # p.= J.p.p.= % ~.d.r.      ",
"      *./ C.C.D.. z+Z. . .Z.z+Z.+ e+% = = = = = = H.h.f.D f.i.i.2+[ ' ' v.= = = p.= % d.x._ v.      ",
"      ] / +.D.D.. . Z. . .Z.N.e+ .B.5 = = = = = = H.^+(.S ' ' t.'+# ' ' p.= = = = % % 5 d._ v.t.    ",
"    t v.~.x.D.. . z+Z. . . .e+|+ .B.Q.% = = = = = H.^+f.D i.f 2 1 ) ' ' p.= p.= % % d.4.h $ r.t.    ",
"    t r.;+m+. z+Z.e+ .e+ . .e+ .|+|+B.5 = = = = = H.# (.2 1 1 1 ' ,+' 3+v.) G G ) v.~.N.r+_ v.'+    ",
"    ) < , P.. Z.Z. . . .|+ .e+ .|+|+|++ % = c+= = H.! L 0 1 ' ' ) ,+' t.9 O.y j.j.j.y J g v.v.[     ",
"    ] 7.r+D.z+ .e+e+ .|+ .|+ . .|+|+B.T.4.% = c+c+c+= 1 S f #+S ) $ ' 9 ].m b v+b w $+d y 9 v.)     ",
"  W.v.+.m+D.. e+ . .|+|+ .B. .|+|+|+|+z.+ % c+c+c+c+- ) ) ) ) ) x.P.' '+> g G ( j.$+d $+r e # # 8   ",
"  (.,+m+D.. z+e+e+ . .|+ +B.|+|+ .|+|+X.z.6+c+c+c+c+- ) 8 2 8 ' / . ' ' G j 7 ( b w j.$+0.( & r.'+  ",
"  *./ +.D.. Z.z+z+e+|+z.z.z. .|+ .|+B.z.G.&.% c+c+c+- / ) ' 1 ) . . ' 9 g q.j ( j.$+)+)+j.j 3 ;+,   ",
"  ] , x.D.. . z+e+|+B.B.B.B.|+B.B.B.B.z.G.z.d+c+c+c+4 / t.) & ,+z+z+9 '+g q.j 7 b r j.)+j.} > 7.7.) ",
"  ) l m+P.. . z+ .|+|+B.B.X.B.B.B.|+ +G.G.G. .- c+l+4 % ' 1 [ #  .e+9 & r+~ q.7 r 0.0.)+b e r.~.7.'+",
"  *./ . z+z+e+ . .|+B.B.z.z. +B.B.B.z.T.G.G. +5 c+4 c+L.& ) # Q.|+e+9 & +  +h 3 g } v+w 7 {._ k+,+  ",
"  (.r.D.N.Z.&.B.B.X.z.z.G.z.B.B.B.B.z.G.G.G.G.Q.- 4 l+% ) ' t.x.|+e+' &  +G. ++ @ ^ q.j { & p./ )   ",
"  (./ e+ .|+|+|+B.z.B.z.G.G.z.B.B.z.z.G.G.G.G.B.d+- 4 % t.' & e+B.Q.' & E.G.. + r+~ { { 3 _ % Y.    ",
"  ^+Z e+ .&. . .B.B.B.X.T.X.B.B.B. +z.T.z.+  + +d+l+l+L.,+r.Q z+ .h ' # &.T.. , F.+.@ D.P.U._ )     ",
"8 < +.. z+e+ . .B.B.B.B.B.B.B.B.B.z. +< {.g ~ +.4.- - % ' [ # 5 Q.h ' ,+E.G.&.;+,+z+ +z+& ) v.'     ",
"t., l . e++ e+e+ .e+6+Q.|+B. .|+ .z+{.} } { g . &.'.- - # / 4.d.'.7.' ,+E.G. +z+;+ + +D.& & )       ",
") , .+. &.B.e+ . .e+B.B.|+e+ .B.z+{.} } } { ~ . z.d+4 L.& [.r+5 - Y.[ ,+E.G.G.+ , . D.C.r.)         ",
"*.7.D.e+ . .z+Z. .|+ ++ B.|+B.e+[.e j k ( j G 3 + Q.L.'.# & & ~.- J.' ,++.+ T. ++ . < t.            ",
"  ] k++ z+. e+Z.e+|+&.&.B.B.&.r+9 j 7 ( r ( 7 e r+e+d+V.) & Q 6+- # [ ,+z+ +T.+ c.                  ",
"  (.Y.z+D.. z+e+Z. .&.B.B.&.z+, g } j k ( ( b G .+&.6+d+~.h h Q.L.# [ # h  +z.h '                   ",
"    ] x.h . N.N.z+e+ .B.+ z+ .. g q.} j k ( ( e . z.* d+x.+  +e+'.# [ # L.* d+% )                   ",
"    *.% r+. z+Z.Z. .Z.&.e+z++ . {.q.} } k ( b g . T.Q.'./ + z+ .'.# [ & m.L.L.L.&                   ",
"      *._ D.. Z.e+e+e+Z.. Z. .z+3 { q.} @.v+b e . G.B.d+d++ . e+'.# [ # L.5 '.- Y.8                 ",
"          t.~. .e+. Z.. z+Z.+ Z., g q.A } ( 7 3 + G. +~.] # / Q.5 # [ # - '.- c+= '                 ",
"          E ^+/ D.D.. . z+z+Z.z+, < Y { q.j ~ .  +G.z.~.t 3+) / ~.# [ # m.- - c+c+#                 ",
"          E *./ . z+. N.z+, < , h &., 3 3 @ + T.G.++G.~.[ ' t._ 5 # [ # - - - - - _                 ",
"          S r..  +z. + +D.{.g , N.&.B.T.z.T.T.T.T.G.G.4.[ ' 3+_ Z r.[ Y.L.- - - m._ '               ",
"          t.@ . + z.G.G. +h r++ &. +T.T.z.T.z.T.T.G.G.4.[ ' 3+# 4._ [ _ L.c+c+c+- p.)               ",
"          # e.. z+ . +G.G.z. +z.T.T.T.T.z.T.z.T.T.G.G.x.[ ' 3+] ~._ ' ,+# _ c+c+c+= )               ",
"        (.r.+.. Z.+  .+  + + +z. +z.G.T.z.T.T.T.G.T.G.k+1 t t ) $ # ' # r._ = = c+c+#               ",
"        (.< .+. N.+ + &.&.E. + +E. + +z.z.T.z.z.z.z.z.h ' 1 t *._ # ' v.$ '.- c+4 c+=               ",
"        *./ D.. . z++ &.&.&.&.&.&. + +E.z. +z.z.z.z. +k+h.E h.t # # [ v.- L.- - c+= = t.            ",
"        ] F.P.. . . 9+&.E.9+h x.+ z.E. + + + + + +z.E./ i.f+E (.t.) ' _ - - - m.4 a = t.            ",
"        # r+D.D.. . + 9+9+Z., ' 3 N.&.E.9+ +E.E. + +&.,+i.f+i.L 1 ' [ _ '.- m.= c+a = &             ",
"      h.r.M.D.D.. . + + + 9++ , . 9+9+9+9+E. +E. + ++ & i.=.i.i.f [ [ & d.L.a = c+m.= #             ",
"      t / M.D.. . z++ 9+9+9++ 9++ 9++ 9+9+E. + + +z.&.t.f+f+i.i.E 8 [ ) 3 7.% a a - a J.[           ",
"      t Q +.D.+.+.. z+z+z+z+z+e+e++ z+e++ &.&.&.B. +z+1 S.=.f+f+i.f 8 ' ) < , $ Y.m.a J.'           "};
