/* XPM */
static char * rick_01_xpm[] = {
"50 81 257 2",
"  	c #FF000000",
". 	c #2B2402",
"+ 	c #221C01",
"@ 	c #442F0C",
"# 	c #433B35",
"$ 	c #343225",
"% 	c #34322B",
"& 	c #524434",
"* 	c #262613",
"= 	c #353333",
"- 	c #2C312B",
"; 	c #2A2D24",
"> 	c #563926",
", 	c #3B3113",
"' 	c #6C6255",
") 	c #5B4C44",
"! 	c #37383B",
"~ 	c #623E2B",
"{ 	c #875737",
"] 	c #523A45",
"^ 	c #75460D",
"/ 	c #3B3324",
"( 	c #A9766A",
"_ 	c #3B332C",
": 	c #CB9A95",
"< 	c #443423",
"[ 	c #74695D",
"} 	c #96654C",
"| 	c #B4796B",
"1 	c #756C63",
"2 	c #83756C",
"3 	c #543622",
"4 	c #2C3132",
"5 	c #2B2B1C",
"6 	c #B6B0C6",
"7 	c #A46C63",
"8 	c #7C7067",
"9 	c #675649",
"0 	c #8D827C",
"a 	c #332D32",
"b 	c #AB7A74",
"c 	c #C38C83",
"d 	c #BC938B",
"e 	c #775847",
"f 	c #857A74",
"g 	c #704F36",
"h 	c #2B260B",
"i 	c #B89896",
"j 	c #996956",
"k 	c #AC725C",
"l 	c #3B310B",
"m 	c #997467",
"n 	c #C48B78",
"o 	c #CC9FA2",
"p 	c #BB826A",
"q 	c #C4948A",
"r 	c #B37C78",
"s 	c #BC7C5C",
"t 	c #6B5964",
"u 	c #A59998",
"v 	c #955928",
"w 	c #B8867B",
"x 	c #8B5115",
"y 	c #A7817A",
"z 	c #B66E27",
"A 	c #9A6139",
"B 	c #AA8985",
"C 	c #A15C1A",
"D 	c #9B98A2",
"E 	c #897C84",
"F 	c #96837D",
"G 	c #8A6556",
"H 	c #A5928D",
"I 	c #A59CA4",
"J 	c #866B65",
"K 	c #CE936F",
"L 	c #7E7A82",
"M 	c #B5AEC1",
"N 	c #C8823E",
"O 	c #C37B38",
"P 	c #B4765A",
"Q 	c #433424",
"R 	c #C17D4E",
"S 	c #7C726B",
"T 	c #9C928D",
"U 	c #B4ACB2",
"V 	c #C9968B",
"W 	c #E0BA9F",
"X 	c #CAAAA9",
"Y 	c #74450D",
"Z 	c #2A2613",
"` 	c #CCA1A5",
" .	c #1C2102",
"..	c #C49995",
"+.	c #342B0B",
"@.	c #A56B4A",
"#.	c #CAB9B8",
"$.	c #B97C73",
"%.	c #987976",
"&.	c #1D1B01",
"*.	c #5E4D60",
"=.	c #958C8B",
"-.	c #3B3105",
";.	c #43310B",
">.	c #3A2D05",
",.	c #35310C",
"'.	c #2B2D24",
").	c #824C0F",
"!.	c #B97B73",
"~.	c #332D1B",
"{.	c #613E2D",
"].	c #775959",
"^.	c #D6A991",
"/.	c #A8A5AA",
"(.	c #6E6A73",
"_.	c #B8A8A9",
":.	c #C28E87",
"<.	c #B7B1B5",
"[.	c #443424",
"}.	c #D19D95",
"|.	c #BB857A",
"1.	c #D6C9C9",
"2.	c #CDB4B1",
"3.	c #DEC2B5",
"4.	c #2B2A14",
"5.	c #AB6523",
"6.	c #DDA16E",
"7.	c #35311C",
"8.	c #BBB2C2",
"9.	c #332602",
"0.	c #BC8B84",
"a.	c #C59DA0",
"b.	c #AB8E91",
"c.	c #7B675A",
"d.	c #332E23",
"e.	c #3A2C05",
"f.	c #9A9498",
"g.	c #2B2B14",
"h.	c #7B7378",
"i.	c #8C8586",
"j.	c #B48983",
"k.	c #D09FA1",
"l.	c #835F64",
"m.	c #332E2C",
"n.	c #C89487",
"o.	c #B26D67",
"p.	c #3B3433",
"q.	c #8F613D",
"r.	c #43352C",
"s.	c #D08E52",
"t.	c #64544B",
"u.	c #927A83",
"v.	c #433634",
"w.	c #CB9C9B",
"x.	c #332B14",
"y.	c #C9BCBF",
"z.	c #161200",
"A.	c #BA8473",
"B.	c #1C1B01",
"C.	c #352A04",
"D.	c #322603",
"E.	c #1D1500",
"F.	c #363114",
"G.	c #120D00",
"H.	c #363639",
"I.	c #84848A",
"J.	c #3B3434",
"K.	c #B2A5A3",
"L.	c #2C3126",
"M.	c #392D05",
"N.	c #252301",
"O.	c #8D6C6C",
"P.	c #2C2A05",
"Q.	c #25250B",
"R.	c #ADA19D",
"S.	c #978D93",
"T.	c #161100",
"U.	c #332E24",
"V.	c #2C3125",
"W.	c #866C75",
"X.	c #161B01",
"Y.	c #3C3433",
"Z.	c #242301",
"`.	c #353114",
" +	c #1C1500",
".+	c #332603",
"++	c #120C00",
"@+	c #352A03",
"#+	c #857A73",
"$+	c #BB8B84",
"%+	c #A27E81",
"&+	c #BA8474",
"*+	c #D9B6A7",
"=+	c #433534",
"-+	c #D5B6AC",
";+	c #342B14",
">+	c #CC9C9B",
",+	c #43352B",
"'+	c #64544A",
")+	c #B58C8C",
"!+	c #CC894B",
"~+	c #D49457",
"{+	c #E4D3CD",
"]+	c #C2B7C1",
"^+	c #4E4952",
"/+	c #AC6F4A",
"(+	c #DAAA86",
"_+	c #DDA779",
":+	c #B19CA2",
"<+	c #34311C",
"[+	c #D6AD99",
"}+	c #E3CFC8",
"|+	c #1B2102",
"1+	c #BBB9C6",
"2+	c #8E8077",
"3+	c #5F605B",
"4+	c #D1A89A",
"5+	c #D7C3BE",
"6+	c #272914",
"7+	c #D19D8A",
"8+	c #D99C66",
"9+	c #221C00",
"0+	c #DBC3BA",
"a+	c #B0A7AB",
"b+	c #B5AEBB",
"c+	c #2D3232",
"d+	c #2A2B1C",
"e+	c #242302",
"f+	c #948C8B",
"g+	c #B99EA1",
"h+	c #8D8B94",
"i+	c #B87648",
"j+	c #110C00",
"k+	c #332C1B",
"l+	c #2C3232",
"m+	c #342A04",
"n+	c #BBB5B7",
"o+	c #AEA9B4",
"p+	c #D2C4C6",
"q+	c #C5BFC4",
"r+	c #342B0C",
"s+	c #8F7375",
"t+	c #937F8B",
"u+	c #322602",
"v+	c #AC796C",
"w+	c #D2C0BE",
"x+	c #C49894",
"y+	c #E1BFA9",
"z+	c #252302",
"A+	c #CDBFC2",
"B+	c #E1B694",
"C+	c #D8C5C3",
"D+	c #DCB399",
"E+	c #E9E1DF",
"F+	c #BC948B",
"G+	c #9FA09C",
"H+	c #BFC0BA",
"                                                                                                    ",
"                                                                                                    ",
"                                        6.~+8+!+R                                                   ",
"                                    _+~+O z z 5.v v A k                                             ",
"                                    z C v C C v A v v A k                                           ",
"                                  _+z C ).).).).{ { x { } |                                         ",
"                                _+N 5.x ^ Y ^ ^ x { { { } j                                         ",
"                              _+N z 5.x ).).g { q.} } } q.q.v+                                      ",
"                              6.N z A k v+w w r 0.x+: V $.q.(                                       ",
"                              K 5.A | A.|.V : w.o o o >+V j 7                                       ",
"                              s.C k &+&+|.n.: : w.w.o o : ( m                                       ",
"                              P v ( &+A.A.n V : w.>+o ` w.r m                                       ",
"                              | A 7 $.P P | |.V x+q ....: r m                                       ",
"                              c } v+( k | v+k &+V w v+w $+r                                         ",
"                                k | | k 7 b v+p : :.( w d d                                         ",
"                                P $.&+&+$+w | $.V ....a.o x+                                        ",
"                              6.K A.p &+|.$.!.!.V w.o ` o w.                                        ",
"                              6.K A.$.p p A.| | :...w.o : ..                                        ",
"                              : K A.$.p $.p | &+q : w.>+: w.                                        ",
"                                n &+A.$.$.| p n.: w.w.: w.                                          ",
"                                    w $.$.P P &+:.V V >+o                                           ",
"                                    j.$.p p A.n.V : : x+                                            ",
"                                    F+A.p p A.n.: : x+q                                             ",
"                                    $+p p A.$.n n.V q F+a.                                          ",
"                                    d P k P P P &+0.:...a.b.                                        ",
"                                    X $+w k k | c q : : o S.] t.                                    ",
"                                  u T T H b | &+q : : : X E ] ] & 9 J                               ",
"                                  H 2+#+2+b | $.c V V q 2.(.] # # ,+3 > ].J                         ",
"                                  B #+f T j.!.$.c n.w i o+*.] # v.,+, , < > {.e ].                  ",
"                                X H #+f =.y | $.|.$.r <./.^+& v.r.Q , , / < < < < & 9               ",
"                              )+j.%.2 #+=.y !.| | | g+6 M t # # ,+< l l 7., , / / _ r.& )           ",
"                          ..y q.m s+#+2 =.%.| !.| j.U 6 /.) # # Q 7.l , , 7.F.7./ Q / v.# '         ",
"                        i m { > G s+2 S F y | $.w _.M /.*.] # v.,+, , / 7.F.F.7._ Y.v.v.# )         ",
"                      B } ~ {.3 e %.0 i.u b.b r :+U 6 E ] # # v.,+7., 7./ / F.7._ J.Y.v.# ]         ",
"                  a.b e 3 > < @ 3 %.B i./.o+H H u /./.t.] v.v.Y.,+/ / 7./ _ r+/ J.# Y.v.# ]         ",
"                i m g 3 < 3 ;., < G H f.i.0 #+0 0 1 '+# # v.Y._ / / / 7./ ~.+._ v._ _ Y.Y.]         ",
"              y G g 3 @ < @ ;., < g u I f i.0 2+0 0 ' # v._ _ _ _ _ / F.7.+.;+p._ $ / / _ #         ",
"            s+g ~ > 3 < l , l , , ) I I (.1 1 8 S 2 ) # r._ _ _ _ / ;+r+x.D./ $ d.7.$ 7.v.#         ",
"            c.> < < , , l >.l l l ) R./.i.0 0 #+8 ' # v.Y._ _ _ _ 7.+.+.h m+$ d.x.r+~.Y.v.# '       ",
"            S > < < < ;.l >.-.F.F.) K.K.1 S #+0 F 8 # v.Y.Y.Y.J.p.$ x.r+. ;+$ r+D.r+d.Y.Y.# t       ",
"            O.> @ @ @ l M.l l F.`.& T u 8 1 ' ' ' & v.! H.p.p.p.= % 5 h . 7.k+. h +.7._ v.v.t.      ",
"            J > @ @ ;.l M.M.l ,.r+, [ S S f i.0 f ) v.! ! _ p._ $ $ 4.. P./ h . . x.$ % Y.Y.'       ",
"            J > @ ;.;.l M.M.,.,.r+,.' t.t.t.' [ ' & J.! J.p.p._ $ k+P.z++.$ Q.N.Z d.$ $ _ _ t.      ",
"              {.@ l l M.>.>.M.l ,.,.' t.1 f #+1 '+# # J.J.= % $ $ 4.h Z.;+$ Q.P.d.$ d.% $ _ &       ",
"              9 @ l ;.>.l l M.+.M.l ' t.) [ S 2 ' # # J.= = = / ~.h N.. 7.% Q.x.~.k+% p.d._ _       ",
"              ].3 ;.-.-.M.M.M.M.M.,.' '+' 1 ' '+> ,+Y.J.p._ = _ ~.h N.P.$ % h . . 7.$ _ d.p.% )     ",
"              e 3 @ M.M.M.M.M.M.;+F.' t.t.S f 1 ) r.Y.J.p.% % $ d.Z N.h $ % * Z.h $ % k+/ _ U.#     ",
"              g < ;.M.M.M.C.r+r+,.7.' '+& '+'+& ,+Y.J.! = _ % $ 4.N.N.x.% % Q.+ r+$ '.d.r._ x.r.'   ",
"              ].3 @ M.M.C.C.+.+.,., [ '+9 S 1 t.# J.J.! p._ _ % 4.z+. `.% L.Q.h h h $ _ _ _ ~.v.t.  ",
"              c.3 , l l M.C.C.+.+.M.' ) & t.t.) _ H.J.# % % = % h Z.. $ $ L.Q.Z.z+~.% % % U._ J.&   ",
"              c.> @ l e.M.C.m+r+;++.' '+) ' ) & / J.J.J.% % % d.. N.h d.V.5 + &.h d.% $ $ _ p.J.v.t.",
"                > @ l M.M.C.. r++.M.9 ) ) [ ' ) / p.= ! = % $ k+. . x.$ L.d+&. .h x.d.$ J.= _ % p.) ",
"                & < , m+C.m+. D.m+r+' ) & & & ,+$ = H.H.H.% ~.h D.h ~.U.- * E.+ z+4.5 7.% % % = J.) ",
"                ) < >.u+D.D.D.D.D.+.[ '+) 9 '+& _ J.H.H.) ) 7.. h k+L.a - *  +&.e+h Q.h ~.d.% p.J.t.",
"                h.t.+.u+u+.+. . m+l [ '+& & ) ,+/ H.H.# %.} g , r+d.L.m.- * z.&.z+. z+5 % % % J.] 1 ",
"                f+& l .+. D.D.u+m+F.[ 9 {.& & / d.H.! t.0.p j { g {./ % U.&.&.N.h * h 5 d.U.p.J.)   ",
"                ].@ m+u+. z+. . D.;+c.e & ) ) Q <+% = ) c p $.7 } q.> k+e+&.+ z+Z 5 5 '.d.U.= J.t.  ",
"                e @ D.D.. N.N.. m+, c.e < < & 7.~.U.c+) n.A.&+$.| ( { +.+ + Z.z+4.U.d.V.d.d.J.]     ",
"                e @ .+. N.+ Z.D.D.r+[ e {.& ) 7.x.$ L.& n n $+r | $.j @ h z+. h d.U.% - '.h _ 3+    ",
"                g 3 e.. N.+ + D.P.+.c.g > ) & l g.$ % & n.|.$+$+w |.7 < 4.5 4.~.$ % m.a = L.,+      ",
"              s+c.9 > C.Z.&.+ l P.+.[ ) < < , +.~.U.% [.&+$.w $+0.c | > % U.$ - % % = a J.= v.      ",
"  d q a.a.a.)+O.9 3 @ D.+ &.h > D.+.c.) @ , > ;+4.5 d., 7 $.r w |.&+v+{.= c+% = = % a = J.H.]       ",
"  d 0.0.q x+j.].> @ ;.D.+ &.< {..++.c.> , < z+. h Z Q.D.j $.r r &+A.| ~ p.= = = = = % % J.] (.      ",
"  $+q d :.q q y {.m+D.u++ &.@ 3 . r+c.~ < 7.Z.. . z+ +z+} v+b b $.$.( ~ _ = H.H.= = _ ) 3+          ",
"$+0.$+a.i 0.:.$+G @ . N.+  +, e.. x.' ) '+) / z+Z.E.T.&.g k ( v+r ( } 3 7.= # ] = = )               ",
"y k w F+i d :.:.b 3 . + &. +D.D.. +.' ' [ [ ' r+N.z.z. +g q.j j 7 j { 3 h U.& & = = ^+              ",
"  ( k $+F+x+0.d r 3 . + &.+ . . N.;+' ' [ [ ' r++ T.z.z.3 { { q.q.{ ~ < . 5 # & = c+#               ",
"  b @.v+$+x+q q j @ . N.& ' . . N.;+' ' ' [ [ ;+ + +z. ++ @ ~ g g ~ C.>.z+4._ v.% 4 $               ",
"    B 7 ( w :.v+~ C., &   ].m+u+. r+' ' ' [ [ ;+&. +E.E. +z.+ l @ .  +D.. h d.% - - % '+            ",
"      j.b | } 3 e.&       & N.. . , ' ' ' [ [ 7.+ E.E.E. +G.T.z.+ + e+Q.. h d+- - - = t.            ",
"          O.3 e.,       L ] + N.. r+' ' ' [ 1 Q + + +  +&.&.&.e+Q.Q.Q.Q.* d.c+4 c+m.= #             ",
"            t.[.'+    /.h+! + + z+;+[ [ [ 1 1 & + &.+ + + Z.~.g < k+5 '.; - c+c+4 4 a #             ",
"                      S.L J.+ + . F.[ [ [ 1 1 ) . N.h h Q.h {.{ ~ F.- c+; 5 4 c+4 c+c+J.            ",
"                      S *.m.. + N.Q [ [ 1 1 1 ' ~.Z 5 $ '.5 < ~ @ 5 '.4 - '.c+c+4 - - = ^+          ",
"                    c.' ] d.. N.. & [ 1 1 8 8 1 & $ $ = a a m.d.5 6+5 L.- '.- 4 - - c+= )           ",
"                    '+g r./ +.D.x.) [ S S S S 1 '+/ = = = = a - - '.'.'.- L.- m.- - c+a ]           ",
"                    {.& # _ +.+.;+9 1 f S S 8 1 ' # J.= H.= c+4 - - L.- L.L.V.c+m.c+c+a #           ",
"                  h.t.' ) _ 7./ & S S E f #+h.8 1 ' # H.! # J.J.= = = = = % = = = = = = #           ",
"                                                                                                    ",
"                                                                                                    ",
"                                                                                                    "};
