/* XPM */
static char * rick_20_xpm[] = {
"50 81 257 2",
"  	c #FF000000",
". 	c #2B2402",
"+ 	c #221C01",
"@ 	c #442F0C",
"# 	c #433B35",
"$ 	c #343225",
"% 	c #34322B",
"& 	c #524434",
"* 	c #262613",
"= 	c #353333",
"- 	c #2C312B",
"; 	c #2A2D24",
"> 	c #563926",
", 	c #3B3113",
"' 	c #6C6255",
") 	c #5B4C44",
"! 	c #37383B",
"~ 	c #623E2B",
"{ 	c #875737",
"] 	c #523A45",
"^ 	c #75460D",
"/ 	c #3B3324",
"( 	c #A9766A",
"_ 	c #3B332C",
": 	c #CB9A95",
"< 	c #443423",
"[ 	c #74695D",
"} 	c #96654C",
"| 	c #B4796B",
"1 	c #756C63",
"2 	c #83756C",
"3 	c #543622",
"4 	c #2C3132",
"5 	c #2B2B1C",
"6 	c #B6B0C6",
"7 	c #A46C63",
"8 	c #7C7067",
"9 	c #675649",
"0 	c #8D827C",
"a 	c #332D32",
"b 	c #AB7A74",
"c 	c #C38C83",
"d 	c #BC938B",
"e 	c #775847",
"f 	c #857A74",
"g 	c #704F36",
"h 	c #2B260B",
"i 	c #B89896",
"j 	c #996956",
"k 	c #AC725C",
"l 	c #3B310B",
"m 	c #997467",
"n 	c #C48B78",
"o 	c #CC9FA2",
"p 	c #BB826A",
"q 	c #C4948A",
"r 	c #B37C78",
"s 	c #BC7C5C",
"t 	c #6B5964",
"u 	c #A59998",
"v 	c #955928",
"w 	c #B8867B",
"x 	c #8B5115",
"y 	c #A7817A",
"z 	c #B66E27",
"A 	c #9A6139",
"B 	c #AA8985",
"C 	c #A15C1A",
"D 	c #9B98A2",
"E 	c #897C84",
"F 	c #96837D",
"G 	c #8A6556",
"H 	c #A5928D",
"I 	c #A59CA4",
"J 	c #866B65",
"K 	c #CE936F",
"L 	c #7E7A82",
"M 	c #B5AEC1",
"N 	c #C8823E",
"O 	c #C37B38",
"P 	c #B4765A",
"Q 	c #433424",
"R 	c #C17D4E",
"S 	c #7C726B",
"T 	c #9C928D",
"U 	c #B4ACB2",
"V 	c #C9968B",
"W 	c #E0BA9F",
"X 	c #CAAAA9",
"Y 	c #74450D",
"Z 	c #2A2613",
"` 	c #CCA1A5",
" .	c #1C2102",
"..	c #C49995",
"+.	c #342B0B",
"@.	c #A56B4A",
"#.	c #CAB9B8",
"$.	c #B97C73",
"%.	c #987976",
"&.	c #1D1B01",
"*.	c #5E4D60",
"=.	c #958C8B",
"-.	c #3B3105",
";.	c #43310B",
">.	c #3A2D05",
",.	c #35310C",
"'.	c #2B2D24",
").	c #824C0F",
"!.	c #B97B73",
"~.	c #332D1B",
"{.	c #613E2D",
"].	c #775959",
"^.	c #D6A991",
"/.	c #A8A5AA",
"(.	c #6E6A73",
"_.	c #B8A8A9",
":.	c #C28E87",
"<.	c #B7B1B5",
"[.	c #443424",
"}.	c #D19D95",
"|.	c #BB857A",
"1.	c #D6C9C9",
"2.	c #CDB4B1",
"3.	c #DEC2B5",
"4.	c #2B2A14",
"5.	c #AB6523",
"6.	c #DDA16E",
"7.	c #35311C",
"8.	c #BBB2C2",
"9.	c #332602",
"0.	c #BC8B84",
"a.	c #C59DA0",
"b.	c #AB8E91",
"c.	c #7B675A",
"d.	c #332E23",
"e.	c #3A2C05",
"f.	c #9A9498",
"g.	c #2B2B14",
"h.	c #7B7378",
"i.	c #8C8586",
"j.	c #B48983",
"k.	c #D09FA1",
"l.	c #835F64",
"m.	c #332E2C",
"n.	c #C89487",
"o.	c #B26D67",
"p.	c #3B3433",
"q.	c #8F613D",
"r.	c #43352C",
"s.	c #D08E52",
"t.	c #64544B",
"u.	c #927A83",
"v.	c #433634",
"w.	c #CB9C9B",
"x.	c #332B14",
"y.	c #C9BCBF",
"z.	c #161200",
"A.	c #BA8473",
"B.	c #1C1B01",
"C.	c #352A04",
"D.	c #322603",
"E.	c #1D1500",
"F.	c #363114",
"G.	c #120D00",
"H.	c #363639",
"I.	c #84848A",
"J.	c #3B3434",
"K.	c #B2A5A3",
"L.	c #2C3126",
"M.	c #392D05",
"N.	c #252301",
"O.	c #8D6C6C",
"P.	c #2C2A05",
"Q.	c #25250B",
"R.	c #ADA19D",
"S.	c #978D93",
"T.	c #161100",
"U.	c #332E24",
"V.	c #2C3125",
"W.	c #866C75",
"X.	c #161B01",
"Y.	c #3C3433",
"Z.	c #242301",
"`.	c #353114",
" +	c #1C1500",
".+	c #332603",
"++	c #120C00",
"@+	c #352A03",
"#+	c #857A73",
"$+	c #BB8B84",
"%+	c #A27E81",
"&+	c #BA8474",
"*+	c #D9B6A7",
"=+	c #433534",
"-+	c #D5B6AC",
";+	c #342B14",
">+	c #CC9C9B",
",+	c #43352B",
"'+	c #64544A",
")+	c #B58C8C",
"!+	c #CC894B",
"~+	c #D49457",
"{+	c #E4D3CD",
"]+	c #C2B7C1",
"^+	c #4E4952",
"/+	c #AC6F4A",
"(+	c #DAAA86",
"_+	c #DDA779",
":+	c #B19CA2",
"<+	c #34311C",
"[+	c #D6AD99",
"}+	c #E3CFC8",
"|+	c #1B2102",
"1+	c #BBB9C6",
"2+	c #8E8077",
"3+	c #5F605B",
"4+	c #D1A89A",
"5+	c #D7C3BE",
"6+	c #272914",
"7+	c #D19D8A",
"8+	c #D99C66",
"9+	c #221C00",
"0+	c #DBC3BA",
"a+	c #B0A7AB",
"b+	c #B5AEBB",
"c+	c #2D3232",
"d+	c #2A2B1C",
"e+	c #242302",
"f+	c #948C8B",
"g+	c #B99EA1",
"h+	c #8D8B94",
"i+	c #B87648",
"j+	c #110C00",
"k+	c #332C1B",
"l+	c #2C3232",
"m+	c #342A04",
"n+	c #BBB5B7",
"o+	c #AEA9B4",
"p+	c #D2C4C6",
"q+	c #C5BFC4",
"r+	c #342B0C",
"s+	c #8F7375",
"t+	c #937F8B",
"u+	c #322602",
"v+	c #AC796C",
"w+	c #D2C0BE",
"x+	c #C49894",
"y+	c #E1BFA9",
"z+	c #252302",
"A+	c #CDBFC2",
"B+	c #E1B694",
"C+	c #D8C5C3",
"D+	c #DCB399",
"E+	c #E9E1DF",
"F+	c #BC948B",
"G+	c #9FA09C",
"H+	c #BFC0BA",
"                                                  (+K K (+[+                                        ",
"                                                _+~+z N !+N s.R R R                                 ",
"                                              6.s.O 5.5.x x x x v A @.n.                            ",
"                                            _+~+O C ).^ ^ x ).).A A v /+                            ",
"                                          (+s.z C ).Y ^ ^ ^ ).^ ^ ).x A                             ",
"                                        7+N z z v ).^ ).^ Y Y ^ ^ ).v k                             ",
"                                        5.x v ).^ ^ ).).^ ^ ^ ^ ^ v A &+                            ",
"                                      j x ).^ ).{ { { q.} j 7 7 7 w :.r                             ",
"                                      k x ^ ^ ^ { @.v+&+$+: >+o o ` o d                             ",
"                                      c x ^ Y ^ } | p w :.: k.` ` ` o :                             ",
"                                      &+v ^ Y ).@.s p |.c V : o ` ` o :                             ",
"                                      c v ^ ^ { j | p |.c :.: >+k.o o w.                            ",
"                                      | v ^ ^ { j | p A.|.w w c : x+$+j.                            ",
"                                      $+q.{ g q.( $.| ( | $+j.| c :.0.F+                            ",
"                                      :.k { { q.v+$.$.&+| w )+w |.: 0.$+                            ",
"                                      X K s @.} | A.A.c q x+q |.$.n.>+o                             ",
"                                        7+K s | $.p p |.:.V V &+| n : o                             ",
"                                        4+K p $.!.p s s |.n.c | P A.V :                             ",
"                                        2.V p | | | s s A.n.n.&+A.c V w.                            ",
"                                          ` n | P s s s p n c c V >+: w.                            ",
"                                            :.$.| | | s p n | | &+c q                               ",
"                                            :.p P P P s p n n n n.: >+                              ",
"                                            q p | k P | | A.n n.: : o                               ",
"                                          ` n.p | | o.P | | &+c V :                                 ",
"                                        i 4+n s | | | | k k k | w                                   ",
"                                      i G F+r | | | | | ( k |.d g+_.  H R.u /.                      ",
"                                    B e {.B b | | | | | | |.:.d )+i J 2 #+S f+                      ",
"                                  m {.3 3 2+H v+| $.$.!.| $.0.q )+U S 2 2 f T                       ",
"                              e {.3 < , < 1 _.B r $.|.!.$.&+c 0.)+M i.2 2 f =.2 J                   ",
"                        %.G ~ @ @ @ @ @ @ ) R.a+y r |.|.$.|.0.b g+M f.2 2 #+=.t.> g e               ",
"                    y ].{.3 , < < , , , , < =.b+u r 0.0.&+|.w ( U 6 D S 8 S =.t.& v.v.& '           ",
"                B G ~ ,+,+Q [.r.,+< , ,.r+Q i.o+M B w :.$+|.7 b.M 6 I S 8 S F t.] # v.v.r.)         ",
"            %+G {.3 < Q Q r.,+_ / / 7., ,.,+T /.M M b...d v+y U 6 6 f.2 8 #+i.) # # # # # ] )       ",
"          8 {.< < Q / Q Q ,+_ ,+/ Y.% 7.;+7.F a+M 6 M g+w y _.6 6 b+h.[ 1 #+S # # # # # # ] ] [     ",
"          ) < 7., 7./ 7./ _ _ % $ Y.p.d.r+, S a+M 6 M o+b.K.M 6 6 h+] t.0 F ) # # # v.# # ] ] t.    ",
"        (.& < 7.F.7.7.7._ = J.= _ J.= <++.,.& i.S.i.S f =.f+f+I o+t # ) =.i.& # J.v.# v.# v.# '     ",
"        t ,+, , 7.F.r+~.$ % p.! J.J._ $ ~.;+r+Q ' f.u f.=.=.i.T f ] # t I D ] v.J.# # J.# v.v.)     ",
"        ) < , F.r+m+D.P.+.h x.p.! p.% = % ~.g.% ) #+i.L h.S 1 8 ' # # 1 u f.] # J.v.J.J.J.Y.Q &     ",
"        > , l D.D.D.. . . . . _ ! H.= = / <+~.~.# [ f S.f.f.D D L ] # 8 R.f.] v.J.Y.Y.Y.J.p.v.)     ",
"        < l C.m+. . . . . z+e+7.J.H.= % $ $ <+~._ f T f.f+E S ' ) v.# S _.f.] Y._ p.p.Y.Y.% Y.&     ",
"      t < +.D.D.. . N.. h z+ .4.p.= - V.$ $ L.d.$ ] 1 1 S E i.=.2 # ! ' T =.] _ $ = = Y.Y.% J.&     ",
"      t.< l m+D.. . N.. P.z+e+e+/ H.= $ $ % % L.$ & f.I u f.i.h.) v.H.& [ ' v._ % = _ Y.= % p.)     ",
"      t., C..+u+. z+N.Z.. z+Z.&.~.= = - L.- - L.$ % [ h.t ' 1 S ' v.J.# [ ) p.% = % % p.% U._ )     ",
"      t., .+D.. . . e+ .z+z+e+&.z+% = - d.'.'.- L.% 1 f.f.f.f.0 ' r.H.# 1 ) p.= = - $ % d.$ _ &     ",
"    i.) 7.D.. . . z+e+ .Z.e+z+ . .$ H.% L.'.'.% d.$ ) i.E 1 t.'+& _ H.# 1 ) Y.% % '.% % ~.$ % #     ",
"    f ] k+D.. z+N.Z. . . . .Z. .B.5 = c+L.L.L.'.5 U.# S i.i.i.0 ' v.J.# 1 ) p.$ L.5 % % U.d.% v.    ",
"    8 ,++.. . z+Z.Z. . . . . . .&.Q.% = - L.'.5 5 L.= f f.L t.) Q / J.# 1 ) % $ g.g.U.- 5 d.% =+[   ",
"    t.< r+h . . N.e+ . . . . . .&.&.~.c+4 V.'.V.'.- c+) S S 8 2 t._ = # [ ) % $ h h d.L.d.d.% Y.[   ",
"    ] 7.r+h z+e+Z. . .B.B. . . . .B.* % c+L.L.L.L.V.L.& f+0 1 '+Q _ = # [ ) p.$ 4.5 L.'.$ $ % _ 9   ",
"    # F.+.. . e+e+ . .B.B. . . . .B.B.U.= c+L.L.L.L.- - ) ' ) 9 & _ = # 1 ) = 5 5 d.L.'.d.$ % Y.'   ",
"  *.r., D.. . z+e+ .B.G.z. .|+|+|+|+z.4.= c+'.d+d+L.- % [ 0 2 [ # / = # [ & % 6+Z k+d.4.x.% % p.t.  ",
"  t r.~.4.. z+z+e+B.X.z.z.B.|+ .|+|+X.B.'.c+- ; '.L.L.L.# '+) & Q U.- # [ & % d+4.Q & , ~.$ % Y.'   ",
"  *./ k+r+. z+e+ . .B. +z.B.|+ .|+|+B.z.* - - L.; '.L.- # ' 1 1 & $ L.# [ # U.6+5 > q.G ) # ] ] ].  ",
"  *./ ;+r+. e+e+ . .B.G.G.z.B.B.B.B.B.T.B.5 L.L.; ; '.L.$ '+t.& ;+<+L.# [ # L.d+'.,+g 7 b %.%.%.m   ",
"  *.$ D.. + &.&.B.&.B.G.G.T.z.B.B.B.B.T.G.h '.- L.L.'.L.V.r.) '+& d.- # [ # d+d+d+/ g ( r B j.)+j.j.",
"  ] k+e+&.&. + + +z. +G.G.G.z. +B.z.z.z.G.B.d+L.L.- - - L.& ' t.,+<+- # [ # 5 ; % & g j r )+)+)+)+)+",
"t 7.Z.+ + &.&.&.B.B.z.T.G.G.z.z.z.z.z.T.T.z.Q.L.L.- - '.L._ & r.x.4.L.# ' v.'.6+$ g G 7 ( w j.)+)+)+",
"t.r+. z+Z.Z.e+B.B.B. +B.G.G.G.T.T.z.T.T.G.G.B.d+; - 5 '.L.~.r.) ,+h 6+# ' r.4.Q.h ~ { 7 r w j.j.$+i ",
"] , r+. . z+B.B.&.z.z.B.z.j+G.j+G.z.T.z.G.j+T.Q.'.; d+d+d+k+) & ,+e+B./ ' 7.+ z.T.r+g } 7 r w j.)+i ",
"^+, +.. Z.&. .4.+ B.Q.* |+z.T.G.G.z. +z.T.G.G.z+/ ,+< ,+e+ .) & Q e+&./ ' r+ +G.G.G.z+~ } v+b y B j.",
"  # , . &. .. 6+ .* ; d+ . . .B.B. + +B.&., {.g g { { {.. B.,+,+[.+. ./ ' r+B.G.G.j+G.+ ~ } ( w w y ",
"  t r.. + z+. z+e+* Q.B. . .* d+Q. . .4.& G j } q.q.{ 3 < z+& ) < . + / ' r+&.z.T.j+G.T.. ~ { { q.G ",
"    ^+. . . D.D.z+ .B. .B. .Q. .B. .Q.g G m j } q.} m O.J , / # r.r+ .Q ' h &.z.T.G.++ +. . , 3 3 9 ",
"    t.;+m+. . . . Z.|+ . .B. .|+ . .> G j j j j 7 b y y e D.;+Q ;+N. .r.' h &.B.. &.z.G.+ +.+ 9+r+  ",
"    *./ C.P.. . . z+ . .&.&. . . .z+g } } } } @.v+r &+b ~ + + +  +T.B.# ' .  +B.. + z.T.z.N.P., &   ",
"      *./ x.u+u+. z+e+ .B. . . .+ P.g } } j j j k r w G +. + + +. z++ # ' h E. + ++ ~.k+k+h / )     ",
"        t # x.D.. . . Z. .N.Z.+ &.. ~ q.} } } j k $.v+> z+ +T.z.D.D.e+& ' ~. + + +,                 ",
"            t.v.~.. . e+e+z++ &.&.+ 3 { A } } } @.b m @ + B.z./ # & 7.& ' 7.&.z.z.. e               ",
"                t., D.. . e+Z.Z. .+ r+).v A A A k b G D.+ B. +) ' 3+# & ' 7. + +&.h )               ",
"                t ,+F.D.. . Z.Z.Z.+ N.3 { q.A A 7 7 @ &.z.B.z.& ' t.) & ' / &.+ 6+'.r.              ",
"                ].> 7.z+. +.< , D.N.&.+ 3 ).{ v { 3 + G.G.T.T.& 3+' t.& ' $ Q.4.L.L.d.&             ",
"                t.) / + &., {.{., + &.E.E.. r+, r+z.G.G.j+G.G.Q 3+3+3+) ' $ ; ; ; ; 5 #             ",
"                t & ;++ &.h @ 3 .  +&. +G.G.G.T.T.G.G.j+G.G.G.k+3+3+3+3+' _ - 5 d+5 U.%             ",
"                t =+m+. &. + + +z. + +T.T.G.G.G.G.G.G.j+j+G.G.Z ' t 3+3+' p.m.'.4.d.L.% t.          ",
"                (.v.m+. N.+ &.T. + +G.T.T.T.G.G.G.G.G.G.G.j+G.+ 3+t t 3+' _ m._ # m.- U.r.          ",
"                (.v.+.u+. N.+ &. + +z.T.T.z. +G.G.T.G.G.j+G.G.&.' t t 3+' p.% ' 8 p.- U.#           ",
"                t v.m+D.u+. N.z++ &. +z.+ D.&.T.G.G.T.T.G.++G.B.' S t t ' v.a & t._ m.- Y.          ",
"                  v.M.m+u+. . . e+&.E. +&.E. +G.T.T.T.T.G.G.G.E.' f 1 ' ' Y.m.m.$ m.4 m._           ",
"                  v., .+D.. . . z++ E.&.E.E.E.z. +z.z.G.G.G.G.&.[ f 8 [ [ # m.% % = m.a =           ",
"                  ] 7.m+D.. h D.. e+&.+ + + &.&.&.+ &. +z.z. ++ 8 0 2 1 8 t.Y.p.= p.J.= p.&         ",
"                                                                                                    "};
