/* XPM */
static char * rick_04_xpm[] = {
"50 81 257 2",
"  	c #FF000000",
". 	c #2B2402",
"+ 	c #221C01",
"@ 	c #442F0C",
"# 	c #433B35",
"$ 	c #343225",
"% 	c #34322B",
"& 	c #524434",
"* 	c #262613",
"= 	c #353333",
"- 	c #2C312B",
"; 	c #2A2D24",
"> 	c #563926",
", 	c #3B3113",
"' 	c #6C6255",
") 	c #5B4C44",
"! 	c #37383B",
"~ 	c #623E2B",
"{ 	c #875737",
"] 	c #523A45",
"^ 	c #75460D",
"/ 	c #3B3324",
"( 	c #A9766A",
"_ 	c #3B332C",
": 	c #CB9A95",
"< 	c #443423",
"[ 	c #74695D",
"} 	c #96654C",
"| 	c #B4796B",
"1 	c #756C63",
"2 	c #83756C",
"3 	c #543622",
"4 	c #2C3132",
"5 	c #2B2B1C",
"6 	c #B6B0C6",
"7 	c #A46C63",
"8 	c #7C7067",
"9 	c #675649",
"0 	c #8D827C",
"a 	c #332D32",
"b 	c #AB7A74",
"c 	c #C38C83",
"d 	c #BC938B",
"e 	c #775847",
"f 	c #857A74",
"g 	c #704F36",
"h 	c #2B260B",
"i 	c #B89896",
"j 	c #996956",
"k 	c #AC725C",
"l 	c #3B310B",
"m 	c #997467",
"n 	c #C48B78",
"o 	c #CC9FA2",
"p 	c #BB826A",
"q 	c #C4948A",
"r 	c #B37C78",
"s 	c #BC7C5C",
"t 	c #6B5964",
"u 	c #A59998",
"v 	c #955928",
"w 	c #B8867B",
"x 	c #8B5115",
"y 	c #A7817A",
"z 	c #B66E27",
"A 	c #9A6139",
"B 	c #AA8985",
"C 	c #A15C1A",
"D 	c #9B98A2",
"E 	c #897C84",
"F 	c #96837D",
"G 	c #8A6556",
"H 	c #A5928D",
"I 	c #A59CA4",
"J 	c #866B65",
"K 	c #CE936F",
"L 	c #7E7A82",
"M 	c #B5AEC1",
"N 	c #C8823E",
"O 	c #C37B38",
"P 	c #B4765A",
"Q 	c #433424",
"R 	c #C17D4E",
"S 	c #7C726B",
"T 	c #9C928D",
"U 	c #B4ACB2",
"V 	c #C9968B",
"W 	c #E0BA9F",
"X 	c #CAAAA9",
"Y 	c #74450D",
"Z 	c #2A2613",
"` 	c #CCA1A5",
" .	c #1C2102",
"..	c #C49995",
"+.	c #342B0B",
"@.	c #A56B4A",
"#.	c #CAB9B8",
"$.	c #B97C73",
"%.	c #987976",
"&.	c #1D1B01",
"*.	c #5E4D60",
"=.	c #958C8B",
"-.	c #3B3105",
";.	c #43310B",
">.	c #3A2D05",
",.	c #35310C",
"'.	c #2B2D24",
").	c #824C0F",
"!.	c #B97B73",
"~.	c #332D1B",
"{.	c #613E2D",
"].	c #775959",
"^.	c #D6A991",
"/.	c #A8A5AA",
"(.	c #6E6A73",
"_.	c #B8A8A9",
":.	c #C28E87",
"<.	c #B7B1B5",
"[.	c #443424",
"}.	c #D19D95",
"|.	c #BB857A",
"1.	c #D6C9C9",
"2.	c #CDB4B1",
"3.	c #DEC2B5",
"4.	c #2B2A14",
"5.	c #AB6523",
"6.	c #DDA16E",
"7.	c #35311C",
"8.	c #BBB2C2",
"9.	c #332602",
"0.	c #BC8B84",
"a.	c #C59DA0",
"b.	c #AB8E91",
"c.	c #7B675A",
"d.	c #332E23",
"e.	c #3A2C05",
"f.	c #9A9498",
"g.	c #2B2B14",
"h.	c #7B7378",
"i.	c #8C8586",
"j.	c #B48983",
"k.	c #D09FA1",
"l.	c #835F64",
"m.	c #332E2C",
"n.	c #C89487",
"o.	c #B26D67",
"p.	c #3B3433",
"q.	c #8F613D",
"r.	c #43352C",
"s.	c #D08E52",
"t.	c #64544B",
"u.	c #927A83",
"v.	c #433634",
"w.	c #CB9C9B",
"x.	c #332B14",
"y.	c #C9BCBF",
"z.	c #161200",
"A.	c #BA8473",
"B.	c #1C1B01",
"C.	c #352A04",
"D.	c #322603",
"E.	c #1D1500",
"F.	c #363114",
"G.	c #120D00",
"H.	c #363639",
"I.	c #84848A",
"J.	c #3B3434",
"K.	c #B2A5A3",
"L.	c #2C3126",
"M.	c #392D05",
"N.	c #252301",
"O.	c #8D6C6C",
"P.	c #2C2A05",
"Q.	c #25250B",
"R.	c #ADA19D",
"S.	c #978D93",
"T.	c #161100",
"U.	c #332E24",
"V.	c #2C3125",
"W.	c #866C75",
"X.	c #161B01",
"Y.	c #3C3433",
"Z.	c #242301",
"`.	c #353114",
" +	c #1C1500",
".+	c #332603",
"++	c #120C00",
"@+	c #352A03",
"#+	c #857A73",
"$+	c #BB8B84",
"%+	c #A27E81",
"&+	c #BA8474",
"*+	c #D9B6A7",
"=+	c #433534",
"-+	c #D5B6AC",
";+	c #342B14",
">+	c #CC9C9B",
",+	c #43352B",
"'+	c #64544A",
")+	c #B58C8C",
"!+	c #CC894B",
"~+	c #D49457",
"{+	c #E4D3CD",
"]+	c #C2B7C1",
"^+	c #4E4952",
"/+	c #AC6F4A",
"(+	c #DAAA86",
"_+	c #DDA779",
":+	c #B19CA2",
"<+	c #34311C",
"[+	c #D6AD99",
"}+	c #E3CFC8",
"|+	c #1B2102",
"1+	c #BBB9C6",
"2+	c #8E8077",
"3+	c #5F605B",
"4+	c #D1A89A",
"5+	c #D7C3BE",
"6+	c #272914",
"7+	c #D19D8A",
"8+	c #D99C66",
"9+	c #221C00",
"0+	c #DBC3BA",
"a+	c #B0A7AB",
"b+	c #B5AEBB",
"c+	c #2D3232",
"d+	c #2A2B1C",
"e+	c #242302",
"f+	c #948C8B",
"g+	c #B99EA1",
"h+	c #8D8B94",
"i+	c #B87648",
"j+	c #110C00",
"k+	c #332C1B",
"l+	c #2C3232",
"m+	c #342A04",
"n+	c #BBB5B7",
"o+	c #AEA9B4",
"p+	c #D2C4C6",
"q+	c #C5BFC4",
"r+	c #342B0C",
"s+	c #8F7375",
"t+	c #937F8B",
"u+	c #322602",
"v+	c #AC796C",
"w+	c #D2C0BE",
"x+	c #C49894",
"y+	c #E1BFA9",
"z+	c #252302",
"A+	c #CDBFC2",
"B+	c #E1B694",
"C+	c #D8C5C3",
"D+	c #DCB399",
"E+	c #E9E1DF",
"F+	c #BC948B",
"G+	c #9FA09C",
"H+	c #BFC0BA",
"                                                                                                    ",
"                                                                                                    ",
"                                                                                                    ",
"                                                                                                    ",
"                                                                                                    ",
"                                              K 8+_+_+n                                             ",
"                                            s.R 5.z 5.x v A                                         ",
"                                          K C ).x x x A { v } k                                     ",
"                                        ^.!+5.).^ ^ Y x ).^ { }                                     ",
"                                      (+!+O C ).Y Y Y ^ x { { A 7                                   ",
"                                      8+O 5.v q.q.q.{ q.} q.{ { j                                   ",
"                                      s.z i+p A.n.V q : o : c q.j                                   ",
"                                      i+A | A.n n.V : >+>+o >+( j                                   ",
"                                      5.@.A.A.A.n V : : o o w.r j                                   ",
"                                      A @.p | k | :.: V >+o >+w m                                   ",
"                                      /+| | k | ( P c |.| |.q r m                                   ",
"                                      A.| $.k 7 v+| c V ( r 0.w                                     ",
"                                    K K K A.|.0.$.| n >+w.w.w.d                                     ",
"                                    8+8+K p p &+$.| n >+o ` o x+                                    ",
"                                    7+8+n p p p p P p :.o o w.:                                     ",
"                                      n A.A.p $.$.n : o w.: : :                                     ",
"                                        w.A.p | | p c : : : :                                       ",
"                                        o p | p A.n n.: V :                                         ",
"                                        q &+p A.|.n.V : q ..                                        ",
"                                        w | | $.A.c V V d X                                         ",
"                                        0.$.| k k P |.0.x+X                                         ",
"                                      X n $.$.| | |.q V ..X                                         ",
"                                    #.}.p $.$.$.c n.V x+: g+                                        ",
"                                  ` #.q p $.$.!.|.:.V : x+u t                                       ",
"                          a.)+b b x+i g+g+j.!.!.n c V :.X i.] '+c.                                  ",
"                      ..j.j g g e y %.#+#+%.r $.|.c |.d b+t ] # r.g ].                              ",
"                  F+b G ~ 3 @ < {.( %.2 f b.d |.$.| d 8./.] # # r.< [.& ].s+                        ",
"              y j e ~ 3 @ @ @ @ 3 b m 2 f B q w r i M 6 I ] # v.r./ / / < > ) ].                    ",
"            J g 3 3 > @ ;.;.@ , 3 &+m 2 #+u w j.K.b+6 6 h+] v.v._ > e c.& < ,+,+'+                  ",
"            ].> 3 < > < l -.l l , m O.S #+u b.K.M 6 6 I ) # v.v./ G b j.j.m {.,+r.> 9               ",
"            e 3 < < > < , l M.>.l e 8 8 #+0 2+2+S.b+b+t v.v.v.Y.& %.B j.j.0.j.{.=+r.& 1             ",
"            {.< < < < < , l l l >.) [ S F 2 2 2+2+=.2 & v.v.r._ 9 y y j.$+:.0.g v.v.# t.            ",
"          e > < < @ < Q / , F.,.C.l '+=.i.f+T =.f 8 ' r._ / / 7.e v+$.$+d d r {.# v.# t.            ",
"          c.> < , l < r.7.,.F.r+C.M.'+T f+i.f 8 f 0 ' ,+/ / 7.F.< { ( $+d $+b ~ r.r.v.)             ",
"          e 3 @ >.-.l / `.7.`.`.+.+.' G+f+[ S i.=.0 & ,+/ 7.~.`.C.3 7 w i )+b > _ / _ #             ",
"        9 g < @ -.C.+.F.`.x.m+C.m++.[ u f+i.=.f+f ' [./ 7.`.F.+.D.@ j j.)+)+( 3 d./ _ &             ",
"        g @ @ l M.C.M.F.r+D.D.D.D.m+1 _.T 0 8 [ [ [ < 7.F.F.r+.+D.+.} b )+)+( 3 ;+7.v.)             ",
"        {.@ l l M.m+D.M.+.. . . . D.9 H #+9 [ f 0 [ Q 7.F.;+r+C.. . { ( j.)+m 3 7.$ Y.)             ",
"        & ;.>.>.M.@+. C.+.D.. . P.D.< c.8 f 0 2+1 & 7.r+~.~.`.+.. N.3 j b j.y > / _ _ ]             ",
"        & l C.@+C.m+. D.m+D.. . . . ;+[ f f [ t.' & / ;+x.x.r+D.. + + 3 g g {.3 , _ _ v.            ",
"      %.> , M.C.@+D.. . m+D.u+. . D., 1 t.' 1 2 s+& x.r+h r+m+D.z+&.E.. +.{.g 3 7._ Y.Y.            ",
"      %.> , m+. . D.. Z.D.D.P.. . . , 1 S 0 2+8 9 l .+D.D.D.D.. . 9+E.9+.+{.~ 3 < & Y.v.            ",
"    B m 3 @ M.u+. . . Z.. D.C., < < & 1 [ 1 ' ) & C.D.D.D.u+. . N.9+9+&.9+N.. x.7.) Y.Y.&           ",
"    G e @ M.e.u+. . . Z.Z.< j y b w r J '+9 [ 8 9 r+D.. . u+. . Z.+ + E.9++ N.D.k+/ $ Y.v.'+        ",
"  g 3 @ C.u+u+. . r+D.z++.G v+w v+v+b O.[ 8 2+#+) .+u+. . . . . N.Z.+ E. +&.+ D.~.$ $ J.v.'+        ",
"s+].9 g {.< , , 3 G e 9 e A.A.|.|.$+j.s+2 ' 9 '+[.u+u+u+. . . N.Z.Z.Z.E. +E.9++ x.d.d._ _ ;+>       ",
"[ 3 3 {.g e g 3 e G g {.j k | $.b r j.O.'+) 9 1 & D.. . . . N.+ Z.Z.+ 9+T. + ++ D.k+<+$ d._ 7.3     ",
") 3 g e g < l , g > >.l G k | | v+w r O.1 8 [ [ # . . . . z+Z.Z.N.Z.Z.9+T. + +E.z+k+$ % <+_ / 7.&   ",
"  & > @ ;.>., & > e.P.e.e j ( | ( $.G J 1 S [ & r+. z+z+N.Z.Z.Z.Z.+ + &.T.G.E.z.+ h d.d.~.$ d.7.,+) ",
"  ].< @ @ @ < > l +.x.< g j j @.} } ~ [ '+) ) & , z+N.N.N.Z.+ Z.N.Z.&.&.T.G.z.E. +. k+5 ~.d.k+;+/ ) ",
"  ].3 @ @ , , ;.,.+.+.+.@ ~ ~ @ h z+;+[ ' 1 2 ' r+z+N.N.e+Z.+ Z.+ + + &.T.G. +E. +&.h 4.x.x.x.k+_   ",
"  t.3 @ @ @ @ > ) & l Q , D.&.E.+ Z.;+[ S 8 [ ) P.z+z+Z.Z.+  .&. .&.&.&.T.G.z.z. + +z+4.4.r+~.% )   ",
"    9 > > 3 < 3 g @ l / D.N.E.+ Z.N.7.[ ) ) ) > . . Q.e+ .&.+ &.&.B.&.E. +G.T.z. +E. +. 4.P.k+_ '   ",
"        e g {.3 {.) & C.z++ E.+ Z.Z.7.[ ' 1 c.9 D.4.4.Q.e+&. .&.&.&.&.&. +G.G.T.T. +z.+ 4.h d.#     ",
"                    ].@ . . . N.. . Q [ 1 1 ' & . h 5 Z  .&. . .&.&. .&.&. +T.T.T.E.&.&.h h ~.t.    ",
"                    ].@ .+. N.. D.. / ' '+) & , z+h 6+Q.B.B. .Z.Z.Z.7.z+z+Q.z.T.T.T. ++ N.x.)       ",
"                      3 @+u+. . D.D.Q [ '+' 9 & . h 6+ . . . . .&. .+ + Q.d+Q.z.+ / x./ / )         ",
"                      3 C.u+u+u+.+D.Q ' & ) & 3 u+h 4.e+ .Z.e+ . .e+&.&.Z.* L.* h                   ",
"                      3 e..+D.. D.D.r.' 3 {.. + N.Q.5 Q. .z+Z. .e+Z.&.&.+ h '.- '.)                 ",
"                      3 >.m+D.. D.P.,+' < g r+x.. 4.- *  .e+e+e+e+ .&.+  .e+6+V.% #                 ",
"                      > >.M.@+u+D.D.,+[ ' 9 ' t.r+% = '.Q. . . . .Z.B.B. .e+* '.m.= t.              ",
"                      3 l C..+u+D.+.# [ 2 S S ' 7.= = % '.e+ . . .e+ .B.+ e+Q.'.- % p.              ",
"                      > >.C..+D.. . # 1 f h.S ' / = = % c+d+e+ . .e+ .&.&.e+Q.d+L.V.- t.            ",
"                      > >.@+.+. . . & [ h.S 8 t.Y.H.H.= c+'.* e+ .e+Z.+ B. .e+6+'.L.- ]             ",
"                      > e.+.& ) . . & [ f 2 S t.J.! = = c+- d+Q. . .e++ &. . .Q.V.- - !             ",
"                      > l F.> e m+. # [ #+f 2 ' # H.= c+= = - d+Q.Z ,++ &. .e+Q.4.- - %             ",
"                      ] l C.@++.. . # [ S f S 1 # H.= = = = c+- d+* Z + B. .Z.h * V.m.% ^+          ",
"                      ] l C.C.u+. . ,+[ S 2 S 8 ) J.= = c+c+c+c+c+'.Q.e+&.&.e+Q.6+'.m.m.&           ",
"                      ^+< M.C.D.u+. r.[ f 0 h.S [ # = % m.- c+= = - d+h z++ + z+5 L.c+4 _           ",
"                      *.< r+.+u+u+D.& ' f i.E #+8 '+_ - - - - c+= c+- 5 6+e++ + 6+'.m.c+% )         ",
"                      ^+< , r+r+r+r+& [ 0 f+f+0 #+8 ) p.% c+= % = = J.= L.* e+Q.Z U.% = J.)         ",
"                                                                                                    ",
"                                                                                                    ",
"                                                                                                    ",
"                                                                                                    ",
"                                                                                                    "};
