/* XPM */
static char * rick_26_xpm[] = {
"50 81 257 2",
"  	c #FF000000",
". 	c #2B2402",
"+ 	c #221C01",
"@ 	c #442F0C",
"# 	c #433B35",
"$ 	c #343225",
"% 	c #34322B",
"& 	c #524434",
"* 	c #262613",
"= 	c #353333",
"- 	c #2C312B",
"; 	c #2A2D24",
"> 	c #563926",
", 	c #3B3113",
"' 	c #6C6255",
") 	c #5B4C44",
"! 	c #37383B",
"~ 	c #623E2B",
"{ 	c #875737",
"] 	c #523A45",
"^ 	c #75460D",
"/ 	c #3B3324",
"( 	c #A9766A",
"_ 	c #3B332C",
": 	c #CB9A95",
"< 	c #443423",
"[ 	c #74695D",
"} 	c #96654C",
"| 	c #B4796B",
"1 	c #756C63",
"2 	c #83756C",
"3 	c #543622",
"4 	c #2C3132",
"5 	c #2B2B1C",
"6 	c #B6B0C6",
"7 	c #A46C63",
"8 	c #7C7067",
"9 	c #675649",
"0 	c #8D827C",
"a 	c #332D32",
"b 	c #AB7A74",
"c 	c #C38C83",
"d 	c #BC938B",
"e 	c #775847",
"f 	c #857A74",
"g 	c #704F36",
"h 	c #2B260B",
"i 	c #B89896",
"j 	c #996956",
"k 	c #AC725C",
"l 	c #3B310B",
"m 	c #997467",
"n 	c #C48B78",
"o 	c #CC9FA2",
"p 	c #BB826A",
"q 	c #C4948A",
"r 	c #B37C78",
"s 	c #BC7C5C",
"t 	c #6B5964",
"u 	c #A59998",
"v 	c #955928",
"w 	c #B8867B",
"x 	c #8B5115",
"y 	c #A7817A",
"z 	c #B66E27",
"A 	c #9A6139",
"B 	c #AA8985",
"C 	c #A15C1A",
"D 	c #9B98A2",
"E 	c #897C84",
"F 	c #96837D",
"G 	c #8A6556",
"H 	c #A5928D",
"I 	c #A59CA4",
"J 	c #866B65",
"K 	c #CE936F",
"L 	c #7E7A82",
"M 	c #B5AEC1",
"N 	c #C8823E",
"O 	c #C37B38",
"P 	c #B4765A",
"Q 	c #433424",
"R 	c #C17D4E",
"S 	c #7C726B",
"T 	c #9C928D",
"U 	c #B4ACB2",
"V 	c #C9968B",
"W 	c #E0BA9F",
"X 	c #CAAAA9",
"Y 	c #74450D",
"Z 	c #2A2613",
"` 	c #CCA1A5",
" .	c #1C2102",
"..	c #C49995",
"+.	c #342B0B",
"@.	c #A56B4A",
"#.	c #CAB9B8",
"$.	c #B97C73",
"%.	c #987976",
"&.	c #1D1B01",
"*.	c #5E4D60",
"=.	c #958C8B",
"-.	c #3B3105",
";.	c #43310B",
">.	c #3A2D05",
",.	c #35310C",
"'.	c #2B2D24",
").	c #824C0F",
"!.	c #B97B73",
"~.	c #332D1B",
"{.	c #613E2D",
"].	c #775959",
"^.	c #D6A991",
"/.	c #A8A5AA",
"(.	c #6E6A73",
"_.	c #B8A8A9",
":.	c #C28E87",
"<.	c #B7B1B5",
"[.	c #443424",
"}.	c #D19D95",
"|.	c #BB857A",
"1.	c #D6C9C9",
"2.	c #CDB4B1",
"3.	c #DEC2B5",
"4.	c #2B2A14",
"5.	c #AB6523",
"6.	c #DDA16E",
"7.	c #35311C",
"8.	c #BBB2C2",
"9.	c #332602",
"0.	c #BC8B84",
"a.	c #C59DA0",
"b.	c #AB8E91",
"c.	c #7B675A",
"d.	c #332E23",
"e.	c #3A2C05",
"f.	c #9A9498",
"g.	c #2B2B14",
"h.	c #7B7378",
"i.	c #8C8586",
"j.	c #B48983",
"k.	c #D09FA1",
"l.	c #835F64",
"m.	c #332E2C",
"n.	c #C89487",
"o.	c #B26D67",
"p.	c #3B3433",
"q.	c #8F613D",
"r.	c #43352C",
"s.	c #D08E52",
"t.	c #64544B",
"u.	c #927A83",
"v.	c #433634",
"w.	c #CB9C9B",
"x.	c #332B14",
"y.	c #C9BCBF",
"z.	c #161200",
"A.	c #BA8473",
"B.	c #1C1B01",
"C.	c #352A04",
"D.	c #322603",
"E.	c #1D1500",
"F.	c #363114",
"G.	c #120D00",
"H.	c #363639",
"I.	c #84848A",
"J.	c #3B3434",
"K.	c #B2A5A3",
"L.	c #2C3126",
"M.	c #392D05",
"N.	c #252301",
"O.	c #8D6C6C",
"P.	c #2C2A05",
"Q.	c #25250B",
"R.	c #ADA19D",
"S.	c #978D93",
"T.	c #161100",
"U.	c #332E24",
"V.	c #2C3125",
"W.	c #866C75",
"X.	c #161B01",
"Y.	c #3C3433",
"Z.	c #242301",
"`.	c #353114",
" +	c #1C1500",
".+	c #332603",
"++	c #120C00",
"@+	c #352A03",
"#+	c #857A73",
"$+	c #BB8B84",
"%+	c #A27E81",
"&+	c #BA8474",
"*+	c #D9B6A7",
"=+	c #433534",
"-+	c #D5B6AC",
";+	c #342B14",
">+	c #CC9C9B",
",+	c #43352B",
"'+	c #64544A",
")+	c #B58C8C",
"!+	c #CC894B",
"~+	c #D49457",
"{+	c #E4D3CD",
"]+	c #C2B7C1",
"^+	c #4E4952",
"/+	c #AC6F4A",
"(+	c #DAAA86",
"_+	c #DDA779",
":+	c #B19CA2",
"<+	c #34311C",
"[+	c #D6AD99",
"}+	c #E3CFC8",
"|+	c #1B2102",
"1+	c #BBB9C6",
"2+	c #8E8077",
"3+	c #5F605B",
"4+	c #D1A89A",
"5+	c #D7C3BE",
"6+	c #272914",
"7+	c #D19D8A",
"8+	c #D99C66",
"9+	c #221C00",
"0+	c #DBC3BA",
"a+	c #B0A7AB",
"b+	c #B5AEBB",
"c+	c #2D3232",
"d+	c #2A2B1C",
"e+	c #242302",
"f+	c #948C8B",
"g+	c #B99EA1",
"h+	c #8D8B94",
"i+	c #B87648",
"j+	c #110C00",
"k+	c #332C1B",
"l+	c #2C3232",
"m+	c #342A04",
"n+	c #BBB5B7",
"o+	c #AEA9B4",
"p+	c #D2C4C6",
"q+	c #C5BFC4",
"r+	c #342B0C",
"s+	c #8F7375",
"t+	c #937F8B",
"u+	c #322602",
"v+	c #AC796C",
"w+	c #D2C0BE",
"x+	c #C49894",
"y+	c #E1BFA9",
"z+	c #252302",
"A+	c #CDBFC2",
"B+	c #E1B694",
"C+	c #D8C5C3",
"D+	c #DCB399",
"E+	c #E9E1DF",
"F+	c #BC948B",
"G+	c #9FA09C",
"H+	c #BFC0BA",
"                                                                                                    ",
"                                                                                                    ",
"                                                                                                    ",
"                                                                                                    ",
"                                                                                                    ",
"                                  B+(+_+K R ~+K 7+                                                  ",
"                                (+!+O O 5.v v C A s (+                                              ",
"                              K O z O z v q.v { q.@.i+p                                             ",
"                            D+s.z v x ).{ q.).).{ q.@.@.&+                                          ",
"                            [+s.C ).^ ^ ^ x ).x { { { q.}                                           ",
"                          *+6.O v ).^ ^ x { q.j j 7 } { {                                           ",
"                          [+6.N 5.A @.k ( r d x+: : |.q.{ w                                         ",
"                          [+K R s A.n :.q : x+: w.w.V ( q.(                                         ",
"                          4+i+p |.|.c q q q : w.o o : $.q.m                                         ",
"                          x+5.| &+A.A.0.q :.V w.o o o j.} m                                         ",
"                          ..@.P &+A.A.0.n.q q : w.w.x+:.j B                                         ",
"                            k | | j j 7 $.0.|.v+b w d d 7 i                                         ",
"                            d P k k 7 7 k :.: w ( w x+x+(                                           ",
"                            X |.| ( ( b | 0.: x+q : o w.w ..                                        ",
"                            [+^.|.$.$.$.$.|.: : ..: w.: x+:                                         ",
"                            6.[+|.$.$.!.| |.V x+w.w.w.x+V V                                         ",
"                            K 7+n p p | k | 0.x+w.w.: V :                                           ",
"                              n.V A.p | n.n.o a.a.w.: : X                                           ",
"                              V 4+A.| P 0.b.u T u ..: o                                             ",
"                                X w k /+&+s+2+f B F+q a.                                            ",
"                                  $+k k w s+#+0 g+i F+i                                             ",
"                                  F+| k :.2 f 2+R.d d a.                                            ",
"                                  w | P c 2 2 f u )+..a.                                            ",
"                                  j.k k r 2 2 2+u i : w._.                                          ",
"                                2.0.| | w 2 8 f u x+x+..<.h.                                        ",
"                              _.X $+P | r 2+0 T u F+: x+b+h.t.f                                     ",
"                          X b.B X r k k ( %.8 2+j.q q )+M L ] # ) c.                                ",
"                        y 7 j ( X y k | | i u H $+:.$+i 6 L ] # v.r.> ) 1                           ",
"                  w.j.G g g ~ m X i m ( v+B u f.j.|.b U 6 L ] # v.,+[.[.[.> 9 [                     ",
"              a.j.7 g ~ 3 < 3 G X 6 u v+( i /.u j.( i M 6 I.] # v.r.Q ,+Q Q Q ,+& '                 ",
"            )+( e ~ < < , ;.< c._.M M B | i /.u b )+b+6 M (.] v.v.r.Q Q ,+,+r.v.=+,+& '             ",
"        )+m q.~ 3 @ @ ;.;.l , J X a+6 o+B a.<.H B U 6 6 o+*.# # v.r./ / / ,+,+v.v.r.r.r.)           ",
"      %.{ ~ 3 @ @ ;., l l l , %._.I M 6 U g+_.f.U 6 6 6 I.] # # v.r.,+/ Q ,+,+r.r.r.v.v.#           ",
"      '+3 @ @ @ ;.>.-.-.-., , J H u o+M b+u =.f.M 6 6 o+*.# ! # v._ _ _ _ Q / _ Y.v.v.# # t.        ",
"    t+& @ , < , l l l -.l F.l ) 2+f 2 S f 0 S f.o+M M h+^+# J.! H.% / p.$ / / / _ v.=+Y.v.)         ",
"    J > @ @ , 7., l M.M.+.+.C.;+e.> 8 F 0 0 S #+i.D h+(.] J.Y.J.= % $ _ % _ _ $ _ _ / / Y.)         ",
"    ].3 ;.@ , , , +.C.r+r+,.M.,.F.7.' S #+S S S E h+I.h.] ! p.p.J.% $ % $ _ % $ _ % k+/ _ &         ",
"    ].3 @ l , , , r++.,.,.+.+.r++.r.[ 0 S.f+E S.S.S.L 1 & H.= % % $ % % d.d.$ U./ d.k+$ % #         ",
"    ].3 @ @ @ l l r+x.r+r+r+m+m+P.~.' 0 i.E h.h.h.S 1 ' v.= = % $ $ $ d.~.7.d.d._ ~.d.U.$ v.        ",
"    9 < @ ;.l l M.F.~.x.+.r+m+m+P.r+) 1 h.h.h.i.h+i.i.#+] H.= % % $ U.5 7.d.k+$ % 5 5 $ $ _         ",
"    ) @ l >.+.,.M.<+~.4.+.P.+.m+P.r+'+f+D f+S L h.1 [ t.# = % - % U.d.~.5 5 x.$ % d.5 5 $ _ '       ",
"    {.< , l +.F.+.~.~.4.D.P.P.D.+.4.Q ' h.S S S h.f 0 2 & = = % - U.L.'.4.4.k+$ % 4.4.4.$ Y.t.      ",
"    {.@ , >.+.C.m+r++.+.r+h P.D.D.+.# 0 G+S.f f f 2 8 ' & p.= % % - L.V.k+h ~.$ L.5 h k+$ p.)       ",
"    {.@ e.e.m+M.C.+.+.+.r+h h h P.h k+t.h.h.8 [ [ 8 8 1 & J.= = c+% L.V.x.h 5 L.V.5 Q.'.V.% ]       ",
"    {.@ >.C.C.M.m+m+,.r+x.m+D.P.h 4.$ [ i.i.#+0 0 0 f 8 ) Y.H.c+= % V.~.h Z V.L.'.* Z L.% a v.      ",
"    ) < l l >.C.C.D.r+x.r+m+D.. h 4.~.) f 0 S 1 [ [ [ ' & _ = = = % $ 5 Q.Z L.L.5 z+h '.- % Y.[     ",
"    ) < F.< q.{ @ . m+P.P.. P.. h Z g.& 1 8 S S 2 0 0 #+' Q = = = c+L.5 z+Z L.L.Z h 4.'.$ % p.t.    ",
"    9 3 3 j P A 3 . . 4.Z . . . P.6+5 ) 8 #+S f S [ ' t.& / = = = m.'.Q.e+5 L.L.Z Q.5 '.U.% p.)     ",
"  X s+~ } s s A 3 D.z+h h h . h . h g._ ) ' 1 [ [ 8 2 2 ' ,+p.= = - d+e+e+g.'.'.6+Q.5 ~.d.% p.^+    ",
"  d m g { P s q.3 D.z+P.h h . h . 4.5 # t.1 S 0 f 2 [ '+& 7.$ = = - 6+e+Q.5 L.'.Q.Q.5 4.5 % p.)     ",
"2.y r v+p K K ( G , z+. +.h h h h 4.~._ ' 1 1 [ [ ' [ 1 [ & 7.% = c+d+e+Q.d+d+6+e+z+4.4.5 m.= #     ",
"i r n n.n.n n v+e @ z+. D.4.h h h x.5 $ & ' S f 0 0 2 1 ' & 7.= = c+d+z+* ; ; 6+ .z+Q.4.6+L.= J.    ",
"%.| 7+n p |.:.w j {.. z+D.h h h P.x.5 $ ' 8 1 [ 1 [ ' ' ) [.r+% a 4 d+e+6+; d+6+ .e+Q.Q.Q.'.= = t.  ",
"s+$+| k A.n.V 0.m > . + . h h h h 6+5 L.# ' 1 ' [ 8 8 8 1 t., d.c+- * e+d+; d+6+&.e+z+z+z+e+z+h #   ",
"u b k | c n.:.j.e C.e+ .e+. h Z * * ; L.t.1 1 ' S #+8 [ ' & , h - - Q. .; ; d+Q.&.&.&.e+e+* d+* P.t.",
"=.m v+| $.|.0.b > D.+ + &.e+z+Z Z 6+'.- # [ 1 ' ' ' [ [ ' 9 < . '.L.* 6+; ; d+Q.B.B.+ e+e+* - U.h # ",
"S.%.7 k v+w 0.v+3 D.+ &.&.e+h 4.Z d+'.L.# ' [ t.t.S f 2 8 ' & . 4.'.6+d+d+d+6+&.B.Q.Q.Q.*  .Q.4.~.) ",
"f+l.G j | |.0.m @ . &.E.&.+ z+5 6+6+'.L.# 1 2 f 1 t.9 ' ' ) > . e+d+6+; d+d+* B.&.Q.+ e+5 L.'.d+#   ",
"h.].e } @.A.&+e e.D.&. +B.B.z+h h 6+d+'.% t.[ ' ' ' S 8 ' ) & x.+ 6+; 6+d+d+Q.B.+ Q.+ e+Q.m.a J.1   ",
"  t {.g { A { 3 >.D.&.B.B.B.e+Q.* Z d+'.# ' 8 S 8 [ t.[ 8 [ ) ,++ Q.4.* 6+*  . +l ~ & U.'.d+m.Y.    ",
"  ].& ,+> {.) & , z+ + +E.T.&.e+e+Q.6+; - t.' 1 8 8 8 [ '+> & ,+z+&.5 d+* * B.. 3 g G ].) ,+_ ^+    ",
"  S t.t.# ) ) # h &. +&.&.T.&.z+e+* 6+d+V.) ' ' ' ' '+) 9 ' & > . &.* ; * &.z.@ ~ { 7 7 m c.] t     ",
"    E W.> & < & t.r++ + &. + +e+e+Q.d+d+% t.' ' [ [ [ [ 9 > > & ;+&.+ Q.&.T. +3 { } 7 b r r s+W.    ",
"                  @ z+e+h +  ++ e+* 6+'.c+^+[ [ '+& & < & , > ) Q &.E.e+ +G.E.~ q.j 7 r w j.y       ",
"                e l z+. < +  + +z+Q.6+'.= t.9 & , ) ) {.J G {.) & + &.&. +G.E.> q.j 7 v+j.$+)+      ",
"                ) e.. z++ + + B.+ Q.6+; - ) ) +.+.) g > q.e ) 9 & . &.&.&.T. +3 } j 7 ( r j.j.      ",
"                > C.. z+z+z+z++ &.e+Q.; % ) t.3+1 h.#+f L i.E 1 '+, + + e+&.z., { j 7 ( r j.i       ",
"                < C.D.. . z+e++ &.+ h '.% ) 2 S.D D D D D f.f+S ' r.z++ z++  ++ ~ } k v+r y         ",
"              ].< m+D.. . . z+e+z++ . 5 U.t.#+S.D I D D D f.T 2+[ & . + + + &. +. g 7 v+b )+        ",
"              t , m+D.D.. . z+z+e+ ++ h k+t.2 =.D D I D D f.S.0 S ) , + + e++ &.+ r+g j (           ",
"              t , .+D.D.D.. z+z+z++ + h x.t.#+S.D D I I D f.f.f+f ' ,+z++ + z+z+z+;+, e             ",
"                                                                                                    ",
"                                                                                                    ",
"                                                                                                    ",
"                                                                                                    ",
"                                                                                                    "};
