/* XPM */
static char * rick_12_xpm[] = {
"50 81 257 2",
"  	c #FF000000",
". 	c #2B2402",
"+ 	c #221C01",
"@ 	c #442F0C",
"# 	c #433B35",
"$ 	c #343225",
"% 	c #34322B",
"& 	c #524434",
"* 	c #262613",
"= 	c #353333",
"- 	c #2C312B",
"; 	c #2A2D24",
"> 	c #563926",
", 	c #3B3113",
"' 	c #6C6255",
") 	c #5B4C44",
"! 	c #37383B",
"~ 	c #623E2B",
"{ 	c #875737",
"] 	c #523A45",
"^ 	c #75460D",
"/ 	c #3B3324",
"( 	c #A9766A",
"_ 	c #3B332C",
": 	c #CB9A95",
"< 	c #443423",
"[ 	c #74695D",
"} 	c #96654C",
"| 	c #B4796B",
"1 	c #756C63",
"2 	c #83756C",
"3 	c #543622",
"4 	c #2C3132",
"5 	c #2B2B1C",
"6 	c #B6B0C6",
"7 	c #A46C63",
"8 	c #7C7067",
"9 	c #675649",
"0 	c #8D827C",
"a 	c #332D32",
"b 	c #AB7A74",
"c 	c #C38C83",
"d 	c #BC938B",
"e 	c #775847",
"f 	c #857A74",
"g 	c #704F36",
"h 	c #2B260B",
"i 	c #B89896",
"j 	c #996956",
"k 	c #AC725C",
"l 	c #3B310B",
"m 	c #997467",
"n 	c #C48B78",
"o 	c #CC9FA2",
"p 	c #BB826A",
"q 	c #C4948A",
"r 	c #B37C78",
"s 	c #BC7C5C",
"t 	c #6B5964",
"u 	c #A59998",
"v 	c #955928",
"w 	c #B8867B",
"x 	c #8B5115",
"y 	c #A7817A",
"z 	c #B66E27",
"A 	c #9A6139",
"B 	c #AA8985",
"C 	c #A15C1A",
"D 	c #9B98A2",
"E 	c #897C84",
"F 	c #96837D",
"G 	c #8A6556",
"H 	c #A5928D",
"I 	c #A59CA4",
"J 	c #866B65",
"K 	c #CE936F",
"L 	c #7E7A82",
"M 	c #B5AEC1",
"N 	c #C8823E",
"O 	c #C37B38",
"P 	c #B4765A",
"Q 	c #433424",
"R 	c #C17D4E",
"S 	c #7C726B",
"T 	c #9C928D",
"U 	c #B4ACB2",
"V 	c #C9968B",
"W 	c #E0BA9F",
"X 	c #CAAAA9",
"Y 	c #74450D",
"Z 	c #2A2613",
"` 	c #CCA1A5",
" .	c #1C2102",
"..	c #C49995",
"+.	c #342B0B",
"@.	c #A56B4A",
"#.	c #CAB9B8",
"$.	c #B97C73",
"%.	c #987976",
"&.	c #1D1B01",
"*.	c #5E4D60",
"=.	c #958C8B",
"-.	c #3B3105",
";.	c #43310B",
">.	c #3A2D05",
",.	c #35310C",
"'.	c #2B2D24",
").	c #824C0F",
"!.	c #B97B73",
"~.	c #332D1B",
"{.	c #613E2D",
"].	c #775959",
"^.	c #D6A991",
"/.	c #A8A5AA",
"(.	c #6E6A73",
"_.	c #B8A8A9",
":.	c #C28E87",
"<.	c #B7B1B5",
"[.	c #443424",
"}.	c #D19D95",
"|.	c #BB857A",
"1.	c #D6C9C9",
"2.	c #CDB4B1",
"3.	c #DEC2B5",
"4.	c #2B2A14",
"5.	c #AB6523",
"6.	c #DDA16E",
"7.	c #35311C",
"8.	c #BBB2C2",
"9.	c #332602",
"0.	c #BC8B84",
"a.	c #C59DA0",
"b.	c #AB8E91",
"c.	c #7B675A",
"d.	c #332E23",
"e.	c #3A2C05",
"f.	c #9A9498",
"g.	c #2B2B14",
"h.	c #7B7378",
"i.	c #8C8586",
"j.	c #B48983",
"k.	c #D09FA1",
"l.	c #835F64",
"m.	c #332E2C",
"n.	c #C89487",
"o.	c #B26D67",
"p.	c #3B3433",
"q.	c #8F613D",
"r.	c #43352C",
"s.	c #D08E52",
"t.	c #64544B",
"u.	c #927A83",
"v.	c #433634",
"w.	c #CB9C9B",
"x.	c #332B14",
"y.	c #C9BCBF",
"z.	c #161200",
"A.	c #BA8473",
"B.	c #1C1B01",
"C.	c #352A04",
"D.	c #322603",
"E.	c #1D1500",
"F.	c #363114",
"G.	c #120D00",
"H.	c #363639",
"I.	c #84848A",
"J.	c #3B3434",
"K.	c #B2A5A3",
"L.	c #2C3126",
"M.	c #392D05",
"N.	c #252301",
"O.	c #8D6C6C",
"P.	c #2C2A05",
"Q.	c #25250B",
"R.	c #ADA19D",
"S.	c #978D93",
"T.	c #161100",
"U.	c #332E24",
"V.	c #2C3125",
"W.	c #866C75",
"X.	c #161B01",
"Y.	c #3C3433",
"Z.	c #242301",
"`.	c #353114",
" +	c #1C1500",
".+	c #332603",
"++	c #120C00",
"@+	c #352A03",
"#+	c #857A73",
"$+	c #BB8B84",
"%+	c #A27E81",
"&+	c #BA8474",
"*+	c #D9B6A7",
"=+	c #433534",
"-+	c #D5B6AC",
";+	c #342B14",
">+	c #CC9C9B",
",+	c #43352B",
"'+	c #64544A",
")+	c #B58C8C",
"!+	c #CC894B",
"~+	c #D49457",
"{+	c #E4D3CD",
"]+	c #C2B7C1",
"^+	c #4E4952",
"/+	c #AC6F4A",
"(+	c #DAAA86",
"_+	c #DDA779",
":+	c #B19CA2",
"<+	c #34311C",
"[+	c #D6AD99",
"}+	c #E3CFC8",
"|+	c #1B2102",
"1+	c #BBB9C6",
"2+	c #8E8077",
"3+	c #5F605B",
"4+	c #D1A89A",
"5+	c #D7C3BE",
"6+	c #272914",
"7+	c #D19D8A",
"8+	c #D99C66",
"9+	c #221C00",
"0+	c #DBC3BA",
"a+	c #B0A7AB",
"b+	c #B5AEBB",
"c+	c #2D3232",
"d+	c #2A2B1C",
"e+	c #242302",
"f+	c #948C8B",
"g+	c #B99EA1",
"h+	c #8D8B94",
"i+	c #B87648",
"j+	c #110C00",
"k+	c #332C1B",
"l+	c #2C3232",
"m+	c #342A04",
"n+	c #BBB5B7",
"o+	c #AEA9B4",
"p+	c #D2C4C6",
"q+	c #C5BFC4",
"r+	c #342B0C",
"s+	c #8F7375",
"t+	c #937F8B",
"u+	c #322602",
"v+	c #AC796C",
"w+	c #D2C0BE",
"x+	c #C49894",
"y+	c #E1BFA9",
"z+	c #252302",
"A+	c #CDBFC2",
"B+	c #E1B694",
"C+	c #D8C5C3",
"D+	c #DCB399",
"E+	c #E9E1DF",
"F+	c #BC948B",
"G+	c #9FA09C",
"H+	c #BFC0BA",
"                                                                                                    ",
"                                                                                                    ",
"                                                                                                    ",
"                                                                                                    ",
"                                                                                                    ",
"                                                                                                    ",
"                                                                                                    ",
"                                                                                                    ",
"                                                                                                    ",
"                                              (+(+_+_+_+                                            ",
"                                          *+_+s.!+R 5.i+!+K                                         ",
"                                          p 5.z O 5.v x v v P n                                     ",
"                                        [+~+5.x ).v v ).{ q.} v |                                   ",
"                                        ^.s.v x ^ ).^ ~ Y { q.} q.                                  ",
"                                        (+s.A { ).).).).).v x { { (                                 ",
"                                        _+_+n A.( k r r ( 7 q.g g G                                 ",
"                                      ^.^.^.|.0.:.x+x+w.>+w.b { g (                                 ",
"                                      4+D+n |.0.:.q V w.o o $+q.{ j.                                ",
"                                      X ^.A.A.0.:.q V w.o >+$+} { j.                                ",
"                                      X V k j v+|.|.V w.w.: w } }                                   ",
"                                      X :.$.v+( n | 7 v+:.q $+q.m                                   ",
"                                    X [+n.| ( | n.x+b w w d j.q.y                                   ",
"                                    X 4+A.$.$.|.: w.d d ....w 7                                     ",
"                                      }.A.$.| c : : V x+: x+:.q x+                                  ",
"                                      ` |.| | | A.:.V w.: a.a.q X                                   ",
"                                        |.| $.|.: V :.$+F 0 F _.                                    ",
"                                        &+| 7 | |.|.:.d %.#+0                                       ",
"                                        $+p | p c 0.|.$+s+#+0                                       ",
"                                        q $.$.&+0.0.|.$+s+#+0                                       ",
"                                      4+p $.| $.w w w j.2 2 0                                       ",
"                                    ..^.s k k @.k $.0.)+2 S 0                                       ",
"                                g+y w n.| k k @.| :.q j.%.0 f.                                      ",
"                          _.)+v+j e 7 ..( k k k | 0.q d B f =.                                      ",
"                      i y G g ~ > 3 G 2.B v+( 7 | 0.:.q )+f.h.c.                                    ",
"                X ..( e ~ > < @ @ ;.e X K.r | v+!.0.0.0.B I i.& & c.                                ",
"            g+B m e ~ 3 < ,+< @ l l ].K.6 b.|.r $.0.$+b K./.i.& v.v.& ].                            ",
"          %.].~ > < < Q < / 7., M.e.#+/.M o+)+d w |.b g+b+a+h.# # v.=+r.& c.                        ",
"          ].3 7., , 7._ / / 7.F.+.m+2 I b+6 a+i w w g+6 M a+t # J.Y.Y._ Y._ ) 2+                    ",
"        i.& , 7.F.F.7.% $ ;+/ ;+D.D.' S.D /./.u i U 6 6 /.f+t.# J.Y._ Y.Y._ Y.r.'                   ",
"        S r., / ;+`.F.7.7.;+7.x.D.D.. m+& [ 1 0 T o+6 6 /.1 # J.J._ % % p.p.p._ ,+'+                ",
"        t Q F.7.+.r+7.<+$ d.x.r+7.x.P.x.# 2 f S S 8 I I I.(.# H.H.= $ % _ = p.Y.v.#                 ",
"        & , ,.+.+.r+`.7.<+$ 4.g.~.~.h x.,+=.T i.h.S f+D h+1 # ! H.% _ $ _ J.= J.J.# 1               ",
"        3 l m+m+D.C.~.$ d.V.4.h 4.g.g.g.~.' S S f+D f.i.S [ v.H.H.= $ % p.J.= J.= J.'               ",
"      ' < M.m+D.. . x.% L.d.Q.z+. Z g.h ~.t.i.f+f.i.h.S S [ J.= = = % % % % = = % p.'               ",
"      [ , m+C.D.. e+h % 5 5 h z+Q.Z 4.r+5 ) S.0 1 h.i.S.L [ Y.c+c+% $ $ $ m.= m.% p.3+              ",
"      1 , D.m+P.P.z+. $ '.g.4.h h P.m+, , / ' 1 f T f.f [ [ Y.= - % 5 d.% c+= $ m.% 3+              ",
"      t , . z+. . z+e+5 L.Q.4.+.g ( A.A.k ~ 0 T 0 f 1 [ 1 [ Y.= - - '.d.'.% = V.% = '               ",
"      1 $ z+e+z+z+e+ .5 - z+g A.n A.&+v+g < ' S ' S i.0 #+' J.= = L.5 '.5 % % k+$ = t.              ",
"      *.d.h e+e+e+ .e+* - & | | v+( r ( 9 d.) h.f =.0 [ ' ' J.= - L.5 5 5 % $ '.L.= t.              ",
"      v.g.h h  . . . .e+d+{.k r b r w r c./ & S.h.' t.' 8 [ J.= 4 - L.d+'.% L.4.m.= [               ",
"    t / * P.g.Q.|+|+B. .5 g k | | ( r r e 7.% ' ' 8 f #+1 [ p.= c+L.'.* V.% '.'.m.p.3+              ",
"    ) , h P.x.* B.X. + .Q.> } ( v+b b b e ;+- h.f 2 [ ' 9 ' % c+4 '.d+Q.5 L.d+; L.= )               ",
"    v., r+. h d+B.B. + . .3 } k v+v+r v+g ~.V.' [ t.t.' ' ' % c+- ; Q.Q.'.'.d+'.- = '               ",
"  S ,+x.P.. z+Q. .B.e+e+z+, { @.v+v+} 3 . Q.'.# ' 1 S [ ' 9 7.c+4 ;  .6+'.d+* 5 c+m.'               ",
"  t Q 4.. z+ .B.B. .e+z+z+D.g } @.} @  . .* - # 1 S ' '+9 t.+.$ c+d+ .* '.* Q.g.m.m.t.              ",
"  ] x.e+e+. .  . . .e+z+ .e+3 { } g .  .Q.6+'.L.t.'+'+) 9 '+z+d.- Q. .d+; Q. .* 4.'.&               ",
"(.< , . +.m+P.z+Z. .e+ .e+z+@ ~ ~ . Z. .Q.d+'.L.& [ S 8 1 t.+ 6+L.Q. .d+d+d+Q. .Q.d+#         y y   ",
") < , m+M.M.P.. e+ .e+Z. .e++., ,  +B. . .* ; - # 1 8 1 [ t.&.Q.; Q.Q.; * d+L.d+; '.$       m ( y g+",
"t.e.D.. m+. . N.Z.z+z+Z.~.& +.,+7. .B. . .d+L.- & & '+) 9 '+z+B.6+Q.Q.d+Q.Q.d+; '.'.$ S b.m 7 ( y i ",
"^+, D.. . z+. z+. . z+[.9 & z+. + T.T. .e+6+'.L.# ' ' [ [ ) x. +Q.Q.d+d++ &.e++ + &.< c.j j 7 7 r i ",
"  # D.D.. . z+D.D.z+e+< < + &. + +j+G.B. .6+'.- % ) 9 [ ' ) k+z.+ * 6+* B.B.e+* + . {.q.j j j ( y i ",
"  t / m+D.. D.r+h z+N.+ &. +T. + +G.G. + .6+; '.= ' '+' [ ) Q z. +Z d+* z.z.B.B.z., g } j j j ( j.i ",
"    ^+, .+m+C.+.. e++ E. + +z.z. +T.G.G. .Q.d+; - '+' ) '+'+> + T.Q.6+ .T.G.G.G.G., { } j j 7 r j.  ",
"    t Q C.r+l M.D.z++ E. + +z.z.z. +T.G.B.Q.d+'.L.) ' 9 ' ) < ;+z. +*  +G.j+j+G.G., { } 7 j } ( )+  ",
"      *.) ,+< & '+J < + &. +B.< z+B.z.G.z. .4.'.- # & 3 '+'+& # E.z.Q.B.G.j+j+j+j+E.3 { q.} j (     ",
"                    3 . &.&.&.&.&.B. +G.G.B.* '.- # r., 9 9 9 ) +  +&.Q.T.G.j+j+j+G.E.r+3 ^ g m     ",
"                    @ . Z.&.&. + +&.E.z.G.T.Q.d+'.# 9 < ' ) ) ) x.E. +h &.G.j+j+G.T.T.+ . .+D.t.    ",
"                  1 , . N.Z.Z.&.&.E.E. +z.G.B.6+- r.9 # ' ' t.'+,+E. ++ 6+z.G.j+z.z.z. +D.Q #       ",
"                  ' +.. . z+z++ &.&.&.&. +G.G.Q.'.# i.S.h.S ' 9 ) +  +&.6+5 Q.E.+ + + Q.r.)         ",
"                  3++.. . . z+Z.+ &.&.&.E. +G. +4.# f+f.#+0 1 9 '+x.+ E.e+#     ) ) t               ",
"                  ] r+D.D.. N.+ + + &.&.E.E.z.G.Q.= i.f.h.i.L ' '+r.+ E.+ 4.'                       ",
"                  t.;+h . z+z++ + + + &.&.&.z.z.&.m.f f.h.i.i.1 t.& h + + z+#                       ",
"                                                                                                    ",
"                                                                                                    ",
"                                                                                                    ",
"                                                                                                    ",
"                                                                                                    ",
"                                                                                                    ",
"                                                                                                    ",
"                                                                                                    ",
"                                                                                                    "};
