/* XPM */
static char * rick_08_xpm[] = {
"50 81 257 2",
"  	c #FF000000",
". 	c #2B2402",
"+ 	c #221C01",
"@ 	c #442F0C",
"# 	c #433B35",
"$ 	c #343225",
"% 	c #34322B",
"& 	c #524434",
"* 	c #262613",
"= 	c #353333",
"- 	c #2C312B",
"; 	c #2A2D24",
"> 	c #563926",
", 	c #3B3113",
"' 	c #6C6255",
") 	c #5B4C44",
"! 	c #37383B",
"~ 	c #623E2B",
"{ 	c #875737",
"] 	c #523A45",
"^ 	c #75460D",
"/ 	c #3B3324",
"( 	c #A9766A",
"_ 	c #3B332C",
": 	c #CB9A95",
"< 	c #443423",
"[ 	c #74695D",
"} 	c #96654C",
"| 	c #B4796B",
"1 	c #756C63",
"2 	c #83756C",
"3 	c #543622",
"4 	c #2C3132",
"5 	c #2B2B1C",
"6 	c #B6B0C6",
"7 	c #A46C63",
"8 	c #7C7067",
"9 	c #675649",
"0 	c #8D827C",
"a 	c #332D32",
"b 	c #AB7A74",
"c 	c #C38C83",
"d 	c #BC938B",
"e 	c #775847",
"f 	c #857A74",
"g 	c #704F36",
"h 	c #2B260B",
"i 	c #B89896",
"j 	c #996956",
"k 	c #AC725C",
"l 	c #3B310B",
"m 	c #997467",
"n 	c #C48B78",
"o 	c #CC9FA2",
"p 	c #BB826A",
"q 	c #C4948A",
"r 	c #B37C78",
"s 	c #BC7C5C",
"t 	c #6B5964",
"u 	c #A59998",
"v 	c #955928",
"w 	c #B8867B",
"x 	c #8B5115",
"y 	c #A7817A",
"z 	c #B66E27",
"A 	c #9A6139",
"B 	c #AA8985",
"C 	c #A15C1A",
"D 	c #9B98A2",
"E 	c #897C84",
"F 	c #96837D",
"G 	c #8A6556",
"H 	c #A5928D",
"I 	c #A59CA4",
"J 	c #866B65",
"K 	c #CE936F",
"L 	c #7E7A82",
"M 	c #B5AEC1",
"N 	c #C8823E",
"O 	c #C37B38",
"P 	c #B4765A",
"Q 	c #433424",
"R 	c #C17D4E",
"S 	c #7C726B",
"T 	c #9C928D",
"U 	c #B4ACB2",
"V 	c #C9968B",
"W 	c #E0BA9F",
"X 	c #CAAAA9",
"Y 	c #74450D",
"Z 	c #2A2613",
"` 	c #CCA1A5",
" .	c #1C2102",
"..	c #C49995",
"+.	c #342B0B",
"@.	c #A56B4A",
"#.	c #CAB9B8",
"$.	c #B97C73",
"%.	c #987976",
"&.	c #1D1B01",
"*.	c #5E4D60",
"=.	c #958C8B",
"-.	c #3B3105",
";.	c #43310B",
">.	c #3A2D05",
",.	c #35310C",
"'.	c #2B2D24",
").	c #824C0F",
"!.	c #B97B73",
"~.	c #332D1B",
"{.	c #613E2D",
"].	c #775959",
"^.	c #D6A991",
"/.	c #A8A5AA",
"(.	c #6E6A73",
"_.	c #B8A8A9",
":.	c #C28E87",
"<.	c #B7B1B5",
"[.	c #443424",
"}.	c #D19D95",
"|.	c #BB857A",
"1.	c #D6C9C9",
"2.	c #CDB4B1",
"3.	c #DEC2B5",
"4.	c #2B2A14",
"5.	c #AB6523",
"6.	c #DDA16E",
"7.	c #35311C",
"8.	c #BBB2C2",
"9.	c #332602",
"0.	c #BC8B84",
"a.	c #C59DA0",
"b.	c #AB8E91",
"c.	c #7B675A",
"d.	c #332E23",
"e.	c #3A2C05",
"f.	c #9A9498",
"g.	c #2B2B14",
"h.	c #7B7378",
"i.	c #8C8586",
"j.	c #B48983",
"k.	c #D09FA1",
"l.	c #835F64",
"m.	c #332E2C",
"n.	c #C89487",
"o.	c #B26D67",
"p.	c #3B3433",
"q.	c #8F613D",
"r.	c #43352C",
"s.	c #D08E52",
"t.	c #64544B",
"u.	c #927A83",
"v.	c #433634",
"w.	c #CB9C9B",
"x.	c #332B14",
"y.	c #C9BCBF",
"z.	c #161200",
"A.	c #BA8473",
"B.	c #1C1B01",
"C.	c #352A04",
"D.	c #322603",
"E.	c #1D1500",
"F.	c #363114",
"G.	c #120D00",
"H.	c #363639",
"I.	c #84848A",
"J.	c #3B3434",
"K.	c #B2A5A3",
"L.	c #2C3126",
"M.	c #392D05",
"N.	c #252301",
"O.	c #8D6C6C",
"P.	c #2C2A05",
"Q.	c #25250B",
"R.	c #ADA19D",
"S.	c #978D93",
"T.	c #161100",
"U.	c #332E24",
"V.	c #2C3125",
"W.	c #866C75",
"X.	c #161B01",
"Y.	c #3C3433",
"Z.	c #242301",
"`.	c #353114",
" +	c #1C1500",
".+	c #332603",
"++	c #120C00",
"@+	c #352A03",
"#+	c #857A73",
"$+	c #BB8B84",
"%+	c #A27E81",
"&+	c #BA8474",
"*+	c #D9B6A7",
"=+	c #433534",
"-+	c #D5B6AC",
";+	c #342B14",
">+	c #CC9C9B",
",+	c #43352B",
"'+	c #64544A",
")+	c #B58C8C",
"!+	c #CC894B",
"~+	c #D49457",
"{+	c #E4D3CD",
"]+	c #C2B7C1",
"^+	c #4E4952",
"/+	c #AC6F4A",
"(+	c #DAAA86",
"_+	c #DDA779",
":+	c #B19CA2",
"<+	c #34311C",
"[+	c #D6AD99",
"}+	c #E3CFC8",
"|+	c #1B2102",
"1+	c #BBB9C6",
"2+	c #8E8077",
"3+	c #5F605B",
"4+	c #D1A89A",
"5+	c #D7C3BE",
"6+	c #272914",
"7+	c #D19D8A",
"8+	c #D99C66",
"9+	c #221C00",
"0+	c #DBC3BA",
"a+	c #B0A7AB",
"b+	c #B5AEBB",
"c+	c #2D3232",
"d+	c #2A2B1C",
"e+	c #242302",
"f+	c #948C8B",
"g+	c #B99EA1",
"h+	c #8D8B94",
"i+	c #B87648",
"j+	c #110C00",
"k+	c #332C1B",
"l+	c #2C3232",
"m+	c #342A04",
"n+	c #BBB5B7",
"o+	c #AEA9B4",
"p+	c #D2C4C6",
"q+	c #C5BFC4",
"r+	c #342B0C",
"s+	c #8F7375",
"t+	c #937F8B",
"u+	c #322602",
"v+	c #AC796C",
"w+	c #D2C0BE",
"x+	c #C49894",
"y+	c #E1BFA9",
"z+	c #252302",
"A+	c #CDBFC2",
"B+	c #E1B694",
"C+	c #D8C5C3",
"D+	c #DCB399",
"E+	c #E9E1DF",
"F+	c #BC948B",
"G+	c #9FA09C",
"H+	c #BFC0BA",
"                                                                                                    ",
"                                                                                                    ",
"                                                                                                    ",
"                                                                                                    ",
"                                                                                                    ",
"                                        B+(+(+8+(+                                                  ",
"                                    W 6.s.R z C 5.5./+K ^.                                          ",
"                                    s.O N O C { { A } @.R 7+                                        ",
"                                  ^.i+C x x { q.x x v A @.@.                                        ",
"                                  _+z x ^ ^ ).x ^ ).{ { { q.j                                       ",
"                                  ~+5.x ^ ^ ).).{ { q.q.g g {                                       ",
"                                W ~+O A j j j b $+:.q j.j g { w                                     ",
"                                D+8+~+A.|.0.:.x+V : >+w.w q.{ v+                                    ",
"                                n R n |.|.:.q q V >+o o q j { j                                     ",
"                                P K n &+|.c q q V >+o ` x+7 q.j                                     ",
"                                n.K K A.$.0.q 0.V >+o >+V ( } y                                     ",
"                                  n.K k j k |.|.| ( r 0.q w }                                       ",
"                                  4+A.k j k p : $+7 b $+q j.j                                       ",
"                                  2.c | b v+A.V ..d x+w.w.$+r                                       ",
"                                }.-+V A.$.!.|.: w.....>+w.x+V o                                     ",
"                                7+4+c $.$.| &+q V : w.: : : q                                       ",
"                                  4+n.A.$.k | c V : : : : : w.                                      ",
"                                  X w.&+$.$.c V >+: ..: : :                                         ",
"                                    X &+v+k | |.c c ..: ..                                          ",
"                                    _.w $.!.A.n.: : q q x+                                          ",
"                                      )+$.$.n.x+g+_.:+F+i                                           ",
"                                      i $.| &+y f 2 F i F+                                          ",
"                                      )+| k | %.#+2+H i x+X                                         ",
"                                      0.k k A.%.#+f u i : a.u                                       ",
"                                    2.c P k c m 2 f u ..: i S.t.                                    ",
"                                  B ..w ( v+w m 2 #+T i q g+D ^+& '+].m                             ",
"                                b j F+j.( | |.m S 2 T i w _.D ^+] # ,+3 {.e J                       ",
"                            y G g {.j._.y | w 2+0 f+H j.j.b+h+] ] # r.r.r.r.r.> 9 c.                ",
"                        j.j g ~ 3 3 %.<./.y $.y 2 2 b ( K.6 D ] # # v.=+Q Q r.r.r.,+) c.            ",
"                    ..b { ~ @ @ @ @ G _.M :+r 0.u T ( j.b+6 o+^+] # v.,+Q ,+r.v.v.v.v.r.)           ",
"                  j.j g 3 , ;.;.;., ].R.o+M i $+u S.%+_.6 6 I ^+# # v.,+Q r.v.v.# v.v.v.# '         ",
"              j.m e > < @ , , ;.-.l 9 u /.M 6 a+/.D /.M 6 6 h.# # # v.Y.v.# v.v.v.v.# v.# )         ",
"          B j g ~ < < < , -.l l M.M.& T I o+b+o+I D /.M 6 D ] v.J.v.=+_ Y.=+Y.v.Y.v.v.v.v.&         ",
"          l.~ 3 @ , [.> < , l >.C.C., 2 h.' ' f U f.8 9 1 ) # H.Y.p._ _ _ v.J.J.Y.v.Y.p.Y.# [       ",
"          t.< , @ ;.< r._ / 7.,.C.+.D..+) 2 F T R.S.=.=.f ) Y.J.Y.p.Y.J.J.# J.J._ v.Y./ _ v.[       ",
"          & , @ @ @ @ ,+r._ $ 7.$ <+h h ,+8 0 =.f i.f 8 ' r.Y._ = = v.Y.p.Y.J.p.Y.J.p.$ % Y.3+      ",
"        f & @ l ;., r+Q Y._ $ 7./ ~.h D.7.t.' 1 8 [ [ ' t.r._ % p.H.J._ % _ = = J.J.$ $ $ p.t.      ",
"        f & @ M.>., r+F._ p.$ d.7.~.h . x.1 =.f.0 i.0 0 1 # p.= p.H.p._ = % = J.H.= <+~.~.Y.t.      ",
"        2+> @ l l , +.r+r._ U.5 <+~.4.h x.# [ S S [ ' ) '+G J ) v.H.p._ p.% / p.J.= d.k+d.r.)       ",
"        s+> l e.e.M.C.P./ _ '.4.~.d.<+g.x.& 2 2+#+8 1 1 ].} |.$+%.'+v._ _ % _ p.p.$ ~.h d.Y.)       ",
"        ].3 , >.C..+.+D.7.% L.g.5 '.'.~.5 _ f =.#+f f 1 ) j w w $+$+O.r._ $ Y.Y.% % k+P.$ p.#       ",
"        ].3 , l C.D.D.D.r+% d.4.4.5 5 5 d+d.) '+1 '+& & ) b w $+|.0.j.{./ / _ = $ ~.h x.$ p.#       ",
"        e 3 l M.C.D.. D.. d.'.g.4.g.x.h h 4.[ 0 #+#+#+1 J y r r $.|.j.g / % % U.~.h D.~.$ = #       ",
"        ].< >.@+.+. . . + x.5 6+Z Z h z+. z+# ' 8 [ t.& e ( w w 0.|.r {.7.$ d.4.Z . x.d.'.= #       ",
"        J 3 , C.D.. . . + . 4.4.h Q.e+Z.z+. r.' 8 [ ' 9 m r v+v+w 0.r {.7.d.g.h h z+4.Z x.% #       ",
"        f 3 l +.D.D.z+. + e+4.d+h e+e+e+Z.z+Q 8 8 #+1 9 g j r w $+w w ]./ 5 z+z+e+e+z+z+~.p.)       ",
"        h.,+l m+.+D.z+. + &.h 4.Q.z+e+ .e+z+h & [ '+& < h e.} v+w w &+q.Q '.* + + +  .h ~.% &       ",
"        ].3 l m+.+. &.. e+B.e+4.Q.e+ .|+ . .r+' S 2 2 ' ~. +g } | &+b ~ _ U.U.* &.+ h Z 5 L.% )     ",
"        9 @ >.M..+N.&.. e+&.&.Z Q. . .|+ .e+z+'+1 ' '+& h  +@ q.@.v+( ~ _ U.U.m.6+Q.6+4.$ % % &     ",
"        g @ l M.z++ &.. z+B.z.Q.Q. . . . .e+e+& [ ' ' '+7.&.T.r+~ } q.3 U.'.'.m.m.* 4.* Q.5 U.Y.    ",
"        g < l . N.e+&.z+e+|+B.+ 4.Q.e+ . . .e+'+8 2 1 9 ,+k+B.T.E.r+D.r+5 5 d+m.c+L.5 L.Z Z h x.)   ",
"        l.> >.D.. e+&.e+ . .z.B.4.d+Q.e+ .e+e+& [ ) & < ;+d.* &.z.+ B.4.- U.V.'.- L.L.- d+h z+4.;+) ",
"    X q d O.> D.+ + &.e+ . . +z.Q.V.'.; d+e+ .) 8 2 8 ' & $ d+* B.+.. & t.r.5 '.- m.- m.m.Q.. z+/ & ",
"    F+|.:.d B e , + &.+ z+ .B.T.+ ~.- L.V.Z  .& 1 ' ' & < ~.; Q.z. .e+;+[.7.5 '.L.m.m.m.m.Q.h h , t.",
"  i d j.0.d d %.{.. &.B.+  .B.T. +Z % V.- '. .,+[ '+& & < x.; B.z.Z.e+e+h 5 L.L.5 5 U.- - Q.h h )   ",
")+j.d i )+$+0.j.g ;++  +&. .|+z.T.+ '.L.c+;  .& 8 8 c.9 ) , d.d+&. ++ Z.z+Q.'.'.5 Z d.- L.d+4.7.    ",
"y ( $+i )+$+0.:.G < +  +B.|+ . +T.z.5 - - d+ .,+[ t.'+) ,+r+<+L.d+T.T.&.e+N.e+z+. . 4.V.- L.$ &     ",
"  v+| F+F+$+:.:.m 3 h  +B.&.B.B.T.T.Q.- - ; |+& [ 9 ) > 3 l ;+% L.+ r+ +B.+ Z.e+e++ . k+d.$ &       ",
"  ( v+0.d $+q q m < Q.z. +&.B.B.z.G.&.'.- d+&.,+[ '+'+) & , r+% % & > &.G.z.+ . z++ N.. 7.^+        ",
"    b v+d 0.q w g l &.T. +&.&.B.z.++z.g.4 ;  .# 1 [ ' ) & 3 r+- c+_ 4.&.T.G.;+& r.7./ [.'+          ",
"      y !.|.( g @ .  +T.B.B. +B.T.++G.Q.- ; &.) [ & 3 , +.+.D.5 c+c+- d+e++ ,+                      ",
"      %.q.g @ .+D.+ T.G.T.T.T.x.T.G.G. +d+d+&.< ' , {.r+z++ + 4.L.- - L.- m.&                       ",
"        & < .+m+.  +z.G.G.G.G.z.G.z.G.G.Q.6+ +Q 9 l e +.< @ z+h - - - L.- c+#                       ",
"        t.< Q ,+z+&.T.T.T.T.G.G.z. +T.++&.Q.&.) [ '+g , 3 @ +.h L.m.- L.- c+p.                      ",
"              ) . + &.&.B.T.G.z.&.&.G.G.z.z+B.t.S f+i.S t.) ) r+5 - - - - % _ [                     ",
"              ,+. + + + &.B. + +&. +T.G.G.&. .' 2 S.=.i.S 1 ' < 4.L.- - c+c+= )                     ",
"            (.=+h z+z+z+N.e++ &.+ E. +T.G.z.+ ' f S.=.i.#+8 [ & x.L.m.c+c+c+c+)                     ",
"            t =+D.D.. . . N.+ +  +&.z.z.G.G.+ ' 2 =.=.i.f S 1 ) ~.% a c+= c+= )                     ",
"            t _ D.D.. . . z++ + &.E.z.z.z.++z+[ #+S.S.f+L S 1 ' Q $ % p.= = = &                     ",
"            *.r.D.u+u+. z++ + &.&. + + +z.G.z+[ #+f.S.i.L h.S 1 & _ = ' # = = #                     ",
"            t ,++.D.D.. z++ + &.&.&.&.+ &.z.Z 1 f f.f.S.i.f #+8 t.J.= '+v.= = #                     ",
"                                                                                                    ",
"                                                                                                    ",
"                                                                                                    ",
"                                                                                                    ",
"                                                                                                    "};
