/* XPM */
static char * rick_25_xpm[] = {
"50 81 257 2",
"  	c #FF000000",
". 	c #2B2402",
"+ 	c #221C01",
"@ 	c #442F0C",
"# 	c #433B35",
"$ 	c #343225",
"% 	c #34322B",
"& 	c #524434",
"* 	c #262613",
"= 	c #353333",
"- 	c #2C312B",
"; 	c #2A2D24",
"> 	c #563926",
", 	c #3B3113",
"' 	c #6C6255",
") 	c #5B4C44",
"! 	c #37383B",
"~ 	c #623E2B",
"{ 	c #875737",
"] 	c #523A45",
"^ 	c #75460D",
"/ 	c #3B3324",
"( 	c #A9766A",
"_ 	c #3B332C",
": 	c #CB9A95",
"< 	c #443423",
"[ 	c #74695D",
"} 	c #96654C",
"| 	c #B4796B",
"1 	c #756C63",
"2 	c #83756C",
"3 	c #543622",
"4 	c #2C3132",
"5 	c #2B2B1C",
"6 	c #B6B0C6",
"7 	c #A46C63",
"8 	c #7C7067",
"9 	c #675649",
"0 	c #8D827C",
"a 	c #332D32",
"b 	c #AB7A74",
"c 	c #C38C83",
"d 	c #BC938B",
"e 	c #775847",
"f 	c #857A74",
"g 	c #704F36",
"h 	c #2B260B",
"i 	c #B89896",
"j 	c #996956",
"k 	c #AC725C",
"l 	c #3B310B",
"m 	c #997467",
"n 	c #C48B78",
"o 	c #CC9FA2",
"p 	c #BB826A",
"q 	c #C4948A",
"r 	c #B37C78",
"s 	c #BC7C5C",
"t 	c #6B5964",
"u 	c #A59998",
"v 	c #955928",
"w 	c #B8867B",
"x 	c #8B5115",
"y 	c #A7817A",
"z 	c #B66E27",
"A 	c #9A6139",
"B 	c #AA8985",
"C 	c #A15C1A",
"D 	c #9B98A2",
"E 	c #897C84",
"F 	c #96837D",
"G 	c #8A6556",
"H 	c #A5928D",
"I 	c #A59CA4",
"J 	c #866B65",
"K 	c #CE936F",
"L 	c #7E7A82",
"M 	c #B5AEC1",
"N 	c #C8823E",
"O 	c #C37B38",
"P 	c #B4765A",
"Q 	c #433424",
"R 	c #C17D4E",
"S 	c #7C726B",
"T 	c #9C928D",
"U 	c #B4ACB2",
"V 	c #C9968B",
"W 	c #E0BA9F",
"X 	c #CAAAA9",
"Y 	c #74450D",
"Z 	c #2A2613",
"` 	c #CCA1A5",
" .	c #1C2102",
"..	c #C49995",
"+.	c #342B0B",
"@.	c #A56B4A",
"#.	c #CAB9B8",
"$.	c #B97C73",
"%.	c #987976",
"&.	c #1D1B01",
"*.	c #5E4D60",
"=.	c #958C8B",
"-.	c #3B3105",
";.	c #43310B",
">.	c #3A2D05",
",.	c #35310C",
"'.	c #2B2D24",
").	c #824C0F",
"!.	c #B97B73",
"~.	c #332D1B",
"{.	c #613E2D",
"].	c #775959",
"^.	c #D6A991",
"/.	c #A8A5AA",
"(.	c #6E6A73",
"_.	c #B8A8A9",
":.	c #C28E87",
"<.	c #B7B1B5",
"[.	c #443424",
"}.	c #D19D95",
"|.	c #BB857A",
"1.	c #D6C9C9",
"2.	c #CDB4B1",
"3.	c #DEC2B5",
"4.	c #2B2A14",
"5.	c #AB6523",
"6.	c #DDA16E",
"7.	c #35311C",
"8.	c #BBB2C2",
"9.	c #332602",
"0.	c #BC8B84",
"a.	c #C59DA0",
"b.	c #AB8E91",
"c.	c #7B675A",
"d.	c #332E23",
"e.	c #3A2C05",
"f.	c #9A9498",
"g.	c #2B2B14",
"h.	c #7B7378",
"i.	c #8C8586",
"j.	c #B48983",
"k.	c #D09FA1",
"l.	c #835F64",
"m.	c #332E2C",
"n.	c #C89487",
"o.	c #B26D67",
"p.	c #3B3433",
"q.	c #8F613D",
"r.	c #43352C",
"s.	c #D08E52",
"t.	c #64544B",
"u.	c #927A83",
"v.	c #433634",
"w.	c #CB9C9B",
"x.	c #332B14",
"y.	c #C9BCBF",
"z.	c #161200",
"A.	c #BA8473",
"B.	c #1C1B01",
"C.	c #352A04",
"D.	c #322603",
"E.	c #1D1500",
"F.	c #363114",
"G.	c #120D00",
"H.	c #363639",
"I.	c #84848A",
"J.	c #3B3434",
"K.	c #B2A5A3",
"L.	c #2C3126",
"M.	c #392D05",
"N.	c #252301",
"O.	c #8D6C6C",
"P.	c #2C2A05",
"Q.	c #25250B",
"R.	c #ADA19D",
"S.	c #978D93",
"T.	c #161100",
"U.	c #332E24",
"V.	c #2C3125",
"W.	c #866C75",
"X.	c #161B01",
"Y.	c #3C3433",
"Z.	c #242301",
"`.	c #353114",
" +	c #1C1500",
".+	c #332603",
"++	c #120C00",
"@+	c #352A03",
"#+	c #857A73",
"$+	c #BB8B84",
"%+	c #A27E81",
"&+	c #BA8474",
"*+	c #D9B6A7",
"=+	c #433534",
"-+	c #D5B6AC",
";+	c #342B14",
">+	c #CC9C9B",
",+	c #43352B",
"'+	c #64544A",
")+	c #B58C8C",
"!+	c #CC894B",
"~+	c #D49457",
"{+	c #E4D3CD",
"]+	c #C2B7C1",
"^+	c #4E4952",
"/+	c #AC6F4A",
"(+	c #DAAA86",
"_+	c #DDA779",
":+	c #B19CA2",
"<+	c #34311C",
"[+	c #D6AD99",
"}+	c #E3CFC8",
"|+	c #1B2102",
"1+	c #BBB9C6",
"2+	c #8E8077",
"3+	c #5F605B",
"4+	c #D1A89A",
"5+	c #D7C3BE",
"6+	c #272914",
"7+	c #D19D8A",
"8+	c #D99C66",
"9+	c #221C00",
"0+	c #DBC3BA",
"a+	c #B0A7AB",
"b+	c #B5AEBB",
"c+	c #2D3232",
"d+	c #2A2B1C",
"e+	c #242302",
"f+	c #948C8B",
"g+	c #B99EA1",
"h+	c #8D8B94",
"i+	c #B87648",
"j+	c #110C00",
"k+	c #332C1B",
"l+	c #2C3232",
"m+	c #342A04",
"n+	c #BBB5B7",
"o+	c #AEA9B4",
"p+	c #D2C4C6",
"q+	c #C5BFC4",
"r+	c #342B0C",
"s+	c #8F7375",
"t+	c #937F8B",
"u+	c #322602",
"v+	c #AC796C",
"w+	c #D2C0BE",
"x+	c #C49894",
"y+	c #E1BFA9",
"z+	c #252302",
"A+	c #CDBFC2",
"B+	c #E1B694",
"C+	c #D8C5C3",
"D+	c #DCB399",
"E+	c #E9E1DF",
"F+	c #BC948B",
"G+	c #9FA09C",
"H+	c #BFC0BA",
"                                                                                                    ",
"                                                                                                    ",
"                                                                                                    ",
"                                                                                                    ",
"                                                                                                    ",
"                                                                                                    ",
"                                                                                                    ",
"                                                                                                    ",
"                                  D+(+(+6.7+K                                                       ",
"                                (+s.s.O 5.5.5.@.K                                                   ",
"                              K N O O 5.v A v } @.R K                                               ",
"                            ^.s.5.v x v q.{ ^ { } @.@.                                              ",
"                            (+N v x ^ ^ x ).).x { { q.7                                             ",
"                            6.O v x ^ ).{ q.j j j q.g q.                                            ",
"                          D+8+N /+k ( v+w d x+: : w { {                                             ",
"                            8+s.|.|.0.q x+x+: >+k.x+7 {                                             ",
"                          7+i+A.w |.0.q q V w.o o : v+q.b                                           ",
"                            @.A.&+A.w q q V >+o o : r } %.                                          ",
"                            k $.| ( | |.:.0.$+d x+x+0.j                                             ",
"                            $+&+( k 7 7 0.q | v+j.:.d 7                                             ",
"                            ` &+| j 7 ( |.w.:.j.d w.x+y                                             ",
"                            -+}.|.$.r $.|.: >+: >+>+: x+o                                           ",
"                            7+[+A.p $.| |.x+..w.o : : q >+                                          ",
"                            K (+A.p | 7 &+: o a.a.: x+:                                             ",
"                            : ^.c p | | 0.B 0 2+T i i `                                             ",
"                              4+q | /+k $.y f f T i a.                                              ",
"                                i | @.k p y #+f u i                                                 ",
"                                a.v+( k n y #+f H i                                                 ",
"                                  $+| k A.%.2 f H i                                                 ",
"                                  | ( /+p m 2 #+H ..`                                               ",
"                                g+| k /+| %.f i.u x+a.I                                             ",
"                              n+..| k ( | y #+2+b.x+g+S.1                                           ",
"                            b.g+F+| k | | 0.R.u )+x+i D ^+9 #+                                      ",
"                      F+b m m ..)+7 ( v+( $.u f.)+$+g+D ^+] v.) c.                                  ",
"                  F+y q.g ~ g ..g+m 7 ( | w K.I j.r b+D ^+# v.Y.r.> 9 O.                            ",
"              i y } g 3 @ @ ~ i <.f.7 | | w K.u %.i M D ^+v.v.Y._ _ _ ,+& '                         ",
"          F+y j g 3 @ ;.;.@ > i U b+%+r |.j.X I b.b+6 D ] ! v.Y._ Q / / r.Y.r.' f                   ",
"        y G g 3 @ @ l l -.l {.a.a+M a+j.:.j.:+u U 6 6 L ] ! ! Y./ / / Q ,+_ Y.=+# '                 ",
"      2 g 3 @ ;.l l l -.>.-.g a./.o+6 K.j.b %.f.M 6 o+*.# H.J.% $ $ _ p._ r.Y.Y.=+#                 ",
"      t 3 , @ l l l >.M.m+l {.b.R./.o+U u i t+I 6 M h.# J.H.= $ 7.$ _ _ _ p.p.=+=+v.t.              ",
"      ) , @ @ l M.C.M.M.m+C., ].[ ' c.2 F T i.I M /.S # J.p.p.$ $ % % $ $ = J.J.Y.Y.)               ",
"      > ;.;., l -.l +.m+m+M.M.M., ' 2+0 0 f #+f+f.(.) v.J.% $ d.<+$ $ _ $ _ _ $ $ p.)               ",
"    1 3 l >.l M.M.M.C..++.+.m++.7.[ 0 f S 1 2 f i.0 ' J.% % % U.d.d.$ $ U.$ $ r+r+_ &               ",
"    ].3 ;.-., F.M.M.M.C.m+m+P.P.,.& ' h.E S.f f+i.2 t._ % % % U.U.U.U.U.d.$ % 4.d.% #               ",
"    t.< l -., 7.~.+.+.4.P.P.P.m+;+t.=.f.S.i.h.S ' ' & = % L.$ L.d.k+k+d.~.% $ x.k+% Y.              ",
"    ) @ M.M.+.7.~.k+x.r++.D.P.m+r+# S h.1 S h.E 0 2+' J.= U.U.d.5 4.x.5 5 U.'.h h d.p.t.            ",
"    & < +.M..+C.r+m++.D.m+P.h P.+.& h.i.S.=.f #+S ' ) p.% d.U.5 5 Z 4.4.5 $ 5 5 4.k+= t.            ",
"    & @ M.M.C.C.m+< {.3 {.@ m+D.+.# i.f.i.S 8 [ [ 1 ' Y.= % % V.5 h 4.4.d.$ '.4.4.k+% &             ",
"    > @ e.C.D.< m &+/+s p g e.D.+.;+) S S S S 0 0 f ' r.= a m.- '.5 4.h 5 L.'.Z . x.$ #             ",
"    > @ C..+> j.w @./+s P ~ e.D.P.$ S I u 0 2 1 ' t.) / = = m.L.'.'.Z Z '.L.'.Z h 5 % p.            ",
"    > l M.l G | k v z R A 3 D.. h 5 ) h.S ' 8 S #+f 1 & p.% m.- '.d+h h ~.L.'.5 x.V.$ % 3+          ",
"    ] l D., G | k p K n.c b G < x.<+) #+E f S f 2 1 9 [.% = = - L.d+Q.h 5 '.U.'.L.- L.$ )           ",
"  =.) , +.< j | | p &+|.|.&+j > ;+7.) 0 i.f 8 ' ' [ ' & / = = L.'.Q. .Z '.5 '.V.L.V.U.% )           ",
"  s+^+7.D.3 $.| k k &+v+e {.@ D.r+k+/ ) t.' 8 S f f [ & / = = - d+ .e+6+5 ; 6+6+'.k+d.% )           ",
"  s+]., . > j k k A.n n.d %.3 D.4.5 # ' #+0 2 8 ' ) > < F.= = - d+ .e+4.5 d+Q.Q.4.5 d.% Y.          ",
"  ].3 +., ' y b ( k k w w e e.. Z 5 _ ' ' [ 1 ' ' 8 8 '+< $ c+- d+e+Q.d+'.d+ .Q.5 5 '.L.= 3+        ",
"c.3 , [.9 J j ( ( ( $.w } @ z+. 4.5 d.) 9 [ 8 2 2 1 ' '+< ~.c+- d+ .Q.6+d+6++ e+* 6+5 L.% )         ",
"].9 9 g [ & g 7 k k j 3 D.&.e+. Z d+$ t.'+' 8 1 ' 9 ) & < h - - 6+ .Q.6+6+6+&.&.e+Q.4.'.d.r.        ",
"W.) 9 & & @ 3 q.} k { .+&.&.e+. 4.; L.' 8 ' [ ' ' [ 1 ' > . '.- d+Q.Q.d+d+* B.&. . .e+e+Q.h &       ",
"8 t.& 3 [.l l ~ { q.3 z++ + e+h d+d+'.# ) '+1 f f 2 1 ' ) D.Z - d+* * d+6+Q.&.B.z.+ e+Q.U.'.&       ",
"h.& < < < , l < ~ 3 C..  ++ e+h g.; '.& ' ' [ t.' ' 9 ) < h e+'.d+* * d+d+Q. +G.B.+ + + * ~.&       ",
"  & < < , , < < & & < z+z. .e+h 4.d+'.& 8 2 1 [ [ [ ' ' '+< + 6+d+6+d+6+* Q.T. +Q.&.Q.* 6+h t.      ",
"  & @ @ @ 9 ) < ) r.Q.z.T.&.Q.Z d+; d+_ & '+[ ) ' S 1 9 & < + + d+d+* * 6+Q. +&. . .e+* m.v.        ",
"  ) < < < g 3 C.. + z.z.z.&.e+* d+; '.# 1 8 1 8 ' ) ' [ 9 3 D.&.6+d+* d+6+Q.z.&.&.B.&.Q.d+J.        ",
"  t > > < < l .+D.+  + +z. +e+* 4.'.'.% t.[ [ 1 8 8 ' > & > , &.Q.'.6+Q.Q. +G.G.G. +* 5 '.)         ",
"      t.) > < &   & z+&.&. +e+* 5 5 '.$ & '+[ '+) ) 9 ' & @ < + + 5 6+Q.+  +j+G.G.+ d.# ) J         ",
"                  {.. + + &.e+Z '.'.'.% ) t.[ 9 ' ' ) 3 > & & h &.Q.d+Q. +G.++G.G.D.~ { q.} j.      ",
"                  3 . , , z+e+. 4.5 '.- ) ' [ ) & 3 '+9 > '+& / &.+ 4.Q.G.j+j+G. +3 { A @.( v+j.    ",
"                  @ z+. +.z+z+. 4.5 5 m./ < 9 @ e {.{ } g 9 & & +  +z+h z.G.G.G.+ > { A A j 7 7 b   ",
"                t.l . z+z+z+e+e+4.5 '.c+_ , t.< 9 '+' [ f f [ ) h  +e+h &.G.G.G.z+~ { q.j j ( w )+a.",
"                ) r+. z+. z+e+e+h '.- - ] '+1 i.h+f.f.f.S.i.8 t.< + &.e+&.z.G.j+z+~ { q.j 7 7 | )+X ",
"                ) C.. z+. z++ + z+g.'.m.t.L h.D D D D D f.f+2 ' & . + + z+* z.j+. ~ { } 7 j k w i <.",
"                & +.m+D.. . . z+z+h '.= 3+L L I D I I D f.f.i.1 '+, + + . U.+ z.r.{.x v j 7 v+w :+  ",
"                                                                                                    ",
"                                                                                                    ",
"                                                                                                    ",
"                                                                                                    ",
"                                                                                                    ",
"                                                                                                    ",
"                                                                                                    ",
"                                                                                                    "};
