/* XPM */
static char * rick_23_xpm[] = {
"50 81 257 2",
"  	c #FF000000",
". 	c #2B2402",
"+ 	c #221C01",
"@ 	c #442F0C",
"# 	c #433B35",
"$ 	c #343225",
"% 	c #34322B",
"& 	c #524434",
"* 	c #262613",
"= 	c #353333",
"- 	c #2C312B",
"; 	c #2A2D24",
"> 	c #563926",
", 	c #3B3113",
"' 	c #6C6255",
") 	c #5B4C44",
"! 	c #37383B",
"~ 	c #623E2B",
"{ 	c #875737",
"] 	c #523A45",
"^ 	c #75460D",
"/ 	c #3B3324",
"( 	c #A9766A",
"_ 	c #3B332C",
": 	c #CB9A95",
"< 	c #443423",
"[ 	c #74695D",
"} 	c #96654C",
"| 	c #B4796B",
"1 	c #756C63",
"2 	c #83756C",
"3 	c #543622",
"4 	c #2C3132",
"5 	c #2B2B1C",
"6 	c #B6B0C6",
"7 	c #A46C63",
"8 	c #7C7067",
"9 	c #675649",
"0 	c #8D827C",
"a 	c #332D32",
"b 	c #AB7A74",
"c 	c #C38C83",
"d 	c #BC938B",
"e 	c #775847",
"f 	c #857A74",
"g 	c #704F36",
"h 	c #2B260B",
"i 	c #B89896",
"j 	c #996956",
"k 	c #AC725C",
"l 	c #3B310B",
"m 	c #997467",
"n 	c #C48B78",
"o 	c #CC9FA2",
"p 	c #BB826A",
"q 	c #C4948A",
"r 	c #B37C78",
"s 	c #BC7C5C",
"t 	c #6B5964",
"u 	c #A59998",
"v 	c #955928",
"w 	c #B8867B",
"x 	c #8B5115",
"y 	c #A7817A",
"z 	c #B66E27",
"A 	c #9A6139",
"B 	c #AA8985",
"C 	c #A15C1A",
"D 	c #9B98A2",
"E 	c #897C84",
"F 	c #96837D",
"G 	c #8A6556",
"H 	c #A5928D",
"I 	c #A59CA4",
"J 	c #866B65",
"K 	c #CE936F",
"L 	c #7E7A82",
"M 	c #B5AEC1",
"N 	c #C8823E",
"O 	c #C37B38",
"P 	c #B4765A",
"Q 	c #433424",
"R 	c #C17D4E",
"S 	c #7C726B",
"T 	c #9C928D",
"U 	c #B4ACB2",
"V 	c #C9968B",
"W 	c #E0BA9F",
"X 	c #CAAAA9",
"Y 	c #74450D",
"Z 	c #2A2613",
"` 	c #CCA1A5",
" .	c #1C2102",
"..	c #C49995",
"+.	c #342B0B",
"@.	c #A56B4A",
"#.	c #CAB9B8",
"$.	c #B97C73",
"%.	c #987976",
"&.	c #1D1B01",
"*.	c #5E4D60",
"=.	c #958C8B",
"-.	c #3B3105",
";.	c #43310B",
">.	c #3A2D05",
",.	c #35310C",
"'.	c #2B2D24",
").	c #824C0F",
"!.	c #B97B73",
"~.	c #332D1B",
"{.	c #613E2D",
"].	c #775959",
"^.	c #D6A991",
"/.	c #A8A5AA",
"(.	c #6E6A73",
"_.	c #B8A8A9",
":.	c #C28E87",
"<.	c #B7B1B5",
"[.	c #443424",
"}.	c #D19D95",
"|.	c #BB857A",
"1.	c #D6C9C9",
"2.	c #CDB4B1",
"3.	c #DEC2B5",
"4.	c #2B2A14",
"5.	c #AB6523",
"6.	c #DDA16E",
"7.	c #35311C",
"8.	c #BBB2C2",
"9.	c #332602",
"0.	c #BC8B84",
"a.	c #C59DA0",
"b.	c #AB8E91",
"c.	c #7B675A",
"d.	c #332E23",
"e.	c #3A2C05",
"f.	c #9A9498",
"g.	c #2B2B14",
"h.	c #7B7378",
"i.	c #8C8586",
"j.	c #B48983",
"k.	c #D09FA1",
"l.	c #835F64",
"m.	c #332E2C",
"n.	c #C89487",
"o.	c #B26D67",
"p.	c #3B3433",
"q.	c #8F613D",
"r.	c #43352C",
"s.	c #D08E52",
"t.	c #64544B",
"u.	c #927A83",
"v.	c #433634",
"w.	c #CB9C9B",
"x.	c #332B14",
"y.	c #C9BCBF",
"z.	c #161200",
"A.	c #BA8473",
"B.	c #1C1B01",
"C.	c #352A04",
"D.	c #322603",
"E.	c #1D1500",
"F.	c #363114",
"G.	c #120D00",
"H.	c #363639",
"I.	c #84848A",
"J.	c #3B3434",
"K.	c #B2A5A3",
"L.	c #2C3126",
"M.	c #392D05",
"N.	c #252301",
"O.	c #8D6C6C",
"P.	c #2C2A05",
"Q.	c #25250B",
"R.	c #ADA19D",
"S.	c #978D93",
"T.	c #161100",
"U.	c #332E24",
"V.	c #2C3125",
"W.	c #866C75",
"X.	c #161B01",
"Y.	c #3C3433",
"Z.	c #242301",
"`.	c #353114",
" +	c #1C1500",
".+	c #332603",
"++	c #120C00",
"@+	c #352A03",
"#+	c #857A73",
"$+	c #BB8B84",
"%+	c #A27E81",
"&+	c #BA8474",
"*+	c #D9B6A7",
"=+	c #433534",
"-+	c #D5B6AC",
";+	c #342B14",
">+	c #CC9C9B",
",+	c #43352B",
"'+	c #64544A",
")+	c #B58C8C",
"!+	c #CC894B",
"~+	c #D49457",
"{+	c #E4D3CD",
"]+	c #C2B7C1",
"^+	c #4E4952",
"/+	c #AC6F4A",
"(+	c #DAAA86",
"_+	c #DDA779",
":+	c #B19CA2",
"<+	c #34311C",
"[+	c #D6AD99",
"}+	c #E3CFC8",
"|+	c #1B2102",
"1+	c #BBB9C6",
"2+	c #8E8077",
"3+	c #5F605B",
"4+	c #D1A89A",
"5+	c #D7C3BE",
"6+	c #272914",
"7+	c #D19D8A",
"8+	c #D99C66",
"9+	c #221C00",
"0+	c #DBC3BA",
"a+	c #B0A7AB",
"b+	c #B5AEBB",
"c+	c #2D3232",
"d+	c #2A2B1C",
"e+	c #242302",
"f+	c #948C8B",
"g+	c #B99EA1",
"h+	c #8D8B94",
"i+	c #B87648",
"j+	c #110C00",
"k+	c #332C1B",
"l+	c #2C3232",
"m+	c #342A04",
"n+	c #BBB5B7",
"o+	c #AEA9B4",
"p+	c #D2C4C6",
"q+	c #C5BFC4",
"r+	c #342B0C",
"s+	c #8F7375",
"t+	c #937F8B",
"u+	c #322602",
"v+	c #AC796C",
"w+	c #D2C0BE",
"x+	c #C49894",
"y+	c #E1BFA9",
"z+	c #252302",
"A+	c #CDBFC2",
"B+	c #E1B694",
"C+	c #D8C5C3",
"D+	c #DCB399",
"E+	c #E9E1DF",
"F+	c #BC948B",
"G+	c #9FA09C",
"H+	c #BFC0BA",
"                                                                                                    ",
"                                                                                                    ",
"                                                                                                    ",
"                                                                                                    ",
"                                                                                                    ",
"                                B+(+(+_+_+(+                                                        ",
"                              (+~+~+O 5.5.5.5.s._+                                                  ",
"                            _+N !+N C v { A A } /+!+K                                               ",
"                          n z 5.C C v q.{ { v } A @.A w                                             ",
"                          ^.!+C x ).x v g Y ^ { { { } j                                             ",
"                          6.z x { ^ ^ ).^ g { q.{ ^ { q.m                                           ",
"                          6.O v { { { j ( b w j.v+q.g { d                                           ",
"                          (+s.p A.w w d x+: >+w.: ( { { y                                           ",
"                          K n 0.|.d d V V : o o w.w } { b                                           ",
"                        V s n.|.|.0.d q q : o o w.0.j { m                                           ",
"                          p 7+A.A.0.q 0.V w.o o w.q j q.m                                           ",
"                          n.7+| ( | 0.|.w $+:.q : x+( q.B                                           ",
"                          o 7+P j j k :.&+@.k w :.F+b }                                             ",
"                          2.:.k } 7 P n.: w b $+x+x+y ( w.                                          ",
"                          X x+&+$.r $.V >+x+V : >+w.$+x+V                                           ",
"                        X >+V p $.$.A.V : V q : : : x+:.w.                                          ",
"                          V n.p p | k n :.q : : V q q V X                                           ",
"                          w.7+A.p | | :.x+x+q : : q d w.                                            ",
"                          X ` &+| p |.c w.: V V : )+b.R././.                                        ",
"                              j.| k k | |.0.|.q q y f #+#+u                                         ",
"                              i !.$.| &+n.q 0.0.:.y 2 #+f K.                                        ",
"                                r !.$.&+:.:.0.0.$+B 2 2 2+a+                                        ",
"                                $+| | &+c :.j.$+d y 2 2 f K.                                        ",
"                                b | k /+k v+y $+d y 2 S #+K.                                        ",
"                              -+&+k /+@.} ( $+q :.b 2 S #+u                                         ",
"                            )+}.&+| k k @.| :.q x+y 2+#+i.2+9 c.c.%.                                ",
"                        X B j n.&+k k k k k |.d x+$+m c.[ '+# r.[.> ) ].J                           ",
"                      B m g g 0.j.k o.k k k &+0.d $+y u i.& # v.Y._ / ,+,+> ) ].J                   ",
"                  )+j g g 3 3 j.K.%.| o.k o.!.0.0.b b.f.L ] # Y.Y._ _ / _ ,+,+,+> ) c.              ",
"              i ( { > @ < @ < m <.a+b | $.v+| |.| y a+/.I.] # Y._ / / / _ _ Y.r.Y.Y.# '             ",
"          g+y G ~ 3 @ @ @ @ @ c.K.8.u b |.|.v+| v+K.b+I E ] # J.% $ $ / _ Y.Y.v.v.v.v.&             ",
"      _.b.m e > @ l l l >.>.l 9 u b+M b.w w b b b.b+M o+E ] ! J.= $ $ _ Y.Y.Y.J.Y.v.v.# '           ",
"    b.%.e {.[.< , l >.>.l M.l ' u /.M M :+b ( b.U 6 M a+f # J.H.= % $ _ _ Y._ Y.v.Y.=+v.'+          ",
"    ].{.< < , 7.7.F.C.r++.m++.) H /.o+M b+u H /.M 6 /.F [ # J.= % % % % _ J.% _ Y.$ % Y.&           ",
"  h.> @ 7.7.F., F.F.M.M.M.D.m+, F f.i.S c.2 f 2+i.I D S # p._ = = % % = = H.% _ _ ~.7._ #           ",
"  t < l , , F.7./ ~.r+M.m+D.P.D., < 1 0 2+#+#+0 =.u S.S # = % % % % % % % p.$ % % d.d.$ v.1         ",
"  ) @ +.M.,.`.;+_ / d.r+r+g.4.. P.x.) [ S 1 1 1 [ 1 ' 1 # = % % = % $ V.% % $ % % d.<+/ Y.'         ",
"  ) , M.C.+.;+P./ J.% '.4.d.5 Q.. x.'+S i.f+f+S.S.f.0 S # % % % = % L.d.L.L.% % $ '.5 d._ t.        ",
"  ^+, C.m++.`.+.7._ % d.5 d.5 h . h r.#+f+T =.f+0 S [ 1 # $ L.= % V.- 5 V.d.$ $ $ 5 5 5 $ #         ",
"  ) l C.m++.,.m+r+_ % d.5 4.4.h P.P.7.) t.' 1 8 2 8 1 [ Y.% % = % d.'.'.'.k+d.$ U.d+Z k+% r.        ",
"  & , C.C.m+x.Z P./ = d.Z Q.Q.h Q.Q.5 [ =.G+I u S.0 #+[ v.% % = % % L.L.d+'.d.d.V.'.h x.U.r.[       ",
"(.> @ m+D.D.P.h P.7.J.d.6+Q.e+Q.Q.Z g._ ) ' ' ' '+) 9 [ v.= = = = c+- '.d+d+L.- L.d+z+d.$ Y.'       ",
"1 > >.+.D.D.. . . h _ % 5 Q.Q.Q.Q.* 4.# #+=.f.S.F 0 2+1 # = = = = c+- '.4.5 L.L.5 Q.h d.% = '       ",
"1 & l m++.D.. . . z+$ % 5 Z * Q.Q.* * '.3+h.f 1 ' ' 9 [ # = = % % c+L.d+4.d+V.V.5 Q.4.'.% % &       ",
"  & C.D.D.. z+z+P.z+x.% 5 6+Q.e+Q.Q.6+5 ) S #+1 1 S S [ # = c+L.% % L.; 4.5 V.'.5 h 4.5 $ = #       ",
"  # ;+D.D.D.. z+. e+Q.$ d.Q.e+e+z+Q.d+L.) 0 S.0 f 2 8 1 # = c+- - = - '.6+6+'.d+6+e+h '.L.% H.      ",
"  ] 7., e q.~ m+. e+e+~.$ d+Q.Q.Q.6+d+'.$ ) t.) ) '+' [ # = - - - - - '.Z '.'.d+* + h '.- % !       ",
"  ] [.q.k /+q.< . . e+h V.5 * Q.* 6+d+; c+S 0 0 0 f S [ v.% - - - - L.d+Z ; '.d+Q.+ h U.V.m.=       ",
"S & g P n p k g C.D.z++ 5 '.6+Q.Q.* d+L.- # ) t.t.t.'+' / = c+4 c+c+'.d+d+; ; d+/ ) 3 7.5 L.p.)     ",
"[ G &+n n c |.j 3 D.z+&.Q.'.d+Q.Q.Q.d+- L.& 1 8 8 1 [ [ ,+$ 4 c+c+c+- d+'.'.d+d+< { G ) / k+d.$ &   ",
"F w A.&+c n.c y ]., z+e+ .d+; 6+Q.Q.d+L.L.J.[ S 2 #+S ' < ~.c+c+c+c+- ; ; ; d+d+< e j %.J '+7.% $ ) ",
"F j ( w 0.0.0.j.m 3 .  .B.h d+d+* * * L.- % & ) ) ) '+' & x.- c+c+- '.; d+d+6+6+> j v+r y b O.> 7.) ",
"s+G j.j.$+q 0.$+b g .+e++  .Q.4.6+* * ; c+c+' S f f S [ ) < L.c+c+- d+; d+* 5 , > { 7 r j.j.)+%.'+  ",
"W.%.y y x+d j.$+j.e .+e+ .B.e+6+* Q.Q.d+- - # t.'+) t.' ,+;+h '.- c+- '.6+6+& ].G 7 b b j.)+)+y J   ",
"].G m j.$+w j.$+j.e . e+&. +B.z+* * d+; - c+# ' ' 8 1 [ ) r.. 6+- c+- d+Q.* 3 g j ( b j.j.$+$+B y   ",
"S J y b v+$+$+:.j.e h &.&. +T.z+Q.* '.- - - $ [ 8 [ [ [ ' ) r+z+d+V.* Q. .&.< g } ( b w $+$+$+y j.  ",
"E ].s+m b w d F+j.g .  +&.&. +B.Q.* 6+L.L.'.4.& ) ) '+' & , + +  .Q. .B.G.G.T.@ { @.v+w j.$+j.B B   ",
"E h.f s+7 r 0.$+j 3 +  +&.&.z.T.+ * 6+'.'.; 5 1 2 8 1 1 1 ) < +  .B.B. +G.++++z., { j v+$+$+w b y   ",
"h.) h.9 g q.} { 3 D.z.z.B.B. +T. +Q.6+d+d+6+ .& ' 1 [ [ t.) ,+z+&.B. + +z.G.++G. +r+g } k &+r ( F   ",
"  t.S r., @ @ e.D.e+G.T. + + +z.G. .6+5 d+*  .) [ ' ' [ [ ) < D.B.&. +z.z.G.++++z.+ , ~ { q.j %.    ",
"  ].2 & & < +.. z+ +G.z. +E. +T.G.z.z+d+d+Q. .,+' [ 1 [ ) ) ) < + &.B.&.x.&.T.++ +e+. . < > 9       ",
"  W.O.> < , D.. +  +T.T. +E. +G.G.G.&.Q.Q. .B./ 9 9 9 [ [ 9 3 @ . &. .z+{., z.&.'+) ~.h . r.        ",
"    l.& , +.r+Q d.Q. + +z. + +G.G.G.z. . .B.B.h & & ) ' > > ) P.D.&.+ Q.Q.&.G.&.      ) )           ",
"      t )       t m.&. +z.&.;+z.G.G.G. +e+ .B.e+, ) ) [ ) , 9 r+< z++ 4.d++  ++ )                   ",
"                ] h &.E. + ++ T.z.G.T.G.e+* B.B.D.g g 8 G g ' < & x.+ z+'.'.Q.4.)                   ",
"              t / N.+ + &. +T.T.z.T.z.G.z.h * + # 9 9 [ c.].#+' ) Q + + 5 m.- m.)                   ",
"              *.~.+ z+e+e++ &.B.B.&. +G.+++ 5 4.S f+L 2 f+f+f+f ' & h + Q.L.a a #                   ",
"            E *.k++ e+e+e+z++  . .+ B.T.G.z.4.d.S f.E f f.=.f+0 [ ) Q + + * m.a a t.                ",
"            L ] Z + + + + +  .z+z++  +z.G.++h $ S f.E L S.S.S.i.f [ & x.+ z+'.a m.)                 ",
"          E t / P.. + + &.+ + z++ +  +T.G. +&.~.1 f.E E S.S.S.f+f+h.t.[.+ + Z m.% )                 ",
"          (.v.;+h h . z++ + + e++ + &. + + +z.h [ f.i.E S.S.S.S.h+i.t ) r+e+z+U.= )                 ",
"                                                                                                    ",
"                                                                                                    ",
"                                                                                                    ",
"                                                                                                    ",
"                                                                                                    "};
