/* XPM */
static char * rick_06_xpm[] = {
"50 81 257 2",
"  	c #FF000000",
". 	c #2B2402",
"+ 	c #221C01",
"@ 	c #442F0C",
"# 	c #433B35",
"$ 	c #343225",
"% 	c #34322B",
"& 	c #524434",
"* 	c #262613",
"= 	c #353333",
"- 	c #2C312B",
"; 	c #2A2D24",
"> 	c #563926",
", 	c #3B3113",
"' 	c #6C6255",
") 	c #5B4C44",
"! 	c #37383B",
"~ 	c #623E2B",
"{ 	c #875737",
"] 	c #523A45",
"^ 	c #75460D",
"/ 	c #3B3324",
"( 	c #A9766A",
"_ 	c #3B332C",
": 	c #CB9A95",
"< 	c #443423",
"[ 	c #74695D",
"} 	c #96654C",
"| 	c #B4796B",
"1 	c #756C63",
"2 	c #83756C",
"3 	c #543622",
"4 	c #2C3132",
"5 	c #2B2B1C",
"6 	c #B6B0C6",
"7 	c #A46C63",
"8 	c #7C7067",
"9 	c #675649",
"0 	c #8D827C",
"a 	c #332D32",
"b 	c #AB7A74",
"c 	c #C38C83",
"d 	c #BC938B",
"e 	c #775847",
"f 	c #857A74",
"g 	c #704F36",
"h 	c #2B260B",
"i 	c #B89896",
"j 	c #996956",
"k 	c #AC725C",
"l 	c #3B310B",
"m 	c #997467",
"n 	c #C48B78",
"o 	c #CC9FA2",
"p 	c #BB826A",
"q 	c #C4948A",
"r 	c #B37C78",
"s 	c #BC7C5C",
"t 	c #6B5964",
"u 	c #A59998",
"v 	c #955928",
"w 	c #B8867B",
"x 	c #8B5115",
"y 	c #A7817A",
"z 	c #B66E27",
"A 	c #9A6139",
"B 	c #AA8985",
"C 	c #A15C1A",
"D 	c #9B98A2",
"E 	c #897C84",
"F 	c #96837D",
"G 	c #8A6556",
"H 	c #A5928D",
"I 	c #A59CA4",
"J 	c #866B65",
"K 	c #CE936F",
"L 	c #7E7A82",
"M 	c #B5AEC1",
"N 	c #C8823E",
"O 	c #C37B38",
"P 	c #B4765A",
"Q 	c #433424",
"R 	c #C17D4E",
"S 	c #7C726B",
"T 	c #9C928D",
"U 	c #B4ACB2",
"V 	c #C9968B",
"W 	c #E0BA9F",
"X 	c #CAAAA9",
"Y 	c #74450D",
"Z 	c #2A2613",
"` 	c #CCA1A5",
" .	c #1C2102",
"..	c #C49995",
"+.	c #342B0B",
"@.	c #A56B4A",
"#.	c #CAB9B8",
"$.	c #B97C73",
"%.	c #987976",
"&.	c #1D1B01",
"*.	c #5E4D60",
"=.	c #958C8B",
"-.	c #3B3105",
";.	c #43310B",
">.	c #3A2D05",
",.	c #35310C",
"'.	c #2B2D24",
").	c #824C0F",
"!.	c #B97B73",
"~.	c #332D1B",
"{.	c #613E2D",
"].	c #775959",
"^.	c #D6A991",
"/.	c #A8A5AA",
"(.	c #6E6A73",
"_.	c #B8A8A9",
":.	c #C28E87",
"<.	c #B7B1B5",
"[.	c #443424",
"}.	c #D19D95",
"|.	c #BB857A",
"1.	c #D6C9C9",
"2.	c #CDB4B1",
"3.	c #DEC2B5",
"4.	c #2B2A14",
"5.	c #AB6523",
"6.	c #DDA16E",
"7.	c #35311C",
"8.	c #BBB2C2",
"9.	c #332602",
"0.	c #BC8B84",
"a.	c #C59DA0",
"b.	c #AB8E91",
"c.	c #7B675A",
"d.	c #332E23",
"e.	c #3A2C05",
"f.	c #9A9498",
"g.	c #2B2B14",
"h.	c #7B7378",
"i.	c #8C8586",
"j.	c #B48983",
"k.	c #D09FA1",
"l.	c #835F64",
"m.	c #332E2C",
"n.	c #C89487",
"o.	c #B26D67",
"p.	c #3B3433",
"q.	c #8F613D",
"r.	c #43352C",
"s.	c #D08E52",
"t.	c #64544B",
"u.	c #927A83",
"v.	c #433634",
"w.	c #CB9C9B",
"x.	c #332B14",
"y.	c #C9BCBF",
"z.	c #161200",
"A.	c #BA8473",
"B.	c #1C1B01",
"C.	c #352A04",
"D.	c #322603",
"E.	c #1D1500",
"F.	c #363114",
"G.	c #120D00",
"H.	c #363639",
"I.	c #84848A",
"J.	c #3B3434",
"K.	c #B2A5A3",
"L.	c #2C3126",
"M.	c #392D05",
"N.	c #252301",
"O.	c #8D6C6C",
"P.	c #2C2A05",
"Q.	c #25250B",
"R.	c #ADA19D",
"S.	c #978D93",
"T.	c #161100",
"U.	c #332E24",
"V.	c #2C3125",
"W.	c #866C75",
"X.	c #161B01",
"Y.	c #3C3433",
"Z.	c #242301",
"`.	c #353114",
" +	c #1C1500",
".+	c #332603",
"++	c #120C00",
"@+	c #352A03",
"#+	c #857A73",
"$+	c #BB8B84",
"%+	c #A27E81",
"&+	c #BA8474",
"*+	c #D9B6A7",
"=+	c #433534",
"-+	c #D5B6AC",
";+	c #342B14",
">+	c #CC9C9B",
",+	c #43352B",
"'+	c #64544A",
")+	c #B58C8C",
"!+	c #CC894B",
"~+	c #D49457",
"{+	c #E4D3CD",
"]+	c #C2B7C1",
"^+	c #4E4952",
"/+	c #AC6F4A",
"(+	c #DAAA86",
"_+	c #DDA779",
":+	c #B19CA2",
"<+	c #34311C",
"[+	c #D6AD99",
"}+	c #E3CFC8",
"|+	c #1B2102",
"1+	c #BBB9C6",
"2+	c #8E8077",
"3+	c #5F605B",
"4+	c #D1A89A",
"5+	c #D7C3BE",
"6+	c #272914",
"7+	c #D19D8A",
"8+	c #D99C66",
"9+	c #221C00",
"0+	c #DBC3BA",
"a+	c #B0A7AB",
"b+	c #B5AEBB",
"c+	c #2D3232",
"d+	c #2A2B1C",
"e+	c #242302",
"f+	c #948C8B",
"g+	c #B99EA1",
"h+	c #8D8B94",
"i+	c #B87648",
"j+	c #110C00",
"k+	c #332C1B",
"l+	c #2C3232",
"m+	c #342A04",
"n+	c #BBB5B7",
"o+	c #AEA9B4",
"p+	c #D2C4C6",
"q+	c #C5BFC4",
"r+	c #342B0C",
"s+	c #8F7375",
"t+	c #937F8B",
"u+	c #322602",
"v+	c #AC796C",
"w+	c #D2C0BE",
"x+	c #C49894",
"y+	c #E1BFA9",
"z+	c #252302",
"A+	c #CDBFC2",
"B+	c #E1B694",
"C+	c #D8C5C3",
"D+	c #DCB399",
"E+	c #E9E1DF",
"F+	c #BC948B",
"G+	c #9FA09C",
"H+	c #BFC0BA",
"                                                                                                    ",
"                                                                                                    ",
"                                                                                                    ",
"                                              6.(+(+K                                               ",
"                                            8+!+O z C v A @.                                        ",
"                                          i+C v 5.5.v { { q.} p                                     ",
"                                          !+5.).^ ^ { { ).).q.} &+                                  ",
"                                      (+s.z x ^ ^ Y ^ ).^ ^ { q.}                                   ",
"                                      6.O z x ).^ ^ ).{ { { { { q.m                                 ",
"                                      6.N i+k k v+( ( w 0.c w } { m                                 ",
"                                      N i+p p n n.V V : : >+>+r q.j                                 ",
"                                      z k w A.|.c q q : w.o >+:.j                                   ",
"                                      A k &+$.&+c V V V >+o o x+j j                                 ",
"                                      @.v+| k k | c q :.w.o o q 7 m                                 ",
"                                      $.| ( | | k P :.$.k $.$+d 7                                   ",
"                                      V A.$.v+b ( v+q x+$.:.q d y                                   ",
"                                    7+(+7+A.A.$.| !.:.w.q x+w.w.j.                                  ",
"                                    K 7+7+p $.$.| !.n.w.>+o o : x+                                  ",
"                                    7+K 7+$.| $.!.k |.q : >+w.x+q                                   ",
"                                      n 7+A.A.$.!.|.V : >+: ....w.                                  ",
"                                        4+|.A.| $.c V : : : : w.                                    ",
"                                        ` w p | | p n V :.: ..                                      ",
"                                        ` 0.$.p &+|.:.: V q                                         ",
"                                        ..c $.p &+c V V q F+                                        ",
"                                        a.| v+| | A.n q 0.F+                                        ",
"                                        a.!.| k @.k $.)+q ..                                        ",
"                                      2.}.n |.&+b w d ..: w.X                                       ",
"                                    a.-+V B u u u $+:.V : : a.E                                     ",
"                                )+j.j.*+j.F #+2 2+w 0.V : d _.h.t.                                  ",
"                          j.m G e G b -+i %.2 f H j.c :.V $+n+t ] & ].                              ",
"                      j.m e > > 3 {.j -+b+%.2 f =.w c c b g+b+*.] # v.3 ) J                         ",
"                )+b G g > @ @ @ @ 3 j X U f 2 2 T r &+v+i M I ^+] # v.r.r.v.) e                     ",
"            y G e {.3 3 < @ ;.>.>.3 b a.K.2 8 2 T y v+i M 6 /.^+] # v.=+r.r.=+r.r.'+                ",
"          W.g 3 [.< < [.< ;.;.-.e.@ j.K.u 2+8 8 F %+:+M 6 6 D ] # # v._ _ r.r.r.=+=+& 9             ",
"          c.> < < [.< < , , , l >.@ %.:+u 0 f i.T /.M 6 6 o+t # # # =+_ / Q ,+,+Y.Y.Y.r.&           ",
"          '+3 < < Q < < , l l >.>.M.< & [ 8 2+f+T u b+6 6 L & # # # Q , / _ =+r.Y.Y.Y.v.v.'+        ",
"          {.< < < , , / , M.M.M.M.C.F.[.' #+=.i.f 8 8 f.i.) v.v.v.=+/ / / / _ _ _ Y.v.# v.&         ",
"        c.> @ , < , , 7.,.l ,.F.,.C.M.< 2+T I S.S 1 f i.0 ] # J.v.Y./ / _ _ r._ / =+# v.v.#         ",
"        ].3 , , , , , F.F.M.M.,.,.C.C.F.t.f I f.f+u u f+' # v.Y.r._ _ _ _ ,+_ $ $ Y.Y.Y.# #         ",
"        g 3 ;., , 7./ 7.F.+.M.,.r+m++.F.1 T a+u S.0 S ' ) v.Y._ / _ p._ _ / / <+$ v.p._ _ v.        ",
"      c.~ < , l M., F.;+`.m+M.r+h +.r+~.1 T a+=.1 S 0 0 t.v.p.% _ _ _ $ $ $ $ ~./ =+_ _ $ r.        ",
"      e 3 , l F.C.,.F.,.x.m+C.m+P.h h x.) 8 0 0 T f.S.8 r.Y.= % _ % / $ `.7.;+;+/ _ F.d.$ #         ",
"      e 3 l , l C.M.r+h +.m+m+D.. . P.x.' T f 0 f [ t.t.[._ % = % $ % $ x.;+D.;+$ / 7.7._ #         ",
"      ].3 , l C.@+M.+.D.P.r+D.P.. . D.h ,+1 S 1 S 0 0 1 r.J.= % % $ $ d.~.x.. x.$ $ U.$ _ v.        ",
"      e @ , @ C.M.M.m+D.+.+.D.. D.. h P.# f 2+=.=.f 1 & _ H.= = % % $ $ ~.h P.7.& '+r.% Y.v.        ",
"      e @ l l +.M.C.D.. . D.m+D.D.. h h / f 0 S ' t.' ) J.J._ = % % $ ~.x.. +.) m ( G ) v.#         ",
"      e 3 l C.m+D.m+D.. z+D.D.D.. h h h k+) 8 f 2+0 #+& J.= % % % $ - 5 Q.e+C.~ } y )+%+].#         ",
"      e 3 , m+D.z+.+D.. . D.P.P.. . h Z 5 [ 2 F S ' & / p.% = % % % $ ~.z+Z.x.) b )+)+)+B l.        ",
"      9 < l D.. N.u+. . z+. . h . Z.. Z 5 & 1 ' 9 [ ' ,+= = % % % % U.4.z+. U.' y )+)+d :.b         ",
"    H ) / +.D.. N.. . . . . r+;+. e+z+Q.5 & 8 f 2+2 '+/ = % - % % m.L.6+Z.z+_ J j.)+)+)+)+m ].      ",
"    s+v.+.m+. N.Z.u+D., {.e G e @ . z+4.5 ) 1 [ ' & < $ = = m.% = - '.* e+* # O.j.)+)+)+j.G )       ",
"  ].< C.. z+. z++ < m n 7+n $.} ~ . z+g.5 # [ ' 1 1 ) _ = = - V.% - '.Q.e+h & m j.j.j.d b {.[       ",
"  9 {.@ +.. . ;+< &+7+n A.&+| g @ z+z+4.'.# 1 1 S ' ,+% = = - '.% '.Z e+Z.h 3 } ( w $+r g r.2+      ",
"l.9 g e ) < & 9 J |.| ( ( !.( e e.e+z+4.5 $ ' '+) & / - = c+4 L.U.5 h Z.e+6+& } @.k ( { < / &       ",
"'+> c.G {.{.g e ( $+$.( v+r b e m+z+. h d+d.' t.[ [ _ V.c+= - d+d+6+Q.e+e+* > { } @.k q.@ 7.;+&     ",
"t ].c.e g 3 9 G ( ( k ( k | v+g . e+z+. Z x.[ [ 9 & +.6+- c+= L.d+Z Q.e+e+z+, g { } j ~ l / $ 7.&   ",
"  ].> {.@ e.{.> g } k k k | ( g . e+z+. h ;+' ' ) & h e+Q.* * Q.e+Q.Z.+ B.T.T.h 3 ~ 3 e.z+~.$ ;+, '+",
"  '+< < < +.3 ;.> q.@.k k v+( > z+ . .e+e+x.' ' 9 & +. .B.B.&.&.&.+ &.&.z.G.G. +. , 3 @ N.h d.~./ t.",
"  ) < < < r+< M.;.g } /+k 7 ~ . &. . .Z.e+r+' S ' ) h + B.B.B.&.B.&.&. +z.G.G.T.+ >.3 @ u+d.# _ Y.' ",
"  ' 3 < < , , M.M.3 { q.{ 3 z+ + ++  .Z.e+r+' ) > > . &. + +B.&.&.&.B. +z.G.G.G.T.. C.D.. & 3+& t.  ",
"    9 > 3 < , >.e.@ ~ > e.&. +z. +&. . . .h ' 1 ' '++.+ B. + + +&.+ &.E.z.G.++++G.G. ++ . / v.]     ",
"        ].) & 9 & < , . + x.e+z.T. + . . .h ' ' ) & h e+|+ + + +&.&.B. +z.G.++T.T.z.T.&.Z.r+_ )     ",
"                c.< . . Z.r++  + +E. . . .~.' ) > & h z+B.B. +B.&. + +N. +T.G.G.T. +&.&.N.+.v.      ",
"                e l . Z.Z.+ + B.B.B.&. .e+~.[ ' & & +.. e+&.B. +&.E.&.z+. z.G.z. +&.&.E.. M.#       ",
"                g l u+z+ .Z.e+Z. .B.B.&. .F.' ) D., z+z+Q. .B.&. +E.&.&. +z.E.  r./ Z . , &         ",
"                ~ e.u+. . z+e+e+ .B. ++  .F.' , . 3 . Q.d+Q.&.&.B.&.&.&.&.&.&.)                     ",
"                3 e.D.D.u+. e+e+e+E.z.X. .7.' & , > D.z+4.&.&.B.B. .&.&.e+e+* &                     ",
"              c.3 @+D.. . z+Z.Z. .B.T.T. .7.[ 2 8 [ & . Q.&.+ Q.* * * * 6+d+L.&                     ",
"              e @ C..+u+. . N.Z. .B. +T.B./ [ 2+f S t.+.d+; Q.h d+; ; d+d+4.'._                     ",
"              '+@ .+.+u+. . z++ &.&. +T. +7.[ f f 8 9 ~.- - d+Q.6+'.6+6+6+6+5 d.t.                  ",
"              ) , m+u+u+. z+Z.+ &.E.&. +z.7.[ #+2 8 ' / c+4 - * Q.* Q.z+6+'.- - %                   ",
"              ) < +..+. . + &.&.E.E. +E.&.7.[ 2 2 2 [ Y.= 4 - d+Q.z+e+e+6+'.L.- '.&                 ",
"              & [., .+z+. D.+ &.&.E.&.&.+ / ' S 2 #+1 # = c+4 - * z+z+e++ Q.5 '.L.#                 ",
"              ] 3 , D.. . . + &.E.&.&.&. .Q ' 8 f #+1 ) = c+4 c+'./ & 4.Q.Q.4.'.m.&                 ",
"              ] < l .+. N.e++ + + + + + e+Q ' S f h.8 '+J.= c+a Y.2 m < 4.k+5 '.m.#                 ",
"              ] , r+m+u+. N.+ + + e+e+e++ Q ' f E h.1 ' # = c+= J.9 {.7.6+d+6+d+U.#                 ",
"              ] / , r+r+r+h h z+z+z+e+z+Q.# 1 i.S.i.f 1 t.# J.= = J.= % '.'.'.U.% #                 ",
"                                                                                                    ",
"                                                                                                    ",
"                                                                                                    ",
"                                                                                                    "};
