/* XPM */
static char * rick_13_xpm[] = {
"50 81 257 2",
"  	c #FF000000",
". 	c #2B2402",
"+ 	c #221C01",
"@ 	c #442F0C",
"# 	c #433B35",
"$ 	c #343225",
"% 	c #34322B",
"& 	c #524434",
"* 	c #262613",
"= 	c #353333",
"- 	c #2C312B",
"; 	c #2A2D24",
"> 	c #563926",
", 	c #3B3113",
"' 	c #6C6255",
") 	c #5B4C44",
"! 	c #37383B",
"~ 	c #623E2B",
"{ 	c #875737",
"] 	c #523A45",
"^ 	c #75460D",
"/ 	c #3B3324",
"( 	c #A9766A",
"_ 	c #3B332C",
": 	c #CB9A95",
"< 	c #443423",
"[ 	c #74695D",
"} 	c #96654C",
"| 	c #B4796B",
"1 	c #756C63",
"2 	c #83756C",
"3 	c #543622",
"4 	c #2C3132",
"5 	c #2B2B1C",
"6 	c #B6B0C6",
"7 	c #A46C63",
"8 	c #7C7067",
"9 	c #675649",
"0 	c #8D827C",
"a 	c #332D32",
"b 	c #AB7A74",
"c 	c #C38C83",
"d 	c #BC938B",
"e 	c #775847",
"f 	c #857A74",
"g 	c #704F36",
"h 	c #2B260B",
"i 	c #B89896",
"j 	c #996956",
"k 	c #AC725C",
"l 	c #3B310B",
"m 	c #997467",
"n 	c #C48B78",
"o 	c #CC9FA2",
"p 	c #BB826A",
"q 	c #C4948A",
"r 	c #B37C78",
"s 	c #BC7C5C",
"t 	c #6B5964",
"u 	c #A59998",
"v 	c #955928",
"w 	c #B8867B",
"x 	c #8B5115",
"y 	c #A7817A",
"z 	c #B66E27",
"A 	c #9A6139",
"B 	c #AA8985",
"C 	c #A15C1A",
"D 	c #9B98A2",
"E 	c #897C84",
"F 	c #96837D",
"G 	c #8A6556",
"H 	c #A5928D",
"I 	c #A59CA4",
"J 	c #866B65",
"K 	c #CE936F",
"L 	c #7E7A82",
"M 	c #B5AEC1",
"N 	c #C8823E",
"O 	c #C37B38",
"P 	c #B4765A",
"Q 	c #433424",
"R 	c #C17D4E",
"S 	c #7C726B",
"T 	c #9C928D",
"U 	c #B4ACB2",
"V 	c #C9968B",
"W 	c #E0BA9F",
"X 	c #CAAAA9",
"Y 	c #74450D",
"Z 	c #2A2613",
"` 	c #CCA1A5",
" .	c #1C2102",
"..	c #C49995",
"+.	c #342B0B",
"@.	c #A56B4A",
"#.	c #CAB9B8",
"$.	c #B97C73",
"%.	c #987976",
"&.	c #1D1B01",
"*.	c #5E4D60",
"=.	c #958C8B",
"-.	c #3B3105",
";.	c #43310B",
">.	c #3A2D05",
",.	c #35310C",
"'.	c #2B2D24",
").	c #824C0F",
"!.	c #B97B73",
"~.	c #332D1B",
"{.	c #613E2D",
"].	c #775959",
"^.	c #D6A991",
"/.	c #A8A5AA",
"(.	c #6E6A73",
"_.	c #B8A8A9",
":.	c #C28E87",
"<.	c #B7B1B5",
"[.	c #443424",
"}.	c #D19D95",
"|.	c #BB857A",
"1.	c #D6C9C9",
"2.	c #CDB4B1",
"3.	c #DEC2B5",
"4.	c #2B2A14",
"5.	c #AB6523",
"6.	c #DDA16E",
"7.	c #35311C",
"8.	c #BBB2C2",
"9.	c #332602",
"0.	c #BC8B84",
"a.	c #C59DA0",
"b.	c #AB8E91",
"c.	c #7B675A",
"d.	c #332E23",
"e.	c #3A2C05",
"f.	c #9A9498",
"g.	c #2B2B14",
"h.	c #7B7378",
"i.	c #8C8586",
"j.	c #B48983",
"k.	c #D09FA1",
"l.	c #835F64",
"m.	c #332E2C",
"n.	c #C89487",
"o.	c #B26D67",
"p.	c #3B3433",
"q.	c #8F613D",
"r.	c #43352C",
"s.	c #D08E52",
"t.	c #64544B",
"u.	c #927A83",
"v.	c #433634",
"w.	c #CB9C9B",
"x.	c #332B14",
"y.	c #C9BCBF",
"z.	c #161200",
"A.	c #BA8473",
"B.	c #1C1B01",
"C.	c #352A04",
"D.	c #322603",
"E.	c #1D1500",
"F.	c #363114",
"G.	c #120D00",
"H.	c #363639",
"I.	c #84848A",
"J.	c #3B3434",
"K.	c #B2A5A3",
"L.	c #2C3126",
"M.	c #392D05",
"N.	c #252301",
"O.	c #8D6C6C",
"P.	c #2C2A05",
"Q.	c #25250B",
"R.	c #ADA19D",
"S.	c #978D93",
"T.	c #161100",
"U.	c #332E24",
"V.	c #2C3125",
"W.	c #866C75",
"X.	c #161B01",
"Y.	c #3C3433",
"Z.	c #242301",
"`.	c #353114",
" +	c #1C1500",
".+	c #332603",
"++	c #120C00",
"@+	c #352A03",
"#+	c #857A73",
"$+	c #BB8B84",
"%+	c #A27E81",
"&+	c #BA8474",
"*+	c #D9B6A7",
"=+	c #433534",
"-+	c #D5B6AC",
";+	c #342B14",
">+	c #CC9C9B",
",+	c #43352B",
"'+	c #64544A",
")+	c #B58C8C",
"!+	c #CC894B",
"~+	c #D49457",
"{+	c #E4D3CD",
"]+	c #C2B7C1",
"^+	c #4E4952",
"/+	c #AC6F4A",
"(+	c #DAAA86",
"_+	c #DDA779",
":+	c #B19CA2",
"<+	c #34311C",
"[+	c #D6AD99",
"}+	c #E3CFC8",
"|+	c #1B2102",
"1+	c #BBB9C6",
"2+	c #8E8077",
"3+	c #5F605B",
"4+	c #D1A89A",
"5+	c #D7C3BE",
"6+	c #272914",
"7+	c #D19D8A",
"8+	c #D99C66",
"9+	c #221C00",
"0+	c #DBC3BA",
"a+	c #B0A7AB",
"b+	c #B5AEBB",
"c+	c #2D3232",
"d+	c #2A2B1C",
"e+	c #242302",
"f+	c #948C8B",
"g+	c #B99EA1",
"h+	c #8D8B94",
"i+	c #B87648",
"j+	c #110C00",
"k+	c #332C1B",
"l+	c #2C3232",
"m+	c #342A04",
"n+	c #BBB5B7",
"o+	c #AEA9B4",
"p+	c #D2C4C6",
"q+	c #C5BFC4",
"r+	c #342B0C",
"s+	c #8F7375",
"t+	c #937F8B",
"u+	c #322602",
"v+	c #AC796C",
"w+	c #D2C0BE",
"x+	c #C49894",
"y+	c #E1BFA9",
"z+	c #252302",
"A+	c #CDBFC2",
"B+	c #E1B694",
"C+	c #D8C5C3",
"D+	c #DCB399",
"E+	c #E9E1DF",
"F+	c #BC948B",
"G+	c #9FA09C",
"H+	c #BFC0BA",
"                                                                                                    ",
"                                                                                                    ",
"                                                _+_+_+(+(+(+                                        ",
"                                            *+_+~+~+s.8+R O s.K                                     ",
"                                            K !+O 5.C C x v v v A n                                 ",
"                                          *+R C x x x x v q.{ q.} @.P                               ",
"                                        [+(+~+C ).).^ Y x { ^ ^ ).} @.|                             ",
"                                        (+s.O v ^ ^ ^ ~ Y ^ ^ ^ x q.} k                             ",
"                                        _+!+O v x ^ ^ ^ ^ x { { { { { j                             ",
"                                        8+N /+/+k 7 7 j } ( w w w 7 { }                             ",
"                                        i+A | A.|.q q q q w.>+k.>+d } }                             ",
"                                        A @.w w |.:.V V x+w.w.k.o ..( j                             ",
"                                        A j w |.&+|.q V x+: w.o >+..b j                             ",
"                                        7 k &+&+p A.0.V x+V >+o >+x+v+m                             ",
"                                        r | r ( k k | c q :.n.: w.x+y                               ",
"                                        q $.$.| | | 7 k :.w v+v+w $+B                               ",
"                                      (+K A.&+$.v+v+v+| V x+w :.d F+y                               ",
"                                      _+K 7+&+|.$+w $.$.q : x+x+w.w.q o                             ",
"                                      7+8+K p p &+&+$.$.n.: >+o o ..q                               ",
"                                      4+K n p p p $.$.$.q x+: w.: ..:                               ",
"                                          n A.$.p $.( v+|.:.q : x+x+                                ",
"                                          X w $.p !.$.c : >+: V x+X                                 ",
"                                            $+| | k k &+c q w.a.X #.                                ",
"                                            :.| | P P A.c :.j.F 0 0 T                               ",
"                                          X &+v+v+v+| $.0.q 0.s+f f T                               ",
"                                          a.| k ( k | |.0.:.$+s+#+0 u                               ",
"                                        2.V P k k k k | w 0.x+2 f 2+R.                              ",
"                                      i :.n.P k /+} } 7 w :.0.2 2 f K.                              ",
"                                    b.} k :.v+k k 7 j k 0.d B 2 S f R.                              ",
"                                i m g ~ e i ( k k k 7 k |.:.y 2 8 #+=.                              ",
"                            )+j { g 3 < ) K.u ( 7 7 7 | |.:.y %.2+=.E ) t.c.                        ",
"                        )+m g > 3 < @ @ > u U y v+( ( !.|.:.j.m 1 0 ) # # [.& [                     ",
"                    )+m e ~ > < < < , @ , 0 b+:+b r w &+0.0.r B T i.] # # ,+r.v.> '                 ",
"                )+m e ~ 3 < < ,+/ , l e.l #+o+M b.j.d $+0.|.v+u f.S.] # # v.v.v.=+v.3 '             ",
"            B m e ~ 3 < [.Q Q _ / , F.r+< F /.6 M u ..x+$+v+:+o+/.D ^+# J.v.v.Y.v.v.v.v.& [         ",
"          l.{.3 < < < / r._ / / / / ;++.< i.I b+6 M g+d r i M b+/.i.] # J.v.Y.Y.Y.v.# v.v.v.t.      ",
"        s+{.< / / 7., / Y._ / / ,+/ +.C.r+f /.b+6 M U b.g+M 6 6 o+E ] ! J.J.Y.Y.Y.# # v.v.# # t.    ",
"        8 3 < / / ~.7.7./ _ $ / / $ r++.+.' i.i.h.S 0 f.I o+M 6 U E ] ! ! H.J.J.Y.Y.Y.J.# v.# )     ",
"        ) < / / 7.+.r+x.`._ % / _ $ ~.5 h P.F.[ f.=.E 0 0 S i.f.f.S # ! ! H.H.Y._ J.v.v.v.v.Y.#     ",
"        & < 7.7.;++.m+x.x._ p./ $ d.$ $ 5 5 5 _ ' h.h.i.f+=.f.S.1 ) v.! ! H.J.J.p.J.J.J.Y.p.p.#     ",
"      ' > , `.r++.P.m+x.x.% p.% U.L.$ % '.5 '._ i.I I I I D f.L S # Y.J.H.! H.H.J.J.J.J.J.m.% v.'   ",
"      9 < +.,.r+P.m+r+x.~.$ _ = % L.% % V.V.'.L.t.S h.h.h.h.E h.S # J.H.H.! J.p.p.p.p.J.H.% % _ t.  ",
"      t., M.D.D.D.P.P.;+d.g.% = % '.'.'.'.d.d.V.3+i.f.I /.I I 0 S # H.H.H.H.H.% % = = H.p.% % r.'   ",
"      t.@ +.m+D.. . z+m+U.d+$ = - '.d.V.V.V.V.d.# i.i.E L h.1 [ 8 # H.H.= = H.= % p.% p.= U.$ Y.'   ",
"      ) , +..+m+D.z+e+z+5 6+'.% - 5 '.V.V.V.'.V.p.1 E h+D D S.0 8 # p.H.H.= = % = % % p.% k+U.Y.    ",
"      ] , m+D.m+. h e+e+h Q.Z L.L.d.5 '.'.L.V.- % f f.S.h+f [ ' 1 v.= = = = = % % - % = $ 4.U.Y.8   ",
"      ] , m+D.D.. . e+e+h 6+Q.U.- d.4.'.'.L.'.V.% ) S h.L 0 f f 1 v.= = H.= = = % V.% % d.4.% r.'   ",
"      ] ;+D.D.. . . z+z+h *  .~.% 5 4.d+'.L.'.'.$ ' I I f.0 S 1 8 v.= = = = = % $ L.= = k+Z % v.[   ",
"      # x.. . . e+e+e+e+. Q.e+z+5 '.'.d+L.- L.V.- # [ S 1 [ 1 8 1 Y.c+H.= = = % d+L.m.- Q.'.% Y.t.  ",
"    h.# x.. . . z+e+ . .z+h e+ .4.'.'.L.'.V.L.V.- # f.I f+i.0 S 1 r.% = = = = - 4.U.c+'.h V.% J.t.  ",
"    (.v.r+. . z+ .e+e+e+. h Q.B.Q.'.- - L.V.'.'.- = ' 1 t.t.t.' [ / % = H.= c+5 Z m.- 5 Z d.% p.)   ",
"    ) ,+h P.. e+e+e+ .&.. h e+ . .5 L.c+- L.'.- 4 = S i.0 0 0 2 8 ,+% = = = % 7.7.% L.Z 4.d.% = )   ",
"    ] / h h h h z+e+&.r+) < .  .B.6+- c+L.- - - - - ) ' ' t.'+9 [ / $ c+c+c+p.{.e '+[.h k+L.m.= ]   ",
"    # 7.r+h h Q. .&.r+7 c q., e+B.Q.V.- L.L.; L.- c+) 1 S 2 #+8 1 r.$ c+c+# ) e j ( m {.$ - a = &   ",
"  (.# , x.h h z+ .P.j 7+| e , . e+ .x.$ V.; d+; 4 c+^+S S 1 ' 9 [ / d.c+c+# 9 G 7 b w y c.v.a p.#   ",
"  (.v.7.g.h . z+z+g n n |.m & . e+&.h d.L.; d+L.c+c+# ) ' 1 [ ' [ & ~.- c+- & q.m b w j.$+m & v.#   ",
"  t r.7.r+z++ z+9 :.n 0.)+y c.r+z+&.+ 5 L.L.; L.- c+# 8 #+f [ [ [ ,+h 5 L.% ) G m r j.j.w w O.] ]   ",
"  *.Q r++ &.B.< y | p &+j.)+m < N.B. +Q.; ; '.'.L.- c+& ) ) ) 9 [ # h Q.d+$ & e j m v+0.d r m ) &   ",
"  # P.z+z+h h e 7 j 7 v+$+)+b {.+ B.z.e+d+6+L.- - - $ 1 #+f f 8 [ & h e+; p.9 G b y b b w j.m {., 8 ",
"t < , < < ;+r+~ } 7 7 7 r $+j.g . &. +B.Q.d+- '.; * Q.& ) ) '+'+' < h e+6+5 g } ( r $+d w v+7 g / ) ",
"3+9 & > {.9 , 3 G j j j b w j.G C.+ B.T. .d+'.* *  .e+) [ 2 2 1 [ & ;++  . .< q.b w r j.j.b G > $ r.",
"t., C.> > 3 , {.q.q.} k k $.0.O., +  +z. +* '.d+ . . .'+1 1 [ ' ' < ;+&. +G.z.@ q.| $+j.b m ].Q % ) ",
"t.;+C.>.+., < g ~ { } } j | w G C. .B.z.G. .'.;  .B.|+# t.' ' ' ' [.,  +B.G.G.D.Y q.k v+( G & _ ]   ",
"t _ +.M.+.+.l < l > g q.} j 7 3 N.&.B.z.T.z.6+; Q.B.B.& S f S 1 [ r.Q &.&.T.G.B.3 ).v { { {.v.Y.    ",
"  *., D.C.C.C.l m+D.@ g { g 3 . &.B.B.z.T.+++ d+* B.B.x.& '+9 9 ' < [.&.&.B.G.+ m+@ ~ 3 @ 7.= #     ",
"    # +.C.C.+., D.. +.< < . + &. +B. +z.G.G.z.* d+|+z./ ' ' ' ' [ ) & + &. .z.&., , D.. h / p.t.    ",
"    ] l M.+.l r++.+., Q + +  + + + + +T.G.G.G. .d+Q. +/ [ 8 1 ' [ ) & + E.Q.* E.. Q h E.;+t.)       ",
"    t.< e.,.+.+.& ) e.+ &.z. +&.;+ +T.G.G.G.G.z.* 6+&.z+& [.[.) ' ) & +  + ._ ) D.Q x.9+. &         ",
"      t.& < Q [.c.) D.&. +z.T.G.G.G.T.G.T.G.G.G.Q.; * Z > +.< & ' ) & + z.B.5 / + h 7.4.,+          ",
"                c..+9+E. +T.T.G.z.T.z.T.z.z.z.++z.5 ; / {.< g ) ' & ) Q.E.B.Q.U.)   #               ",
"                3 + 9+E. + +z. + + +T.T.z.z.z.G.G.Q.5 7.& [.& ) ' & ) Z E. +e+$                     ",
"              9 D.+ + &.&.E. + + +z.z.z. +z.T.G.G. +4.p.L L E S [ '+) x.&. +&.~.'                   ",
"              [.D.+ + 9+&.9+&.&.9+&. + + + + + +G.G.Q.# i.f.=.f 1 '+& ;+E. +E.h )                   ",
"            8 , . + + + + + + 9++ + + &. + + + +G.G.B._ 0 f.=.f 1 t.& 7.+ &.E.. Q                   ",
"            t , D.z+z++ + + + + +  .B.B. +E.E. +T.++T.7.0 S.=.#+S 1 '+/ + &.&.+ 5 )                 ",
"            ^+7.. z+N.Z.Z.+ e++ + + &.&. +&.E. + +G.G.h f S.S.f #+f 9 ,+9+9+9++ Z Y.                ",
"            ] 7.r+z+z+z+z+e++ + + + + 9+E.E.E.E.z.G.G.z+2 S.=.h.f 0 ' & . + + + e+$                 ",
"            ] , r+r+. Q.z+z+z+e+z++ + + + &.&.&. +B. ++ S f.S.h.f i.[ ) ;++ + + z+<+t.              ",
"                                                                                                    ",
"                                                                                                    ",
"                                                                                                    "};
