/* XPM */
static char * rick_03_xpm[] = {
"50 81 257 2",
"  	c #FF000000",
". 	c #2B2402",
"+ 	c #221C01",
"@ 	c #442F0C",
"# 	c #433B35",
"$ 	c #343225",
"% 	c #34322B",
"& 	c #524434",
"* 	c #262613",
"= 	c #353333",
"- 	c #2C312B",
"; 	c #2A2D24",
"> 	c #563926",
", 	c #3B3113",
"' 	c #6C6255",
") 	c #5B4C44",
"! 	c #37383B",
"~ 	c #623E2B",
"{ 	c #875737",
"] 	c #523A45",
"^ 	c #75460D",
"/ 	c #3B3324",
"( 	c #A9766A",
"_ 	c #3B332C",
": 	c #CB9A95",
"< 	c #443423",
"[ 	c #74695D",
"} 	c #96654C",
"| 	c #B4796B",
"1 	c #756C63",
"2 	c #83756C",
"3 	c #543622",
"4 	c #2C3132",
"5 	c #2B2B1C",
"6 	c #B6B0C6",
"7 	c #A46C63",
"8 	c #7C7067",
"9 	c #675649",
"0 	c #8D827C",
"a 	c #332D32",
"b 	c #AB7A74",
"c 	c #C38C83",
"d 	c #BC938B",
"e 	c #775847",
"f 	c #857A74",
"g 	c #704F36",
"h 	c #2B260B",
"i 	c #B89896",
"j 	c #996956",
"k 	c #AC725C",
"l 	c #3B310B",
"m 	c #997467",
"n 	c #C48B78",
"o 	c #CC9FA2",
"p 	c #BB826A",
"q 	c #C4948A",
"r 	c #B37C78",
"s 	c #BC7C5C",
"t 	c #6B5964",
"u 	c #A59998",
"v 	c #955928",
"w 	c #B8867B",
"x 	c #8B5115",
"y 	c #A7817A",
"z 	c #B66E27",
"A 	c #9A6139",
"B 	c #AA8985",
"C 	c #A15C1A",
"D 	c #9B98A2",
"E 	c #897C84",
"F 	c #96837D",
"G 	c #8A6556",
"H 	c #A5928D",
"I 	c #A59CA4",
"J 	c #866B65",
"K 	c #CE936F",
"L 	c #7E7A82",
"M 	c #B5AEC1",
"N 	c #C8823E",
"O 	c #C37B38",
"P 	c #B4765A",
"Q 	c #433424",
"R 	c #C17D4E",
"S 	c #7C726B",
"T 	c #9C928D",
"U 	c #B4ACB2",
"V 	c #C9968B",
"W 	c #E0BA9F",
"X 	c #CAAAA9",
"Y 	c #74450D",
"Z 	c #2A2613",
"` 	c #CCA1A5",
" .	c #1C2102",
"..	c #C49995",
"+.	c #342B0B",
"@.	c #A56B4A",
"#.	c #CAB9B8",
"$.	c #B97C73",
"%.	c #987976",
"&.	c #1D1B01",
"*.	c #5E4D60",
"=.	c #958C8B",
"-.	c #3B3105",
";.	c #43310B",
">.	c #3A2D05",
",.	c #35310C",
"'.	c #2B2D24",
").	c #824C0F",
"!.	c #B97B73",
"~.	c #332D1B",
"{.	c #613E2D",
"].	c #775959",
"^.	c #D6A991",
"/.	c #A8A5AA",
"(.	c #6E6A73",
"_.	c #B8A8A9",
":.	c #C28E87",
"<.	c #B7B1B5",
"[.	c #443424",
"}.	c #D19D95",
"|.	c #BB857A",
"1.	c #D6C9C9",
"2.	c #CDB4B1",
"3.	c #DEC2B5",
"4.	c #2B2A14",
"5.	c #AB6523",
"6.	c #DDA16E",
"7.	c #35311C",
"8.	c #BBB2C2",
"9.	c #332602",
"0.	c #BC8B84",
"a.	c #C59DA0",
"b.	c #AB8E91",
"c.	c #7B675A",
"d.	c #332E23",
"e.	c #3A2C05",
"f.	c #9A9498",
"g.	c #2B2B14",
"h.	c #7B7378",
"i.	c #8C8586",
"j.	c #B48983",
"k.	c #D09FA1",
"l.	c #835F64",
"m.	c #332E2C",
"n.	c #C89487",
"o.	c #B26D67",
"p.	c #3B3433",
"q.	c #8F613D",
"r.	c #43352C",
"s.	c #D08E52",
"t.	c #64544B",
"u.	c #927A83",
"v.	c #433634",
"w.	c #CB9C9B",
"x.	c #332B14",
"y.	c #C9BCBF",
"z.	c #161200",
"A.	c #BA8473",
"B.	c #1C1B01",
"C.	c #352A04",
"D.	c #322603",
"E.	c #1D1500",
"F.	c #363114",
"G.	c #120D00",
"H.	c #363639",
"I.	c #84848A",
"J.	c #3B3434",
"K.	c #B2A5A3",
"L.	c #2C3126",
"M.	c #392D05",
"N.	c #252301",
"O.	c #8D6C6C",
"P.	c #2C2A05",
"Q.	c #25250B",
"R.	c #ADA19D",
"S.	c #978D93",
"T.	c #161100",
"U.	c #332E24",
"V.	c #2C3125",
"W.	c #866C75",
"X.	c #161B01",
"Y.	c #3C3433",
"Z.	c #242301",
"`.	c #353114",
" +	c #1C1500",
".+	c #332603",
"++	c #120C00",
"@+	c #352A03",
"#+	c #857A73",
"$+	c #BB8B84",
"%+	c #A27E81",
"&+	c #BA8474",
"*+	c #D9B6A7",
"=+	c #433534",
"-+	c #D5B6AC",
";+	c #342B14",
">+	c #CC9C9B",
",+	c #43352B",
"'+	c #64544A",
")+	c #B58C8C",
"!+	c #CC894B",
"~+	c #D49457",
"{+	c #E4D3CD",
"]+	c #C2B7C1",
"^+	c #4E4952",
"/+	c #AC6F4A",
"(+	c #DAAA86",
"_+	c #DDA779",
":+	c #B19CA2",
"<+	c #34311C",
"[+	c #D6AD99",
"}+	c #E3CFC8",
"|+	c #1B2102",
"1+	c #BBB9C6",
"2+	c #8E8077",
"3+	c #5F605B",
"4+	c #D1A89A",
"5+	c #D7C3BE",
"6+	c #272914",
"7+	c #D19D8A",
"8+	c #D99C66",
"9+	c #221C00",
"0+	c #DBC3BA",
"a+	c #B0A7AB",
"b+	c #B5AEBB",
"c+	c #2D3232",
"d+	c #2A2B1C",
"e+	c #242302",
"f+	c #948C8B",
"g+	c #B99EA1",
"h+	c #8D8B94",
"i+	c #B87648",
"j+	c #110C00",
"k+	c #332C1B",
"l+	c #2C3232",
"m+	c #342A04",
"n+	c #BBB5B7",
"o+	c #AEA9B4",
"p+	c #D2C4C6",
"q+	c #C5BFC4",
"r+	c #342B0C",
"s+	c #8F7375",
"t+	c #937F8B",
"u+	c #322602",
"v+	c #AC796C",
"w+	c #D2C0BE",
"x+	c #C49894",
"y+	c #E1BFA9",
"z+	c #252302",
"A+	c #CDBFC2",
"B+	c #E1B694",
"C+	c #D8C5C3",
"D+	c #DCB399",
"E+	c #E9E1DF",
"F+	c #BC948B",
"G+	c #9FA09C",
"H+	c #BFC0BA",
"                                                                                                    ",
"                                                                                                    ",
"                                      6.s.!+z i+5.v /+k                                             ",
"                                    K 5.v v v C v { v A k                                           ",
"                                    8+C ).).).^ { q.{ { A v+                                        ",
"                                _+~+O v ).Y Y ~ ^ x ^ g { }                                         ",
"                              K 8+O z C ).^ Y Y Y ).{ { { } 7                                       ",
"                              _+s.z 5.A @.j j } } 7 ( j q.{ j                                       ",
"                              (+O 5./+p A.n.V : x+o o w.c q.}                                       ",
"                                5.A $.&+&+n.V >+w.o o o : k 7                                       ",
"                                v j $.A.A.n n.: >+o o o >+| 7                                       ",
"                              s C j A.p | $.c : : >+` o w.r m                                       ",
"                              n.A ( v+k ( 7 k A.n.|.w $+q b (                                       ",
"                                @.| $.| j v+| | : |.7 w 0.j.                                        ",
"                              7+p A.A.&+|.$+r | : ..)+d ..d                                         ",
"                            7+8+K n p A.c &+!.$.V o o ` o d                                         ",
"                              8+8+p s p p A.| | q : o o w.:                                         ",
"                              7+K p p s p p | p n x+o w.: a.                                        ",
"                                n.n A.p s p |.V w.o >+: w.                                          ",
"                                  ` &+A.| k P &+:.V : w.                                            ",
"                                  w.$.$.p p n n.: >+: w.                                            ",
"                                  :.n $.p A.c V : : q                                               ",
"                                  c s | p p A.n.V q q                                               ",
"                                  q p | k k k | |.:.x+`                                             ",
"                                X V p $.| ( | c q : ..i                                             ",
"                                o n.p $.$.&+c V : : a.u t.                                          ",
"                            2.2.V K A.$.!.!.c V : : a.t+] ) J                                       ",
"                        X a.q *+..k $.$.!.$.c :.V :.2.(.] # > 9 J                                   ",
"                      )+%.j q ..X i d r $.|.c c w g+o+^+] # ,+< 3 {.J %.                            ",
"                  j.j g g g b %.2 2 %.r 0.$.$.| i 8.S.] # v.v.< < < < & 9 c.                        ",
"              j.j g > {.3 > b %.2 f T r c $.!.i M 6 D ] # v.r./ , , < Q ,+,+{.c.                    ",
"          j.m g > < > 3 , @ m 2 2 f u r $.r i b+6 6 h+] v.v./ , , , , / / / Q < ) '                 ",
"      %.G g ~ > < < < @ , , m 2 2 #+R.i j.g+b+6 6 S.] # # # & < l , 7.7.7./ < / r.# '               ",
"      ].~ > > > < @ ;., , , c.2 S #+T T u R.b+6 o+) # # ].%.y m e 3 < @ , 7./ _ Y.# )               ",
"      e > 3 3 < < ;.l , l , c.2 8 #+=.f J c.].0 1 v.r.& m b r r b m {.@ , / r.v.v.# &               ",
"      9 3 3 [.< < , , , , , c.2 #+0 0 ' c.J s+F 9 r.r.O.r r r r $+$+e < , ,+v.v.# # & '             ",
"      {.< < < , , , , , , , > 9 1 [ 2 =.T T F 8 > r.g |.&+w r w :.0.e , 7.v.# v.v.Y.# S             ",
"      {.< < < , l , , , l l , ' T =.=.0 f [ 9 ) [./ j n $.r $+0.0.w g < / v.Y./ / / # S             ",
"    E {.< , , , l l l l , F., t.f.i.9 ' 1 #+#+' < , g j v+w $+$+$+w g , Q _ $ 7.d._ # S             ",
"    f & < ;.@ , l l l M.,.F.F.1 I f.=.=.=.F S & / ~., ~ 7 y $+0.$+r ~ , / x.,.;+_ # ] S             ",
"    ].{.< ;.;.>.M.l ,.M.,.;+F.1 u S.2+1 9 ) ) 3 7.~.;+@ G v+j.$+$+r g @ / ;+x.;+$ Y.v.S             ",
"    ].> < @ ;.-.-.,.+.M.+.;+F.S U f+1 8 2 2 2 ,+7.`.;+, q.( w j.$+w g < x.r+x.k+_ _ # t             ",
"    e 3 , l l >.M.M.M.l +.,.F.1 R.T u i.#+1 ) , <+x.m++.{.} v+j.j.b g ,+k+. . 7.d.% _ )             ",
"    e 3 @ l l l C.M.+.C.m++.r+) 2 2 [ ) ) 9 ) , 7.x.m+D.l g 7 r $+d 9 v._ U.$ _ x.% $ &             ",
"    e 3 @ @ l M.C.M.C.C.C.+.m+,+1 1 2+2+s+s+9 / d.~.x.h D., { j j G ) _ p.p._ ~.$ % _ t.            ",
"    9 3 ;.l >.M.m+M.M.M.C.+.+.,+8 S #+8 ' ) , / $ ~.r+r+. N.+.@ +.3 @ / _ _ p.% % % p.&             ",
"    e > , M.C.M..+C.M.M.C.+.r+# 8 ) & 9 ' [ r.7.d.<++.. z++ z+N.< g 3 Q ) _ p.p.p.= d._ '+          ",
"    g > , C..+M.C.M.M.M.m+r++.Q 8 8 S 2 2 [ < `.7.~.+.D.D.+ e+. l 3 , ' ' ] Y.p.H.m.$ $ ,+9         ",
"    c.3 ;.e..+C.C.M.C.r+r+x.P.[.1 8 [ ) & < C.`.d.~.D.D.. + E.+ + . h ;+' t.p.= = % $ / ,+Q 9       ",
"    ].3 @ >.D.m+C.M..+.+m+P.P.< [ '+) 9 8 ' M.x.~.g.. . z++ 9+E.&.Z.. 4.~./ % = % / ~.h ~._ #       ",
"  F ) @ l M.D.. e.g e 3 C.D.P.< 1 2 #+c.9 & D.h +.P.z+z+z++ &.E.E.9++ h x.d.$ % % $ _ d.~.d.,+'+    ",
"  g 3 e.C.m+m+l j n.k g e.m+D.[.1 t.) ) & < D.. . . z+z+e+&.E.E. +E.+ N.D.5 U.% $ P./ % 4.r+;+r.{.  ",
"  J {.@ e.> ( 7+7+c o.{ @ +.+.[.1 [ 1 c.' [.. . . D.z+z+Z.+ + + E.z.z.&.z+4.5 U.$ h ~.= U.+.x.$ v.[ ",
"c.g g g g c 7+n.n A.j > e.C.C.< 8 #+8 8 ' < . . . . z+z+Z.+ + 9+9+ +G. ++ . 4.5 d.h ~.% m.. 7.F.v.  ",
"J s+O.e v+|.| ( $.A.7 > C.D.D.[.[ ) & & < h . . z+e+z+Z.+ + + + 9+ +G.z. ++ h 4.4.h k+m.% h ;+r+)   ",
"s+O.e g m $+v+( | w 7 3 m+P.P.,+1 1 f 2 ' , . z+z+e+e++ Z.Z. .+ 9+E.z. +E.E.+ h h P.x.d.U.x.7., '   ",
"2+c.].e B v+o.k ( r ( 3 C.m+P.# 8 [ ' t.& . . z+z+z+z++ + + + &.&.E.T.G. +E.E.Z.h h h x.k+$ / r.    ",
"  '+g ].J j k k v+&+( ~ C.D.D.& [ ) ) '+& +.. z+e+e++ + + + + + + &. +++G.z. +E.z+h . D.+./ Y.t.    ",
"  ) g [ {.} j /+k w v+3 C.D.D.& 8 8 8 ' '+P.e+e+ . .+ &.&.&.+ + &.&.E.T.++G.z.E.E.z+D.. . d.#       ",
"  9 g 9 3 ~ q.j k ( ~ C.D.+.r+& [ 9 ' & , . . h e+B.&. .&.+ &.h Q.9+ + +T.++G. + +9+. . . / *.      ",
"  c.c.) 3 @ ~ { { ~ C.D.m+`.~.& [ ) '+) & . h ~.6+B.+ + &.9++ z+h + &. +T.T.++T.T.+ 9+. ;+)         ",
"    i.t.3 @ 3 3 @ m+z+D.;+$ $ & [ ) 9 '+& . h 4.e+&.+ e++ + +  .+ + + &. + +z.h & ,+7.[.)           ",
"        J > < , ' & . +.7.% % & [ & > l , . P.Z  . .e+ . .e+e+z+e+e+Q.d+* + E.D.                    ",
"            [     ) C.r+<+_ p.& [ < . 3 {.D.P.5 Q.e+e+e+z+e+z+. e+e+h d+U.5 Q.4.                    ",
"                  ) e.,.$ p.= & 8 # . @ < . g.- 6+e+e+e+e+z+e+Q.Q.Q.Q.Z V.- m.% t.                  ",
"                  & e.,.7.= % t.8 1 '+& < . d.= '.Q.z+e+e+e+ . .z+z+Q.4.d+$ a = #                   ",
"                  ] +.+.7.p.= ' 2 f 2 [ > r+= = = d+Q.e+ . .e+e+e+Q.* 6+4.5 - c+= )                 ",
"                  ] e.r+/ = = ' S #+8 1 ) / H.H.= - 6+z+ .e+ .e+e+ .Q.4.5 5 L.c+c+Y.                ",
"                f & e.l / = = 1 S #+S 1 ) Y.! H.H.4 ; Q.e+e+e+e+ . .e+Q.5 L.- - - %                 ",
"                h.v.C.C./ J.J.S S 2 8 1 ) J.H.H.H.c+; Q. . .e+ . . .e+ .Q.d+- % m.= 3+              ",
"                (.# M.r+r.H.# 2 2 f f S t.! H.H.H.= - 6+e+ . .4.*  .e+Q.Q.h d.- a c+)               ",
"                (.& C.[./ v.# 2 h.f h.S ' J.H.H.H.H.= - d+Q.z+~./ h * Z * * 5 - m.c+&               ",
"                h.v.M.C.m+r.) 2 #+L h.h.[ # H.= H.H.= = c+; Q.z+h Q.* 6+* 4.5 V.c+m.=               ",
"                h.v.< +.+.Y.t.2 f i.L S 1 ) H.= = = = = % L.; * z+e+e+Q.* 4.5 '.- c+% '             ",
"                h.& < >.+.v.t.2 f i.L h.1 ' # = - - - c+c+c+- 6+Q.* Q.* h 4.L.L.- - % t.            ",
"                (.> @ >.+.# t.2 f f+i.E S 8 9 p.L.L.- c+c+= - d+Q.Q.6+6+* 6+d+L.m.4 % &             ",
"                1 > @ @ l v.' S f i.f+i.f S [ & % - m.c+c+= = - d+Q.Q.6+* 6+; L.- c+m._             ",
"                t 3 < @ l r.1 h.f i.i.i.E S 1 c.& % % m.c+= H.= '.6+h Q.* 6+'.- - - m.=             ",
"                t & [.< ,+# S E i.f.S.f+i.E 2 2 [ & J.= = J.= = J.- d.4.4.L.- % = = = J.            ",
"                                                                                                    ",
"                                                                                                    "};
