/* XPM */
static char * rick_19_xpm[] = {
"50 81 257 2",
"  	c #FF000000",
". 	c #2B2402",
"+ 	c #221C01",
"@ 	c #442F0C",
"# 	c #433B35",
"$ 	c #343225",
"% 	c #34322B",
"& 	c #524434",
"* 	c #262613",
"= 	c #353333",
"- 	c #2C312B",
"; 	c #2A2D24",
"> 	c #563926",
", 	c #3B3113",
"' 	c #6C6255",
") 	c #5B4C44",
"! 	c #37383B",
"~ 	c #623E2B",
"{ 	c #875737",
"] 	c #523A45",
"^ 	c #75460D",
"/ 	c #3B3324",
"( 	c #A9766A",
"_ 	c #3B332C",
": 	c #CB9A95",
"< 	c #443423",
"[ 	c #74695D",
"} 	c #96654C",
"| 	c #B4796B",
"1 	c #756C63",
"2 	c #83756C",
"3 	c #543622",
"4 	c #2C3132",
"5 	c #2B2B1C",
"6 	c #B6B0C6",
"7 	c #A46C63",
"8 	c #7C7067",
"9 	c #675649",
"0 	c #8D827C",
"a 	c #332D32",
"b 	c #AB7A74",
"c 	c #C38C83",
"d 	c #BC938B",
"e 	c #775847",
"f 	c #857A74",
"g 	c #704F36",
"h 	c #2B260B",
"i 	c #B89896",
"j 	c #996956",
"k 	c #AC725C",
"l 	c #3B310B",
"m 	c #997467",
"n 	c #C48B78",
"o 	c #CC9FA2",
"p 	c #BB826A",
"q 	c #C4948A",
"r 	c #B37C78",
"s 	c #BC7C5C",
"t 	c #6B5964",
"u 	c #A59998",
"v 	c #955928",
"w 	c #B8867B",
"x 	c #8B5115",
"y 	c #A7817A",
"z 	c #B66E27",
"A 	c #9A6139",
"B 	c #AA8985",
"C 	c #A15C1A",
"D 	c #9B98A2",
"E 	c #897C84",
"F 	c #96837D",
"G 	c #8A6556",
"H 	c #A5928D",
"I 	c #A59CA4",
"J 	c #866B65",
"K 	c #CE936F",
"L 	c #7E7A82",
"M 	c #B5AEC1",
"N 	c #C8823E",
"O 	c #C37B38",
"P 	c #B4765A",
"Q 	c #433424",
"R 	c #C17D4E",
"S 	c #7C726B",
"T 	c #9C928D",
"U 	c #B4ACB2",
"V 	c #C9968B",
"W 	c #E0BA9F",
"X 	c #CAAAA9",
"Y 	c #74450D",
"Z 	c #2A2613",
"` 	c #CCA1A5",
" .	c #1C2102",
"..	c #C49995",
"+.	c #342B0B",
"@.	c #A56B4A",
"#.	c #CAB9B8",
"$.	c #B97C73",
"%.	c #987976",
"&.	c #1D1B01",
"*.	c #5E4D60",
"=.	c #958C8B",
"-.	c #3B3105",
";.	c #43310B",
">.	c #3A2D05",
",.	c #35310C",
"'.	c #2B2D24",
").	c #824C0F",
"!.	c #B97B73",
"~.	c #332D1B",
"{.	c #613E2D",
"].	c #775959",
"^.	c #D6A991",
"/.	c #A8A5AA",
"(.	c #6E6A73",
"_.	c #B8A8A9",
":.	c #C28E87",
"<.	c #B7B1B5",
"[.	c #443424",
"}.	c #D19D95",
"|.	c #BB857A",
"1.	c #D6C9C9",
"2.	c #CDB4B1",
"3.	c #DEC2B5",
"4.	c #2B2A14",
"5.	c #AB6523",
"6.	c #DDA16E",
"7.	c #35311C",
"8.	c #BBB2C2",
"9.	c #332602",
"0.	c #BC8B84",
"a.	c #C59DA0",
"b.	c #AB8E91",
"c.	c #7B675A",
"d.	c #332E23",
"e.	c #3A2C05",
"f.	c #9A9498",
"g.	c #2B2B14",
"h.	c #7B7378",
"i.	c #8C8586",
"j.	c #B48983",
"k.	c #D09FA1",
"l.	c #835F64",
"m.	c #332E2C",
"n.	c #C89487",
"o.	c #B26D67",
"p.	c #3B3433",
"q.	c #8F613D",
"r.	c #43352C",
"s.	c #D08E52",
"t.	c #64544B",
"u.	c #927A83",
"v.	c #433634",
"w.	c #CB9C9B",
"x.	c #332B14",
"y.	c #C9BCBF",
"z.	c #161200",
"A.	c #BA8473",
"B.	c #1C1B01",
"C.	c #352A04",
"D.	c #322603",
"E.	c #1D1500",
"F.	c #363114",
"G.	c #120D00",
"H.	c #363639",
"I.	c #84848A",
"J.	c #3B3434",
"K.	c #B2A5A3",
"L.	c #2C3126",
"M.	c #392D05",
"N.	c #252301",
"O.	c #8D6C6C",
"P.	c #2C2A05",
"Q.	c #25250B",
"R.	c #ADA19D",
"S.	c #978D93",
"T.	c #161100",
"U.	c #332E24",
"V.	c #2C3125",
"W.	c #866C75",
"X.	c #161B01",
"Y.	c #3C3433",
"Z.	c #242301",
"`.	c #353114",
" +	c #1C1500",
".+	c #332603",
"++	c #120C00",
"@+	c #352A03",
"#+	c #857A73",
"$+	c #BB8B84",
"%+	c #A27E81",
"&+	c #BA8474",
"*+	c #D9B6A7",
"=+	c #433534",
"-+	c #D5B6AC",
";+	c #342B14",
">+	c #CC9C9B",
",+	c #43352B",
"'+	c #64544A",
")+	c #B58C8C",
"!+	c #CC894B",
"~+	c #D49457",
"{+	c #E4D3CD",
"]+	c #C2B7C1",
"^+	c #4E4952",
"/+	c #AC6F4A",
"(+	c #DAAA86",
"_+	c #DDA779",
":+	c #B19CA2",
"<+	c #34311C",
"[+	c #D6AD99",
"}+	c #E3CFC8",
"|+	c #1B2102",
"1+	c #BBB9C6",
"2+	c #8E8077",
"3+	c #5F605B",
"4+	c #D1A89A",
"5+	c #D7C3BE",
"6+	c #272914",
"7+	c #D19D8A",
"8+	c #D99C66",
"9+	c #221C00",
"0+	c #DBC3BA",
"a+	c #B0A7AB",
"b+	c #B5AEBB",
"c+	c #2D3232",
"d+	c #2A2B1C",
"e+	c #242302",
"f+	c #948C8B",
"g+	c #B99EA1",
"h+	c #8D8B94",
"i+	c #B87648",
"j+	c #110C00",
"k+	c #332C1B",
"l+	c #2C3232",
"m+	c #342A04",
"n+	c #BBB5B7",
"o+	c #AEA9B4",
"p+	c #D2C4C6",
"q+	c #C5BFC4",
"r+	c #342B0C",
"s+	c #8F7375",
"t+	c #937F8B",
"u+	c #322602",
"v+	c #AC796C",
"w+	c #D2C0BE",
"x+	c #C49894",
"y+	c #E1BFA9",
"z+	c #252302",
"A+	c #CDBFC2",
"B+	c #E1B694",
"C+	c #D8C5C3",
"D+	c #DCB399",
"E+	c #E9E1DF",
"F+	c #BC948B",
"G+	c #9FA09C",
"H+	c #BFC0BA",
"                                                                                                    ",
"                                                                                                    ",
"                                                                                                    ",
"                                                                                                    ",
"                                              D+(+~+K _+^.                                          ",
"                                            (+8+s.z C A z i+z s |.                                  ",
"                                          (+N O z x ^ ^ ).^ { A A F+                                ",
"                                          ~+z z x ^ Y Y g { ^ { x (                                 ",
"                                      ^.s.z 5.).^ Y Y ).^ ~ Y ^ x (                                 ",
"                                      i+x ).{ ^ ^ Y ^ g g Y ^ ).} ..                                ",
"                                    v+x ^ Y ^ ).{ { { { q.} { } v+                                  ",
"                                    k ).Y Y Y g q.( w $+x+w.w.w.w.                                  ",
"                                    |.x Y g g { k &+0.:.: ` ` ` o                                   ",
"                                    c x Y ~ g q.( $.|.q : >+o ` o                                   ",
"                                    p x ^ ^ g q.k | &+n.V : >+o o `                                 ",
"                                    v+{ ^ Y ^ } | s | r b v+|.x+w B                                 ",
"                                    ( { ^ g { j | | | w d d |.q 0...                                ",
"                                    r | k } q.7 | p c :.$+F+$+c V `                                 ",
"                                      K K p ( | $.p |.d ..: c |.V w.                                ",
"                                      7+n p $.| | | p 0.q V $.A.c a.                                ",
"                                        c n $.| | | | A.n.V n |.n.a.                                ",
"                                        c p | | | | p &+:.:.q : x+                                  ",
"                                          $.| | P s p A.:.&+A.c q                                   ",
"                                          &+p P P P | p c n.n.V w.                                  ",
"                                        4+$.p s P P P | A.q : :                                     ",
"                                      4+c | | | | | k k ( r 0...                                    ",
"                                  a.m j.b | | | | | | k v+d 2.                                      ",
"                                i G {.2 B | | | | | $.c q i i H u K.a+                              ",
"                            B J g 3 < ' u ( | !.|.$.r $+:.)+:+[ 2 2 #+K.                            ",
"                        B G ~ @ @ @ , & R.u r $.0.|.|.0.:.i <.S S 2 0 R.                            ",
"                  g+%+G {.3 < < < , , < f+b+B $.0.w |.0.r :+M E S 2 f 2 ) '                         ",
"              _.=.].{.[.Q ,+r.Q Q F.+., 2 o+a+r 0.0.0.w ( b+6 f+8 8 f h.& # & 9                     ",
"            %+G {.[./ / r.r._ _ _ 7.r+, 0 /.6 :+$+F+$+7 i 6 6 f.8 8 #+S & # # # & 9                 ",
"          t & < / / _ p.Y.Y._ / ,+7., `.f /.6 6 o+i b j.b+6 M h.1 1 2 1 # # # # # &                 ",
"          ) ,+_ / 7./ _ Y._ _ _ Y.$ 7.F.' o+6 6 M I i b+6 6 h+t 8 2 F t.# # # ] ] ] '               ",
"        t # / / / $ 7.$ _ = % _ J.% ~.;+, S i.h.1 0 =.S./.o+*.# ' 0 1 # J.v.v.# # # )               ",
"        t [., / 7.~.+.x.~.% ! H.J.% $ ~.`./ t.f+T =.=.0 0 8 # # 1 S.S ] Y.# # # v.v.)               ",
"        ) , ,.,.+.m+D.P.. z+p.H.p.% p.$ ~.$ ) 0 T i.h.8 8 [ # # L I L # J.J.v.Y.J._ &               ",
"        > l ,.C.D.D.D.. . . k+H.= $ = $ d.d.v.' [ 2 0 =.f.#+# ! 0 I h.# Y.Y.Y.H.J.Y.&               ",
"      1 < C..+D.D.. . . . z+. = = % U.$ d.d.= [ S T D S.L t.v.! i.K.S v._ p.J.J.= p.#               ",
"      (.Q r+r+. z+. e+. . z++ U.= $ '.$ L.d.% 3+=.#+S 1 1 ' J.J.0 R.S v.$ % = J.= _ #               ",
"      t / +.+.D.. e+ .z+. e+&.Z = = % d.'.V.V.Y.[ ' f T T 8 J.! t.#+t.Y.$ $ = Y.% % #               ",
"      ) 7.D.D.D.. e+ .z+e+e+ . .c+H.% L.d.'.'._ f 0 0 f+1 ) _ J.& ' # = % $ % = U._ #               ",
"    t ] F.D.. . z+z+ . .e+e+ .B.5 H.= L.5 '.'.$ ' 0 ' [ 1 t.,+J.& [ v.% % $ % % '.% #               ",
"    t ,+~.+.. z+z+e+|+ .e+ . .|+Q.= = - 5 5 d+- # 1 8 F i.[ r.= ] 1 v.% U.V.= % d.% v.f             ",
"    ) [.F.r+z+z+e+ .|+ . .e+ .|+B.U.= - 5 4.5 d+_ 0 i.1 t.# = = ] ' Y.= '.5 $ L.'.$ Y.S             ",
"    [.e.C.h Q.e+e+ . .B. . . . .B.6+= 4 ; d+d+d+'.3+[ ) [ ' _ = ^+' Y.% 5 5 '.'.'.$ p.t.            ",
"  t < +..+. 4.z+e+ .&.z.&. . . .B.&.% l+L.'.d+d+V.& 1 [ [ ) / = ^+' Y.% 4.5 d.5 d.% = '             ",
"  *./ r+m+P.. Q.e+B.z.z.B.|+ . . . +d+c+- ; d+d+'.# 0 [ & ,+$ % ] t p.L.d+'.'.'.$ % a )             ",
"  *./ +.D.P.z+e+z+B.z.T.B.B. . .B. +B.- c+'.d+d+'.L.) ) t.) $ - ] ' Y.'.6+'.V.5 '.$ % &             ",
"  ^+7.h r+h . z+e+B.T.T. + +B.B.B. +z.5 c+L.'.d+d+- ) ' ' & <+- & ' = ; d+L.; Z 4.5 $ #             ",
"  ] ;+h D.h e+ . .B.T.G.T.B.B.B.B.B.z.&.V.- '.d+d+'.# ' ) / U.- & ' _ '.d+'.d+6+d+5 d.r.F           ",
"  v.r+z+e+ .B.z.z.z.G.G.G.T.z.B. + +T.T.* - - - '.; d.# ) & ~.- ^+' = ; d+'.6+Q.h * Z k+].          ",
"h./ z++ e+&.&.&.B.B. +T.G.G.T. +z.z.z.G.B.; - - V.L.% '+9 & ~.- ^+' % ; d+d+* B.Q.Q.6+# J           ",
"t.D.h h e+ .z+Q. .B.B.B.G.G.G.z.z. + +z.G.* % # & g e G 9 ,+g.'.) t.% '.d+d+Q.* Q.* k+{.y           ",
"] m++.P.P.z++ Q. .B.Q.Q.B.z.z.B.B.X.B.z.&.[.].J j } j G e ,+Z L.) t.% d+d+6+ .&.*  .. ~ j b i B     ",
") r+D.D..  .+ Q. .Q.d+Q. .|++ *  .B.B.&.& e 7 ( 7 7 ( b %.9 x.d.) t.U.6+d+6+Q.&.&.z.. ~ { } v+b B   ",
"(.r.m+. &.+ e+ . .6+* B. .B. .Q. +B.B.7.G j 7 v+( 7 b y ( {., U.) t.x.Q.Q.Q.B.z.G.G.. ~ q.j ( r )+g+",
"  ^+/ z++ e+z+e+e+Q.Q.B. .B. . .B.B.|+& } j ( v+( ( r r G 3 D.g.^+t.k+Z Q.+ T.T.G.G.+ ~ q.j v+w )+g+",
"    # h . . . z+ .e+ . . .B. .+ B.B. .{.} j ( v+( v+b v+~ > +.h & t.Z &.B.z.G.j+G.G.&.> { j | j.)+g+",
"    t / D.. . z+z+z+ .B.B.X.+ &.B.B.&.~ q.} k ( ( ( v+G @ +  +z+& '+z+ ++ z.G.j+j+G.z.@ g q.j b )+_.",
"      ^+k+. z+e+z+z+ . .B.+ &.B.B.B.+ 3 { A k ( 7 ( b g + G.G. .) ) &. +z+;+Q.T.j+G.G.+ 3 { j b i _.",
"          ) Y.x.h P.z+e++ z+&.B.B.B.+ 3 g q.} j 7 7 j , z.z.e+e+) '++ &.&.Q 9 x. + + + ++ @ ~ g B   ",
"                ] / +.. z+z++  . . .B.+ 3 g { { { { 3 . G.&.h z+& '++  + +.     t.Q +  +. k+r+<     ",
"                  ) k+z+z+e+h & & 7.&.G.&.D., , ;+. &. +z.& ) 7.& ) +  + ++ {.      [ & x.< ,+)     ",
"                  t U. +z. +< {.g +.+ B.z.G.G.G.G.j+j+G.T.& ) [.& ) + z. +&.&                       ",
"                  1 U.E.T.G.E.+ h  + +T.G.T.G.G.j+j+G.j+G.# ) & & '++  + + +. 9                     ",
"                  t d.z+&.z.T.G.j+j+j+j+G.G.G.G.j+j+j+j+G.Q ) & & t.z+E.T.&.h &                     ",
"                  ) r+z+e+&. +z.G.T.G.j+G.T.T.z.G.j+G.G.G.7.) ) ) t.+  +z.e+x.#                     ",
"                  # m+. + + E.E.z.T.z.z.T.T.G.G.G.G.G.G.G.h ) 3+t.t.Q.z.+ 5 '._                     ",
"                  # +.. z+e++ &.&.z.T.G.G.G.T.G.G.j+G.G.j++ ) 3+' '+U.Z _ - '.U.                    ",
"                  ] +.. . z++ + + E.z.&.z.G.G.G.G.G.G.G.G.&.) 3+' t.= ) 1 = - %                     ",
"                  ] ;+D.. . z+z++ + &.+  +z.T.T.T.G.G.G.G.+ t.3+' t.m.& ) % - U.&                   ",
"                  ] +.D.. . z+z++ + + + &. +T.z.z.T.G.G.z.+ ' ' ' ) % - m.- m.m.&                   ",
"                  ] r+.+D.. z+. z++ &.+ &.&. +T.T.T.T.G.G.h ' t ' t.= m.m.a - m.r.                  ",
"                  ] , m+D.. . . . + + + &.&.&. + + + + + +k+S 1 [ ' Y.m.% % a = p.                  ",
"                                                                                                    ",
"                                                                                                    ",
"                                                                                                    ",
"                                                                                                    ",
"                                                                                                    "};
