/* XPM */
static char * rick_17_xpm[] = {
"50 81 257 2",
"  	c #FF000000",
". 	c #2B2402",
"+ 	c #221C01",
"@ 	c #442F0C",
"# 	c #433B35",
"$ 	c #343225",
"% 	c #34322B",
"& 	c #524434",
"* 	c #262613",
"= 	c #353333",
"- 	c #2C312B",
"; 	c #2A2D24",
"> 	c #563926",
", 	c #3B3113",
"' 	c #6C6255",
") 	c #5B4C44",
"! 	c #37383B",
"~ 	c #623E2B",
"{ 	c #875737",
"] 	c #523A45",
"^ 	c #75460D",
"/ 	c #3B3324",
"( 	c #A9766A",
"_ 	c #3B332C",
": 	c #CB9A95",
"< 	c #443423",
"[ 	c #74695D",
"} 	c #96654C",
"| 	c #B4796B",
"1 	c #756C63",
"2 	c #83756C",
"3 	c #543622",
"4 	c #2C3132",
"5 	c #2B2B1C",
"6 	c #B6B0C6",
"7 	c #A46C63",
"8 	c #7C7067",
"9 	c #675649",
"0 	c #8D827C",
"a 	c #332D32",
"b 	c #AB7A74",
"c 	c #C38C83",
"d 	c #BC938B",
"e 	c #775847",
"f 	c #857A74",
"g 	c #704F36",
"h 	c #2B260B",
"i 	c #B89896",
"j 	c #996956",
"k 	c #AC725C",
"l 	c #3B310B",
"m 	c #997467",
"n 	c #C48B78",
"o 	c #CC9FA2",
"p 	c #BB826A",
"q 	c #C4948A",
"r 	c #B37C78",
"s 	c #BC7C5C",
"t 	c #6B5964",
"u 	c #A59998",
"v 	c #955928",
"w 	c #B8867B",
"x 	c #8B5115",
"y 	c #A7817A",
"z 	c #B66E27",
"A 	c #9A6139",
"B 	c #AA8985",
"C 	c #A15C1A",
"D 	c #9B98A2",
"E 	c #897C84",
"F 	c #96837D",
"G 	c #8A6556",
"H 	c #A5928D",
"I 	c #A59CA4",
"J 	c #866B65",
"K 	c #CE936F",
"L 	c #7E7A82",
"M 	c #B5AEC1",
"N 	c #C8823E",
"O 	c #C37B38",
"P 	c #B4765A",
"Q 	c #433424",
"R 	c #C17D4E",
"S 	c #7C726B",
"T 	c #9C928D",
"U 	c #B4ACB2",
"V 	c #C9968B",
"W 	c #E0BA9F",
"X 	c #CAAAA9",
"Y 	c #74450D",
"Z 	c #2A2613",
"` 	c #CCA1A5",
" .	c #1C2102",
"..	c #C49995",
"+.	c #342B0B",
"@.	c #A56B4A",
"#.	c #CAB9B8",
"$.	c #B97C73",
"%.	c #987976",
"&.	c #1D1B01",
"*.	c #5E4D60",
"=.	c #958C8B",
"-.	c #3B3105",
";.	c #43310B",
">.	c #3A2D05",
",.	c #35310C",
"'.	c #2B2D24",
").	c #824C0F",
"!.	c #B97B73",
"~.	c #332D1B",
"{.	c #613E2D",
"].	c #775959",
"^.	c #D6A991",
"/.	c #A8A5AA",
"(.	c #6E6A73",
"_.	c #B8A8A9",
":.	c #C28E87",
"<.	c #B7B1B5",
"[.	c #443424",
"}.	c #D19D95",
"|.	c #BB857A",
"1.	c #D6C9C9",
"2.	c #CDB4B1",
"3.	c #DEC2B5",
"4.	c #2B2A14",
"5.	c #AB6523",
"6.	c #DDA16E",
"7.	c #35311C",
"8.	c #BBB2C2",
"9.	c #332602",
"0.	c #BC8B84",
"a.	c #C59DA0",
"b.	c #AB8E91",
"c.	c #7B675A",
"d.	c #332E23",
"e.	c #3A2C05",
"f.	c #9A9498",
"g.	c #2B2B14",
"h.	c #7B7378",
"i.	c #8C8586",
"j.	c #B48983",
"k.	c #D09FA1",
"l.	c #835F64",
"m.	c #332E2C",
"n.	c #C89487",
"o.	c #B26D67",
"p.	c #3B3433",
"q.	c #8F613D",
"r.	c #43352C",
"s.	c #D08E52",
"t.	c #64544B",
"u.	c #927A83",
"v.	c #433634",
"w.	c #CB9C9B",
"x.	c #332B14",
"y.	c #C9BCBF",
"z.	c #161200",
"A.	c #BA8473",
"B.	c #1C1B01",
"C.	c #352A04",
"D.	c #322603",
"E.	c #1D1500",
"F.	c #363114",
"G.	c #120D00",
"H.	c #363639",
"I.	c #84848A",
"J.	c #3B3434",
"K.	c #B2A5A3",
"L.	c #2C3126",
"M.	c #392D05",
"N.	c #252301",
"O.	c #8D6C6C",
"P.	c #2C2A05",
"Q.	c #25250B",
"R.	c #ADA19D",
"S.	c #978D93",
"T.	c #161100",
"U.	c #332E24",
"V.	c #2C3125",
"W.	c #866C75",
"X.	c #161B01",
"Y.	c #3C3433",
"Z.	c #242301",
"`.	c #353114",
" +	c #1C1500",
".+	c #332603",
"++	c #120C00",
"@+	c #352A03",
"#+	c #857A73",
"$+	c #BB8B84",
"%+	c #A27E81",
"&+	c #BA8474",
"*+	c #D9B6A7",
"=+	c #433534",
"-+	c #D5B6AC",
";+	c #342B14",
">+	c #CC9C9B",
",+	c #43352B",
"'+	c #64544A",
")+	c #B58C8C",
"!+	c #CC894B",
"~+	c #D49457",
"{+	c #E4D3CD",
"]+	c #C2B7C1",
"^+	c #4E4952",
"/+	c #AC6F4A",
"(+	c #DAAA86",
"_+	c #DDA779",
":+	c #B19CA2",
"<+	c #34311C",
"[+	c #D6AD99",
"}+	c #E3CFC8",
"|+	c #1B2102",
"1+	c #BBB9C6",
"2+	c #8E8077",
"3+	c #5F605B",
"4+	c #D1A89A",
"5+	c #D7C3BE",
"6+	c #272914",
"7+	c #D19D8A",
"8+	c #D99C66",
"9+	c #221C00",
"0+	c #DBC3BA",
"a+	c #B0A7AB",
"b+	c #B5AEBB",
"c+	c #2D3232",
"d+	c #2A2B1C",
"e+	c #242302",
"f+	c #948C8B",
"g+	c #B99EA1",
"h+	c #8D8B94",
"i+	c #B87648",
"j+	c #110C00",
"k+	c #332C1B",
"l+	c #2C3232",
"m+	c #342A04",
"n+	c #BBB5B7",
"o+	c #AEA9B4",
"p+	c #D2C4C6",
"q+	c #C5BFC4",
"r+	c #342B0C",
"s+	c #8F7375",
"t+	c #937F8B",
"u+	c #322602",
"v+	c #AC796C",
"w+	c #D2C0BE",
"x+	c #C49894",
"y+	c #E1BFA9",
"z+	c #252302",
"A+	c #CDBFC2",
"B+	c #E1B694",
"C+	c #D8C5C3",
"D+	c #DCB399",
"E+	c #E9E1DF",
"F+	c #BC948B",
"G+	c #9FA09C",
"H+	c #BFC0BA",
"                                                                                                    ",
"                                                                                                    ",
"                                                                                                    ",
"                                                                                                    ",
"                                                                                                    ",
"                                                                                                    ",
"                                                                                                    ",
"                                                                                                    ",
"                                                                                                    ",
"                                                                                                    ",
"                                                                                                    ",
"                                                                                                    ",
"                                      8+~+!+i+s.K                                                   ",
"                                    8+z v x ^ ).v v P                                               ",
"                                  ~+z ).Y Y ~ ^ { ).{                                               ",
"                                s.5.).^ ~ ~ Y g g Y {                                               ",
"                              7+v Y Y g { { { { { { 7                                               ",
"                              @.^ ~ g ^ q.( 0.q a.x+..                                              ",
"                              A ~ ~ g g j |.V : ` ` `                                               ",
"                              x ~ ~ g { j |.c : >+` `                                               ",
"                              x ~ Y g { v+A.|.w j.:.x+                                              ",
"                              x { } { q.| |.0.0.$+:.q                                               ",
"                              { s n | j $.n q : w.x+w.                                              ",
"                              j P c &+| s $.c V o q q                                               ",
"                                } n n P s p n n.: V q                                               ",
"                                r | | | | p n n.:.q w.                                              ",
"                                q p p | | | A.c V V                                                 ",
"                              -+:.!.!.$.| P | |.x+w.                                                ",
"                            r : A.| !.$.| o.k w $+:                                                 ",
"                          b g B b !.$.|.&+|.|.                                                      ",
"                      %.e > < 0 b.| $.:.0.:.F+g+H _.#.<.                                            ",
"                  %.e & r.< , ' U j.$.c 0.c $+U (.2 2 T                                             ",
"              m g > r.,+Q / , [.I a+r :.0.0.b b+E 2 2 =.].c.                                        ",
"          O.g < Q ,+_ r._ _ ;+& I M :+d d ( b.6 f.8 2 0 & # '+8                                     ",
"        '+< Q / / Y.p.p._ Y.~.7.f.6 6 _.j.j.M 6 E 8 8 2+] # # #                                     ",
"      h.> Q / _ % J.p.% H.= ~.F.1 f.f+f.u o+6 f.' 1 8 f # # # ] t.                                  ",
"      *.< 7./ 7.x.d.$ J.H.= _ $ 7.' f+i.0 S i.t ) ' 2 [ # # # # &                                   ",
"      & , l 7.+.. P.z+% H.% H.= % ) 0 =.i.E i.' # 3+T t.# # # Y.r.                                  ",
"      r.+.+.x.. . P.. k+J.% % % $ _ 2 i.i.0 i.) # h.I t v.Y.v.J.v.                                  ",
"      r.C.r+. z+e+. z+z+= % '.L.% $ [ 0 0 i.i.) J.f I t.p.Y.Y.Y.r.t.                                ",
"    [ ,+h r+h e+ .e+z+e+U.H.$ L.U.- & 2 f f+0 & J.f K.) p.% Y._ Y.t.                                ",
"    & Q g.. P.z+ .e+e+e+Q.% = L.L.L.$ 8 0 =.0 # J.) f ] = % J._ _ )                                 ",
"    < , d.Q.e+z+e+ . .e+ .4.'.'.U.- V.1 2+0 h.v.Y.& ' Y.% % p.= p.&                                 ",
"  t., r+x.'.Q. . . . . .e+ .Q.h 4.'.d+) f 8 S # J.] ' = = % % % % )                                 ",
"  ] x.m+P.4.6+Q.|+ . . . .|+|+ .e+Q.* $ 8 [ 2+& H.] ' J.- V.L.$ % )                                 ",
"  v.P.D.P.Q.Q. .B.B.B. . . . .B.|+B.Q.Q.' O.b O.^+& ' p.L.'.V.- = #                                 ",
"  r.. . . . Q.Q.B.B.z.B.B.B.B.B.B.B.;+g ( w b b G & ' _ '.5 V.'.% Y.                                ",
"  r.g.h P.e+Q.Q.B.|+B. +Q.Q.B.B.B.Q e j v+j.y j.e & ' = - - d.4.5 = '                               ",
"t / h * Q.e+ . .B. .|+B. . .B.B. .> } j 7 w r ( & & t.% - L.'.5 5 U.'+                              ",
"t k+z+Q.e+* Q.Q.Q.Q.X.Q.B. . . .Q.[.} j 7 w b m v.] t.% V.; 5 6+5 '.)                               ",
") D.P.h h Q. .d+Q.Q.B.* B.B. .Q.Q.< } } k r r G _ & t.% '.'.6+Q.e+5 &                               ",
"t.D.. z+z+ .Q.Q.B. .e+ . +B. .Q. ., q.} q.q.g @ L.# t.% '.6+*  .Q.* #                               ",
"*.+.. . + e+e+ . . .&. + + . .e+ .z+@ @ ;+&., h L.# ) d.; d+6++ &.d+'./ &                           ",
"  ,+D.z+. . z+ .B.B.z. +B. .;+,+/  .B. .6+&.Q h d+# ) 4.d+6+* B.&.e+. + &.. & 8   } k 4+            ",
"  ^+;+D.. z+e+e+&.B.B.B.&.B., @ . z.B.B.6+&.Q / Z # ) 4.* 6+Z  +&.+ B. +T.z. +3 q.7 &+| $.p n n.    ",
"    ^+& # / r.# z++ &.&.&.z.+ G.G.G.T.z.* B.h + e+# ) d+r.t.4.G.T.z. +z.T.T.z.~ q.k /+k k P n p | ..",
"                / + &.B. + +z.z.z. + +T.Q.B.. &.e+# ) '.& {.. +  + +z. +z. +E.~ A /+k k k | A.p     ",
"                # . . e+&.&. + +z. + +G.&.B., . . # ) c+- Q.z+    r.. + &.+ &.3 v @.k k ( r b   b w ",
"                & +.4.Q.e+&.&.B. + + +z.z.B.t.' ) & ) 5 Q.+ .         ) # h z+. 3 { A k ( y   (     ",
"                ] D.h * Z Q.&.B.B. + +z.G. +' S t.& ) * B.B.z+                Q , . &     B         ",
"                # D.. h * e+ .B.B. + +T.++z.' 2 ' t.) Z + &.e+'+                                    ",
"                r.. e+z+5  .B.B. +B.z.T.++T.t.0 [ ' ) 4.Q.&.+ '+                                    ",
"                / D.. . V.;  . + +z.T.T.++G.t.i.1 ' ) 4.Q.&.+ )                                     ",
"              *.7.. . Q.d+;  .+ + z.G.G.G.G.t.i.h.t ) 5 r.+ &.)                                     ",
"              ] ~.D.. . * - * e+&. +T.z.G.G.'+f+L [ t._ & z++ )                                     ",
"              t.r+D.. . h '.; e++ &. + +T.G.& f+E 1 ' _ k++ h )                                     ",
"              ^+;+m+. . Q.d+; e++ &.+  +z.T.# f+i.1 1 & % Z '.'+                                    ",
"              3+r+m+. . . Z 5 e++ + + &. + +_ f+i.S 8 t.p.% m.'+                                    ",
"                                                                                                    ",
"                                                                                                    ",
"                                                                                                    ",
"                                                                                                    ",
"                                                                                                    ",
"                                                                                                    ",
"                                                                                                    ",
"                                                                                                    ",
"                                                                                                    ",
"                                                                                                    ",
"                                                                                                    ",
"                                                                                                    ",
"                                                                                                    "};
