/* XPM */
static char * rick_00_xpm[] = {
"50 81 257 2",
"  	c #FF000000",
". 	c #2B2402",
"+ 	c #221C01",
"@ 	c #442F0C",
"# 	c #433B35",
"$ 	c #343225",
"% 	c #34322B",
"& 	c #524434",
"* 	c #262613",
"= 	c #353333",
"- 	c #2C312B",
"; 	c #2A2D24",
"> 	c #563926",
", 	c #3B3113",
"' 	c #6C6255",
") 	c #5B4C44",
"! 	c #37383B",
"~ 	c #623E2B",
"{ 	c #875737",
"] 	c #523A45",
"^ 	c #75460D",
"/ 	c #3B3324",
"( 	c #A9766A",
"_ 	c #3B332C",
": 	c #CB9A95",
"< 	c #443423",
"[ 	c #74695D",
"} 	c #96654C",
"| 	c #B4796B",
"1 	c #756C63",
"2 	c #83756C",
"3 	c #543622",
"4 	c #2C3132",
"5 	c #2B2B1C",
"6 	c #B6B0C6",
"7 	c #A46C63",
"8 	c #7C7067",
"9 	c #675649",
"0 	c #8D827C",
"a 	c #332D32",
"b 	c #AB7A74",
"c 	c #C38C83",
"d 	c #BC938B",
"e 	c #775847",
"f 	c #857A74",
"g 	c #704F36",
"h 	c #2B260B",
"i 	c #B89896",
"j 	c #996956",
"k 	c #AC725C",
"l 	c #3B310B",
"m 	c #997467",
"n 	c #C48B78",
"o 	c #CC9FA2",
"p 	c #BB826A",
"q 	c #C4948A",
"r 	c #B37C78",
"s 	c #BC7C5C",
"t 	c #6B5964",
"u 	c #A59998",
"v 	c #955928",
"w 	c #B8867B",
"x 	c #8B5115",
"y 	c #A7817A",
"z 	c #B66E27",
"A 	c #9A6139",
"B 	c #AA8985",
"C 	c #A15C1A",
"D 	c #9B98A2",
"E 	c #897C84",
"F 	c #96837D",
"G 	c #8A6556",
"H 	c #A5928D",
"I 	c #A59CA4",
"J 	c #866B65",
"K 	c #CE936F",
"L 	c #7E7A82",
"M 	c #B5AEC1",
"N 	c #C8823E",
"O 	c #C37B38",
"P 	c #B4765A",
"Q 	c #433424",
"R 	c #C17D4E",
"S 	c #7C726B",
"T 	c #9C928D",
"U 	c #B4ACB2",
"V 	c #C9968B",
"W 	c #E0BA9F",
"X 	c #CAAAA9",
"Y 	c #74450D",
"Z 	c #2A2613",
"` 	c #CCA1A5",
" .	c #1C2102",
"..	c #C49995",
"+.	c #342B0B",
"@.	c #A56B4A",
"#.	c #CAB9B8",
"$.	c #B97C73",
"%.	c #987976",
"&.	c #1D1B01",
"*.	c #5E4D60",
"=.	c #958C8B",
"-.	c #3B3105",
";.	c #43310B",
">.	c #3A2D05",
",.	c #35310C",
"'.	c #2B2D24",
").	c #824C0F",
"!.	c #B97B73",
"~.	c #332D1B",
"{.	c #613E2D",
"].	c #775959",
"^.	c #D6A991",
"/.	c #A8A5AA",
"(.	c #6E6A73",
"_.	c #B8A8A9",
":.	c #C28E87",
"<.	c #B7B1B5",
"[.	c #443424",
"}.	c #D19D95",
"|.	c #BB857A",
"1.	c #D6C9C9",
"2.	c #CDB4B1",
"3.	c #DEC2B5",
"4.	c #2B2A14",
"5.	c #AB6523",
"6.	c #DDA16E",
"7.	c #35311C",
"8.	c #BBB2C2",
"9.	c #332602",
"0.	c #BC8B84",
"a.	c #C59DA0",
"b.	c #AB8E91",
"c.	c #7B675A",
"d.	c #332E23",
"e.	c #3A2C05",
"f.	c #9A9498",
"g.	c #2B2B14",
"h.	c #7B7378",
"i.	c #8C8586",
"j.	c #B48983",
"k.	c #D09FA1",
"l.	c #835F64",
"m.	c #332E2C",
"n.	c #C89487",
"o.	c #B26D67",
"p.	c #3B3433",
"q.	c #8F613D",
"r.	c #43352C",
"s.	c #D08E52",
"t.	c #64544B",
"u.	c #927A83",
"v.	c #433634",
"w.	c #CB9C9B",
"x.	c #332B14",
"y.	c #C9BCBF",
"z.	c #161200",
"A.	c #BA8473",
"B.	c #1C1B01",
"C.	c #352A04",
"D.	c #322603",
"E.	c #1D1500",
"F.	c #363114",
"G.	c #120D00",
"H.	c #363639",
"I.	c #84848A",
"J.	c #3B3434",
"K.	c #B2A5A3",
"L.	c #2C3126",
"M.	c #392D05",
"N.	c #252301",
"O.	c #8D6C6C",
"P.	c #2C2A05",
"Q.	c #25250B",
"R.	c #ADA19D",
"S.	c #978D93",
"T.	c #161100",
"U.	c #332E24",
"V.	c #2C3125",
"W.	c #866C75",
"X.	c #161B01",
"Y.	c #3C3433",
"Z.	c #242301",
"`.	c #353114",
" +	c #1C1500",
".+	c #332603",
"++	c #120C00",
"@+	c #352A03",
"#+	c #857A73",
"$+	c #BB8B84",
"%+	c #A27E81",
"&+	c #BA8474",
"*+	c #D9B6A7",
"=+	c #433534",
"-+	c #D5B6AC",
";+	c #342B14",
">+	c #CC9C9B",
",+	c #43352B",
"'+	c #64544A",
")+	c #B58C8C",
"!+	c #CC894B",
"~+	c #D49457",
"{+	c #E4D3CD",
"]+	c #C2B7C1",
"^+	c #4E4952",
"/+	c #AC6F4A",
"(+	c #DAAA86",
"_+	c #DDA779",
":+	c #B19CA2",
"<+	c #34311C",
"[+	c #D6AD99",
"}+	c #E3CFC8",
"|+	c #1B2102",
"1+	c #BBB9C6",
"2+	c #8E8077",
"3+	c #5F605B",
"4+	c #D1A89A",
"5+	c #D7C3BE",
"6+	c #272914",
"7+	c #D19D8A",
"8+	c #D99C66",
"9+	c #221C00",
"0+	c #DBC3BA",
"a+	c #B0A7AB",
"b+	c #B5AEBB",
"c+	c #2D3232",
"d+	c #2A2B1C",
"e+	c #242302",
"f+	c #948C8B",
"g+	c #B99EA1",
"h+	c #8D8B94",
"i+	c #B87648",
"j+	c #110C00",
"k+	c #332C1B",
"l+	c #2C3232",
"m+	c #342A04",
"n+	c #BBB5B7",
"o+	c #AEA9B4",
"p+	c #D2C4C6",
"q+	c #C5BFC4",
"r+	c #342B0C",
"s+	c #8F7375",
"t+	c #937F8B",
"u+	c #322602",
"v+	c #AC796C",
"w+	c #D2C0BE",
"x+	c #C49894",
"y+	c #E1BFA9",
"z+	c #252302",
"A+	c #CDBFC2",
"B+	c #E1B694",
"C+	c #D8C5C3",
"D+	c #DCB399",
"E+	c #E9E1DF",
"F+	c #BC948B",
"G+	c #9FA09C",
"H+	c #BFC0BA",
"                                                                                                    ",
"                                                                                                    ",
"                                                                                                    ",
"                                    8+8+8+8+N R                                                     ",
"                                B+8+~+z O z C v C 5./+                                              ",
"                                K z C C 5.C v q.v { A k                                             ",
"                                8+5.x ).).^ { { ).x { } k                                           ",
"                              6.N C ).^ ^ Y ^ { { { { q.}                                           ",
"                            8+N z C x ^ ).^ { q.} j j q.{ 7                                         ",
"                            8+N z A @.k b r r 0.x+x+: &+{ j                                         ",
"                            ~+5.@.p A.c V : V }.w.o >+V j m                                         ",
"                            O v ( A.|.n n.V V : >+o o w.b j                                         ",
"                            5.A v+A.p A.n q : : >+o o >+r j                                         ",
"                            /+A v+p s P | c V V V ..x+: w m                                         ",
"                              A | | k k k k |.q |.v+j.$+w                                           ",
"                              k | p P ( v+( $.: q v+j.i d                                           ",
"                              | $.p | w r | $.V : x+w.o x+                                          ",
"                            K s.A.A.A.&+$.!.$.n.w.w.o o w.:                                         ",
"                            K 8+p $.p $.$.$.| :.: >+o w.: w.                                        ",
"                            7+8+p p p p $.| | c : w.>+: ..                                          ",
"                              c p p p A.p A.c : >+>+: : `                                           ",
"                                  |.A.$.| k &+:.V V : o                                             ",
"                                  d $.p s $.n n.: : x+a.                                            ",
"                                  i &+p p A.c V : : q x+                                            ",
"                                  ..$+v+| $.|.V V q q : ` )+                                        ",
"                                  i a._.g+y | &+0.d x+: ` s+].                                      ",
"                                  H s+#+2+s+k $.:.V : : ` W.] )                                     ",
"                                  B s+f F B !.c q : : ..X *.& # & g J J                             ",
"                                  t+s+#+0 )+| n q V V a.a+^+] # v.[.[.> g J O.%.                    ",
"                                  F #+f 0 B v+|.:.:.w _.D ] # # r.< , , @ 3 {.{.9 c.                ",
"                                  %+#+2 0 B b &+|.$.)+b+D ] # # r./ , , l @ , , < r.) e             ",
"                              i )+y 2 2 0 B r | o.v+_.6 o+^+# v.Q / , , , , l , / _ r.r.& '         ",
"                            B m ( y 2+2 0 y | | ( )+b+6 f.] # v.r./ , , 7.7., , / ,+=+=+# )         ",
"                        i y G ~ e y 0 f T m o.!.y K.M D ) # # v._ / 7./ / 7.+., / r.v.Y.# ] 1       ",
"                      i m g {.< {.F+i T u b ( r R.U 6 (.] # v.v.Q / < / _ _ r+7.v.v._ v.# ] '       ",
"                    )+j {.{.< , > w i f./.I B B u a+I ^+# v.v._ / / / / / / r+/ v.v./ r.v.# [       ",
"                i y G ~ 3 > @ , < y K./.D S.F T =.8 ) # r.r._ _ / _ _ 7.F.;+r+Y._ d./ _ _ # 1       ",
"              b.m e > @ > @ @ , , J R./.h.2 8 2 #+#+9 # r.,+_ _ _ _ $ ;+F.h 7._ d.7.$ $ _ # t       ",
"            %.G g {.3 < < l -.l , ) R.K.#+#+8 1 [ ' r.r.r.Q / _ Y.$ ;+r+r+D./ $ k+7.$ $ v.# t.      ",
"            G ~ < 3 , < ;.l l ,., & R.a+f 0 0 0 0 [ # Y.Y._ _ Y._ 7.;+x.+.r+/ ~.~.x.<+_ v.# 3+      ",
"            ].> < < ;.l l l l F.F.< 2+H [ ' [ 1 2 ' # v._ Y._ Y.p.$ x.m+. ~.$ 4.h 4.7.p.J.# 3+      ",
"            ].3 @ , , l >.l ,.,.,., 9 8 f 0 f S [ & v.J.J.p.p.p.% <+x.D.P._ 5 . h 4.<+_ Y.Y.)       ",
"            ].3 @ , , l M.M.`.F.+.+.t.' t.1 2 f 2 ) v.Y._ p.p._ $ ~.D.. h % * z+. k+/ % p._ t.      ",
"            ].> @ @ l -.-.l ,.,.+.+.t.[ S 1 [ ' ) v.v.Y.p.J.p.$ d.x.. z++.$ Q.z+h d.$ % p.$ &       ",
"            e > @ @ l -.-.M.l +.C.,.t.' [ #+2+2+[ # Y.J.H.= p.% $ x.. z+x.% Q.h x.d.d.% $ $ p.3+    ",
"              ~ @ ;.l l ,.F.M.M.m+M.9 ' t.' 9 t.) ,+J.H.H.H.H.% '.h z+z+~._ Q.x.~.5 $ % 5 _ $ &     ",
"              9 < ;.>.M.M.M.M.M.+.,.'+t.' #+#+[ ) v.H.! J.H.= % ~.P.e+. d.% Q.h h d.% d.7.p.$ ,+    ",
"              ].< l M.M.+.+.,.+.+.M.'+t.& t.' ' ) Y.! ! p.% = $ x.z+e+P.$ L.e++ h % % 4._ p.L./ 9   ",
"              e 3 ;.>.M.C.M.+.r+;+M.9 9 t.8 [ ) r.J.! ! p._ p._ 4.z+z+x.% % + e+5 % k+d.p.p.d./ '   ",
"              g 3 ;.>.M.M.C.C.+.r++.9 t.& [ [ ' & J.! ! H.= = $ 4. .e+~.$ V.e+z+Q.6+d.$ Y.= 5 p.]   ",
"              e 3 ;.>.-.C.C.C.M.r++.t.t.& t.) & / J.H.H.H.= = - Q.e+. d.% 5 e+z+ .d.= = = L.% p.# ' ",
"              e > ;.l M.C.@+m++.C.D.t.t.& [ ' t.,+J.H.= H.= = - Q.z+P.d.% d+&. .Z $ = m.% % = J._ t.",
"                ~ @ l +.C.m+m+m+P.m+9 t.< & ) & / % H.= = c+V.d+z+z++.d.L.d+B.e+Z d.% % = % = - _ ) ",
"                g @ M.C..+D.D.P.P.m+9 t.& ' '+& / = H.= = c+5 Q.e+h 4.U.L.* &.e+h 5 U.% _ % % J.Y.) ",
"                e {.e.D.m+.+. m+m+M.' t.Q ) '+) / = H.= = = 5 h Z 5 '.U.'.Q.B.e+. 4.Z 4.5 $ % = Y.*.",
"                s+t.e.D.D.D.D.D.m+M.' ) r.& # < x.% H.c+= m.Q.h d+5 L.- ; +  + .Q.z+z+h Z 4.U.p.# t ",
"                  ,+C.D.. u+. m+m++.' ) & ) t.) F.$ = = c+m.6+Q.d+5 '.- d+B. +&.e+Q.e+Z d.U.% J.# 1 ",
"                ) @ C.D.z+u+z+. D.+.' ) < [.,+# r+$ m.c+c+'.V.6+h * d+d+* B.T.B.e+Q.e+~.- % % p.]   ",
"                3 C..+D.z+z+. u+D.C.9 ) & & & & `.$ - - - ; ; d+5 d+'.6+ .z.z.&. .e+h U.- - $ J.^+  ",
"              m {.e.u+. z+e+. D.D.m+' ) < & '+) F.d.L.- '.; 5 d+'.- ; * z.T.B.&.Q.Z d+V.'.L.% J.*.  ",
"              e 3 e.u+. e++ e+. P.D.' ) < [.# [.x.V.- - '.6+* ; V.L.5 &.G.z. . .Q.; '.L.L.% = #     ",
"    i q 4+  O.g {.< .+z+&.&.+ . P.. ' ) ,+) & , g.'.L.L.d+* 6+d+d.# h z.G.z.&.+ z+6+'.m.= = = !     ",
"    d 0.d x+y J 9 > @ . &.&.+.;+. +.' & , l < [.P.5 V.; d+6+5 '.~.) . T.z.B.&.+ z+5 L.- m.c+= ]     ",
"  q V x+d q )+].> @ C.z+&.B.< < u+h ' & , ;+z+r+D.5 L.d+d+; '.d+Q. +T.G.z.&.&.+ z+5 - - - c+H.*.    ",
"j.| v+:.x+d d %.3 e.D.Z.&.&.< , . h ' & < ;+&.. D.g.'.'.5 d.% k+&.T.G.G.T.B. .e+* '.L.- = = ^+      ",
"b @.( &+d i q $+9 m+. N.&. +, M.z++.' ) ) & / h . d+L.; d+& e g 3 . &.z. +&. .* d+- % = = ! t       ",
"  v+k | 0.F+x+d G @ z++ &. +m+. z+h ' ' ' ' [ ) +.4.6+Q.. g q.q.q.{ g > D.e+ .* d+- c+= = ^+        ",
"  b k ( | q q F+j @ e+&. +G.N.e+e++.' ' ' [ 1 ' ;+4.Q.e+e+e k k ( } q.{ > ;+* d+d+- c+= ]           ",
"    ( j k &+q $+g m++ + +  ++ z+e++.' ' ' ' 1 [ 7.5 Q.+ + g k | b v+k 7 e < 5 L.L.- = ]             ",
"      b k p w } @ . . '+[ h + e+z+h ' ' ' [ 1 [ ,+4.e+&. .~ | | r w b b m & = c+= H.H.]             ",
"        } { > @ < & '+  ) . E.e+z+h ' ' ' [ 1 [ # 5 + E.&.3 k A.|.j.r b b ) p.H.= = = #             ",
"        ) @ l &         ^+Q.E.+ z+x.' t t [ 1 [ ] 5 &. +z.D.q.p w j.j.w w e v.H.H.J.= #             ",
"        t & <         h+t Y.+ + . ;+' ' [ 1 1 1 ) h  + +z.+ { v+r j.j.$+$+G # J.] # = J.t           ",
"          t         D I.(.Y.+ + . , ' [ [ 1 8 1 '+.  +T.T. +g 7 b j.j.$+w j > J.) & % p.t.          ",
"                    S t *.U.. + . ;+' 1 1 1 8 1 ' r+E.T.T. +~ } b j.w j.b j 3 p.& & % = )           ",
"                    & ) ] d.D.z+z+, ' 8 1 1 8 1 ' Q &.T.T.z.. ~ 7 b b b 7 } @ / & # = = )           ",
"                  ' > ' & / +.. u+,+[ 2 h.S 2 8 [ ) + z.T.&.h > G ( b ( 7 e e.~.# Y.a = #           ",
"                  1 {.c.{.< ~.7.F.) 8 0 L h.f S 8 ' , Q.z+4.m.# ].m m j j g r+7.Y.J.J.J.#           ",
"                                                                                                    ",
"                                                                                                    ",
"                                                                                                    "};
