/* XPM */
static char * rick_05_xpm[] = {
"50 81 257 2",
"  	c #FF000000",
". 	c #2B2402",
"+ 	c #221C01",
"@ 	c #442F0C",
"# 	c #433B35",
"$ 	c #343225",
"% 	c #34322B",
"& 	c #524434",
"* 	c #262613",
"= 	c #353333",
"- 	c #2C312B",
"; 	c #2A2D24",
"> 	c #563926",
", 	c #3B3113",
"' 	c #6C6255",
") 	c #5B4C44",
"! 	c #37383B",
"~ 	c #623E2B",
"{ 	c #875737",
"] 	c #523A45",
"^ 	c #75460D",
"/ 	c #3B3324",
"( 	c #A9766A",
"_ 	c #3B332C",
": 	c #CB9A95",
"< 	c #443423",
"[ 	c #74695D",
"} 	c #96654C",
"| 	c #B4796B",
"1 	c #756C63",
"2 	c #83756C",
"3 	c #543622",
"4 	c #2C3132",
"5 	c #2B2B1C",
"6 	c #B6B0C6",
"7 	c #A46C63",
"8 	c #7C7067",
"9 	c #675649",
"0 	c #8D827C",
"a 	c #332D32",
"b 	c #AB7A74",
"c 	c #C38C83",
"d 	c #BC938B",
"e 	c #775847",
"f 	c #857A74",
"g 	c #704F36",
"h 	c #2B260B",
"i 	c #B89896",
"j 	c #996956",
"k 	c #AC725C",
"l 	c #3B310B",
"m 	c #997467",
"n 	c #C48B78",
"o 	c #CC9FA2",
"p 	c #BB826A",
"q 	c #C4948A",
"r 	c #B37C78",
"s 	c #BC7C5C",
"t 	c #6B5964",
"u 	c #A59998",
"v 	c #955928",
"w 	c #B8867B",
"x 	c #8B5115",
"y 	c #A7817A",
"z 	c #B66E27",
"A 	c #9A6139",
"B 	c #AA8985",
"C 	c #A15C1A",
"D 	c #9B98A2",
"E 	c #897C84",
"F 	c #96837D",
"G 	c #8A6556",
"H 	c #A5928D",
"I 	c #A59CA4",
"J 	c #866B65",
"K 	c #CE936F",
"L 	c #7E7A82",
"M 	c #B5AEC1",
"N 	c #C8823E",
"O 	c #C37B38",
"P 	c #B4765A",
"Q 	c #433424",
"R 	c #C17D4E",
"S 	c #7C726B",
"T 	c #9C928D",
"U 	c #B4ACB2",
"V 	c #C9968B",
"W 	c #E0BA9F",
"X 	c #CAAAA9",
"Y 	c #74450D",
"Z 	c #2A2613",
"` 	c #CCA1A5",
" .	c #1C2102",
"..	c #C49995",
"+.	c #342B0B",
"@.	c #A56B4A",
"#.	c #CAB9B8",
"$.	c #B97C73",
"%.	c #987976",
"&.	c #1D1B01",
"*.	c #5E4D60",
"=.	c #958C8B",
"-.	c #3B3105",
";.	c #43310B",
">.	c #3A2D05",
",.	c #35310C",
"'.	c #2B2D24",
").	c #824C0F",
"!.	c #B97B73",
"~.	c #332D1B",
"{.	c #613E2D",
"].	c #775959",
"^.	c #D6A991",
"/.	c #A8A5AA",
"(.	c #6E6A73",
"_.	c #B8A8A9",
":.	c #C28E87",
"<.	c #B7B1B5",
"[.	c #443424",
"}.	c #D19D95",
"|.	c #BB857A",
"1.	c #D6C9C9",
"2.	c #CDB4B1",
"3.	c #DEC2B5",
"4.	c #2B2A14",
"5.	c #AB6523",
"6.	c #DDA16E",
"7.	c #35311C",
"8.	c #BBB2C2",
"9.	c #332602",
"0.	c #BC8B84",
"a.	c #C59DA0",
"b.	c #AB8E91",
"c.	c #7B675A",
"d.	c #332E23",
"e.	c #3A2C05",
"f.	c #9A9498",
"g.	c #2B2B14",
"h.	c #7B7378",
"i.	c #8C8586",
"j.	c #B48983",
"k.	c #D09FA1",
"l.	c #835F64",
"m.	c #332E2C",
"n.	c #C89487",
"o.	c #B26D67",
"p.	c #3B3433",
"q.	c #8F613D",
"r.	c #43352C",
"s.	c #D08E52",
"t.	c #64544B",
"u.	c #927A83",
"v.	c #433634",
"w.	c #CB9C9B",
"x.	c #332B14",
"y.	c #C9BCBF",
"z.	c #161200",
"A.	c #BA8473",
"B.	c #1C1B01",
"C.	c #352A04",
"D.	c #322603",
"E.	c #1D1500",
"F.	c #363114",
"G.	c #120D00",
"H.	c #363639",
"I.	c #84848A",
"J.	c #3B3434",
"K.	c #B2A5A3",
"L.	c #2C3126",
"M.	c #392D05",
"N.	c #252301",
"O.	c #8D6C6C",
"P.	c #2C2A05",
"Q.	c #25250B",
"R.	c #ADA19D",
"S.	c #978D93",
"T.	c #161100",
"U.	c #332E24",
"V.	c #2C3125",
"W.	c #866C75",
"X.	c #161B01",
"Y.	c #3C3433",
"Z.	c #242301",
"`.	c #353114",
" +	c #1C1500",
".+	c #332603",
"++	c #120C00",
"@+	c #352A03",
"#+	c #857A73",
"$+	c #BB8B84",
"%+	c #A27E81",
"&+	c #BA8474",
"*+	c #D9B6A7",
"=+	c #433534",
"-+	c #D5B6AC",
";+	c #342B14",
">+	c #CC9C9B",
",+	c #43352B",
"'+	c #64544A",
")+	c #B58C8C",
"!+	c #CC894B",
"~+	c #D49457",
"{+	c #E4D3CD",
"]+	c #C2B7C1",
"^+	c #4E4952",
"/+	c #AC6F4A",
"(+	c #DAAA86",
"_+	c #DDA779",
":+	c #B19CA2",
"<+	c #34311C",
"[+	c #D6AD99",
"}+	c #E3CFC8",
"|+	c #1B2102",
"1+	c #BBB9C6",
"2+	c #8E8077",
"3+	c #5F605B",
"4+	c #D1A89A",
"5+	c #D7C3BE",
"6+	c #272914",
"7+	c #D19D8A",
"8+	c #D99C66",
"9+	c #221C00",
"0+	c #DBC3BA",
"a+	c #B0A7AB",
"b+	c #B5AEBB",
"c+	c #2D3232",
"d+	c #2A2B1C",
"e+	c #242302",
"f+	c #948C8B",
"g+	c #B99EA1",
"h+	c #8D8B94",
"i+	c #B87648",
"j+	c #110C00",
"k+	c #332C1B",
"l+	c #2C3232",
"m+	c #342A04",
"n+	c #BBB5B7",
"o+	c #AEA9B4",
"p+	c #D2C4C6",
"q+	c #C5BFC4",
"r+	c #342B0C",
"s+	c #8F7375",
"t+	c #937F8B",
"u+	c #322602",
"v+	c #AC796C",
"w+	c #D2C0BE",
"x+	c #C49894",
"y+	c #E1BFA9",
"z+	c #252302",
"A+	c #CDBFC2",
"B+	c #E1B694",
"C+	c #D8C5C3",
"D+	c #DCB399",
"E+	c #E9E1DF",
"F+	c #BC948B",
"G+	c #9FA09C",
"H+	c #BFC0BA",
"                                                                                                    ",
"                                                                                                    ",
"                                                                                                    ",
"                                                                                                    ",
"                                                                                                    ",
"                                                8+8+6.K !+                                          ",
"                                              K R z z 5.v v A k                                     ",
"                                            _+5.x x x x v v v } |                                   ",
"                                            s.z ).^ ^ ^ x ).^ v } $+                                ",
"                                          s.O 5.).^ ^ Y ^ ).{ { q.j                                 ",
"                                        _+N z A @.} q.q.} j } q.{ q.                                ",
"                                        ~+O i+p &+n.V q : >+>+V j q.                                ",
"                                        i+A $.A.A.n.: : : >+` o r }                                 ",
"                                        /+@.| A.p n V : : : ` ` 0.j                                 ",
"                                        P @.| k k ( |.: V >+o o 0.j                                 ",
"                                        A.k v+| &+| k c |.( r :.|.7                                 ",
"                                        n.p $.| ( v+| c : &+q d w                                   ",
"                                      _+8+(+A.|.c $.| c : V q o F+                                  ",
"                                      7+8+K p p $.!.!.:.>+>+o o x+                                  ",
"                                      ^.K n p | p | k p c w.w.: V                                   ",
"                                        n.K &+p p $.c : >+>+: : :                                   ",
"                                          X |.p P P A.c V : : w.                                    ",
"                                          ` &+p p p n V : V ..                                      ",
"                                          x+n p p |.n.V : q ..                                      ",
"                                          0.| | | $.c V V q                                         ",
"                                          d $.| k k k p 0.x+                                        ",
"                                        w+c p p s p |.:.V : X                                       ",
"                                      2.4+|.| p | |.V V : w.X                                       ",
"                                x+F+F+o 4+i g+g+r $.c n.: x+_.t                                     ",
"                          x+j.j G e ( 4+a.s+2 #+b |.c :.V d U ^+) J                                 ",
"                    o x+b G g 3 3 3 G 4+i O.2 F j.|.c c !._.I ^+] # & c.                            ",
"                F+w m e ~ 3 @ ;.@ @ e 4+i 2 2 F )+|.&+v+g+M I.] # v.Y.r.> e J                       ",
"              O.g ~ > < , @ l l l @ G -+b.2 S 0 d $.r g+M 6 E ] # v.Y.r.r.,+< ) c.                  ",
"              9 > 3 [.< , @ , l >.l j a.H 2 S 0 B $+U 6 6 M (.# # v._ < < < Q ,+,+) c.              ",
"            F {.3 [.[.< , , l l -.l g m m 8 8 0 R.U 6 6 6 h+] # # r.Q / , / / ,+,+=+,+9             ",
"            J > < [.< , , , l M.C.M., < c.2 f =.0 S.b+6 o+) # v.v.Q , 7.7.< 7./ / ,+v.# t.          ",
"            e 3 , < < , , , , l F.C.,.Q [ f =.f f f 0 S.[ # v.v.v._ 7.F., ,+/ , < v.# # )           ",
"            g < ;., / l l , , , `.+.M., t.0 f.=.=.f 8 #+' # _ ,+_ / 7.7./ Q r.g ].) v.# ]           ",
"          J {.@ l , < , ,.F.M.,.r+m++.$ 2 u I f 1 S =.i.) r./ / / 7.$ $ 7./ {.j y y c.] ]           ",
"          g {.@ l >., F.x.;+;+m+m+m++.`.' f.u S i.T =.1 ,+_ 7.7.$ $ $ ;+7.d.& b j.)+)+m {.          ",
"          > @ ;.-.M., +.C.r++.D.D.m+m++.'+u a+=.=.0 [ 9 r._ 7.7.7.d.d.+.~.~.) y )+)+d d e           ",
"        e 3 l l >.C.M.C.D.m+P..+D.. u++.[ T u 8 [ 1 2+1 v./ 7.$ ~.`.`.+.r+D.e B )+i i F+m           ",
"        e @ >.-.C.C.M.@+u+D.h D.. D.D.m+) 8 8 [ 0 T i.t._ $ 7.7.;+,.r+m+D.D.e r )+)+i )+G           ",
"        9 @ @+@+@+.+D.D.. . P.D.. . . .+) 2 2 i.i.S t.,+/ $ $ ~.`.~.x.. . . g ( $+)+)+w g           ",
"        9 @ C.D..+9..+. . . . D.. . . D.) F 2 1 9 [ S & _ % d.~.x.~.h . + z+> } v+j.$+7 {.          ",
"      B g @ +.D.. . D.. . . D.D.u+D.. P./ [ 8 8 f 0 8 ,+% U.d.d.~.<++.z++ Z.> } k w r e >           ",
"      m {., M.u+z+N.. . z+N.. . +., , [.> 1 0 =.S ' & 7.$ $ <+<+<+x.h z++ N.[.} k &+b ~ r.          ",
"    y m {.l @+u+z+Z.. . z+e+m+e ( b b b } J 2 [ '+9 t./ d.~.<+d.d.4.D.z++ . , q.@.w w {.>           ",
"  J {.< e.u+. . N.+ Z.z+e+e+) m r b 7 j q.q.1 1 2 2 ) / $ k+~.~.d.x.. N.+ N.D.g q.( w g @ '+        ",
"c.g {.< , +.u+. N.. +.. . < J k &+&+v+7 q.g #+F 2 [ ,+`.~.5 4.x.<+x.. + Z.e+e+@ ~ { g > u+&         ",
"O.{.@ 3 {.3 < < D.< e > C.{.j k $.v+7 7 { g [ 9 ) ) ,++.Z h Q.. D.. Z.Z.+ + &.+ . @ ~ > e.+.        ",
"9 @ @ g g e 3 e.. 3 3 m+D.g j k $.$.( 7 g & ' ' 1 8 ,+. z+. e+. . Z.+ + &.&.T. +&.D.> 3 @ +.'       ",
"l.< < {.3 e.D.m+m+3 e.. u+{.j k | | k j 3 & ' 9 8 ' ;+z+z+Z. .e+Z.Z.+ + &.&.++z.T. +. C.m+;+& )     ",
"=.& @ @ >.e.C.+., l D.D.D.{.} j k k } g C.) 8 9 & & +.Z.Z.Z.Z.+  .Z.+ &.&. +++G.T.T. +&.. ;+_ _ &   ",
"  9 < ;.;.l l l >.C.. . C.@ g { ~ @ + &.Z.) ' '+'+9 r+e+ .Z.Z.Z.+ Z.+ + &. +++T. + +z.&.. ;+$ $ / t.",
"  ].3 @ @ ;.;.l e., < [.m+D.e.z+ +T. ++ e+) ' 9 ) > D.N.e+Z.Z.&.+ + + + &.z.G.G. + +T.&.. r+k+/ _ t.",
"    {.@ < < @ ;.;.g g < C.D.N.E.T.&.&. .Z.) 1 2 c.g . e+ .+ Z.&.&.&.+ &.&.z.G.G.T.z.T.E.N.;+~.d.v.  ",
"      ].{.3 3 @ ;.@ @ u+. z++  +T.&.+ + Z.& ' ) & , +  . . . .B.&.&.B.&. +G.++G.G.T.T.T.. ;++.~.)   ",
"            9 g g   e e.. Z.+ &.&.+ Z.Z.e+) ' ' 9 & .  . .Z.Z. . . .&.+ B. +G.G.G.z.z. +N.m+~._     ",
"                    e l . . r++ &.&.z+Z.Z.) [ [ 9 > . Z. .Z.&.&.&.&.&.&.B. +T.G.G.T. +T.+ +.k+)     ",
"                    9 @ D.. . N.N.Z.N.N.N.) 9 '+) [.. . 6+h B.B.&.&.+ h h B.z.G.++G.z. +E.u+x.)     ",
"                    g l @+9.. . N.Z.+ Z.. ) ) & & , . h '.* B.B. +&.+ . r+e+ .G.G.z.z. ++ +.)       ",
"                    e @ C.9.u+. . N.Z.N.. ) ) , , . . h d+ . . .&.&.Z.z+e+e+Z Q.+ Q./ ,+/ )         ",
"                    g ;.C.D.. . . . + + Z.) & + + + N.h 4.Q.Q.* Q.&.Z.e+e+e+Z 5 _                   ",
"                    g @ M..+u+u+. . +  +z+'+& & ) & . h Z Q.Q.6+*  .Z.Q.Q.Q.h 5 = [                 ",
"                    {.>.C..+9.u+. . + z.Z.'+) S 2 ' +.5 '.Q.e+Q.h z+e+z+Q.Q.Q.4.L.^+                ",
"                    {.>.u+@+u+. . N.&. ++ t.& [ 2 ' x.d.m.d+ .B. .z+Z.N.. Q.Q.6+L.= )               ",
"                    > e..+u+. . . N.&.B.&.t.& ' #+' 7.% % - * &.&.+  . .z+* * 6+'.- U.              ",
"                    {.@ .+u+. P.e++ + &.+ t.,+9 S ' / = c+c+'.* &.&.+ Z.Z.. 6+; '.L.'.[             ",
"                    & e..+u+< c.> N.&.+ + t.,+) S ' _ = c+c+4 d+ .&.&.&.&.Z.* d+'.L.- 3+            ",
"                    ] e.@+D.C.{., Z.+ &.z+9 ,+) S [ Y.= = = = L.* + B. .+ e+6+6+d+- m.&             ",
"                    & l +.u+. . N.Z.Z.Z.. 9 [.) 8 1 # H.= c+= c+- * e+/ h z+Q.* 4.6+L.p.0           ",
"                    ) l r+@+u+N.Z.Z.Z.Z.. 9 ,+) S S ) J.= = = = c+m.* Q.Z.+ z+6+'.d+m.c+1           ",
"                    t.;.M.m+. N.N.Z.Z.+ h 9 ,+'+S 2 ' v.c+% c+= = c+- 6+z++ + * ; '.L.- t           ",
"                    *.< , F.r+P.z+h z+z+x.' r.' f f 2 t.J.= = = = H.= m.'.* Q.4.L.- % = ^+          ",
"                                                                                                    ",
"                                                                                                    ",
"                                                                                                    ",
"                                                                                                    ",
"                                                                                                    ",
"                                                                                                    "};
