/* XPM */
static char * rick_14_xpm[] = {
"50 81 257 2",
"  	c #FF000000",
". 	c #2B2402",
"+ 	c #221C01",
"@ 	c #442F0C",
"# 	c #433B35",
"$ 	c #343225",
"% 	c #34322B",
"& 	c #524434",
"* 	c #262613",
"= 	c #353333",
"- 	c #2C312B",
"; 	c #2A2D24",
"> 	c #563926",
", 	c #3B3113",
"' 	c #6C6255",
") 	c #5B4C44",
"! 	c #37383B",
"~ 	c #623E2B",
"{ 	c #875737",
"] 	c #523A45",
"^ 	c #75460D",
"/ 	c #3B3324",
"( 	c #A9766A",
"_ 	c #3B332C",
": 	c #CB9A95",
"< 	c #443423",
"[ 	c #74695D",
"} 	c #96654C",
"| 	c #B4796B",
"1 	c #756C63",
"2 	c #83756C",
"3 	c #543622",
"4 	c #2C3132",
"5 	c #2B2B1C",
"6 	c #B6B0C6",
"7 	c #A46C63",
"8 	c #7C7067",
"9 	c #675649",
"0 	c #8D827C",
"a 	c #332D32",
"b 	c #AB7A74",
"c 	c #C38C83",
"d 	c #BC938B",
"e 	c #775847",
"f 	c #857A74",
"g 	c #704F36",
"h 	c #2B260B",
"i 	c #B89896",
"j 	c #996956",
"k 	c #AC725C",
"l 	c #3B310B",
"m 	c #997467",
"n 	c #C48B78",
"o 	c #CC9FA2",
"p 	c #BB826A",
"q 	c #C4948A",
"r 	c #B37C78",
"s 	c #BC7C5C",
"t 	c #6B5964",
"u 	c #A59998",
"v 	c #955928",
"w 	c #B8867B",
"x 	c #8B5115",
"y 	c #A7817A",
"z 	c #B66E27",
"A 	c #9A6139",
"B 	c #AA8985",
"C 	c #A15C1A",
"D 	c #9B98A2",
"E 	c #897C84",
"F 	c #96837D",
"G 	c #8A6556",
"H 	c #A5928D",
"I 	c #A59CA4",
"J 	c #866B65",
"K 	c #CE936F",
"L 	c #7E7A82",
"M 	c #B5AEC1",
"N 	c #C8823E",
"O 	c #C37B38",
"P 	c #B4765A",
"Q 	c #433424",
"R 	c #C17D4E",
"S 	c #7C726B",
"T 	c #9C928D",
"U 	c #B4ACB2",
"V 	c #C9968B",
"W 	c #E0BA9F",
"X 	c #CAAAA9",
"Y 	c #74450D",
"Z 	c #2A2613",
"` 	c #CCA1A5",
" .	c #1C2102",
"..	c #C49995",
"+.	c #342B0B",
"@.	c #A56B4A",
"#.	c #CAB9B8",
"$.	c #B97C73",
"%.	c #987976",
"&.	c #1D1B01",
"*.	c #5E4D60",
"=.	c #958C8B",
"-.	c #3B3105",
";.	c #43310B",
">.	c #3A2D05",
",.	c #35310C",
"'.	c #2B2D24",
").	c #824C0F",
"!.	c #B97B73",
"~.	c #332D1B",
"{.	c #613E2D",
"].	c #775959",
"^.	c #D6A991",
"/.	c #A8A5AA",
"(.	c #6E6A73",
"_.	c #B8A8A9",
":.	c #C28E87",
"<.	c #B7B1B5",
"[.	c #443424",
"}.	c #D19D95",
"|.	c #BB857A",
"1.	c #D6C9C9",
"2.	c #CDB4B1",
"3.	c #DEC2B5",
"4.	c #2B2A14",
"5.	c #AB6523",
"6.	c #DDA16E",
"7.	c #35311C",
"8.	c #BBB2C2",
"9.	c #332602",
"0.	c #BC8B84",
"a.	c #C59DA0",
"b.	c #AB8E91",
"c.	c #7B675A",
"d.	c #332E23",
"e.	c #3A2C05",
"f.	c #9A9498",
"g.	c #2B2B14",
"h.	c #7B7378",
"i.	c #8C8586",
"j.	c #B48983",
"k.	c #D09FA1",
"l.	c #835F64",
"m.	c #332E2C",
"n.	c #C89487",
"o.	c #B26D67",
"p.	c #3B3433",
"q.	c #8F613D",
"r.	c #43352C",
"s.	c #D08E52",
"t.	c #64544B",
"u.	c #927A83",
"v.	c #433634",
"w.	c #CB9C9B",
"x.	c #332B14",
"y.	c #C9BCBF",
"z.	c #161200",
"A.	c #BA8473",
"B.	c #1C1B01",
"C.	c #352A04",
"D.	c #322603",
"E.	c #1D1500",
"F.	c #363114",
"G.	c #120D00",
"H.	c #363639",
"I.	c #84848A",
"J.	c #3B3434",
"K.	c #B2A5A3",
"L.	c #2C3126",
"M.	c #392D05",
"N.	c #252301",
"O.	c #8D6C6C",
"P.	c #2C2A05",
"Q.	c #25250B",
"R.	c #ADA19D",
"S.	c #978D93",
"T.	c #161100",
"U.	c #332E24",
"V.	c #2C3125",
"W.	c #866C75",
"X.	c #161B01",
"Y.	c #3C3433",
"Z.	c #242301",
"`.	c #353114",
" +	c #1C1500",
".+	c #332603",
"++	c #120C00",
"@+	c #352A03",
"#+	c #857A73",
"$+	c #BB8B84",
"%+	c #A27E81",
"&+	c #BA8474",
"*+	c #D9B6A7",
"=+	c #433534",
"-+	c #D5B6AC",
";+	c #342B14",
">+	c #CC9C9B",
",+	c #43352B",
"'+	c #64544A",
")+	c #B58C8C",
"!+	c #CC894B",
"~+	c #D49457",
"{+	c #E4D3CD",
"]+	c #C2B7C1",
"^+	c #4E4952",
"/+	c #AC6F4A",
"(+	c #DAAA86",
"_+	c #DDA779",
":+	c #B19CA2",
"<+	c #34311C",
"[+	c #D6AD99",
"}+	c #E3CFC8",
"|+	c #1B2102",
"1+	c #BBB9C6",
"2+	c #8E8077",
"3+	c #5F605B",
"4+	c #D1A89A",
"5+	c #D7C3BE",
"6+	c #272914",
"7+	c #D19D8A",
"8+	c #D99C66",
"9+	c #221C00",
"0+	c #DBC3BA",
"a+	c #B0A7AB",
"b+	c #B5AEBB",
"c+	c #2D3232",
"d+	c #2A2B1C",
"e+	c #242302",
"f+	c #948C8B",
"g+	c #B99EA1",
"h+	c #8D8B94",
"i+	c #B87648",
"j+	c #110C00",
"k+	c #332C1B",
"l+	c #2C3232",
"m+	c #342A04",
"n+	c #BBB5B7",
"o+	c #AEA9B4",
"p+	c #D2C4C6",
"q+	c #C5BFC4",
"r+	c #342B0C",
"s+	c #8F7375",
"t+	c #937F8B",
"u+	c #322602",
"v+	c #AC796C",
"w+	c #D2C0BE",
"x+	c #C49894",
"y+	c #E1BFA9",
"z+	c #252302",
"A+	c #CDBFC2",
"B+	c #E1B694",
"C+	c #D8C5C3",
"D+	c #DCB399",
"E+	c #E9E1DF",
"F+	c #BC948B",
"G+	c #9FA09C",
"H+	c #BFC0BA",
"                                                                                                    ",
"                                              K s._+6.(+_+_+                                        ",
"                                            ~+O N N O R z O i+s                                     ",
"                                          8+O z z x x x x v A A P                                   ",
"                                        6.!+C ^ ^ ^ x ^ ).q.{ x A                                   ",
"                                      6.N O C ^ ^ ^ ^ ~ ~ ^ ).).q.r                                 ",
"                                    R z 5.5.x ^ ^ ^ ~ ~ ~ Y x { } w                                 ",
"                                  @.C v x x x ).g ^ ^ ).).{ } j } b                                 ",
"                                  @.v x ).{ { q.j 7 b r b b d ..$+b                                 ",
"                                  &+v ^ ^ { j r |.0.x+w.o o ` o : r                                 ",
"                                  n x ^ ^ q.| A.&+|.V : >+o o o >+$+                                ",
"                                  7+v ^ ^ j $.A.A.0.q V >+o o o o x+                                ",
"                                    A x { } | A.&+|.d q : o >+o w...                                ",
"                                    q.v { j | p | | v+( w x+q w r )+                                ",
"                                    q.{ { ( p | P $.:.w | |.V :.x+i                                 ",
"                                    | q.{ ( &+$.$.$.w j.$.A.V q $+g+                                ",
"                                    8+p } | A.$.w :.q q $.| :.w.o a.                                ",
"                                  7+8+~+p | $.$.&+0.F+:.| | c : o a.                                ",
"                                    K K A.| | | | A.:.|.( k $.d w.a.                                ",
"                                    w.n p | | | p A.n |.&+|.:.x+w.                                  ",
"                                        0.| | | p $.|.|.|.q : : :                                   ",
"                                        $+| | | | $.&+| | &+c :...                                  ",
"                                          | k | | | &+|.&+c q : a.                                  ",
"                                          $.P k k | p |.0.q q ..n+                                  ",
"                                        ` p P k k /+k | &+:.j.H u I a+                              ",
"                                        4+p P k k /+@.@.k &+%.#+#+f R.                              ",
"                                      %.q | k k /+@.@.k $+d y 2 2 0 K.                              ",
"                                    G g y ( v+k k k k | 0.d y 2 2 2+=.9                             ",
"                                  G ~ > 2 B v+( ( 7 k v+w d %+2 2 f 0 & & & ' c.                    ",
"                              G g > < < ' K.y v+( | | $.0.0.%.2 S f 0 ] # v.# & & e                 ",
"                        i m g > < [.< , & R.K.y v+r $.&+0.0.%.2 8 #+2+& # # # v.v.# & '             ",
"                      y e ~ 3 ,+[.[.< l < f+b+u v+!.w w c $.m f S 2+S & v.# v.v.v.# # ] & ].        ",
"                  y G {.> [.r.,+r.,+, l l [ a+M b.r c :.0.o.%.i.S 0 ' # # # v.v.# # # # # &         ",
"                m g > < [.,+v.v.r.r.7.>.l ' u b+M :+F+F+r r K.I S.h.] v.v.v.v.v.# # # # # ] 1       ",
"            m e > < / / Q Q v.Y._ Y.d.,.l ' f./.6 6 _.)+r i U /.S.h.# # Y.v.v.v.v.# # # # # '       ",
"        u.9 > < , / / / / _ _ % v.v._ ~.F.& f./.M 6 6 a+:+a+o+o+I E ] Y.Y.v.v.J.J.# # v.v.v.'+      ",
"        1 > , / / $ 7.$ _ p.Y._ Y.v._ `.x.F.0 o+o+D E i.f.f+1 S.I h.# Y.J.v.v.J.! J.v.v.r.v.&       ",
"      f.) < / _ $ 7.7.$ $ p.p.$ Y.Y._ d.5 `.& h.h+f.S.f.u I D I a+h.# J.J.# J.J.! J.v.v._ Y.&       ",
"      t+] < F./ $ 7.r+x.~.J.H.p.J.p.$ % % d.$ r.3+1 S h.f f (.u _.h.# J.H.H.J.J.H.J.v.Y.% Y.#       ",
"      h.& , l / $ ~.D.P.;+% J.J.J.% % = % $ $ Y.i.f.f.f.f.S.f F u (.# ! J.J.Y.Y.J.J.J.p.% = #       ",
"      t.,+, F.7.$ 4.P.+.~.<+_ J.H.% % % % $ $ $ ) h.E h+i.0 2 2 S ) v.J.J.J.p.p.J.J.J._ % % #       ",
"      ) < +.+.`.k+h P.4.~.$ % J.% $ % % $ $ $ % ) f E E L 1 ' ' [ # J.H.= = = J.= p.= % <+$ #       ",
"      ] , C.D.+.r+. . h x.d.$ = = L.L.% = % L.% # i.u I D i.0 2+8 # J.H.= = = = p.p.= U.4.d.# [     ",
"      ] l M..+. . z+e+z+h $ d+= = - L.- % % % % % t.1 1 t t.t.' 1 # p.= = = p.= p.= % k+h $ Y.t.    ",
"      # +.C.D..+. e+e+ .z+~.Z d.% - - - L.L.% % _ [ u I f+0 0 2 1 # p.= % = = = % % V.* 5 % J.t.    ",
"    L v.;+D.. . . . e+ .e+4.Q.4.$ % '.'.'.- % = % # ' [ 3+' ' t.1 # % % % = = % % - 5 Q.d.= J.)     ",
"    t Y.4.z+. . z+z+e+ . .Q.Q.e+L.- V.5 4.L.c+c+= # =.f+2 S 1 ' 1 & _ _ % = % d.$ L.6+z+d.= p.)     ",
"    *.Q m+. . e+e+e+e+ .|+z+Q.|+d+= L.'.'.V.- c+c+J.1 1 1 8 ' ' 8 J J l.].] Y.d.d.5 h Z L.= % )     ",
"    ] , +.. . z+e+e+e+|+|+e+ .|+ .L.'.'.L.L.- c+c+% 1 [ ' t.[ J 2 y b $+j.y O.& 7.h e+4.m.= p.)     ",
"    v.+.. h z+e+e+e+e+ .X. .|+|+B.6+L.d+; L.- - L.5 ) S S ' [ 8 J G ( b j.j.$+e , . z+4.'.% = &     ",
"  h.v.r+. . z+e+e+ . . .z. . .|+B. .d+'.- - - - * Q.7.& & & # ) 1 J y B j.w j.G , . Q.4.~.% = #     ",
"  1 r.r+D.z+z+e+ . . .B.G.B.|+B.|+B.6+- 4 4 - ; Q.|+/ 1 [ 1 ' ' 8 J y B B w $+m @ z+6+4.d.m.= #     ",
"  t ,+C.D.. z+e+ .|+B. +T.|+|+|+|+X. .'.- - L.L.d+ .Q.) ' t.& ) 8 G y B B j.$+O.l h Z Q.d.m.% #     ",
"  *.Q r++.. e+e+ .B.z.z.z. .B.B.|+B.z.Q.- - L.L.- * . '+' t.& ) 8 G b y y w j.J [.'.d+4.4.Q.'.~.9   ",
"  t., +.+.. z+z+|+|+|+B.B.|+|+B.|+ +G.B.; - L.L.- d+Q.' [ ' '+) 1 { ( w j.j.j.G ,+% U.V.d.5 5 k+,   ",
"  ) , x.x.r+.  .B.|+B. +B. .|+B.|+ +G.T.Q.- - L.c+; e+& ) ) Q & ' 3 ~ { v+w y e Q % % L.L.L.6+h , & ",
"  ] 7.x.r+.  . .B.B.B.G. + .B.|+B.z.G.G. .d+- 4 c+; e+'+[ 1 t.'+' z+z., q.( v+g Q L.% - m.'.h 4.7.t.",
"  ] $ h z+ .B.B.B.B.B.G.X.|+B.B.B.z.G.G.T.Q.- - c+; Q.) ' t.[.) ' z+G.+ ~ } j > 7.L.% - % % Z / t.  ",
"E ] ;+e+e+. e+ .B.B. +z.B.B.&.B.&.z.G.G.++B.d+4 c+- Q.& t.' & ) ' z+G.T.l > > C.F.V.$ % m.% <+&     ",
"(.] , m+. . Q.Q.r+J j.j 3 z+&.E. +T.z.T.G.G.Q.'.c+c+'.' [ t.) '+' d.+ &.+.r++ z+& Y.U.L.m.% Y.'     ",
"S ) > , r+h Q.* & : ^.c b e h  + + + +z.G.G.z.'.c+4 - ) ' '+,+) ' _ d+e+r+& z+. ) & $ m.U.p.]       ",
"*., D.< / / Q.h e v+P | r y g z+ + +B. +T.G.++Q.c+4 - ) t.t.) '+' % ; Q.e+;+z+. , 7.U.- d.#         ",
"] +.;+& {., ;+%.4+7+q $+$.w J , B.B.B. +T.G.T.z.'.c+- ) ' [ ) '+' % - * + D.h k+r+x.~.# t.          ",
"^+d.r+l C.. & j.0.0.)+)+j.j.%.3 + B.&.z.G.G.T.z.Q.- % t.' 9 & '+9 $ % d+&.+ . r+x./ ]               ",
"  ] , +.D.D.@ { @.k r )+i )+j.g . &. +z.z.T.B.G.X.d+'.# ) '+& 9 t.~.$ L.&.G.+ & )                   ",
"  ^+< +.. D.C.g @.k r )+d )+j.e e.E. +T.z.B.B.z.G.* d+k+, < > '+9 ;+d.- *  ++ t.                    ",
"  t v.+.. D., e } @.7 j.)+)+j.g .+z.z.z. +B.B. +G.B.* h 3 ;+& & 9 +.5 - ; Q.5 t.                    ",
"    ^+/ r+. M.@ g } ( w )+)+7 3 + z.T.T.B.&.B.z.T.z.h 7.> > ) ) ' r+P.V.L.- % )                     ",
"      *.v.h C.C.< { } 7 w b g D. +T.z.&.B.B. +B.z.G.Q.& ) 9 ) 9 9 , h '.- - c+#                     ",
"        h.# ;+r+C.C.~ } } ~ .+ +G.G.z. +B.B. +B.z.G.4.h.i.f ' ' ' < . 5 - 4 4 =                     ",
"          ^+7.+.r+. D.r+h + z.G.G.z. +B.B.B.B. +z.G.Z 2 i.E S 3+' < e+* - 4 4 c+)                   ",
"          v.. , ) < z+ + +T.T.T.z. + +B.B. +B. + +T.Q.S i.i.f [ [ ,++ * - - 4 c+#                   ",
"        *./ N.&.+ +  +&. + + +z. +B.B. + +B.B.B. +z.Q.h.i.i.i.1 [ & z+e+d+L.- c+Y.                  ",
"        ^+7.z++ &.&.&.&.&.&.+ &.&.+ + B. +B. + + +z.Q.(.I.i.i.1 1 ) ~.Q.'.- - a J.'                 ",
"        ] 7.. z++ &.&.+ + + + + e+e+e++ B. +&.&.B. +Z h.I.f+f+8 1 3+r.k+m.- - m.= '                 ",
"      t # x.h z++ + + + + &.+ + e+e+e+ .B.&.&.&.B. +x.h.I.i.f+S 8 t ) ~.d.m.- - = t.                ",
"      t v.r+D.. + + e+e+h Q.+ + e+z+e+e+ .&.&.&.&. +r.E f+I.f+S 8 t t # ~.a a a a ]                 ",
"      *./ r+D.. z+e++ . ' [ , + e+e+e+e++ e++ &. +&.& i.=.S.i.S S 1 3+) Q % c+c+= # i.              ",
"      ] / r+D.z+z+z+z+P.g G 3 . z+Q.e+Q.e+e++ &.B.+ ' =.=.S.f+S L L 1 3+) ,+% c+c+J.S               ",
"                                                                                                    ",
"                                                                                                    "};
