/* XPM */
static char * rick_02_xpm[] = {
"50 81 257 2",
"  	c #FF000000",
". 	c #2B2402",
"+ 	c #221C01",
"@ 	c #442F0C",
"# 	c #433B35",
"$ 	c #343225",
"% 	c #34322B",
"& 	c #524434",
"* 	c #262613",
"= 	c #353333",
"- 	c #2C312B",
"; 	c #2A2D24",
"> 	c #563926",
", 	c #3B3113",
"' 	c #6C6255",
") 	c #5B4C44",
"! 	c #37383B",
"~ 	c #623E2B",
"{ 	c #875737",
"] 	c #523A45",
"^ 	c #75460D",
"/ 	c #3B3324",
"( 	c #A9766A",
"_ 	c #3B332C",
": 	c #CB9A95",
"< 	c #443423",
"[ 	c #74695D",
"} 	c #96654C",
"| 	c #B4796B",
"1 	c #756C63",
"2 	c #83756C",
"3 	c #543622",
"4 	c #2C3132",
"5 	c #2B2B1C",
"6 	c #B6B0C6",
"7 	c #A46C63",
"8 	c #7C7067",
"9 	c #675649",
"0 	c #8D827C",
"a 	c #332D32",
"b 	c #AB7A74",
"c 	c #C38C83",
"d 	c #BC938B",
"e 	c #775847",
"f 	c #857A74",
"g 	c #704F36",
"h 	c #2B260B",
"i 	c #B89896",
"j 	c #996956",
"k 	c #AC725C",
"l 	c #3B310B",
"m 	c #997467",
"n 	c #C48B78",
"o 	c #CC9FA2",
"p 	c #BB826A",
"q 	c #C4948A",
"r 	c #B37C78",
"s 	c #BC7C5C",
"t 	c #6B5964",
"u 	c #A59998",
"v 	c #955928",
"w 	c #B8867B",
"x 	c #8B5115",
"y 	c #A7817A",
"z 	c #B66E27",
"A 	c #9A6139",
"B 	c #AA8985",
"C 	c #A15C1A",
"D 	c #9B98A2",
"E 	c #897C84",
"F 	c #96837D",
"G 	c #8A6556",
"H 	c #A5928D",
"I 	c #A59CA4",
"J 	c #866B65",
"K 	c #CE936F",
"L 	c #7E7A82",
"M 	c #B5AEC1",
"N 	c #C8823E",
"O 	c #C37B38",
"P 	c #B4765A",
"Q 	c #433424",
"R 	c #C17D4E",
"S 	c #7C726B",
"T 	c #9C928D",
"U 	c #B4ACB2",
"V 	c #C9968B",
"W 	c #E0BA9F",
"X 	c #CAAAA9",
"Y 	c #74450D",
"Z 	c #2A2613",
"` 	c #CCA1A5",
" .	c #1C2102",
"..	c #C49995",
"+.	c #342B0B",
"@.	c #A56B4A",
"#.	c #CAB9B8",
"$.	c #B97C73",
"%.	c #987976",
"&.	c #1D1B01",
"*.	c #5E4D60",
"=.	c #958C8B",
"-.	c #3B3105",
";.	c #43310B",
">.	c #3A2D05",
",.	c #35310C",
"'.	c #2B2D24",
").	c #824C0F",
"!.	c #B97B73",
"~.	c #332D1B",
"{.	c #613E2D",
"].	c #775959",
"^.	c #D6A991",
"/.	c #A8A5AA",
"(.	c #6E6A73",
"_.	c #B8A8A9",
":.	c #C28E87",
"<.	c #B7B1B5",
"[.	c #443424",
"}.	c #D19D95",
"|.	c #BB857A",
"1.	c #D6C9C9",
"2.	c #CDB4B1",
"3.	c #DEC2B5",
"4.	c #2B2A14",
"5.	c #AB6523",
"6.	c #DDA16E",
"7.	c #35311C",
"8.	c #BBB2C2",
"9.	c #332602",
"0.	c #BC8B84",
"a.	c #C59DA0",
"b.	c #AB8E91",
"c.	c #7B675A",
"d.	c #332E23",
"e.	c #3A2C05",
"f.	c #9A9498",
"g.	c #2B2B14",
"h.	c #7B7378",
"i.	c #8C8586",
"j.	c #B48983",
"k.	c #D09FA1",
"l.	c #835F64",
"m.	c #332E2C",
"n.	c #C89487",
"o.	c #B26D67",
"p.	c #3B3433",
"q.	c #8F613D",
"r.	c #43352C",
"s.	c #D08E52",
"t.	c #64544B",
"u.	c #927A83",
"v.	c #433634",
"w.	c #CB9C9B",
"x.	c #332B14",
"y.	c #C9BCBF",
"z.	c #161200",
"A.	c #BA8473",
"B.	c #1C1B01",
"C.	c #352A04",
"D.	c #322603",
"E.	c #1D1500",
"F.	c #363114",
"G.	c #120D00",
"H.	c #363639",
"I.	c #84848A",
"J.	c #3B3434",
"K.	c #B2A5A3",
"L.	c #2C3126",
"M.	c #392D05",
"N.	c #252301",
"O.	c #8D6C6C",
"P.	c #2C2A05",
"Q.	c #25250B",
"R.	c #ADA19D",
"S.	c #978D93",
"T.	c #161100",
"U.	c #332E24",
"V.	c #2C3125",
"W.	c #866C75",
"X.	c #161B01",
"Y.	c #3C3433",
"Z.	c #242301",
"`.	c #353114",
" +	c #1C1500",
".+	c #332603",
"++	c #120C00",
"@+	c #352A03",
"#+	c #857A73",
"$+	c #BB8B84",
"%+	c #A27E81",
"&+	c #BA8474",
"*+	c #D9B6A7",
"=+	c #433534",
"-+	c #D5B6AC",
";+	c #342B14",
">+	c #CC9C9B",
",+	c #43352B",
"'+	c #64544A",
")+	c #B58C8C",
"!+	c #CC894B",
"~+	c #D49457",
"{+	c #E4D3CD",
"]+	c #C2B7C1",
"^+	c #4E4952",
"/+	c #AC6F4A",
"(+	c #DAAA86",
"_+	c #DDA779",
":+	c #B19CA2",
"<+	c #34311C",
"[+	c #D6AD99",
"}+	c #E3CFC8",
"|+	c #1B2102",
"1+	c #BBB9C6",
"2+	c #8E8077",
"3+	c #5F605B",
"4+	c #D1A89A",
"5+	c #D7C3BE",
"6+	c #272914",
"7+	c #D19D8A",
"8+	c #D99C66",
"9+	c #221C00",
"0+	c #DBC3BA",
"a+	c #B0A7AB",
"b+	c #B5AEBB",
"c+	c #2D3232",
"d+	c #2A2B1C",
"e+	c #242302",
"f+	c #948C8B",
"g+	c #B99EA1",
"h+	c #8D8B94",
"i+	c #B87648",
"j+	c #110C00",
"k+	c #332C1B",
"l+	c #2C3232",
"m+	c #342A04",
"n+	c #BBB5B7",
"o+	c #AEA9B4",
"p+	c #D2C4C6",
"q+	c #C5BFC4",
"r+	c #342B0C",
"s+	c #8F7375",
"t+	c #937F8B",
"u+	c #322602",
"v+	c #AC796C",
"w+	c #D2C0BE",
"x+	c #C49894",
"y+	c #E1BFA9",
"z+	c #252302",
"A+	c #CDBFC2",
"B+	c #E1B694",
"C+	c #D8C5C3",
"D+	c #DCB399",
"E+	c #E9E1DF",
"F+	c #BC948B",
"G+	c #9FA09C",
"H+	c #BFC0BA",
"                                                                                                    ",
"                                      K 8+_+_+K ~+                                                  ",
"                                    6.~+R 5.z C v v @.k                                             ",
"                                  7+5.v x v C v v { v @.|                                           ",
"                                *+8+5.x ).).^ ^ { { ^ { } v+                                        ",
"                              (+8+O C ).Y ^ Y ~ ).g ^ { } k                                         ",
"                            n.8+O z C x ^ ^ Y ^ ).{ { { { }                                         ",
"                            ^.s.O 5.A @.k ( ( j ( w &+v+q.{                                         ",
"                            *+N 5.@.| A.n V : : >+w.w.: w { (                                       ",
"                            *+z v v+&+A.c V : : >+o o o x+j (                                       ",
"                            ^.5.} | &+&+|.c V : >+o o o : 7 m                                       ",
"                              A } | $.| $.A.n.: : >+o o : 7 (                                       ",
"                              @.k | k k ( k | :.c $.r 0.q (                                         ",
"                              7 k | | k ( v+P n : p v+$+:.y                                         ",
"                              p P A.$.|.$+w | |.: q q q :                                           ",
"                            8+s.n A.A.|.|.$.| |.V >+>+o o F+                                        ",
"                            _+8+K $.p p $.p | &+V : o o : :                                         ",
"                            ^.8+p $.p p p p P A.c : o >+:                                           ",
"                              K A.$.p p p A.c : o o o : w.                                          ",
"                                2.c p p | | p c V q >+>+                                            ",
"                                  q $.p p A.n n.: : V w.                                            ",
"                                  q &+p p &+n.V : : q                                               ",
"                                  w &+p p A.n V : q d                                               ",
"                                  w p | | s p n :.:.: a.                                            ",
"                                  w p p P /+P &+n.: >+X O.                                          ",
"                                  n.p $.p s c V : : : X t '+                                        ",
"                                X n p $.p s c V : V : _.*.] & ].                                    ",
"                              #.w.n |.$.p p n n.V n.a.u ^+] # ,+> g J y                             ",
"                            ..F+b.u u B | $.n n.c |.n+E ] # # r.< < [.{.e O.                        ",
"                        F+( v+j.s+#+f %.$.$.&+A.| g+M t ] # # r.< , < < [.3 {.e                     ",
"                    i ( G {.G y 2 #+0 )+|.|.| | i M M (.] # v./ , ;., / < , < [.> e O.              ",
"                a.B G g {.3 e j.2 #+0 B !.$.| d U 6 M (.# # r.< , , 7.7., / / / Q r.& '             ",
"              i m g > {.3 < {.y 2 2 0 H r $.b.U M M L ] # # r., , , , , F.7.7./ _ Y.# )             ",
"          a.y G {.3 @ 3 < < > %.2 S 2+K.b.F+K.b+6 f.] # # v._ , , < / Q 7./ / _ r.v.# ] [           ",
"        B m e ~ @ @ , @ @ < {.%.2 8 #+T T u H I /.t # # v.v._ 7., 7./ / +.`._ v.v.v.# ] '           ",
"        e ~ > ~ 3 @ , , , , & s+f 0 T f+f s+#+s+2 & # J.v._ _ / / , / / x.7.Y.v.Y.v.# # '           ",
"      f {.3 < 3 @ @ @ , l ;.@ 3 ].8 [ [ 1 2 2 1 ' ,+v._ ,+/ _ Q 7., 7.;+r+$ v.v.Y.Y._ v.S           ",
"      W.> < < < < ;., , , , l @ 2+f.f+T =.=.T =.c.r.v./ / / _ r., l l D.D./ v._ % $ / # S           ",
"      J > @ < , ;.;., , l , , , #+u E f f 8 1 ' > ,+=+/ Q < Q / M.l +.u++._ U.~.7.7.v.] [           ",
"      c.> @ , @ @ l l l l , , , F R.0 8 8 [ J 1 & r.) m { 3 Q , M.C.m+u+, / ;+x.x._ v.v.t.          ",
"      [ > @ , , ;.l l -.l ,.F.< T R.u f.=.F 0 8 # & j n.k q.{.@ e.C.u+m+7.~.+.+.;+/ _ v.)           ",
"      2 > @ ;.@ -.l l >.l F.7.< H a+f [ 9 '+) > ,+g A.7+$.( j g @ C.u++./ . @+D.x./ Y.v.&           ",
"      F {.< ;.@ -.-.M.M.M.F.`.< =.R.f 0 0 2+2 ) r.G K n.|.$.v+7 g e..+7./ . . r+/ _ _ Y.&           ",
"      G ~ < @ @ l M.M.M.,.F.,.l e F J 2 S [ 9 ,+r.7 p $.|.|.|.r e e..+7.7.N.h / _ ~._ _ )           ",
"      e ~ @ ;.l >.C.M.M.,.`.,.,.) O.].' ' 9 ) ,+r.r A.r r $.&+0.e @ ;+/ 7.z+7.$ x./ % d.v.          ",
"      e ~ @ l >.M.C.+.,.F.+.,.,.t.F F 2+2+#+' Q {.A.| b r w |.|.e @ 7._ $ z+~.r+/ _ _ ~._ &         ",
"      c.> @ l -.M.M.M.,.M.M.,.,.' 2 9 ) ) ) Q / g | | r r r |.&+e l $ _ $ z+N.. $ _ ~./ Y.,+'       ",
"        ~ < ;.l -.M.C.M.M.,.r++.9 s+O.2 1 [ & / g j k ( w w |.&+e @ $ _ $ Q.N.h $ $ k+_ Y._ &       ",
"        {.@ @ l M.C..+M.,.r++.m+9 J c.' ' 9 Q / & { } 7 $.|.w y G < $ $ $ Q.. D.4.4.$ _ p.% / '     ",
"        {.3 , l M.C.@+C.M.+.+.+.9 c.9 '+) & 7._ Y.,+g j | &+&+r G ,+_ = $ * . . . $ = % % % p.)     ",
"        ) 3 , M.@+M..+C.,.m++.C.9 8 c.8 8 ' , _ = _ > q.k r &+r G v.J.= = % 4.z++.d.d.~.% Y.v.& 1   ",
"        9 3 , M..+C.9.D.m+m+m++.t.[ 9 ) & < 7._ % % < g q.7 v+( e v.= = = = = 5 z+N.z+Z $ _ Y.v.)   ",
"        [ 3 @ C.D.D.@+u+C.C.m++.9 [ 9 '+) & ~.$ % % % 3 g { j } g / = = % H.= % - ~.+.g.$ $ J.J.# [ ",
"        1 3 ;.e.. . .+u+m+m+D.+.t.8 [ S ' r.7.$ % - m.x.@ 3 ~ ~ 3 , ) 1 & p.% = = = k+z+h ~.Y.v.# t.",
"        ' @ @+C..+N.. . u+D.P.r+'+' & & [., ~.% m.d.5 h + + + D.;.r+t.0 '+_ % % % = $ h D.4._ r.# [ ",
"        c.> e.u+. . + . m+m+m+`.9 [ [ [ 9 [.~.~.5 Q.. z+&.+ &.. -.x.) #+) _ $ d.d.$ _ $ z+h _ v.)   ",
"        %.& e.u+. + + z+r++.r+7.9 ' 9 '+) , D.. N.+ &. + +&.&.&.P.h 7.# / $ $ U.d.k+$ % * . / # '   ",
"        G g > l . Z.+ . C.D.+.~.' ' ) & & , . Z.+ + &.T. +z. +E.Z.h Z 4.~.d.$ V.k+r+d.= '.z+$ )     ",
"    a.:.k b O.{.C.N.N.m+-.m+D.,.' 1 1 9 ) l . Z.+ &. + +E. +z.z. ++ e+z+D.4.x.4.4.h ~.% % k+Y.'     ",
"    w k | v+} g < z+N.< 3 .+D.m+' '+, 3 / D.. Z.+ &.&.&. +z.z.T.z.T.z.9+N.. . h h . . k+$ _ )       ",
"  q | k | k } g @ u+N.3 < D.. h 9 '+& < & +.N.Z.+ &. +E.&.E.&., {.+. +G.z.&.N.. . . N.. x.#         ",
"q | v+w |.( j g @ u+. 3 @ D.. r+' ' < {.> D.N.Z.&. +&.+ 9+ +&., g ,  +G.G.G. +&.+ . . N.;+[         ",
"j.k v+w w | | } 3 . N.3 e.u+. r+' ) & @ @ . N.N.9+E.&.9+&.&.E.&.&.E. +T.T.G.G.+ & r./ ,+)           ",
"  v+( w d r | @.> . + @ D.. P.;+' ) ) . N.z+N.N.&.&.&.9+&.&.&.E.E. +z. +z.G.z.Q.'                   ",
"  b k |.d 0.| } 3 . z+e.. . . , ' ) ) N.z+e+z++ &.&.&.Z.&.&.&.&.9++ &.+ + &. +5 t.                  ",
"    b k w $.@.g @ & 1 ) . . . & 1 [ [ ) / . z+&.+  .+  .e+ .e+z+z+. z+4.'.~.5 m.#                   ",
"      v+P @.{ ~       8 r+. .+) 8 2 S 8 9 P.g.6+Q.e+ .e+z+. P.h Q.* Q.* d.U.m.c+J.t.                ",
"      y { ^ ~         (.d.m+m+'+8 S 2 1 '+;+$ - L.d+Q.e+. P.4.6+6+6+* * 5 '.L.= = &                 ",
"        ~ 3 g       f.L v.~.;+[ 8 S 8 8 t._ J.= = - d+Q.Q.Q.* d+6+6+d+d+'.- % = = J.                ",
"                    f.I.^+$ 7.S 2 8 8 8 '+Y.H.H.= - 6+Z * Z 6+6+d+d+6+'.'.L.- - 4 = '               ",
"                  f.f.h+^+d.[.f 2 S S 8 t.v.H.H.H.- 4.Z * d+d+d+; d+6+d+; '.L.- c+= )               ",
"                  E f+L # ~.& 2+2 8 S S ' # H.= = % 4.Q.h d+U.= '.d+5 5 '.- m.- - % t.              ",
"                  t E t / F.'+2+2 S h.S [ # ! H.H.= L.Z Q.4.) 9 < k+4.5 L.'.m.- - m.#               ",
"                  t S # , F.' 0 S S S 8 1 & J.= H.= = ; * h g g / '.'.; 5 5 L.- - m.p.              ",
"                  2 c.v.$ Y.[ 0 S h.h.S 8 t.Y.= H.H.= c+L.'.7.~.5 '.'.'.U.5 '.- - 4 _ t.            ",
"                t {.& ^+v.^+S E 2 f h.h.S [ # p.= H.= = % - '.; ; 5 '.'.'.'.'.- - - m.)             ",
"                t {.t.*.^+*.S f S 0 f #+2 8 '+Y.= = H.H.= - '.'.5 d+'.'.'.L.- - - - m.#             ",
"                1 ) t t L t i.f 8 0 0 f 2 8 ' & p.= = H.= c+- ; 5 d+'.'.'.L.- m.- c+m.J.            ",
"                t 9 1 L (.t f+i.S i.i.E #+8 [ ' # J.= p.= = c+- L.L.'.'.- - m.- - - m.= 3+          ",
"                t 8 h.h+^+S f+i.f f+=.i.0 2 S 2 ' ] # # # # # J.p.p._ _ p.J.p.p.p.J.J.J.)           ",
"                                                                                                    "};
