/* XPM */
static char * rick_11_xpm[] = {
"50 81 257 2",
"  	c #FF000000",
". 	c #2B2402",
"+ 	c #221C01",
"@ 	c #442F0C",
"# 	c #433B35",
"$ 	c #343225",
"% 	c #34322B",
"& 	c #524434",
"* 	c #262613",
"= 	c #353333",
"- 	c #2C312B",
"; 	c #2A2D24",
"> 	c #563926",
", 	c #3B3113",
"' 	c #6C6255",
") 	c #5B4C44",
"! 	c #37383B",
"~ 	c #623E2B",
"{ 	c #875737",
"] 	c #523A45",
"^ 	c #75460D",
"/ 	c #3B3324",
"( 	c #A9766A",
"_ 	c #3B332C",
": 	c #CB9A95",
"< 	c #443423",
"[ 	c #74695D",
"} 	c #96654C",
"| 	c #B4796B",
"1 	c #756C63",
"2 	c #83756C",
"3 	c #543622",
"4 	c #2C3132",
"5 	c #2B2B1C",
"6 	c #B6B0C6",
"7 	c #A46C63",
"8 	c #7C7067",
"9 	c #675649",
"0 	c #8D827C",
"a 	c #332D32",
"b 	c #AB7A74",
"c 	c #C38C83",
"d 	c #BC938B",
"e 	c #775847",
"f 	c #857A74",
"g 	c #704F36",
"h 	c #2B260B",
"i 	c #B89896",
"j 	c #996956",
"k 	c #AC725C",
"l 	c #3B310B",
"m 	c #997467",
"n 	c #C48B78",
"o 	c #CC9FA2",
"p 	c #BB826A",
"q 	c #C4948A",
"r 	c #B37C78",
"s 	c #BC7C5C",
"t 	c #6B5964",
"u 	c #A59998",
"v 	c #955928",
"w 	c #B8867B",
"x 	c #8B5115",
"y 	c #A7817A",
"z 	c #B66E27",
"A 	c #9A6139",
"B 	c #AA8985",
"C 	c #A15C1A",
"D 	c #9B98A2",
"E 	c #897C84",
"F 	c #96837D",
"G 	c #8A6556",
"H 	c #A5928D",
"I 	c #A59CA4",
"J 	c #866B65",
"K 	c #CE936F",
"L 	c #7E7A82",
"M 	c #B5AEC1",
"N 	c #C8823E",
"O 	c #C37B38",
"P 	c #B4765A",
"Q 	c #433424",
"R 	c #C17D4E",
"S 	c #7C726B",
"T 	c #9C928D",
"U 	c #B4ACB2",
"V 	c #C9968B",
"W 	c #E0BA9F",
"X 	c #CAAAA9",
"Y 	c #74450D",
"Z 	c #2A2613",
"` 	c #CCA1A5",
" .	c #1C2102",
"..	c #C49995",
"+.	c #342B0B",
"@.	c #A56B4A",
"#.	c #CAB9B8",
"$.	c #B97C73",
"%.	c #987976",
"&.	c #1D1B01",
"*.	c #5E4D60",
"=.	c #958C8B",
"-.	c #3B3105",
";.	c #43310B",
">.	c #3A2D05",
",.	c #35310C",
"'.	c #2B2D24",
").	c #824C0F",
"!.	c #B97B73",
"~.	c #332D1B",
"{.	c #613E2D",
"].	c #775959",
"^.	c #D6A991",
"/.	c #A8A5AA",
"(.	c #6E6A73",
"_.	c #B8A8A9",
":.	c #C28E87",
"<.	c #B7B1B5",
"[.	c #443424",
"}.	c #D19D95",
"|.	c #BB857A",
"1.	c #D6C9C9",
"2.	c #CDB4B1",
"3.	c #DEC2B5",
"4.	c #2B2A14",
"5.	c #AB6523",
"6.	c #DDA16E",
"7.	c #35311C",
"8.	c #BBB2C2",
"9.	c #332602",
"0.	c #BC8B84",
"a.	c #C59DA0",
"b.	c #AB8E91",
"c.	c #7B675A",
"d.	c #332E23",
"e.	c #3A2C05",
"f.	c #9A9498",
"g.	c #2B2B14",
"h.	c #7B7378",
"i.	c #8C8586",
"j.	c #B48983",
"k.	c #D09FA1",
"l.	c #835F64",
"m.	c #332E2C",
"n.	c #C89487",
"o.	c #B26D67",
"p.	c #3B3433",
"q.	c #8F613D",
"r.	c #43352C",
"s.	c #D08E52",
"t.	c #64544B",
"u.	c #927A83",
"v.	c #433634",
"w.	c #CB9C9B",
"x.	c #332B14",
"y.	c #C9BCBF",
"z.	c #161200",
"A.	c #BA8473",
"B.	c #1C1B01",
"C.	c #352A04",
"D.	c #322603",
"E.	c #1D1500",
"F.	c #363114",
"G.	c #120D00",
"H.	c #363639",
"I.	c #84848A",
"J.	c #3B3434",
"K.	c #B2A5A3",
"L.	c #2C3126",
"M.	c #392D05",
"N.	c #252301",
"O.	c #8D6C6C",
"P.	c #2C2A05",
"Q.	c #25250B",
"R.	c #ADA19D",
"S.	c #978D93",
"T.	c #161100",
"U.	c #332E24",
"V.	c #2C3125",
"W.	c #866C75",
"X.	c #161B01",
"Y.	c #3C3433",
"Z.	c #242301",
"`.	c #353114",
" +	c #1C1500",
".+	c #332603",
"++	c #120C00",
"@+	c #352A03",
"#+	c #857A73",
"$+	c #BB8B84",
"%+	c #A27E81",
"&+	c #BA8474",
"*+	c #D9B6A7",
"=+	c #433534",
"-+	c #D5B6AC",
";+	c #342B14",
">+	c #CC9C9B",
",+	c #43352B",
"'+	c #64544A",
")+	c #B58C8C",
"!+	c #CC894B",
"~+	c #D49457",
"{+	c #E4D3CD",
"]+	c #C2B7C1",
"^+	c #4E4952",
"/+	c #AC6F4A",
"(+	c #DAAA86",
"_+	c #DDA779",
":+	c #B19CA2",
"<+	c #34311C",
"[+	c #D6AD99",
"}+	c #E3CFC8",
"|+	c #1B2102",
"1+	c #BBB9C6",
"2+	c #8E8077",
"3+	c #5F605B",
"4+	c #D1A89A",
"5+	c #D7C3BE",
"6+	c #272914",
"7+	c #D19D8A",
"8+	c #D99C66",
"9+	c #221C00",
"0+	c #DBC3BA",
"a+	c #B0A7AB",
"b+	c #B5AEBB",
"c+	c #2D3232",
"d+	c #2A2B1C",
"e+	c #242302",
"f+	c #948C8B",
"g+	c #B99EA1",
"h+	c #8D8B94",
"i+	c #B87648",
"j+	c #110C00",
"k+	c #332C1B",
"l+	c #2C3232",
"m+	c #342A04",
"n+	c #BBB5B7",
"o+	c #AEA9B4",
"p+	c #D2C4C6",
"q+	c #C5BFC4",
"r+	c #342B0C",
"s+	c #8F7375",
"t+	c #937F8B",
"u+	c #322602",
"v+	c #AC796C",
"w+	c #D2C0BE",
"x+	c #C49894",
"y+	c #E1BFA9",
"z+	c #252302",
"A+	c #CDBFC2",
"B+	c #E1B694",
"C+	c #D8C5C3",
"D+	c #DCB399",
"E+	c #E9E1DF",
"F+	c #BC948B",
"G+	c #9FA09C",
"H+	c #BFC0BA",
"                                                                                                    ",
"                                                                                                    ",
"                                                                                                    ",
"                                                                                                    ",
"                                                                                                    ",
"                                                                                                    ",
"                                                                                                    ",
"                                                                                                    ",
"                                                                                                    ",
"                                                                                                    ",
"                                                                                                    ",
"                                                                                                    ",
"                                          B+(+(+_+6.                                                ",
"                                        6.~+s.z C i+R K                                             ",
"                                        O 5.z v { { { A P                                           ",
"                                      (+z x x v ).g { } q.v &+                                      ",
"                                      _+z x ).).Y Y ).{ { q.}                                       ",
"                                      ^.K k } } } { { { g g { y                                     ",
"                                    -+*+n n 0.q V : q r q.Y g j                                     ",
"                                    -+: &+0.0.q V >+o x+7 g ).m                                     ",
"                                    X n.&+0.|.q : >+o ..7 { {                                       ",
"                                    a.| 7 $.&+c : w.w.q j { q.                                      ",
"                                    ..| ( r w k k |.V q j q.G                                       ",
"                                  2.: p v+:.w.r r w 0.q j {                                         ",
"                                  2.|.&+0.: w.x+d ....d j j                                         ",
"                                    c s | |.q q V w.w.x+$+q o                                       ",
"                                    w p A.:.q c q B T T b.x+                                        ",
"                                    j.k | |.0.c q y #+f u                                           ",
"                                    $+| | &+w |.:.y #+0                                             ",
"                                    a.$.$.|.$+w |.y #+2+                                            ",
"                                    : $.| &+|.w j.%.2 f                                             ",
"                                  ..A.P k @.k r )+%.S #+                                            ",
"                              g+j.7+p k k k &+:.q y 2+f.                                            ",
"                          w b j j : v+k ( ( &+:.q :.H f.                                            ",
"                      ( q.~ ~ > g X b.( ( ( $.c q d u f.9                                           ",
"                )+m g > 3 @ @ @ ~ ..b+y v+( !.0.0.$+/.I ] # '+                                      ",
"            %.G g 3 < < , l l >.e g+M u $+r !.0.r B o+f.] v.r.,+9                                   ",
"          ].> < < < / / / , M.C.G K.o+M b.:.|.r y b+b+i.] v.v._ / Q )                               ",
"        s+& / , , / / ~.F., M.C.c.a+b+8.U )+b b.b+6 f+S # J.J._ _ _ _ ,+t.                          ",
"        ' [._ ~.F.`.7.~.;+F.m+u+l > ) 1 =.T R.M 6 6 h+] H.! J.$ $ % _ _ _ & '                       ",
"        ) 7.$ x.`.<+<+~.x.+.r+x.. m+& #+8 8 f I 6 M i.] H.! = $ $ % p.p.p.Y.#                       ",
"        > , ;++.r+~.d.~.4.P.r+x.h P./ #+1 [ J 2 f.E S & p.H.% $ $ % = = Y.Y.# t.                    ",
"      ].< r++.P.m+F.d.5 h . . +.h h x.' f =.=.E 1 f 2 ] = = % $ $ $ = = = = Y.t.                    ",
"      t., r+P.. . +.<+Z h e+. . . h h 1 =.i.h.2 i.i.S # % % % $ $ U.% % = $ _ )                     ",
"      t.;+D.h . e+P.$ d+. e+z+z+z+z+h ) f [ #+=.=.#+8 # % V.V.V.d.d.U.% = $ % )                     ",
"      t k+. . h z+z+<+d+Q.e+e+e+Q.P., & c.f =.=.h.t.1 ] = '.5 5 4.d.d.% % U.$ )                     ",
"      *.~.e+e+. e+e+x.'. .e+ . .h e r j.j.j.( J 1 S 8 # = - '.'.Z 5 5 % m.d.% )                     ",
"      # ~.h e+e+ .e+h V. . . . .> j r j.w j.m %.0 #+8 # = c+L.; Z 4.'.% L.'.= t.                    ",
"    t _ r+h * e+ . .e+d+e+ .B.Q.e 7 r j.j.j.B F S ' 1 v.= - L.5 6+* V.- '.5 % )                     ",
"    ) / h P.5 e+ .|+ .* Q.B.|+,+j 7 b j.j.j.y ' '+' 1 r.% c+- d+* * '.L.d+'.= t.                    ",
"    ] <+h . Z  .B.z.B.|+|+|+ .3 j 7 ( w w w e ' 8 2 8 / - c+- d+Q.Z '.; * '.% t.                    ",
"    =+;+x.h e+Q.B.z.B.|+ . .|+, G j k r ( j ].8 8 ' 1 / V.c+'.d+ .Q.d+; d+- = '                     ",
"  t / +.P.z+ . .|+B.|+ . .|+ ., q.j j g D.& [ ' & > [ 7.4.c+'.* |+Q.6+* * '.%                       ",
"  *./ . e+e+ . . . . .e+ . . .< { { ~ + B._ t.) 9 ' [ ,+h - '. .B.* d+* Q.e+h t.                    ",
"  ] h z+. z+e+z+e+&.e+e+ .e+z+;+< . B.z. .5 ) ' ' 9 [ [.z+L.;  . .* *  .Q.Q. .&                     ",
"1 , P.. . z+. z+ .B. .|+e+' ) r+< + B.B. .4.t.1 [ [ [ & + d+;  . .* Q.Q.+ Q.* h             m } |   ",
") C.. . . . e+e+ .e+e++ 3 3 . &.. B.z.B. .6+& [ ' ' [ & &.Q.d+Q.e+* Q.Q.'.6+d+d+&       y 7 j 7 j.i ",
"t.+.. . . . z+ .z+z+e+e+z++ E. +G.G.X.B.e+d+_ ) '+9 ' & Q.+ *  .Q.6+Q. .4.d+6+d+/     m j 7 j 7 b i ",
"  / . . . . z+z+. e+ .&.&.&. +T.j+T. +|+ .d+# t.' ' ' ,++.z.z+ .* *  .&.&.&.Q.e+z+& e } 7 7 j ( j.i ",
"  ] r+D.u+. D.D.. z+e++ &. +z. +T.z.B.|+ .* 7.'+' ' ' ,+l B.&.Q.6+* &.z.&. .e+ +T.r+{ j k 7 7 b j.i ",
"  *./ r+D.D.C..+. . + &. +T. + +z.G.B. .Q.6+$ ) 9 ' ' & , Q. +* d+*  +G.z.z.G.G.G.< q.j 7 7 } v+$+  ",
"    ^+F.C.e.e.@+, & / +  + + + + +G.z. .Q.6+'.t.1 9 9 [.+.<  +e+Q.&.G.j+z.G.j+j+G.D.{ } k 7 j 7 d   ",
"      ) & & &       ) . + + + ;+&.z.T. .Q.d+'.) 9 ) ' < > & Q.B.Z z.j+G.G.j+j+G.G. +3 x q.} } j     ",
"                    '+D.z+e+&.&.&.B.T. .6+d+L.& & & ' < & '+r.+ e+* G.j+G.G.G.z.T.z. +z+, @ @ <     ",
"                    t..+z+e++ &.&.&.G.z.Q.d+; '.& e c.> ) ) & z+&.6+B.G.G.G.G.z. + + +E.z+, ;+&     ",
"                    ) C.. . z+&.&.&. +G.+ * 5 d.& c.8 f S 9 '+Q &.e+* T.G. + +&.+ &.+ z+/ #         ",
"                    ) C.u+. z+e++ + &.T.z.. 4.# i.i.f =.0 [ 9 & . &.Z Q.&                           ",
"                    t.;+u+. z+e++ + +  +G.+ d+Y.i.h+f S.f+2 ' '+< + . k+&                           ",
"                    *.Q , ;+;+4.Q.Q.Q.Q.&.Q.Z p.i.S.E f.S.i.S 9 & ;+h x.d.)                         ",
"                                                                                                    ",
"                                                                                                    ",
"                                                                                                    ",
"                                                                                                    ",
"                                                                                                    ",
"                                                                                                    ",
"                                                                                                    ",
"                                                                                                    ",
"                                                                                                    ",
"                                                                                                    ",
"                                                                                                    ",
"                                                                                                    "};
