/* XPM */
static char * E_xpm[] = {
"50 50 633 2",
"  	c #956F67",
". 	c #8A5046",
"+ 	c #895448",
"@ 	c #854D43",
"# 	c #824A40",
"$ 	c #834A40",
"% 	c #834B40",
"& 	c #844B3F",
"* 	c #834B3F",
"= 	c #834C3D",
"- 	c #86554B",
"; 	c #895852",
"> 	c #742A1A",
", 	c #742B1A",
"' 	c #712515",
") 	c #6C2613",
"! 	c #702415",
"~ 	c #702515",
"{ 	c #6E2516",
"] 	c #702516",
"^ 	c #722414",
"/ 	c #702514",
"( 	c #702414",
"_ 	c #722415",
": 	c #6F2514",
"< 	c #712415",
"[ 	c #712416",
"} 	c #712514",
"| 	c #712512",
"1 	c #722513",
"2 	c #783326",
"3 	c #8B5852",
"4 	c #6F2513",
"5 	c #6E2413",
"6 	c #6D2315",
"7 	c #702216",
"8 	c #6F2213",
"9 	c #702213",
"0 	c #6E2312",
"a 	c #6D2211",
"b 	c #6D2414",
"c 	c #6E2412",
"d 	c #6F2313",
"e 	c #6F2314",
"f 	c #702313",
"g 	c #6E2313",
"h 	c #6F2212",
"i 	c #6F2214",
"j 	c #6F2414",
"k 	c #6E2310",
"l 	c #702513",
"m 	c #773325",
"n 	c #6E2314",
"o 	c #956D65",
"p 	c #BCA7A5",
"q 	c #BEA8A6",
"r 	c #BDA599",
"s 	c #BE9152",
"t 	c #BF8F55",
"u 	c #BC9050",
"v 	c #A9692D",
"w 	c #A66023",
"x 	c #A56023",
"y 	c #A56123",
"z 	c #A46123",
"A 	c #A56024",
"B 	c #A46023",
"C 	c #A56428",
"D 	c #BB8D4F",
"E 	c #BE9052",
"F 	c #BC9152",
"G 	c #AE7337",
"H 	c #A66123",
"I 	c #93501E",
"J 	c #8B5851",
"K 	c #702416",
"L 	c #B89F9C",
"M 	c #F8F7F5",
"N 	c #F7F6F6",
"O 	c #F9F0E3",
"P 	c #F5D27B",
"Q 	c #F9D077",
"R 	c #F6D076",
"S 	c #D69540",
"T 	c #CD882F",
"U 	c #CF882F",
"V 	c #CE8831",
"W 	c #CE8830",
"X 	c #CF8830",
"Y 	c #CF8831",
"Z 	c #D0882F",
"` 	c #CF8D35",
" .	c #F7CC74",
"..	c #F8D079",
"+.	c #F9D177",
"@.	c #DFA651",
"#.	c #CF8732",
"$.	c #CF8930",
"%.	c #B16E29",
"&.	c #702413",
"*.	c #8B5850",
"=.	c #B79E9B",
"-.	c #F6F7F6",
";.	c #F7F7F4",
">.	c #F7F1E4",
",.	c #F6CF79",
"'.	c #F9CE79",
").	c #F7CD77",
"!.	c #D6943F",
"~.	c #D08730",
"{.	c #CE872F",
"].	c #CD872F",
"^.	c #CF8730",
"/.	c #D08830",
"(.	c #D08B35",
"_.	c #F4CD74",
":.	c #F5D075",
"<.	c #F7CE75",
"[.	c #DEA350",
"}.	c #CE852E",
"|.	c #CE872E",
"1.	c #B16E27",
"2.	c #6F2412",
"3.	c #B59B89",
"4.	c #F9EFE0",
"5.	c #F8EEDF",
"6.	c #F8EBCF",
"7.	c #F5D998",
"8.	c #F5D898",
"9.	c #F6D799",
"0.	c #DCA454",
"a.	c #D89844",
"b.	c #D28F38",
"c.	c #D08C35",
"d.	c #D89943",
"e.	c #D89945",
"f.	c #D99B46",
"g.	c #EFBF67",
"h.	c #EDC16A",
"i.	c #F0C06C",
"j.	c #CF9548",
"k.	c #BC792B",
"l.	c #BD772E",
"m.	c #A36025",
"n.	c #B6894E",
"o.	c #F8D078",
"p.	c #F5D078",
"q.	c #F8D692",
"r.	c #F7F7F5",
"s.	c #F8F6F6",
"t.	c #F8F6F2",
"u.	c #F7D692",
"v.	c #F7D078",
"w.	c #F7D079",
"x.	c #E2AC56",
"y.	c #CE8630",
"z.	c #CE8730",
"A.	c #CD8730",
"B.	c #DC9F4B",
"C.	c #F7D077",
"D.	c #F3CC73",
"E.	c #D38C36",
"F.	c #CF8731",
"G.	c #98541F",
"H.	c #6F2613",
"I.	c #6F2413",
"J.	c #6F2312",
"K.	c #8A5850",
"L.	c #6E2311",
"M.	c #B68B4C",
"N.	c #F6CF77",
"O.	c #F9D593",
"P.	c #F7F7F8",
"Q.	c #F6F6F6",
"R.	c #F9D491",
"S.	c #F9CF78",
"T.	c #E0AD57",
"U.	c #CD872D",
"V.	c #CF852E",
"W.	c #CF8631",
"X.	c #DAA04B",
"Y.	c #F6D079",
"Z.	c #F7CF73",
"`.	c #F3CC74",
" +	c #D18C34",
".+	c #CE862E",
"++	c #96531E",
"@+	c #6D2311",
"#+	c #B5894C",
"$+	c #F8CF77",
"%+	c #F5D076",
"&+	c #F4D690",
"*+	c #F8F6F4",
"=+	c #F7F7EF",
"-+	c #F9F6F1",
";+	c #F4D894",
">+	c #F8D07D",
",+	c #F8D17A",
"'+	c #E3AE5D",
")+	c #D08832",
"!+	c #CF8933",
"~+	c #CD8931",
"{+	c #CF862D",
"]+	c #D08731",
"^+	c #D08834",
"/+	c #CE8932",
"(+	c #DDA04C",
"_+	c #F5CF77",
":+	c #F7CE77",
"<+	c #F6CA71",
"[+	c #D08C38",
"}+	c #CD852F",
"|+	c #985320",
"1+	c #A36529",
"2+	c #D6963F",
"3+	c #D7953F",
"4+	c #DBA051",
"5+	c #F7D691",
"6+	c #F6D691",
"7+	c #F9D596",
"8+	c #F9ECD4",
"9+	c #F7F0E4",
"0+	c #F9F2E5",
"a+	c #F2DCAE",
"b+	c #F0C46C",
"c+	c #F0C36E",
"d+	c #ECB962",
"e+	c #CC852F",
"f+	c #CD862E",
"g+	c #E1AF58",
"h+	c #F1C46E",
"i+	c #F0C56D",
"j+	c #E8B661",
"k+	c #D69440",
"l+	c #D5943F",
"m+	c #CE903A",
"n+	c #89431C",
"o+	c #813B19",
"p+	c #823B18",
"q+	c #752C13",
"r+	c #8B5951",
"s+	c #9F5D21",
"t+	c #CE892F",
"u+	c #D59640",
"v+	c #F8D075",
"w+	c #F4CF79",
"x+	c #F8CF7B",
"y+	c #F6F2E5",
"z+	c #F6F7F4",
"A+	c #F8F7F8",
"B+	c #F7E3BD",
"C+	c #F7CF76",
"D+	c #F5CE77",
"E+	c #F2C36B",
"F+	c #CC852C",
"G+	c #CD862D",
"H+	c #E8B660",
"I+	c #F7CF77",
"J+	c #EDBC67",
"K+	c #CC872E",
"L+	c #CF8630",
"M+	c #C8822F",
"N+	c #763016",
"O+	c #A05D23",
"P+	c #F8CE77",
"Q+	c #F6D077",
"R+	c #F9D17F",
"S+	c #F8F1E5",
"T+	c #F8F8F5",
"U+	c #F8F7F9",
"V+	c #F8E3BE",
"W+	c #F8CE76",
"X+	c #EFC36C",
"Y+	c #CC852D",
"Z+	c #E9B65F",
"`+	c #F7D076",
" @	c #ECBD65",
".@	c #CF882E",
"+@	c #C9832E",
"@@	c #762F15",
"#@	c #9F5D22",
"$@	c #D08D36",
"%@	c #E1A854",
"&@	c #E1AA55",
"*@	c #E0AA5A",
"=@	c #F5D8A9",
"-@	c #F4E2B6",
";@	c #F9E0B7",
">@	c #F5E5B9",
",@	c #F7E7C8",
"'@	c #F7E7C7",
")@	c #F5DBB4",
"!@	c #E39C57",
"~@	c #E49F5C",
"{@	c #E49F5B",
"]@	c #E39E5B",
"^@	c #EFB16B",
"/@	c #F3BD76",
"(@	c #F4BD75",
"_@	c #DFA463",
":@	c #9E5923",
"<@	c #9E5A22",
"[@	c #9A571F",
"}@	c #712815",
"|@	c #CF872F",
"1@	c #CE862D",
"2@	c #CE8931",
"3@	c #F8D074",
"4@	c #F6CF75",
"5@	c #F7E5C2",
"6@	c #F7F7F7",
"7@	c #F7F6F7",
"8@	c #F6EBE3",
"9@	c #F0AE70",
"0@	c #F1AF74",
"a@	c #F1AF73",
"b@	c #F1AF72",
"c@	c #D39160",
"d@	c #6D2413",
"e@	c #6E2512",
"f@	c #CF862E",
"g@	c #D08631",
"h@	c #CE8836",
"i@	c #F2C56B",
"j@	c #F6CE74",
"k@	c #F8CE73",
"l@	c #F5E4C2",
"m@	c #F7F5F7",
"n@	c #F9F6F0",
"o@	c #F6EBE0",
"p@	c #F1AC6F",
"q@	c #F0AF73",
"r@	c #F1AE74",
"s@	c #F2AF74",
"t@	c #D39260",
"u@	c #6E2213",
"v@	c #6F2311",
"w@	c #702314",
"x@	c #EAB662",
"y@	c #F0C06B",
"z@	c #EFC06B",
"A@	c #F4D6AA",
"B@	c #F4EADB",
"C@	c #F5E8DD",
"D@	c #F4DBCA",
"E@	c #E09C62",
"F@	c #E49E67",
"G@	c #E39D67",
"H@	c #E8A367",
"I@	c #EAA566",
"J@	c #ECA768",
"K@	c #CD8A54",
"L@	c #CC862E",
"M@	c #CF842E",
"N@	c #CE852C",
"O@	c #E09B56",
"P@	c #F0AD71",
"Q@	c #F1AD6C",
"R@	c #E3A164",
"S@	c #A45323",
"T@	c #A55626",
"U@	c #A45525",
"V@	c #BD752A",
"W@	c #CE882E",
"X@	c #B67027",
"Y@	c #CD862F",
"Z@	c #CE872D",
"`@	c #CE862F",
" #	c #E19D57",
".#	c #F0AF74",
"+#	c #E7A169",
"@#	c #A45625",
"##	c #A85827",
"$#	c #A75726",
"%#	c #C0772F",
"&#	c #B77129",
"*#	c #E19E5A",
"=#	c #E5A16A",
"-#	c #A55526",
";#	c #A75727",
">#	c #C0772D",
",#	c #B77128",
"'#	c #E19D59",
")#	c #A55525",
"!#	c #A85727",
"~#	c #B77227",
"{#	c #E5A169",
"]#	c #A85828",
"^#	c #A85728",
"/#	c #B67227",
"(#	c #E5A168",
"_#	c #A65526",
":#	c #A85826",
"<#	c #A85726",
"[#	c #B77228",
"}#	c #6E2212",
"|#	c #A75626",
"1#	c #C0772C",
"2#	c #B77328",
"3#	c #F2B075",
"4#	c #F0AD76",
"5#	c #E9A768",
"6#	c #C1772D",
"7#	c #C3792D",
"8#	c #C2792D",
"9#	c #B96D2C",
"0#	c #B5692C",
"a#	c #B4692A",
"b#	c #A25825",
"c#	c #D0872F",
"d#	c #CE8731",
"e#	c #F1AF71",
"f#	c #ECA967",
"g#	c #CE8631",
"h#	c #CD8630",
"i#	c #B66C27",
"j#	c #A95827",
"k#	c #A95926",
"l#	c #994C23",
"m#	c #D0862F",
"n#	c #E29C59",
"o#	c #F2AF75",
"p#	c #EDA968",
"q#	c #CD872B",
"r#	c #CF872E",
"s#	c #D0872E",
"t#	c #B86C2B",
"u#	c #A95828",
"v#	c #6D2313",
"w#	c #6E2414",
"x#	c #D89346",
"y#	c #D9964B",
"z#	c #DA964B",
"A#	c #D38F53",
"B#	c #CC8C5C",
"C#	c #CD8D5A",
"D#	c #CA8752",
"E#	c #B06C27",
"F#	c #B26D25",
"G#	c #B26E26",
"H#	c #A15924",
"I#	c #964A1F",
"J#	c #964A22",
"K#	c #90451E",
"L#	c #843A1C",
"M#	c #85391D",
"N#	c #823819",
"O#	c #6F2515",
"P#	c #EEA968",
"Q#	c #F1B074",
"R#	c #F4B075",
"S#	c #B7774F",
"T#	c #6D2212",
"U#	c #6E2216",
"V#	c #6F2215",
"W#	c #82371B",
"X#	c #A85927",
"Y#	c #A8572A",
"Z#	c #A45526",
"`#	c #722813",
" $	c #ECA769",
".$	c #F0AE72",
"+$	c #F2B072",
"@$	c #B8784D",
"#$	c #A75728",
"$$	c #722814",
"%$	c #702412",
"&$	c #702315",
"*$	c #D08A34",
"=$	c #D08935",
"-$	c #CF8A35",
";$	c #E7A367",
">$	c #E9A86E",
",$	c #EBA971",
"'$	c #B3734B",
")$	c #81371A",
"!$	c #A35527",
"~$	c #A05324",
"{$	c #772B16",
"]$	c #732712",
"^$	c #732814",
"/$	c #D38D3F",
"($	c #F1AD70",
"_$	c #F0AD73",
":$	c #EFAD70",
"<$	c #914F2F",
"[$	c #7A3820",
"}$	c #79381F",
"|$	c #752D1B",
"1$	c #732815",
"2$	c #742917",
"3$	c #752B14",
"4$	c #A15526",
"5$	c #A55625",
"6$	c #A45528",
"7$	c #843A1B",
"8$	c #A05D22",
"9$	c #D38D3E",
"0$	c #F2AE71",
"a$	c #F1AF76",
"b$	c #F0AE73",
"c$	c #8A462D",
"d$	c #722616",
"e$	c #6F2410",
"f$	c #6E2411",
"g$	c #732715",
"h$	c #A65627",
"i$	c #A95728",
"j$	c #843B1C",
"k$	c #9F5C24",
"l$	c #CE882F",
"m$	c #CF862F",
"n$	c #D48F3D",
"o$	c #F2AF72",
"p$	c #F2B074",
"q$	c #8B472B",
"r$	c #712617",
"s$	c #712818",
"t$	c #762E20",
"u$	c #742A1B",
"v$	c #6F2315",
"w$	c #742713",
"x$	c #A5572A",
"y$	c #A85725",
"z$	c #853B1D",
"A$	c #712413",
"B$	c #AE6E41",
"C$	c #E8A562",
"D$	c #E7A362",
"E$	c #DB985B",
"F$	c #A3633F",
"G$	c #A1633F",
"H$	c #A1633E",
"I$	c #772F1B",
"J$	c #782E20",
"K$	c #772F21",
"L$	c #71291B",
"M$	c #6C2213",
"N$	c #742B1C",
"O$	c #6F2411",
"P$	c #813619",
"Q$	c #81381A",
"R$	c #904420",
"S$	c #984C1F",
"T$	c #994B21",
"U$	c #8A401C",
"V$	c #6D2310",
"W$	c #B4764C",
"X$	c #DF9D68",
"Y$	c #722A18",
"Z$	c #702512",
"`$	c #742C1D",
" %	c #783022",
".%	c #71291A",
"+%	c #6D2415",
"@%	c #772F22",
"#%	c #742B1D",
"$%	c #6C2314",
"%%	c #6D2314",
"&%	c #954923",
"*%	c #954921",
"=%	c #8A5851",
"-%	c #B4754E",
";%	c #F4B276",
">%	c #F2AF73",
",%	c #DF9D67",
"'%	c #742C1E",
")%	c #762F21",
"!%	c #72291B",
"~%	c #712819",
"{%	c #712616",
"]%	c #954A21",
"^%	c #A75926",
"/%	c #954A22",
"(%	c #773225",
"_%	c #9B5A39",
":%	c #C98857",
"<%	c #C78558",
"[%	c #BA784E",
"}%	c #712715",
"|%	c #6D2312",
"1%	c #6C2313",
"2%	c #6F2617",
"3%	c #793022",
"4%	c #773022",
"5%	c #702716",
"6%	c #863C1F",
"7%	c #944721",
"8%	c #924720",
"9%	c #853C1C",
"0%	c #763225",
"a%	c #6F2618",
"b%	c #783021",
"c%	c #772E1F",
"d%	c #793123",
"e%	c #752D1F",
"f%	c #732B1D",
"g%	c #752C1E",
"h%	c #712719",
"i%	c #6F2415",
"j%	c #8B5953",
"k%	c #712414",
"l%	c #772F20",
"m%	c #793122",
"n%	c #6E2415",
"o%	c #6E2416",
"p%	c #762D1E",
"q%	c #732A1B",
"r%	c #712513",
"s%	c #722514",
"t%	c #783325",
"u%	c #926860",
"v%	c #813E32",
"w%	c #7B3D30",
"x%	c #7C3F31",
"y%	c #7C3E32",
"z%	c #7C3E31",
"A%	c #7D3E31",
"B%	c #7D3E32",
"C%	c #7B3D31",
"D%	c #7D4034",
"E%	c #85483C",
"F%	c #814538",
"G%	c #783D31",
"H%	c #7A3D31",
"I%	c #793D31",
"J%	c #804337",
"K%	c #84483C",
"L%	c #84463A",
"M%	c #7C3E33",
"N%	c #7B3E31",
"O%	c #7A3F2F",
"P%	c #804940",
"  . + @ # $ % & % % % % % % % % % % % % % % % % % % % % % % % % % % % % % % % % % * % % * % % % = - ",
"; > , ' ) ! ~ { ] ^ / ' ( ' ( ( ( ( ( ( ( ( ( ( ( ( ( ( ( ( ( ( ( ( ( ( ( _ ( ( : ' < ! [ } | 1 ^ 2 ",
"3 4 5 6 7 8 9 0 0 a b 5 0 c d e e e e e e e e e e e e e e e e e e e e e e 0 5 f g h i j 0 k ! e l m ",
"3 ! n o p q r s t u v w x w y z z z z z z z z z z z z z z z z z z z z z A B y C D E F G H y I j 4 m ",
"J K g L M N O P Q R S T U V W W W W W W W W W W W W W W W W W W W W W W X Y Z `  ...+.@.#.$.%.( &.m ",
"*.[ 0 =.-.;.>.,.'.).!.X ~.T {.{.{.{.{.{.{.{.{.{.{.{.{.{.{.{.{.{.{.{.{.{.].^./.(._.:.<.[.}.|.1.2.&.m ",
"J [ g 3.4.5.6.7.8.9.0.a.a.b.{.{.{.{.{.{.{.{.{.{.{.{.{.{.{.{.{.{.{.{.{.{.c.d.e.f.g.h.i.j.k.l.m.( &.m ",
"J K g n.o.p.q.r.s.t.u.v.w.x.{.{.{.{.{.{.{.{.{.{.{.{.{.{.{.{.{.{.{.y.z.A.B.C.<.D.E.A.F.G.{ H.I.J.&.m ",
"K.! L.M.o.N.O.s.P.Q.R.C.S.T.U.V.W y.{.{.{.{.{.{.{.{.{.{.{.{.{.{.{.{.W.|.X.Y.Z.`. +.+#.++n d d d &.m ",
"*.! @+#+$+%+&+*+=+-+;+>+,+'+)+!+~+{+{.{.{.{.{.{.{.{.{.{.{.{.{.{.{.]+^+/+(+_+:+<+[+.+}+|+i d d d &.m ",
"J ! L.1+2+3+4+5+6+7+8+9+0+a+b+c+d+e+{.{.{.{.{.{.{.{.{.{.{.{.{.{.f+g+h+i+j+k+l+m+n+o+p+q+d d d d &.m ",
"r+< L.s+t+{.u+v+w+x+y+z+A+B+C+D+E+F+{.{.{.{.{.{.{.{.{.{.{.|.|.{.G+H+:+I+J+K+L+M+N+&.&.( d d d d &.m ",
"r+< L.O+{.z.u+P+Q+R+S+T+U+V+W+W+X+F+.+.+.+.+.+.+.+.+.+.+.+.+f+.+Y+Z+p.`+ @F..@+@@@d d d d d d d &.m ",
"r+< L.#@{.z.$@%@&@*@=@-@;@>@,@'@)@!@~@~@~@~@~@~@~@~@~@~@~@~@~@{@]@^@/@(@_@:@<@[@}@d d d d d d d &.m ",
"r+< L.#@X z.f+|@1@2@h+3@4@5@6@7@8@9@0@0@0@0@0@0@0@0@0@0@0@a@a@a@a@a@a@b@c@d@b g e@d d d d d d d &.m ",
"r+< L.#@X z.|.f@g@h@i@j@k@l@m@n@o@p@0@0@0@0@0@0@0@0@0@0@0@a@a@a@a@q@r@s@t@u@v@w@e d d d d d d d &.m ",
"r+< L.#@X z.f@{.f+/+x@y@z@A@B@C@D@E@F@F@F@F@F@F@F@F@F@F@F@G@G@G@G@H@I@J@K@e d d d d d d d d d d &.m ",
"r+< L.#@X z..+{.|@L+L@M@N@O@P@Q@R@S@T@T@T@T@T@T@T@T@T@T@T@T@T@T@U@V@W@U.X@e d d d d d d d d d d &.m ",
"r+< L.#@X z.|@Y@Z@|@`@A.L+ #r@.#+#@#############################$#%#G+z.&#e d d d d d d d d d d &.m ",
"r+< L.#@X z.|.{.|.|.|@{.f@*#0@.#=#-#############################;#>#{.z.,#e d d d d d d d d d d &.m ",
"r+< L.#@X z.|.{.{.{.{.F.f@'#a@a@=#)#############################!#>#{.z.~#e d d d d d d d d d d &.m ",
"r+< L.#@X z.|.{.{.{.{.F.f@'#a@a@=#)#############################!#>#{.z.~#e d d d d d d d d d d &.m ",
"r+< L.#@X z.|.{.{.{.{.F.f@'#a@a@=#)#############################!#>#{.z.~#e d d d d d d d d d d &.m ",
"r+< L.#@X z.|.{.{.{.{.F.f@'#a@a@=#)#############################!#>#{.z.~#e d d d d d d d d d d &.m ",
"r+< L.#@X z.|.{.{.{.{.F.f@'#a@a@=#)#############################!#>#{.z.~#e d d d d d d d d d d &.m ",
"r+< L.#@X z.|.{.{.{.{.F.f@'#a@a@=#)#############################!#>#{.z.~#e d d d d d d d d d d &.m ",
"r+< L.#@X z.|.{.{.{.{.F.f@'#a@a@=#)#############################!#>#{.z.~#e d d d d d d d d d d &.m ",
"r+< L.#@X z.|.{.{.{.{.F.f@'#a@a@=#)#############################!#>#{.z.~#e d d d d d d d d d d &.m ",
"r+< L.#@X z.|.{.{.{.{.F.f@'#a@a@=#)#############################!#>#{.z.~#e d d d d d d d d d d &.m ",
"r+< L.#@X z.|.{.{.{.{.F.f@'#a@a@=#)#############################!#>#{.z.~#e d d d d d d d d d d &.m ",
"r+< L.#@X z.|.{.{.{.{.F.f@'#0@0@{#)#]#]#]#]#]#]#]#]#]#]#]#######^#>#{.z./#e d d d d d d d d d d &.m ",
"r+< L.#@X z.|.{.{.{.{.F.f@'#a@a@(#_#:#:#:#:#:#:#:#:#:#:#:###!#!#<#%#{.z.[#}#d ( d d d d d d d d &.m ",
"r+< L.#@X z.|.{.{.{.{.F.f@'#a@a@(#)#]#]#]#]#]#]#]#]#]#]#]#;#;#!#|#1#|@/.2#}#d d d d d d d d d d &.m ",
"r+< L.#@X z.|.{.{.{.{.F.f@'#3#4#5#6#7#7#7#7#7#7#7#7#7#7#7#8#8#8#8#9#0#a#b#}#d d d d d d d d d d &.m ",
"r+< L.#@X z.{.|.c#{.`@d#.+'#e#a@f#G+g#g#g#g#g#g#g#g#g#g#g#h#z.Y@d#i#j#k#l#u@d 8 J.d d d d d d d &.m ",
"r+< L.#@X z.{.|.m#{.`@Y@f@n#o#0@p#q#r#r#r#r#r#r#r#r#r#r#r#r#s#r#Z t#u#^#l#v#v#J.w#d d d d d d d &.m ",
"r+< L.#@X z.|.z.|.A.x#y#z#A#B#C#D#E#F#F#F#F#F#F#F#F#F#F#F#G#G#F#G#H#I#J#K#L#M#N#O#d d d d d d d &.m ",
"r+< L.#@X z.Z@y.Z@/+P#Q#R#S#T#a U#0 u@u@u@u@u@u@u@u@u@u@u@i u@i u@d 8 V#W#X#Y#Z#`#d d d d d d d &.m ",
"r+< L.s+X {.|.{.~.W  $.$+$@$e J.j d d d d d d d d d d d d d d d d J.d 2.N####$Z#$$%$&$w@J.d d d &.m ",
"r+< L.s+U {.{.*$=$-$;$>$,$'$d d ( d d d d d d d d d d d d d d d d J.d 0 )$!$T@~${$]$^$] 0 d d d &.m ",
"r+< L.s+{.{./$($_$:$<$[$}$|$e d d d d d d d d d d d d d d d d d d d d d / 1$2$3$4$5$6$7$J.d d d &.m ",
"r+< L.8${.z.9$0$a$b$c$~ e J.J.d d d d d d d d d d d d d d d d ' d$d d d e e$f$g$h$i$]#j$e d d d &.m ",
"K.! f$k$l$m$n$o$p$.#q$( ( d d d d d d d d d d d d d r$s$0 w#j t$u$d d d J.v$c w$x$y$]#z$2.7 n 2.A$m ",
"K.! @+B$C$D$E$F$G$H$I$d d d d d d d d d d d d d d O#J$K$L$M$] K$N$}#d d d e O$( P$N#Q$R$S$T$U$2.&.m ",
"K.! V$W$3#b$X$Y$Z$v$d d d d d d d d d d d d d d d w#`$ %K$.%+%@%#%$%%%d d d 2.w#5 w#g &%;#u#*%( &.m ",
"=%( @+-%;%>%,%Y$v@V#I.d d d d d d d d d d d d J.d g b '% %K$.%)%t$!%~%r${%/ e 2.e g f ]%^%u#/%I.&.(%",
"3 ( 0 _%:%<%[%}%d J.e d d d d d d d d d d d d d |%1%{ 2%N$3%K$4% % % % %t$5%g d ! J.e 6%7%8%9%J.4 0%",
"; &.0 d d J.d v$e I.e ( ( ( ( ( ( ( ( ( ( ( d ( g a%b%c%2%'%d%d%e%f%g%g%h%d ( ( i%d v#v$}#n n 5 &.(%",
"j%d$&.! ( l ( f k%k%&.&.&.&.&.&.&.&.&.&.&.&.&.( O#l%m%#%n%o%p%m%m%q%b j / / k%( ( k%r%l 4 Z$&.A$s%t%",
"u%v%w%x%x%y%z%A%A%B%z%z%z%z%z%z%z%z%z%z%z%C%C%C%D%E%F%G%H%I%I%J%K%L%M%C%C%N%y%y%z%z%B%y%y%y%y%z%O%P%"};
