/* XPM */
static char * S_xpm[] = {
"50 50 654 2",
"  	c #F8BFB1",
". 	c #F9AF9B",
"+ 	c #F6B19A",
"@ 	c #F7B09C",
"# 	c #F7B09B",
"$ 	c #F7AF9B",
"% 	c #F6AF9B",
"& 	c #F5AE9A",
"* 	c #F4AE99",
"= 	c #F3AD99",
"- 	c #F3AE9A",
"; 	c #F7B39F",
"> 	c #F8B4A0",
", 	c #F3AF9B",
"' 	c #F0AC98",
") 	c #F6B39F",
"! 	c #F7B4A1",
"~ 	c #F1AE99",
"{ 	c #E2A697",
"] 	c #5C4443",
"^ 	c #3B3132",
"/ 	c #322A2A",
"( 	c #C58E7E",
"_ 	c #F5AE9D",
": 	c #F6AF9A",
"< 	c #F7AF9D",
"[ 	c #F6B09B",
"} 	c #F8B3A3",
"| 	c #F7B7A6",
"1 	c #F6AA96",
"2 	c #F8A892",
"3 	c #F7A894",
"4 	c #F7A994",
"5 	c #F6A893",
"6 	c #F6A793",
"7 	c #F4A792",
"8 	c #F3A691",
"9 	c #F5AA96",
"0 	c #F8AE9A",
"a 	c #F4AA96",
"b 	c #F0A390",
"c 	c #EFA390",
"d 	c #F0A592",
"e 	c #F7AC99",
"f 	c #F5AB97",
"g 	c #E49C89",
"h 	c #4C2F28",
"i 	c #1D0E0F",
"j 	c #190A0D",
"k 	c #C38472",
"l 	c #F3A794",
"m 	c #F6A992",
"n 	c #F6A993",
"o 	c #F6AA92",
"p 	c #F5AE96",
"q 	c #F9B8A5",
"r 	c #F5A994",
"s 	c #F8A794",
"t 	c #F6A892",
"u 	c #F7A892",
"v 	c #F5A692",
"w 	c #F5A792",
"x 	c #F4A591",
"y 	c #F3A690",
"z 	c #F2A691",
"A 	c #F6AC97",
"B 	c #F6AD97",
"C 	c #F0A690",
"D 	c #F0A38F",
"E 	c #EEA48E",
"F 	c #F1A791",
"G 	c #F7AC97",
"H 	c #F7AD97",
"I 	c #E29F8B",
"J 	c #4B2E2A",
"K 	c #1E0C0D",
"L 	c #17090B",
"M 	c #C38673",
"N 	c #F2A692",
"O 	c #F5A893",
"P 	c #F9A894",
"Q 	c #F8AD97",
"R 	c #E3957F",
"S 	c #E07F65",
"T 	c #DD7D65",
"U 	c #DE7E65",
"V 	c #DD7E65",
"W 	c #DD7D66",
"X 	c #DC7C65",
"Y 	c #DB7C65",
"Z 	c #DA7B65",
"` 	c #DA7D66",
" .	c #DF846C",
"..	c #DE846C",
"+.	c #D97C65",
"@.	c #D77A64",
"#.	c #D87A63",
"$.	c #DA7E66",
"%.	c #DD8169",
"&.	c #DC7F67",
"*.	c #CD745C",
"=.	c #43221B",
"-.	c #190A0C",
";.	c #B06350",
">.	c #DE7C65",
",.	c #DF7E67",
"'.	c #DE7D64",
").	c #DD7F63",
"!.	c #DF856A",
"~.	c #D0745A",
"{.	c #C94F26",
"].	c #C84D27",
"^.	c #C84E26",
"/.	c #C74E26",
"(.	c #C64D27",
"_.	c #C54C27",
":.	c #C44D28",
"<.	c #C54F2A",
"[.	c #C64F2B",
"}.	c #C34D27",
"|.	c #C8552F",
"1.	c #CA5833",
"2.	c #C85631",
"3.	c #C4512D",
"4.	c #C5522E",
"5.	c #CA5733",
"6.	c #CA5732",
"7.	c #C44D27",
"8.	c #BB4924",
"9.	c #3E170F",
"0.	c #1C0C0D",
"a.	c #190B0D",
"b.	c #9E3E20",
"c.	c #C84E27",
"d.	c #C94E27",
"e.	c #CA5835",
"f.	c #D0745B",
"g.	c #C84F27",
"h.	c #C94D28",
"i.	c #C74D27",
"j.	c #C64D28",
"k.	c #C7502B",
"l.	c #C95531",
"m.	c #CB5734",
"n.	c #CA5834",
"o.	c #CA5632",
"p.	c #C7532E",
"q.	c #C7512D",
"r.	c #C54D28",
"s.	c #BC4A25",
"t.	c #3E1710",
"u.	c #1D0C0D",
"v.	c #180B0D",
"w.	c #9F3E20",
"x.	c #C84D28",
"y.	c #C84E28",
"z.	c #C94F29",
"A.	c #CB5936",
"B.	c #C94D27",
"C.	c #C54E29",
"D.	c #C95631",
"E.	c #C85531",
"F.	c #C95733",
"G.	c #CB5733",
"H.	c #C5512D",
"I.	c #C75430",
"J.	c #CA5532",
"K.	c #C95430",
"L.	c #C6512D",
"M.	c #C84E29",
"N.	c #C74D28",
"O.	c #C74D26",
"P.	c #C6512C",
"Q.	c #CB5934",
"R.	c #C24B27",
"S.	c #C34D29",
"T.	c #C85430",
"U.	c #C34C27",
"V.	c #C74E28",
"W.	c #C74E29",
"X.	c #C8532E",
"Y.	c #C44E29",
"Z.	c #C7522D",
"`.	c #CB5835",
" +	c #C75330",
".+	c #C34C29",
"++	c #C44E2A",
"@+	c #CB5833",
"#+	c #C95632",
"$+	c #C44C27",
"%+	c #BD4A25",
"&+	c #3F1810",
"*+	c #A03E20",
"=+	c #CA5936",
"-+	c #C74E27",
";+	c #C54E27",
">+	c #CB5834",
",+	c #CA5631",
"'+	c #C5502C",
")+	c #C34C28",
"!+	c #C4502B",
"~+	c #BD4A26",
"{+	c #C54D29",
"]+	c #C54E2A",
"^+	c #C75530",
"/+	c #C24D29",
"(+	c #C85530",
"_+	c #CA5531",
":+	c #C7502C",
"<+	c #BE4A26",
"[+	c #D1745C",
"}+	c #C84F29",
"|+	c #C74D29",
"1+	c #C34E28",
"2+	c #CB5935",
"3+	c #C44D2B",
"4+	c #C85330",
"5+	c #C95633",
"6+	c #3F1710",
"7+	c #1D0C0E",
"8+	c #190B0E",
"9+	c #C94E28",
"0+	c #CA5935",
"a+	c #D4725D",
"b+	c #CA502A",
"c+	c #C85027",
"d+	c #C8512C",
"e+	c #CD5734",
"f+	c #CD5836",
"g+	c #CB5631",
"h+	c #CD5935",
"i+	c #CC5632",
"j+	c #C6502B",
"k+	c #C7512B",
"l+	c #C74F2A",
"m+	c #C94F28",
"n+	c #CA4F28",
"o+	c #CA4F29",
"p+	c #C04B25",
"q+	c #401710",
"r+	c #1D0D0F",
"s+	c #190B0B",
"t+	c #A33F24",
"u+	c #CB4F29",
"v+	c #CA5028",
"w+	c #CD5A39",
"x+	c #8F5D53",
"y+	c #7A301B",
"z+	c #782F17",
"A+	c #782F19",
"B+	c #772F1A",
"C+	c #7C3622",
"D+	c #7F3A26",
"E+	c #7C3521",
"F+	c #762F1A",
"G+	c #752D19",
"H+	c #762F19",
"I+	c #752F19",
"J+	c #78321D",
"K+	c #7E3824",
"L+	c #7D3824",
"M+	c #7E3825",
"N+	c #7B3420",
"O+	c #772E19",
"P+	c #782E19",
"Q+	c #782E18",
"R+	c #792E19",
"S+	c #792F19",
"T+	c #792E18",
"U+	c #722C18",
"V+	c #2B0F12",
"W+	c #1B0C0C",
"X+	c #190C0D",
"Y+	c #602616",
"Z+	c #7A2D19",
"`+	c #772F19",
" @	c #782F16",
".@	c #7A2E19",
"+@	c #7D3B28",
"@@	c #534E4C",
"#@	c #1E0F10",
"$@	c #190D0C",
"%@	c #1D0C0C",
"&@	c #1F0E0F",
"*@	c #2A1A1A",
"=@	c #271818",
"-@	c #1D0D0D",
";@	c #1F0F0F",
">@	c #231413",
",@	c #271716",
"'@	c #261716",
")@	c #221212",
"!@	c #200F10",
"~@	c #281819",
"{@	c #221111",
"]@	c #1C0C0C",
"^@	c #1D0D0C",
"/@	c #1C0D0B",
"(@	c #1C0B0E",
"_@	c #1D0D0E",
":@	c #1F0A0C",
"<@	c #1C0D0C",
"[@	c #1C0C0E",
"}@	c #2C2021",
"|@	c #534D4E",
"1@	c #220D0F",
"2@	c #1F0B0D",
"3@	c #201010",
"4@	c #2A1A1B",
"5@	c #2B1B1C",
"6@	c #281919",
"7@	c #2B1C1C",
"8@	c #291B1B",
"9@	c #2A1C1C",
"0@	c #2A1B1B",
"a@	c #231314",
"b@	c #231515",
"c@	c #201111",
"d@	c #1C0E0D",
"e@	c #1C0D0E",
"f@	c #1D0B0F",
"g@	c #1E0D0E",
"h@	c #200C0F",
"i@	c #1F0C0E",
"j@	c #1E0D0F",
"k@	c #1E0C0F",
"l@	c #1C0E10",
"m@	c #200B0E",
"n@	c #1E0D0D",
"o@	c #1E0E0C",
"p@	c #2C2122",
"q@	c #8B6E6B",
"r@	c #744D44",
"s@	c #704D42",
"t@	c #724D43",
"u@	c #714C42",
"v@	c #745045",
"w@	c #78554A",
"x@	c #77564A",
"y@	c #79564B",
"z@	c #765348",
"A@	c #724E45",
"B@	c #734F46",
"C@	c #79554B",
"D@	c #6F4D44",
"E@	c #714C44",
"F@	c #60403B",
"G@	c #1B0A0F",
"H@	c #251412",
"I@	c #6A473E",
"J@	c #754D43",
"K@	c #734E42",
"L@	c #754C45",
"M@	c #79554E",
"N@	c #F6BBAB",
"O@	c #F7AA94",
"P@	c #F6AB94",
"Q@	c #F6AA93",
"R@	c #F4A993",
"S@	c #F6AB96",
"T@	c #F5AA95",
"U@	c #F3A893",
"V@	c #F2A792",
"W@	c #F5AC96",
"X@	c #F8B09A",
"Y@	c #F7AE98",
"Z@	c #F5AA93",
"`@	c #F4A892",
" #	c #CC937F",
".#	c #160B0A",
"+#	c #402822",
"@#	c #E1A08C",
"##	c #F9AC96",
"$#	c #F9AD94",
"%#	c #F7B299",
"&#	c #F8B7A9",
"*#	c #F3A791",
"=#	c #F4A68F",
"-#	c #F2A690",
";#	c #F1A68F",
">#	c #F1A690",
",#	c #F2A58F",
"'#	c #F1A58F",
")#	c #F0A58F",
"!#	c #F1A892",
"~#	c #F6AD98",
"{#	c #F2A892",
"]#	c #F2A68E",
"^#	c #F1A691",
"/#	c #CE8F7A",
"(#	c #18080B",
"_#	c #3F2924",
":#	c #E19D84",
"<#	c #F4A990",
"[#	c #F5A892",
"}#	c #F4B09D",
"|#	c #ECA38B",
"1#	c #F0A18A",
"2#	c #EFA08A",
"3#	c #EEA08A",
"4#	c #EDA089",
"5#	c #EEA089",
"6#	c #EDA18A",
"7#	c #F2A891",
"8#	c #F2A791",
"9#	c #F0A48D",
"0#	c #EEA189",
"a#	c #EFA28A",
"b#	c #EEA18B",
"c#	c #CA8973",
"d#	c #19080C",
"e#	c #3E2624",
"f#	c #DE9782",
"g#	c #F2A18E",
"h#	c #F2A38B",
"i#	c #F3A38C",
"j#	c #F4A891",
"k#	c #D27B62",
"l#	c #CF603D",
"m#	c #D05F3D",
"n#	c #CF5E3D",
"o#	c #CA5636",
"p#	c #CA5635",
"q#	c #CA5736",
"r#	c #CC5B3A",
"s#	c #CD5B3A",
"t#	c #CB5736",
"u#	c #CC5735",
"v#	c #CC5834",
"w#	c #CD5735",
"x#	c #AB4C2F",
"y#	c #39160F",
"z#	c #BD5231",
"A#	c #CE5836",
"B#	c #CE5833",
"C#	c #CE6241",
"D#	c #D37A61",
"E#	c #CA5B34",
"F#	c #CC5734",
"G#	c #C8502D",
"H#	c #C64C28",
"I#	c #C54C28",
"J#	c #C64E29",
"K#	c #AA4323",
"L#	c #1B090F",
"M#	c #37140F",
"N#	c #BB4927",
"O#	c #C64F28",
"P#	c #D47B61",
"Q#	c #C6542E",
"R#	c #C64F2D",
"S#	c #C74F28",
"T#	c #AD4324",
"U#	c #361510",
"V#	c #B94A24",
"W#	c #CA5A33",
"X#	c #D47961",
"Y#	c #CA5633",
"Z#	c #CB5633",
"`#	c #C54E28",
" $	c #AC4323",
".$	c #180A0D",
"+$	c #1D0C0F",
"@$	c #36150F",
"#$	c #BA4924",
"$$	c #D47A62",
"%$	c #C34F2A",
"&$	c #C5512C",
"*$	c #CB5732",
"=$	c #AC4322",
"-$	c #D1765E",
";$	c #CB5A35",
">$	c #C8512D",
",$	c #CF765F",
"'$	c #C75532",
")$	c #C8522C",
"!$	c #C84F28",
"~$	c #D27C5F",
"{$	c #C34F2C",
"]$	c #C54F27",
"^$	c #C84D26",
"/$	c #C64E26",
"($	c #AE4324",
"_$	c #170A0C",
":$	c #37140E",
"<$	c #BC4826",
"[$	c #CA4D28",
"}$	c #CC5935",
"|$	c #D67B64",
"1$	c #C45230",
"2$	c #C64E28",
"3$	c #AB4323",
"4$	c #19090D",
"5$	c #1B0C0B",
"6$	c #361410",
"7$	c #B94824",
"8$	c #C95934",
"9$	c #CB7562",
"0$	c #BB4C29",
"a$	c #B64926",
"b$	c #BA4825",
"c$	c #BA4824",
"d$	c #BC4924",
"e$	c #BB4825",
"f$	c #BA4923",
"g$	c #9E3D21",
"h$	c #1B0A0C",
"i$	c #33140D",
"j$	c #AD4421",
"k$	c #BA4826",
"l$	c #BA4A27",
"m$	c #BF5235",
"n$	c #675857",
"o$	c #391613",
"p$	c #38130E",
"q$	c #31110F",
"r$	c #34130F",
"s$	c #38140F",
"t$	c #37150E",
"u$	c #371410",
"v$	c #381410",
"w$	c #37140D",
"x$	c #36160E",
"y$	c #412621",
"z$	c #55524E",
"A$	c #1E0E11",
"B$	c #1D0B0E",
"C$	c #1F0C10",
"D$	c #1D0D0B",
"E$	c #1C0D0D",
"F$	c #1C0C0F",
"G$	c #1C0B10",
"H$	c #2C2121",
"I$	c #514D4C",
"J$	c #170C0E",
"K$	c #17090A",
"L$	c #19090A",
"M$	c #180808",
"N$	c #17080A",
"O$	c #170A0A",
"P$	c #1B0C0F",
"Q$	c #1D0B10",
"R$	c #1E0C0E",
"S$	c #1A0C0D",
"T$	c #180A08",
"U$	c #281D1D",
"V$	c #CB9E90",
"W$	c #C58A79",
"X$	c #C88976",
"Y$	c #C88B76",
"Z$	c #C88C76",
"`$	c #C88B79",
" %	c #C88B78",
".%	c #C88B77",
"+%	c #C98B78",
"@%	c #C38C78",
"#%	c #6B4941",
"$%	c #1A0D0E",
"%%	c #7D554C",
"&%	c #C98B79",
"*%	c #C99280",
"=%	c #F3B5A3",
"-%	c #F4A693",
";%	c #F5A791",
">%	c #F6A691",
",%	c #F5A891",
"'%	c #86574E",
")%	c #1C0B0D",
"!%	c #9A685C",
"~%	c #F4AB99",
"{%	c #F5B9A3",
"]%	c #F6A894",
"^%	c #F6A994",
"/%	c #F7A993",
"(%	c #865A4D",
"_%	c #1B0C0D",
":%	c #9B695B",
"<%	c #F7A795",
"[%	c #F7A992",
"}%	c #F9AE9B",
"|%	c #E89F89",
"1%	c #E48D72",
"2%	c #E58B71",
"3%	c #E68B71",
"4%	c #E58C71",
"5%	c #E58B72",
"6%	c #E48C73",
"7%	c #7D483D",
"8%	c #1B0B0D",
"9%	c #905645",
"0%	c #E68C71",
"a%	c #E38D74",
"b%	c #E7917A",
"c%	c #D2745B",
"d%	c #C74F26",
"e%	c #C94C26",
"f%	c #6C2A17",
"g%	c #1A0D0D",
"h%	c #7F2F1A",
"i%	c #C94C27",
"j%	c #C74E25",
"k%	c #CC5835",
"l%	c #D1745B",
"m%	c #CA4E27",
"n%	c #6D2A17",
"o%	c #80311B",
"p%	c #CA5836",
"q%	c #CA4E28",
"r%	c #80301B",
"s%	c #6D2916",
"t%	c #7F301B",
"u%	c #D2755C",
"v%	c #CB4E27",
"w%	c #CB4F2A",
"x%	c #CC4F27",
"y%	c #CB4F28",
"z%	c #6F2917",
"A%	c #81301B",
"B%	c #CA4F27",
"C%	c #A16456",
"D%	c #923921",
"E%	c #91391C",
"F%	c #90381E",
"G%	c #95371C",
"H%	c #8F3820",
"I%	c #511E13",
"J%	c #1B0C0E",
"K%	c #5C2115",
"L%	c #91391F",
"M%	c #94432B",
"N%	c #564B4B",
"O%	c #1D0E11",
"P%	c #1B0D0A",
"Q%	c #1B0D0D",
"R%	c #1D0C0B",
"S%	c #1C0C10",
"T%	c #1B0D0B",
"U%	c #291F1F",
"V%	c #564F4D",
"W%	c #1E0E0E",
"X%	c #1A0F10",
"Y%	c #1C0E0E",
"Z%	c #1C0E0F",
"`%	c #1D100D",
" &	c #1E0E10",
".&	c #1D0D12",
"+&	c #1E0D10",
"@&	c #2D2020",
"#&	c #605C5C",
"$&	c #352E2E",
"%&	c #352C2D",
"&&	c #362C2D",
"*&	c #352D2E",
"=&	c #3E3837",
"  . + @ @ @ @ @ @ @ @ @ @ @ # $ % & * = - ; > , ' ) ! ; ~ { ] ^ / ( _ : < @ @ @ @ @ @ @ @ @ @ @ [ } ",
"| 1 2 3 3 3 3 3 3 3 4 3 3 3 5 6 6 7 7 8 9 0 a b c d e 0 f g h i j k l m n 3 3 3 3 3 3 3 3 3 3 3 o p ",
"q r s t t t t t t t u t t t v w v x y z A B C D D E F G H I J K L M N O u t t t t t t t t t t t P Q ",
"R S T U U U U U U U V V V V W X Y Y Z `  ...+.@.#.$.%.$.&.*.=.K -.;.>.,.'.U U U U U U U U U U U ).!.",
"~.{.].^.^.^.^.^.^.^././././.(._.:.<.[.}.|.1.2.3.4.5.6.<.7.8.9.0.a.b.].c.c.^.^.^.^.^.^.^.^.^.^.^.d.e.",
"f.g.h.c.c.c.c.c.c.c.c.c.c.i.j.k.l.m.n.o.p.6.n.n.n.m.q.r.r.s.t.u.v.w.x.y.c.c.c.c.c.c.c.c.c.c.c.c.z.A.",
"f.g.B.c.c.c.c.c.c.c.i.i.j.r.C.D.n.E.F.n.G.H.I.J.K.L.r.M.N.s.t.u.v.w.y.y.c.c.c.c.c.c.c.c.c.c.c.c.y.A.",
"f.g.h.c.c.c.c.c.c.O.(.r.:.:.P.Q.E.R.S.E.n.T.7.U.r.r.V.i.W.s.t.u.v.w.x.y.c.c.c.c.c.c.c.c.c.c.c.c.y.A.",
"f.g.h.c.c.c.c.N.N.r.X.<.7.Y.Z.`. +R..+++@+#+r.$+N.i.c.c.i.%+&+u.a.*+N.c.c.c.c.c.c.c.c.c.c.c.c.c.y.=+",
"f.g.h.c.c.c.-+;+:.Z.>+#+o.,+'+5.n.H.)+!+5.E.r.r.N.c.c.c.V.~+&+u.a.*+N.c.c.c.c.c.c.c.c.c.c.c.c.c.y.=+",
"f.g.h.c.c.N.j.j.{+]+#+n.n.^+/+(+n.n._+5.>+:+r.j.c.c.c.c.V.<+&+u.a.*+N.c.c.c.c.c.c.c.c.c.c.c.c.c.y.=+",
"[+}+c.y.N.|+:+o.K.1+l.2+2+#+3+/+4+5+5.F.L._.r.-+y.c.c.c.V.~+6+7+8+*+i.].c.c.c.c.c.c.c.c.c.c.c.c.9+0+",
"a+b+c+z.W.d+e+f+g+]+X.,+@+h+i+j+k.k+k+l+W.M.y.m+m+n+o+o+n+p+q+r+s+t+o+u+v+o+o+o+o+o+o+o+o+o+o+o+v+w+",
"x+y+z+A+B+C+D+E+F+G+H+I+J+K+D+L+M+N+O+O+P+Q+Q+R+R+R+S+S+T+U+V+W+X+Y+Z+`+ @R+R+R+R+R+R+R+R+R+R+R+.@+@",
"@@#@$@%@&@*@=@-@;@>@,@'@)@!@~@*@*@{@]@]@]@]@]@]@]@]@]@]@]@^@/@(@_@:@<@[@[@]@]@]@]@]@]@]@]@]@]@]@K }@",
"|@1@2@-@3@4@5@6@*@7@8@9@0@a@!@b@c@d@e@f@g@h@g@g@g@g@g@g@g@i@j@k@j@l@m@n@g@g@g@g@g@g@g@g@g@g@g@g@o@p@",
"q@r@s@t@u@v@w@x@y@z@A@B@C@z@D@E@F@G@<@H@I@J@K@K@K@K@K@K@K@K@K@K@K@K@K@K@K@K@K@K@K@K@K@K@K@K@K@K@L@M@",
"N@O@P@Q@P@R@S@S@T@U@V@W@X@Y@Z@`@ #.#r++#@#S@####################################################$#%#",
"&#*#=#-#;#>#;#,#'#)#!#~#B {#]#^#/#(#7+_#:#<#[#[#[#[#[#[#[#[#[#[#[#[#[#[#[#[#[#[#[#[#[#[#[#[#[#[#r ~#",
"}#|#1#2#3#3#4#5#6#;#7#8#9#0#a#b#c#d#-@e#f#g#h#h#h#h#h#h#h#h#h#h#h#h#h#h#h#h#h#h#h#h#h#h#h#h#h#h#i#j#",
"k#l#m#n#w+o#p#q#q#r#m#s#t#u#v#w#x#.#e@y#z#e+A#A#A#A#A#A#A#A#A#A#A#A#A#A#A#A#A#A#A#A#A#A#A#A#A#A#B#C#",
"D#E#F.>+F#G#H#I#|+r.J#|+x.y.V.^.K#L#7+M#N#V.9+9+9+9+9+9+9+9+9+9+9+9+9+9+9+9+9+9+9+9+9+9+9+9+9+9+O#A.",
"P#Q#R#m.5.<.r.J#(.V.S#S#c.c.c.^.T#a.7+U#V#B.d.d.d.d.d.d.d.d.d.d.d.d.d.d.d.d.d.d.d.d.d.d.d.d.d.d.d.W#",
"X#^+Y#Z#Y.Z.K.`#W.c.c.c.c.c.^.(. $.$+$@$#$V.c.c.c.c.c.c.c.c.c.c.c.c.c.c.c.c.c.c.c.c.c.c.c.c.c.c.M.=+",
"$$2+m.%$&$5.*$J#y.c.c.c.c.c.^.(.=$.$+$@$8.-+c.c.c.c.c.c.c.c.c.c.c.c.c.c.c.c.c.c.c.c.c.c.c.c.c.c.y.=+",
"-$;$m.o.m.F#>$j.i.c.c.c.c.c.^.(.=$.$+$@$8.-+c.c.c.c.c.c.c.c.c.c.c.c.c.c.c.c.c.c.c.c.c.c.c.c.c.c.y.=+",
",$'$m.5.5.)$(.N.c.d.^.c.c.c.B.(. $.$f@@$8.-+c.c.c.c.c.c.c.c.c.c.c.c.c.c.c.c.c.c.c.c.c.c.c.c.c.c.!$=+",
"~${$]$k.J#j.i.^$^$^$c.d.d.d.-+/$($_$7+:$<$d.d.d.d.d.d.d.d.d.d.d.d.d.d.d.d.d.d.d.d.d.d.d.d.d.d.d.[$}$",
"|$1$_.:.:.`#2$2$2$2$2$V.V.V.i.i.3$4$5$6$7$2$V.V.V.V.V.V.V.V.V.V.V.V.V.V.V.V.V.V.V.V.V.V.V.V.V.V.l+8$",
"9$0$a$b$c$#$#$#$#$#$8.d$d$d$e$f$g$h$7+i$j$k$d$d$d$d$d$d$d$d$d$d$d$d$d$d$d$d$d$d$d$d$d$d$d$d$d$d$l$m$",
"n$o$:$M#M#:$M#M#M#M#M#M#M#M#6$p$q$+$u.7+r$s$M#M#M#M#M#M#M#M#M#M#M#M#M#M#M#M#M#M#t$:$M#u$v$M#:$w$x$y$",
"z$A$B$[@[@[@[@[@[@[@[@[@[@[@0.0.0.0.0.u.u.7+[@[@[@[@[@[@[@[@[@[@[@[@[@[@[@[@[@[@u.C$0.D$E$E$F$G$C$H$",
"I$J$K$L$L$L$L$L$L$L$L$L$L$L$M$M$M$M$M$M$M$M$L$L$L$L$L$L$L$L$L$L$L$L$L$L$L$L$L$L$L$N$O$P$Q$R$S$T$O$U$",
"V$W$X$Y$Z$Z$Z$Z$Z$Z$Z$Z$Z$Z$Z$Z$Z$Z$`$`$`$ %Z$Z$Z$Z$Z$Z$Z$Z$Z$Z$Z$Z$Z$Z$Z$Z$Z$Z$.%+%@%#%$%W+%%`$&%*%",
"=%-%8 ;%w w w w w w w w w w ;%;%;%;%;%;%;%;%w w w w w w w w w w w w w w w w w w 7 >%,%'%7+)%!%7 `@~%",
"{%]%^%5 5 5 5 5 5 5 5 5 5 5 5 5 5 5 5 5 5 5 5 5 5 5 5 5 5 5 5 5 5 5 5 5 5 5 5 5 /%3 o (%<@_%:%<%[%}%",
"|%1%2%3%3%3%3%3%3%3%3%3%3%3%3%3%3%3%3%3%3%3%3%3%3%3%3%3%3%3%3%3%3%3%3%3%3%3%3%3%4%5%6%7%u.8%9%0%a%b%",
"c%d%e%^$^$^$^$^$^$^$^$^$^$^$^$^$^$^$^$^$^$^$^$^$^$^$^$^$^$^$^$^$^$^$^$^$^$^$^$^$i.e%^.f%g%[@h%i%j%k%",
"l%g.9+c.c.c.c.c.c.c.c.c.c.c.c.c.c.c.c.c.c.c.c.c.c.c.c.c.c.c.c.c.c.c.c.c.c.c.c.c.y.c.m%n%0.[@o%d.}+p%",
"f.g.h.c.c.c.c.c.c.c.c.c.c.c.c.c.c.c.c.c.c.c.c.c.c.c.c.c.c.c.c.c.c.c.c.c.c.c.c.c.y.c.q%n%u.[@r%m%9+=+",
"f.g.h.c.c.c.c.c.c.c.c.c.c.c.c.c.c.c.c.c.c.c.c.c.c.c.c.c.c.c.c.c.c.c.c.c.c.c.c.c.y.c.q%n%u.[@r%m%9+=+",
"f.g.h.c.c.c.c.c.c.c.c.c.c.c.c.c.c.c.c.c.c.c.c.c.c.c.c.c.c.c.c.c.c.c.c.c.c.c.c.c.y.c.q%n%u.[@r%m%9+=+",
"f.g.h.c.c.c.c.c.c.c.c.c.c.c.c.c.c.c.c.c.c.c.c.c.c.c.c.c.c.c.c.c.c.c.c.c.c.c.c.c.y.c.m%s%0.[@t%g.y.=+",
"f.g.h.c.c.c.c.c.c.c.c.c.c.c.c.c.c.c.c.c.c.c.c.c.c.c.c.c.c.c.c.c.c.c.c.c.c.c.c.c.y.c.m%s%0.[@t%g.y.=+",
"f.g.9+c.c.c.c.c.c.c.c.c.c.c.c.c.c.c.c.c.c.c.c.c.c.c.c.c.c.c.c.c.c.c.c.c.c.c.c.c.y.c.m%s%u.[@t%g.y.=+",
"u%v+v%w%w%w%w%w%w%w%w%w%w%w%w%w%w%w%w%w%w%w%w%w%w%w%w%w%w%w%w%w%w%w%w%w%w%w%w%w%w%x%y%z%0._%A%B%y%}$",
"C%D%E%E%E%E%E%E%E%E%E%E%E%E%E%E%E%E%E%E%E%E%E%E%E%E%E%E%E%E%E%E%E%E%E%E%E%E%E%E%F%G%H%I%k@J%K%F%L%M%",
"N%O%P%[@[@[@[@[@[@[@[@[@[@[@[@[@[@[@[@[@[@[@[@[@[@[@[@[@[@[@[@[@[@[@[@[@[@[@[@[@Q%R%7+S%P$]@0.T%/@U%",
"V%W%X%Y%Y%Y%Y%Y%Y%Y%Y%Y%Y%Y%Y%Y%Y%Y%Y%Y%Y%Y%Y%Y%Y%Y%Y%Y%Y%Y%Y%Y%Y%Y%Y%Y%Y%Y%Y%Y%l@Z%`%_@W% &.&+&i @&",
"#&$&%&&&&&&&&&&&&&&&&&&&&&&&&&&&&&&&&&&&&&&&&&&&&&&&&&&&&&&&&&&&&&&&&&&&&&&&&&&&&&&&&&&&%&&&&&%&*&=&"};
