/* XPM */
static char * brick_wall_xpm[] = {
"50 50 347 2",
"  	c #A79A7B",
". 	c #A89C7D",
"+ 	c #A6997A",
"@ 	c #A39775",
"# 	c #A99E7E",
"$ 	c #A99D7D",
"% 	c #ACA383",
"& 	c #AFA688",
"* 	c #AEA586",
"= 	c #ACA183",
"- 	c #A59878",
"; 	c #AAA07F",
"> 	c #ABA081",
", 	c #ABA180",
"' 	c #A89C7C",
") 	c #A79B7B",
"! 	c #A49877",
"~ 	c #A59876",
"{ 	c #A9A080",
"] 	c #ADA585",
"^ 	c #B2AA8B",
"/ 	c #B4AD8E",
"( 	c #B0A789",
"_ 	c #ADA484",
": 	c #B3AA8C",
"< 	c #B0A587",
"[ 	c #AEA284",
"} 	c #ADA183",
"| 	c #A79B7A",
"1 	c #ADA283",
"2 	c #AAA180",
"3 	c #AEA686",
"4 	c #ABA080",
"5 	c #A89B7C",
"6 	c #A99B7C",
"7 	c #A8987A",
"8 	c #A39574",
"9 	c #A59A79",
"0 	c #A69A7A",
"a 	c #ADA384",
"b 	c #ADA485",
"c 	c #AA9F81",
"d 	c #A99C7F",
"e 	c #AEA385",
"f 	c #AA9F7F",
"g 	c #A39776",
"h 	c #A69878",
"i 	c #A89D7E",
"j 	c #ACA483",
"k 	c #B2AA8C",
"l 	c #B5AE90",
"m 	c #B0A88A",
"n 	c #B1A98B",
"o 	c #B3AC8D",
"p 	c #B4AA8D",
"q 	c #AFA486",
"r 	c #A89D7D",
"s 	c #AA9E80",
"t 	c #AEA485",
"u 	c #B0A688",
"v 	c #B2A88B",
"w 	c #A79B7C",
"x 	c #AEA183",
"y 	c #B0A285",
"z 	c #AEA283",
"A 	c #B3AB8D",
"B 	c #B6AD90",
"C 	c #B6AB8F",
"D 	c #B7AC90",
"E 	c #B4A98D",
"F 	c #B1A68A",
"G 	c #B5AC8F",
"H 	c #B0A788",
"I 	c #ACA384",
"J 	c #AEA486",
"K 	c #ADA385",
"L 	c #B0A589",
"M 	c #B4AC8F",
"N 	c #B8B094",
"O 	c #B7AF93",
"P 	c #BAB398",
"Q 	c #BAB196",
"R 	c #B3A98C",
"S 	c #B1A789",
"T 	c #B7AE91",
"U 	c #B4AC8E",
"V 	c #B4AD8F",
"W 	c #ADA184",
"X 	c #B9B196",
"Y 	c #B1A78A",
"Z 	c #B2A88A",
"` 	c #B2AB8C",
" .	c #B1A88B",
"..	c #AFA689",
"+.	c #AEA588",
"@.	c #B0A689",
"#.	c #B7AE92",
"$.	c #ABA582",
"%.	c #ACA784",
"&.	c #ACA584",
"*.	c #ABA382",
"=.	c #AFA687",
"-.	c #AAA081",
";.	c #ACA283",
">.	c #ACA182",
",.	c #AFA385",
"'.	c #AEA587",
").	c #ADA284",
"!.	c #AA9E7F",
"~.	c #AA9D7E",
"{.	c #A89F7F",
"].	c #A8A17F",
"^.	c #A89E7E",
"/.	c #AA9A7C",
"(.	c #AA9C7D",
"_.	c #B4AB8E",
":.	c #AAA282",
"<.	c #A89E7D",
"[.	c #AFA285",
"}.	c #ADA083",
"|.	c #ADA182",
"1.	c #AEA184",
"2.	c #AB9E7F",
"3.	c #AAA181",
"4.	c #ACA484",
"5.	c #A59B79",
"6.	c #AA9B7D",
"7.	c #B1A487",
"8.	c #A7A07E",
"9.	c #ACA080",
"0.	c #AEA082",
"a.	c #B2A689",
"b.	c #AAA482",
"c.	c #AC9F80",
"d.	c #AFA386",
"e.	c #B0A487",
"f.	c #A69A79",
"g.	c #ACA284",
"h.	c #B0A588",
"i.	c #AFA487",
"j.	c #ABA082",
"k.	c #B3A98D",
"l.	c #B0A489",
"m.	c #AEA285",
"n.	c #B7AF92",
"o.	c #B8AE92",
"p.	c #B6AC90",
"q.	c #B5AD90",
"r.	c #B9B094",
"s.	c #B7AD91",
"t.	c #B7AD92",
"u.	c #B3A88C",
"v.	c #B5AC90",
"w.	c #B8AD92",
"x.	c #B4AB8F",
"y.	c #B5AB8F",
"z.	c #B8AF93",
"A.	c #B6AE91",
"B.	c #B6AD91",
"C.	c #B4AA8E",
"D.	c #A99D7F",
"E.	c #A79D7C",
"F.	c #A69B7A",
"G.	c #A69C7B",
"H.	c #ABA282",
"I.	c #AA9F80",
"J.	c #A49A78",
"K.	c #A49977",
"L.	c #A59A78",
"M.	c #A59979",
"N.	c #A69B7B",
"O.	c #AB9F81",
"P.	c #A89A7B",
"Q.	c #A8997A",
"R.	c #A89B7B",
"S.	c #B1A387",
"T.	c #A09270",
"U.	c #A59978",
"V.	c #A79879",
"W.	c #A99C7D",
"X.	c #AB9F80",
"Y.	c #AC9F82",
"Z.	c #AC9F81",
"`.	c #ACA181",
" +	c #A39674",
".+	c #A69979",
"++	c #AA9D7D",
"@+	c #AA9C7E",
"#+	c #A99B7D",
"$+	c #AC9E80",
"%+	c #A69879",
"&+	c #AEA386",
"*+	c #AFA587",
"=+	c #A89A7C",
"-+	c #AB9D7F",
";+	c #ADA082",
">+	c #B1A588",
",+	c #B0A386",
"'+	c #A39876",
")+	c #AB9B7D",
"!+	c #AC9D7F",
"~+	c #ACA081",
"{+	c #B2AA8D",
"]+	c #A79A7A",
"^+	c #ACA285",
"/+	c #ADA386",
"(+	c #A99E7F",
"_+	c #A99D7E",
":+	c #A99A7C",
"<+	c #ACA082",
"[+	c #B4A88B",
"}+	c #B3A689",
"|+	c #B2A488",
"1+	c #B1A486",
"2+	c #B1A488",
"3+	c #A89B7D",
"4+	c #ACA083",
"5+	c #AE9F82",
"6+	c #AC9D80",
"7+	c #B3A68A",
"8+	c #A89B7E",
"9+	c #B0A387",
"0+	c #B7AC91",
"a+	c #B8AE94",
"b+	c #B7AE94",
"c+	c #B7AE93",
"d+	c #B4AC90",
"e+	c #B5AC91",
"f+	c #B8AF94",
"g+	c #B8AF95",
"h+	c #B9AF93",
"i+	c #BAB096",
"j+	c #B5AB90",
"k+	c #B9AF94",
"l+	c #B9AE94",
"m+	c #ABA182",
"n+	c #B1A98C",
"o+	c #AFA284",
"p+	c #B0A286",
"q+	c #B4AA8C",
"r+	c #A39675",
"s+	c #A69678",
"t+	c #A8997B",
"u+	c #B2A98C",
"v+	c #A79C7C",
"w+	c #A39877",
"x+	c #A19574",
"y+	c #A59879",
"z+	c #A89D7F",
"A+	c #AB9E81",
"B+	c #AFA085",
"C+	c #A49878",
"D+	c #AC9F7F",
"E+	c #AB9E80",
"F+	c #B2A98D",
"G+	c #BBB197",
"H+	c #B7AC92",
"I+	c #B9AF95",
"J+	c #BAB197",
"K+	c #B3AA8D",
"L+	c #B2A88C",
"M+	c #B4AA8F",
"N+	c #B4AC91",
"O+	c #B4AB90",
"P+	c #A49978",
"Q+	c #A59A7A",
"R+	c #A89C7E",
"S+	c #A79C7D",
"T+	c #B2A78B",
"U+	c #A69A7B",
"V+	c #B1A689",
"W+	c #AFA286",
"X+	c #A79E7E",
"Y+	c #AAA182",
"Z+	c #A79779",
"`+	c #A59677",
" @	c #A7997A",
".@	c #A7997B",
"+@	c #A99C7E",
"@@	c #AA9D80",
"#@	c #AB9C7E",
"$@	c #A8997C",
"%@	c #ABA283",
"&@	c #B6AE92",
"*@	c #A79B7D",
"=@	c #A49576",
"-@	c #A29675",
";@	c #A69778",
">@	c #A49777",
",@	c #A39777",
"'@	c #B0A385",
")@	c #AD9F83",
"!@	c #BDB39A",
"~@	c #BCB299",
"{@	c #BBB297",
"]@	c #BAB297",
"^@	c #B9AE95",
"/@	c #B6AC91",
"(@	c #B8AD93",
"_@	c #B6AD92",
":@	c #B7AD93",
"<@	c #ABA281",
"[@	c #A69C7C",
"}@	c #AAA080",
"|@	c #A39A77",
"1@	c #A69D7C",
"2@	c #A8A07F",
"3@	c #A69D7B",
"4@	c #A59C7A",
"5@	c #A19775",
"6@	c #A59D7A",
"7@	c #A89F7E",
"8@	c #A79E7C",
"9@	c #A79D7D",
"0@	c #A49B78",
"a@	c #A39977",
"b@	c #A09673",
"c@	c #A59877",
"d@	c #A19774",
"e@	c #A09572",
"f@	c #A59777",
"g@	c #B5AD8F",
"h@	c #B3AE8D",
"i@	c #B5AF90",
"j@	c #B3AD8E",
"k@	c #B1AA8C",
"l@	c #B5AD92",
"m@	c #B7B093",
"n@	c #B6AF92",
"o@	c #AFA488",
"p@	c #AFA586",
"q@	c #A79F7B",
"r@	c #ACA582",
"s@	c #A9A181",
"t@	c #AB9F7F",
"u@	c #AEA585",
"v@	c #AEA387",
"w@	c #AA9C7C",
"x@	c #A99A7B",
"y@	c #ADA282",
"z@	c #ABA181",
"A@	c #AAA381",
"B@	c #AEA383",
"C@	c #AFA787",
"D@	c #ABA47F",
"E@	c #ABA380",
"F@	c #A9A07F",
"  . + @ # $ % & * = # - ; > , ' ) # . ! ~ ; { ] ^ / ( _ : < [ } > | > ' , 1 > > [ [ 1 % 2 3 ' , 4 5 ",
"6 7 8 9 0 > [ a b c d   e f # 9 ' d + g h i j k l m n m o p q a e f r f # s s t q e u k j v r > ! w ",
"x y z t A B C D E F F u G H * I J K L J [ M l N O O O P Q p v R S R S q a v p p R T U V / l S t a W ",
"q u < X n Y < v q Z Z k ` `  ...+.m ( @.#.$.%.&.*.=.-.% ;.e e a e e q H T B v q v < Z v p S e >.;.,.",
"[ a a N '.% t >.t < t ;.[ ;.W ).!.~.} } B {.].^.{ > /.(.6 f s f f q >.t R _.>.t s e t e a > ;.' f > ",
"1 e @.O :.<.;.t e a a !.!.[.}.|.1.z 2.|.D ] { 3.:.:.] &.4.s >.' # >.] Z v v 5.s e < t a s f a s ) $ ",
"1 f a _.) f -.< e e e >.q e u t e e >.>.V j ] :.&.=.< > t t > 0 s f *.6.@.7.8.9.[.t & q a q ;.f 0 # ",
"# f t R ;.> ;.t >.t q e q ;.e u Z < e e l '.& 3.j * >.a t >.# f > # {.0.* a.b.c.t t [ t a >.> f r > ",
"# ;.e S s >.> ;.;.e q = I d.e.L e.S u a l &.3 % =.b >.# ;.> r ' f.# -.[.4.S :.4 &.>.e t a >.> ' ) | ",
">.f t _.> s e a a Z a K g.K h.i.F S e s / ` k S < q e t ;.>.' ;.s > !.!.m S # a e a < q e >.# 0 a $ ",
",.;.Z B ;.u v S q p v u i.j.k.l.m.h.v v n.V O o.B G G S Z a Z q t u |.e.` U t S R e R Z v t q u t q ",
"G p.p.M o #.q.r.s.T p t.s.u.v.w.x.s.s.y.M @.q.z.T A.G o.o.M M A.G B._.R B.M M A.#.l z.p T o.S p C.w.",
"D.s r E.F.5.G.<.' r ) ' e f.s t >.s d d f > H.* * * >.>.;.I.J.K.' L.M.) ) E.G.9 E.G.i ' r t N.f > d.",
"O.c = f.P.Q.Q.R.5 # ) 9 e # > ;.> c j.j.f f a e.S.e e >.[.2.T.U.9 9 f.9 ) P.R.V.(.(.W.) L.t # f I s ",
"X.!.!.W.f.R.f 4 >.f s r e # > a ;.X.Y.Z.g.K m.S e e 4 H.4.`. +' ' ' f > r .+' !.# >.s ~.<.H 0 > = j.",
"++@+V.r # >.# f s f 0 ) e ) >.q > #+$+%+d m.&+v u u [ H.=.t 9 f.L.L.' # r r >.> r # s V.M.m 0 s *+= ",
"6 6 @+) 9 # ' ;.>.* >.f t f # s f =+-+;+K i.K q v >+,+@.4.t '+' r r r # ' 9 ' r ;.> `.(.r 3 r f > # ",
")+!+x ;+~+m.'.( & {+` e J d ]+(.~+@+-+y ^+/+L h.l.l.e =.@.q 9 # r r ' e s >.i > D.> > s (+e w _+5 -+",
";+:+~+<+).h.[+}+|+y 1+2+l.d >.e S s 3+4+5+6+7+F K &+Z S q e f.f.' s f ;.;.s ;.>.;.;.< >.f Z 8+j.).9+",
"0+0+a+b+c+#.O A.M n.d+e+t.0+f+X X g+P b+a+t.c+k.C.v.G B B T p G B s.T s._.T h+T s.B o.T G i+j+k+l+b+",
"|.a n B f ;.q H.a >.s t e ;.I.>.;.S ;.t H m+;.*+>.> t ;.q >.> s >.a < >.p S R u q b a >.t S a t _.n+",
"o+e & _.f f e q s ) # f 0 s ) f f ;.0 e e ' > u ;.r s r f ' i ' # >.>.' a ;.< t > # ' a s < >.u h.S ",
"p+>.] Z s ) e f ) ) s >.r > r f s # a q ;.' i a > # # > s > s ) f s ' s a > ;.;.r > _+> O.S < v q+y ",
">.# a u L.) f f.' f (+s ) >.> ;.s f > < r f.r ' # f.> f i f > > ;.s > ;.Z ;.f s I.>.4 6.~+= < v *+m.",
"; r 0 v ) 5.) > ) f s # f f r ) ' r+) q >.9 f.0 a f.> f > f s ' ) 9 K.) v s # ' > >.) s+t+).u q e = ",
"1 f # u+! M.f ' s f ;.9 W._+_+r > 4 <+>+f f.) f ' s s f ' f s 0 v+L.w+x+q > r s 5 W.Q.:+#+!.).e.s Y.",
"; s r k.8+y+f.r ) z+d A+~+~+= g.i.}.B+a.;.f.f.' ' ' ' s D.. 8+y+C+y++ y+i.e.f ' ~+D+/.!.X.~+X.-+E+X.",
"G v.G 0+k.E B.G _.k.C.C.F+t.0+G+H+I+J+e+G p p o.p K+p B E F+L+l.L+i.l.&+M+_.B T s.B y.x.N+ .x.O+x.j+",
"<+I = j.= h.-.P+O.m.= I x.Q+M.w C+. R+j.s q *+D.M.O.I s ).;.J g.g.c w 8+m.P.<+[ J u ).<+= h.S+&.e a ",
"j.w R+8+c ^+w w c g.c = T+U+U+U+C+%+7 t+. = c U+w c s d V+s >.).. c z+. c !.%+t+= g.W+-+-+|+<.X+W.) ",
"R+= w 8+d K 8+8+m.Y+K w &+M.U+d s Z+`+6.w g.c . s d 8+s T+r 9 . w w + . . :+7 7 j.j.. Z.6.7+G.{.R.' ",
"# d d @+O.g.w 8+= h.*+b h..+A+ @X.%+7 :+s m.. @+#+.@.@w x.m+s s + + . w 8++@.+s c j.s h.6.K+r i 5 '+",
"- M.@@#@$@d w . I a e e < ) =+7 :+%+t+@+d 8+w 7 :+t+:+%@x.8+= c s + w y++ s c s s j.m+* x &@f.0 M.. ",
"*@M.3+6.=@. -@U+).v R < < < %+%+:+:+7 Z+d M.- ;@t+6..+%@t.. = K 8+s y+M.w w w y+8+g.u+k x n.' f 5 w ",
") .+f.>@y+d M.,@_+'@e.m.d.c %+Z+%+:+:+;@C+w w M.,@!.!.# v s 8+c = c . s -@d y+s Y.)@2+v 4 _.r # r   ",
"> t O.g.j.K 8+j.K E v C.k.j.1.Z.Z.m.Y.Y.g.g.= d j.m+> >.B.K h.i.l.&+j.= K = = K W W+T+S R T ' 0 N.j.",
"s.s.s.G+!@!@~@~@{@]@X k+^@^@i+i+H+O+d+c+l+k./@M+L+_.B R y.M+0+/@H+(@G+(@G+i+~@(@g+_@:@G G R Z B y.C.",
"<@i S+O ( * v d.a >.] I L -.d.k.F t J K+u f ;.< = > ;.> t !.# s > b ;.s v t < e e ;.;.X.=+W.I.{ [@}@",
"{ X+|@l *.% a e s s ;.t < e u+l.F t t Z q # # S s L.r # # # r 9 F.> s > t > a ;.# f 9 -+Z.!.f 1@2@3@",
"3@4@5@n ^.4.t r 0 a m+s S e k.l.&+e > q e f.# f f 0 f s f ' -.s a > r s u s >.t s > s ;+@+@+L.6@7@8@",
"9@0@a@m 3.& a # s ;.a e ] < i.&+= # 0 a |.0 { r f 0 t > # >.s f > # # # S > ' ) > ;.!.%+%+@+3@5.{ 3@",
"5.0@a@( [@-.0 ) s >.>.;.e < i.g.j.> 0 > '@'+5.) >.) r # ' r r f.' 9 f.r+Z f # # s # ' t+;@U.0@0@4@8@",
"3@4@b@3 [@{.s ' r f # f ;.e h.s = > > ] [.E.9@s ) (+# # # s s 0 L.c@.+r+[ [ f ) r > # :+%+f.0@0@|@d@",
"3@5.e@3 {.3@D.f >.f # ;.;.> m+j.s { ^.& t N.0 { ^.<.) a f ) r L.0 f.U.%+h.e ' ~.|.=+Q.f@`+5 5.0@a@9@",
"g@A.l N A.v G T s.B A s.h+q.0+H+0+B.n.N B T A O A.q._._.G G o.d+h@i@j@k@l@m@i@n@A.k+q.F l.o@m ` n O ",
"p@] & Y % =.a p v e u t S a b m+b 3 t @.< >.< 3 :.H.;.t e >.f 4 (.P.X.#+(.@+6 (.{ ] 9@:.:.b j 3 4.*.",
"> s >.;.;.t v S S < e > H.a a r # >.s s e a < 3.:.-.a ;.< >.a a f > > > r f.) s s s F.q@:.K s t s $ ",
"# s >.> f t e ;.Z ;.t >.>.# # r ;.9 ;.>.> > t {.] ] > ' < >.> e ;.t s f f f s ;.;.r I.r@s@^+r s ) ; ",
"t@' a <+> < t a < ;.I.> s # r ) > ~.{ `.e >.u % 4.t r 0 *+;.> % I.H.a s ;.> f >.m+u@I ; H.v@<.<.5 ; ",
"w@; <.x@H._ ; >.z y@% z@# # ) $ R.Q.A@]+, ; [ , 1 [ > , ^ B@U.j C@<@m+>.} < } ) 4.D@K `.E@W E.F@Q.' "};
