/* XPM */
static char * W_xpm[] = {
"50 50 854 2",
"  	c #686563",
". 	c #443D3E",
"+ 	c #423C3C",
"@ 	c #453C3D",
"# 	c #574643",
"$ 	c #E4AA9C",
"% 	c #F8B4A2",
"& 	c #F6B2A2",
"* 	c #F7B3A2",
"= 	c #F7B3A1",
"- 	c #F7B3A0",
"; 	c #F7B4A2",
"> 	c #F8B3A2",
", 	c #F8B3A1",
"' 	c #F7B2A1",
") 	c #F7B2A0",
"! 	c #F6B19F",
"~ 	c #F4B19F",
"{ 	c #F4B3A2",
"] 	c #F7B8A6",
"^ 	c #F7B5A4",
"/ 	c #EEB09A",
"( 	c #F0B2A6",
"_ 	c #534E4D",
": 	c #211012",
"< 	c #1D0D10",
"[ 	c #1C0E10",
"} 	c #1E0D0F",
"| 	c #1D0D0D",
"1 	c #1D0E0E",
"2 	c #1D0D0E",
"3 	c #1D0E0F",
"4 	c #1F0C12",
"5 	c #1D0C10",
"6 	c #1D0E0D",
"7 	c #37211F",
"8 	c #E79F8A",
"9 	c #F8A892",
"0 	c #F7A891",
"a 	c #F7A892",
"b 	c #F7A993",
"c 	c #F8A894",
"d 	c #F5A993",
"e 	c #F4A892",
"f 	c #F5A893",
"g 	c #F4A792",
"h 	c #F2A791",
"i 	c #F1A791",
"j 	c #F2A590",
"k 	c #F5AB94",
"l 	c #F8AC97",
"m 	c #F2AA95",
"n 	c #F0A28F",
"o 	c #F1A895",
"p 	c #544D4B",
"q 	c #190E10",
"r 	c #1D0B0E",
"s 	c #1F0B0D",
"t 	c #1B0C0C",
"u 	c #1D0B0F",
"v 	c #1C0B0D",
"w 	c #1C0C0D",
"x 	c #1B0C0D",
"y 	c #1C0C0C",
"z 	c #1E0C0E",
"A 	c #38201E",
"B 	c #E89F8A",
"C 	c #F6A893",
"D 	c #F6A894",
"E 	c #F3A994",
"F 	c #F5A991",
"G 	c #F7A894",
"H 	c #F6A792",
"I 	c #F5A791",
"J 	c #F4A790",
"K 	c #F1A68F",
"L 	c #F0A48E",
"M 	c #F5AD9C",
"N 	c #F3AC95",
"O 	c #EEA68F",
"P 	c #EDA892",
"Q 	c #B28A82",
"R 	c #A67364",
"S 	c #A67265",
"T 	c #995C4A",
"U 	c #8C341B",
"V 	c #89361C",
"W 	c #8B361B",
"X 	c #8B351C",
"Y 	c #8B351E",
"Z 	c #782D1A",
"` 	c #1C0B0F",
" .	c #1C0D0D",
"..	c #F6A891",
"+.	c #F6A994",
"@.	c #E8907A",
"#.	c #E28166",
"$.	c #DF8169",
"%.	c #DF8267",
"&.	c #DE8268",
"*.	c #DE8167",
"=.	c #DD8167",
"-.	c #DE8367",
";.	c #DD8468",
">.	c #DD8267",
",.	c #DC8068",
"'.	c #CD836E",
").	c #A97768",
"!.	c #A87566",
"~.	c #A87A6B",
"{.	c #F8B9A7",
"].	c #F7AA94",
"^.	c #F6AB94",
"/.	c #E2876E",
"(.	c #CA4D26",
"_.	c #CA4F28",
":.	c #C95028",
"<.	c #CA5029",
"[.	c #CA4E28",
"}.	c #AD4423",
"|.	c #1B0B0D",
"1.	c #37201E",
"2.	c #E89F89",
"3.	c #F7A994",
"4.	c #DB775B",
"5.	c #C74E25",
"6.	c #C84D27",
"7.	c #C74E26",
"8.	c #C74C27",
"9.	c #C64C27",
"0.	c #C54E29",
"a.	c #C95530",
"b.	c #CA5733",
"c.	c #CA5833",
"d.	c #CA5732",
"e.	c #CA5532",
"f.	c #9F4227",
"g.	c #271819",
"h.	c #271B1B",
"i.	c #342A2A",
"j.	c #F7B7A5",
"k.	c #E3856D",
"l.	c #C84E26",
"m.	c #C84E27",
"n.	c #C74E28",
"o.	c #C84D28",
"p.	c #AB4324",
"q.	c #F5A891",
"r.	c #DA775A",
"s.	c #C74F27",
"t.	c #C74E27",
"u.	c #C64D28",
"v.	c #C54D28",
"w.	c #C44C27",
"x.	c #C95531",
"y.	c #CA5834",
"z.	c #C85330",
"A.	c #C7522E",
"B.	c #CD5835",
"C.	c #A2452A",
"D.	c #201010",
"E.	c #211313",
"F.	c #2F2524",
"G.	c #F7B8A5",
"H.	c #F6A992",
"I.	c #E3856C",
"J.	c #C94D25",
"K.	c #C94D27",
"L.	c #AA4323",
"M.	c #1B0B0C",
"N.	c #1D0C0D",
"O.	c #E79E89",
"P.	c #DA775B",
"Q.	c #C64E27",
"R.	c #C34C27",
"S.	c #C34D29",
"T.	c #CA5734",
"U.	c #C34C29",
"V.	c #C34B28",
"W.	c #C44E2A",
"X.	c #CD5733",
"Y.	c #A3472B",
"Z.	c #20100F",
"`.	c #1C0E0E",
" +	c #2A201F",
".+	c #F5A992",
"++	c #E3866C",
"@+	c #C84E25",
"#+	c #36201D",
"$+	c #E79E88",
"%+	c #DA765B",
"&+	c #C44D27",
"*+	c #C8522E",
"=+	c #C85530",
"-+	c #C44E29",
";+	c #C7522B",
">+	c #C34F2A",
",+	c #CB5834",
"'+	c #C54E2A",
")+	c #C24C28",
"!+	c #C24C29",
"~+	c #CA5330",
"{+	c #A4482C",
"]+	c #211110",
"^+	c #2B1F1F",
"/+	c #36201E",
"(+	c #F4A690",
"_+	c #D8765C",
":+	c #C44E28",
"<+	c #CC5631",
"[+	c #C95733",
"}+	c #C6512D",
"|+	c #C85430",
"1+	c #C95632",
"2+	c #C5502C",
"3+	c #C54F2C",
"4+	c #CD5632",
"5+	c #A5482C",
"6+	c #1E0F0E",
"7+	c #F3A691",
"8+	c #F4A894",
"9+	c #D9795E",
"0+	c #C34E27",
"a+	c #C6512C",
"b+	c #C95833",
"c+	c #CB5935",
"d+	c #CB5835",
"e+	c #CE5835",
"f+	c #A14327",
"g+	c #1C0C0B",
"h+	c #E69D89",
"i+	c #F3A792",
"j+	c #F7AD9A",
"k+	c #DE7E65",
"l+	c #C6532D",
"m+	c #C6502D",
"n+	c #C8542F",
"o+	c #C24E29",
"p+	c #C7542F",
"q+	c #CA5632",
"r+	c #CA522E",
"s+	c #9D3D21",
"t+	c #2A1F1F",
"u+	c #E69E8A",
"v+	c #F6AC96",
"w+	c #F8AF9B",
"x+	c #DA7C62",
"y+	c #C34D2A",
"z+	c #C7522D",
"A+	c #CB5733",
"B+	c #C85431",
"C+	c #C34D28",
"D+	c #C44D28",
"E+	c #C74D27",
"F+	c #A03E21",
"G+	c #1B0D0C",
"H+	c #1C0D0E",
"I+	c #C84E28",
"J+	c #36211E",
"K+	c #E7A18D",
"L+	c #F7AD97",
"M+	c #F6AB97",
"N+	c #D5755A",
"O+	c #C14C27",
"P+	c #C34E29",
"Q+	c #CB5833",
"R+	c #CA5835",
"S+	c #C64F2B",
"T+	c #C54D29",
"U+	c #C84E29",
"V+	c #9F3E20",
"W+	c #1C0D0C",
"X+	c #2B201F",
"Y+	c #E8A28D",
"Z+	c #F3A995",
"`+	c #D7775C",
" @	c #C7532F",
".@	c #C95533",
"+@	c #C5512C",
"@@	c #C8532E",
"#@	c #C94E28",
"$@	c #E6A18C",
"%@	c #F8AF9A",
"&@	c #DD7E64",
"*@	c #CB5735",
"=@	c #C54F2A",
"-@	c #C54E28",
";@	c #C74D28",
">@	c #AB4424",
",@	c #381F1D",
"'@	c #E49C8A",
")@	c #F2A992",
"!@	c #F5AF9A",
"~@	c #C6542F",
"{@	c #C35029",
"]@	c #C44F2A",
"^@	c #C44D26",
"/@	c #C64E28",
"(@	c #CA4E27",
"_@	c #9F3D1F",
":@	c #1D0C0E",
"<@	c #321D17",
"[@	c #C18A7A",
"}@	c #D1917E",
"|@	c #D19181",
"1@	c #C56B53",
"2@	c #C5502B",
"3@	c #A94323",
"4@	c #1C0C11",
"5@	c #180A09",
"6@	c #18070A",
"7@	c #150909",
"8@	c #973B20",
"9@	c #C4522B",
"0@	c #C74D26",
"a@	c #C54C27",
"b@	c #A94425",
"c@	c #1F0F12",
"d@	c #201011",
"e@	c #1F0E10",
"f@	c #1E0C0F",
"g@	c #1A0A0D",
"h@	c #993B1F",
"i@	c #C7532D",
"j@	c #C95832",
"k@	c #C64E29",
"l@	c #9D3E1F",
"m@	c #C84F27",
"n@	c #C44C28",
"o@	c #C24D24",
"p@	c #C14B26",
"q@	c #AB492D",
"r@	c #3E2A28",
"s@	c #402A2A",
"t@	c #392724",
"u@	c #221316",
"v@	c #1D0C0B",
"w@	c #180D0E",
"x@	c #98391D",
"y@	c #C04C2A",
"z@	c #C4512A",
"A@	c #C24F2C",
"B@	c #C04C28",
"C@	c #C24C27",
"D@	c #C24C26",
"E@	c #C34D27",
"F@	c #C34D26",
"G@	c #993D1E",
"H@	c #C84F28",
"I@	c #87341B",
"J@	c #4B1B13",
"K@	c #50241A",
"L@	c #794D45",
"M@	c #DE9C8B",
"N@	c #DE9B8A",
"O@	c #D29A86",
"P@	c #503833",
"Q@	c #1C0D0F",
"R@	c #1D0C0C",
"S@	c #3C1810",
"T@	c #491B14",
"U@	c #4B1D11",
"V@	c #4B1C11",
"W@	c #491B11",
"X@	c #4A1C11",
"Y@	c #4A1C12",
"Z@	c #4B1D12",
"`@	c #4C1C12",
" #	c #4C1D11",
".#	c #3D1711",
"+#	c #1C0E0D",
"@#	c #C84D26",
"##	c #CB4C29",
"$#	c #7D3019",
"%#	c #200C0E",
"&#	c #2A1B1B",
"*#	c #704C43",
"=#	c #F2A692",
"-#	c #F3AC97",
";#	c #E8A48F",
">#	c #553933",
",#	c #1F0F0E",
"'#	c #1C0C0E",
")#	c #1E0D0E",
"!#	c #1E0D0D",
"~#	c #1D0C0F",
"{#	c #1E0C0D",
"]#	c #1C0C0F",
"^#	c #C54D27",
"/#	c #C94E29",
"(#	c #7C3018",
"_#	c #1B0D0E",
":#	c #291C1D",
"<#	c #745047",
"[#	c #F8AE98",
"}#	c #F7AC9A",
"|#	c #E2A089",
"1#	c #513530",
"2#	c #231818",
"3#	c #1E0F11",
"4#	c #190A0E",
"5#	c #180A0B",
"6#	c #1A090B",
"7#	c #19090D",
"8#	c #18090B",
"9#	c #180A0C",
"0#	c #18090C",
"a#	c #19090C",
"b#	c #1A090D",
"c#	c #1A0B0A",
"d#	c #C74E29",
"e#	c #C64D27",
"f#	c #C8502B",
"g#	c #7D321C",
"h#	c #261818",
"i#	c #744F49",
"j#	c #F9AE9A",
"k#	c #F3A794",
"l#	c #EEA38E",
"m#	c #C48C7A",
"n#	c #BD887A",
"o#	c #BB8070",
"p#	c #BA806F",
"q#	c #BC8070",
"r#	c #BC8171",
"s#	c #BB8170",
"t#	c #BB8273",
"u#	c #926558",
"v#	c #C64F2A",
"w#	c #CA5531",
"x#	c #CA5631",
"y#	c #CE5935",
"z#	c #833A25",
"A#	c #291A1B",
"B#	c #251415",
"C#	c #744F48",
"D#	c #F8AE99",
"E#	c #F7AC98",
"F#	c #F6AD97",
"G#	c #F6AC99",
"H#	c #F5A995",
"I#	c #F0A68D",
"J#	c #F4A692",
"K#	c #F5A793",
"L#	c #F5A792",
"M#	c #F6A791",
"N#	c #C28372",
"O#	c #C6502B",
"P#	c #C95631",
"Q#	c #CC5835",
"R#	c #CC5834",
"S#	c #833A24",
"T#	c #2A1B1C",
"U#	c #2C1A1B",
"V#	c #6F4941",
"W#	c #F4AC97",
"X#	c #F1A591",
"Y#	c #F7A493",
"Z#	c #F4A791",
"`#	c #C48372",
" $	c #1A0C0D",
".$	c #7B301A",
"+$	c #28181A",
"@$	c #6F4B42",
"#$	c #F0A68F",
"$$	c #F1A490",
"%$	c #F0A591",
"&$	c #EA9680",
"*$	c #EA977D",
"=$	c #EA967F",
"-$	c #EC9782",
";$	c #EC9681",
">$	c #ED9682",
",$	c #EC967F",
"'$	c #ED9881",
")$	c #BA7864",
"!$	c #FBB6AA",
"~$	c #F6A991",
"{$	c #E1856C",
"]$	c #C94C25",
"^$	c #C34F2B",
"/$	c #CC5734",
"($	c #C75634",
"_$	c #7C3118",
":$	c #201012",
"<$	c #2A1A1C",
"[$	c #714D43",
"}$	c #F1A48F",
"|$	c #EFA28A",
"1$	c #CB5C38",
"2$	c #C64D26",
"3$	c #C84D25",
"4$	c #F7B6A7",
"5$	c #F4A993",
"6$	c #E1856D",
"7$	c #C64E26",
"8$	c #CA4D29",
"9$	c #C55027",
"0$	c #C94D29",
"a$	c #C74F26",
"b$	c #C14D27",
"c$	c #C44F2D",
"d$	c #CC5933",
"e$	c #CD5435",
"f$	c #7C331E",
"g$	c #231311",
"h$	c #2A1B1E",
"i$	c #704C44",
"j$	c #F1A28C",
"k$	c #CC5D3B",
"l$	c #C84F26",
"m$	c #CA4F26",
"n$	c #EBB1A1",
"o$	c #E99F8B",
"p$	c #E8A28B",
"q$	c #D48066",
"r$	c #C14A27",
"s$	c #BE4C25",
"t$	c #C24B28",
"u$	c #C65026",
"v$	c #C94C28",
"w$	c #C8532F",
"x$	c #CA5431",
"y$	c #C6522C",
"z$	c #BD4D28",
"A$	c #C45333",
"B$	c #C65632",
"C$	c #843D29",
"D$	c #3D2B29",
"E$	c #3F2C27",
"F$	c #744E43",
"G$	c #F0A38C",
"H$	c #F0A18B",
"I$	c #F19E85",
"J$	c #CD5C3C",
"K$	c #CA4D27",
"L$	c #CA4F27",
"M$	c #6E5E5A",
"N$	c #563631",
"O$	c #55362E",
"P$	c #4E2A22",
"Q$	c #451A11",
"R$	c #471A11",
"S$	c #5F2512",
"T$	c #CA4E2E",
"U$	c #C54F25",
"V$	c #CC5833",
"W$	c #C65733",
"X$	c #612A1E",
"Y$	c #491F16",
"Z$	c #4B261D",
"`$	c #AD7C72",
" %	c #E7A38D",
".%	c #E79E8C",
"+%	c #DB8E7A",
"@%	c #CD5A3B",
"#%	c #CC5C3D",
"$%	c #CC5B3A",
"%%	c #C94F29",
"&%	c #534F4B",
"*%	c #1D0E13",
"=%	c #471D10",
"-%	c #C54E26",
";%	c #C8522C",
">%	c #C7522C",
",%	c #C25430",
"'%	c #C7552F",
")%	c #522720",
"!%	c #221211",
"~%	c #1D0F0F",
"{%	c #B98371",
"]%	c #F2A893",
"^%	c #F0A590",
"/%	c #E8967C",
"(%	c #514D4C",
"_%	c #1B0B11",
":%	c #19080B",
"<%	c #19090B",
"[%	c #4C1C11",
"}%	c #C9502C",
"|%	c #CF5733",
"1%	c #CE5A34",
"2%	c #CC5430",
"3%	c #C84F2B",
"4%	c #C74E2A",
"5%	c #CC5633",
"6%	c #D05A38",
"7%	c #C9522F",
"8%	c #C6522B",
"9%	c #51281E",
"0%	c #201614",
"a%	c #17090B",
"b%	c #B37C6C",
"c%	c #EE9680",
"d%	c #CB998D",
"e%	c #C28673",
"f%	c #C48672",
"g%	c #C38775",
"h%	c #C38674",
"i%	c #C28574",
"j%	c #AB7766",
"k%	c #6B2D1A",
"l%	c #6B2818",
"m%	c #732F1F",
"n%	c #743524",
"o%	c #733322",
"p%	c #6F2D1C",
"q%	c #6B2817",
"r%	c #70301D",
"s%	c #753624",
"t%	c #70301E",
"u%	c #6B2915",
"v%	c #692A19",
"w%	c #6C3224",
"x%	c #B68074",
"y%	c #C28879",
"z%	c #BF8373",
"A%	c #CA7760",
"B%	c #D67255",
"C%	c #D47055",
"D%	c #D3684E",
"E%	c #C94E27",
"F%	c #F5B9A6",
"G%	c #F4A891",
"H%	c #F6A691",
"I%	c #F4A590",
"J%	c #D79482",
"K%	c #2C1718",
"L%	c #241616",
"M%	c #291A1A",
"N%	c #221413",
"O%	c #201110",
"P%	c #281A19",
"Q%	c #291B1A",
"R%	c #261817",
"S%	c #251616",
"T%	c #3F2927",
"U%	c #DF9F88",
"V%	c #F3A791",
"W%	c #D87A5F",
"X%	c #F6B8A4",
"Y%	c #F7A996",
"Z%	c #F5A894",
"`%	c #F2A691",
" &	c #D59582",
".&	c #2A1816",
"+&	c #281918",
"@&	c #281A1A",
"#&	c #221313",
"$&	c #211212",
"%&	c #281C1B",
"&&	c #3F2926",
"*&	c #DE9C8A",
"=&	c #F2A58F",
"-&	c #F5A795",
";&	c #D97B61",
">&	c #C74F29",
",&	c #EEA593",
"'&	c #E9937C",
")&	c #E9927A",
"!&	c #E9927B",
"~&	c #E8927B",
"{&	c #E7927A",
"]&	c #D38670",
"^&	c #85594D",
"/&	c #84564B",
"(&	c #865B50",
"_&	c #895E53",
":&	c #86594E",
"<&	c #84574C",
"[&	c #895C52",
"}&	c #895D52",
"|&	c #875B50",
"1&	c #82554B",
"2&	c #83564C",
"3&	c #85594E",
"4&	c #7F594F",
"5&	c #B67F71",
"6&	c #C78A73",
"7&	c #C78978",
"8&	c #C66A50",
"9&	c #D0735B",
"0&	c #C65027",
"a&	c #D05F3F",
"b&	c #F8AD98",
"c&	c #F1A590",
"d&	c #F0A38E",
"e&	c #F4A893",
"f&	c #F9AD99",
"g&	c #E8A08F",
"h&	c #583A32",
"i&	c #1B090B",
"j&	c #943B20",
"k&	c #C94D26",
"l&	c #C84D29",
"m&	c #C54F28",
"n&	c #CE5E41",
"o&	c #F0A68E",
"p&	c #F2A28F",
"q&	c #F3AC93",
"r&	c #F6AD99",
"s&	c #F1A792",
"t&	c #EDA38D",
"u&	c #EEA48E",
"v&	c #F2A994",
"w&	c #F8AC9A",
"x&	c #F2A68F",
"y&	c #E9A28D",
"z&	c #593931",
"A&	c #180B0C",
"B&	c #963B1E",
"C&	c #CF735A",
"D&	c #C74F28",
"E&	c #C74D2A",
"F&	c #CA5E42",
"G&	c #ED9F88",
"H&	c #EF9D89",
"I&	c #EEA38B",
"J&	c #F4A691",
"K&	c #F0A18C",
"L&	c #EFA18B",
"M&	c #F3A692",
"N&	c #F3A893",
"O&	c #F0A48B",
"P&	c #F2A593",
"Q&	c #F3A68E",
"R&	c #EAA28D",
"S&	c #5A3932",
"T&	c #190B0D",
"U&	c #973B1E",
"V&	c #CF745B",
"W&	c #CB532F",
"X&	c #CC5733",
"Y&	c #C95A37",
"Z&	c #C55434",
"`&	c #C45633",
" *	c #CA5D3B",
".*	c #CD613F",
"+*	c #CD603F",
"@*	c #CC603F",
"#*	c #CE603D",
"$*	c #CB5B3A",
"%*	c #CE6546",
"&*	c #F3A68F",
"**	c #EAA38E",
"=*	c #C44E27",
"-*	c #C7502C",
";*	c #C7522F",
">*	c #C95532",
",*	c #C7512E",
"'*	c #C44F2B",
")*	c #CF5E3D",
"!*	c #F4A994",
"~*	c #C64D29",
"{*	c #CA5630",
"]*	c #C44F29",
"^*	c #C54C29",
"/*	c #C45025",
"(*	c #CE5F41",
"_*	c #F7AB95",
":*	c #EBA392",
"<*	c #593B34",
"[*	c #1F0E0F",
"}*	c #983B1F",
"|*	c #CA4E2A",
"1*	c #C64F28",
"2*	c #C64C28",
"3*	c #C6512B",
"4*	c #C6522E",
"5*	c #C7512C",
"6*	c #C74D29",
"7*	c #C54F26",
"8*	c #CC5330",
"9*	c #D67254",
"0*	c #D77056",
"a*	c #D77259",
"b*	c #CA8671",
"c*	c #C98C78",
"d*	c #CB8C7B",
"e*	c #915B4D",
"f*	c #6E2B19",
"g*	c #6E2918",
"h*	c #83311D",
"i*	c #C64F29",
"j*	c #C74C29",
"k*	c #CA5530",
"l*	c #CB5734",
"m*	c #C7512D",
"n*	c #C64F26",
"o*	c #EF9D86",
"p*	c #F8AB95",
"q*	c #97665A",
"r*	c #1E0D10",
"s*	c #5C2313",
"t*	c #C94F27",
"u*	c #C74C28",
"v*	c #C6502C",
"w*	c #CB5430",
"x*	c #EF9E87",
"y*	c #F6A793",
"z*	c #98665B",
"A*	c #1F0C0E",
"B*	c #5D2312",
"C*	c #CC5028",
"D*	c #CA4F29",
"E*	c #CB4E27",
"F*	c #A13D1F",
"G*	c #D0745B",
"H*	c #C75027",
"I*	c #F09E87",
"J*	c #F6A892",
"K*	c #F7AB94",
"L*	c #99675B",
"M*	c #481A13",
"N*	c #993A1F",
"O*	c #993A1D",
"P*	c #993A1E",
"Q*	c #993C1D",
"R*	c #7A2E1A",
"S*	c #D1745C",
"T*	c #C75028",
"U*	c #C94F28",
"V*	c #99675A",
"W*	c #1D0B0B",
"X*	c #1A0D0E",
"Y*	c #D2735C",
"Z*	c #CB5530",
"`*	c #C9512D",
" =	c #F19E87",
".=	c #1F0C10",
"+=	c #1F0D0E",
"@=	c #1B0D10",
"#=	c #1D0D12",
"$=	c #2B2120",
"%=	c #D27B65",
"&=	c #CB5A32",
"*=	c #CA5838",
"==	c #C95935",
"-=	c #C85835",
";=	c #C85936",
">=	c #C75835",
",=	c #C95835",
"'=	c #C95936",
")=	c #CC5934",
"!=	c #CB5F3F",
"~=	c #F2A18B",
"{=	c #F8B09C",
"]=	c #9B6D63",
"^=	c #2C1E20",
"/=	c #2D1E21",
"(=	c #2D1E20",
"_=	c #2E1E20",
":=	c #2B2122",
"<=	c #352E2E",
"  . + @ @ @ @ @ @ @ @ @ @ @ @ @ @ @ @ @ @ @ @ @ @ @ @ @ @ # $ % & * = - ; > > , , ' ) ! ~ { ] ^ / ( ",
"_ : < [ } | 1 2 2 2 2 2 2 2 2 2 2 2 2 2 2 2 2 2 2 3 4 5 6 7 8 9 0 a b a c d d e f g h i j k l m n o ",
"p q r s t u v w w w w w w w w w w w w w w w w w w r x y z A B a C D C E F G C C H I J K L m M N O P ",
"Q R S T U V W X X X X X X X X X X X X X X X X X X Y Z `  .A 8 ..+.@.#.$.%.&.&.*.=.=.-.;.>.,.'.).!.~.",
"{.].^./.(._.:.<.<.<.<.<.<.<.<.<.<.<.<.<.<.<.<.<.<.[.}.|.| 1.2...3.4.5.6.7.6.8.9.0.a.b.c.d.e.f.g.h.i.",
"j.G d k.l.m.n.m.m.m.m.m.m.m.m.m.m.m.m.m.m.m.m.m.m.o.p.|.| 1.2.q.b r.s.o.t.u.v.w.x.y.z.A.b.B.C.D.E.F.",
"G.G H.I.J.K.m.m.m.m.m.m.m.m.m.m.m.m.m.m.m.m.m.m.m.o.L.M.N.1.O.I C P.Q.u.0.0.R.S.T.T.U.V.W.X.Y.Z.`. +",
"G.G .+++@+l.s.m.m.m.m.m.m.m.m.m.m.m.m.m.m.m.m.m.m.o.L.M.N.#+$+I C %+&+*+=+-+;+>+d.,+'+)+!+~+{+]+ .^+",
"G.G .+I.l.m.s.m.m.m.m.m.m.m.m.m.m.m.m.m.m.m.m.m.m.o.p.|.| /+O.(+C _+:+<+,+[+,+}+|+y.1+2+3+4+5+6+2  +",
"G.G .+I.l.m.s.m.m.m.m.m.m.m.m.m.m.m.m.m.m.m.m.m.m.o.p.|.| 1.$+7+8+9+0+a+b+y.b.S.-+1+c+y.d+e+f+g+2  +",
"G.G .+I.l.m.s.m.m.m.m.m.m.m.m.m.m.m.m.m.m.m.m.m.m.o.p.|.| #+h+i+j+k+l+m+,+,+,+n+)+o+p+q+x.r+s+g+| t+",
"G.G .+I.l.m.s.m.m.m.m.m.m.m.m.m.m.m.m.m.m.m.m.m.m.o.p.|.| /+u+v+w+x+>+y+m+z+A+y.B+2+z+C+D+E+F+G+H+ +",
"G.G .+I.l.m.s.m.m.m.m.m.m.m.m.m.m.m.m.m.m.m.m.m.m.I+p.|.| J+K+L+M+N+O+y+P+S.a+Q+R+R+c.S+T+U+V+W+2 X+",
"G.G .+I.l.m.s.m.m.m.m.m.m.m.m.m.m.m.m.m.m.m.m.m.m.I+p.|.| J+Y+L+Z+`+ @.@[+1++@}+d.c.@@T+u.#@V+W+2 X+",
"G.G .+I.l.m.s.m.m.m.m.m.m.m.m.m.m.m.m.m.m.m.m.m.m.I+p.|.| J+$@L+%@&@c+*@,+y.1+P+0.=@-@;@E+[.V+G+H+X+",
"G.G .+I.l.m.s.m.m.m.m.m.m.m.m.m.m.m.m.m.m.m.m.m.m.I+>@|.2 ,@'@)@!@&@~@m+{@1+,+]@^@v./@n.m.(@_@W+2 X+",
"G.G .+I.l.m.s.m.m.m.m.m.m.m.m.m.m.m.m.m.m.m.m.m.m.m.L.w :@<@[@}@|@1@&+V.2@c.q+W.u.;@m.m.I+[._@g+2 X+",
"G.G .+I.l.m.s.m.m.m.m.m.m.m.m.m.m.m.m.m.m.m.m.m.m.;@3@M.v 4@5@6@7@8@v.9@A+y.A.T+E+m.m.m.I+[._@g+2 X+",
"G.G .+I.l.m.s.m.m.m.m.m.m.m.m.m.m.m.m.m.m.m.m.m.0@a@b@c@d@e@N.f@g@h@i@j@T.z.0.v.k@U+U+U+n.m.l@g+2 X+",
"G.G .+I.l.m.s.m.m.m.m.m.m.m.m.m.m.m.m.m.m.m.m@n@o@p@q@r@s@t@u@v@w@x@y@z@A@B@O+C@C@D@R.E@F@w.G@u 2 X+",
"G.G .+I.l.m.s.m.m.m.m.m.m.m.m.m.m.m.m.m.m.I+H@I@J@K@L@M@N@O@P@Q@R@S@T@U@V@W@X@X@X@Y@Y@Z@`@ #.#G++#X+",
"G.G .+I.l.m.s.m.m.m.m.m.m.m.m.m.m.m.m.m.m.@###$#%#&#*#=#-#;#>#,#'#)#!#v@~#{#N.N.{#{#N.N.z w f@]#| X+",
"G.G .+I.l.m.s.m.m.m.m.m.m.m.m.m.m.m.n.u.u.^#/#(#_#:#<#[#}#|#1#2#3#4#5#6#7#8#8#9#9#0#0#0#a#b#c# .| X+",
"G.G .+I.l.m.s.m.m.m.m.m.m.m.m.m.6.d#0.e#e#n@f#g#3 h#i#j#k#l#m#n#o#p#o#q#r#r#r#r#r#r#r#r#s#t#u#w | X+",
"G.G .+I.l.m.s.m.m.m.m.m.m.m.m.t.v#w#x#-+P+w#y#z#A#B#C#D#E#F#G#H#I#7+J#K#K#L#L#L#L#L#L#L#M#H N#g+| X+",
"G.G .+I.l.m.s.m.m.m.m.m.m.m.m.t.O#A+y.P#P#Q#R#S#T#U#V#v+E#W#E X#Y#Z#Z#L#L#q.q.q.q.q.q.q.q.b `# $2 X+",
"G.G H.k.@#m.s.m.m.m.m.m.m.m.I+E+v.O#b+y.y.=+-+.$+$T#@$#$$$%$&$*$=$-$;$;$>$;$;$;$;$;$;$;$,$'$)$G+ .X+",
"!$f ~${$]$I+m@E+s.l.t.m.m.I+;@v.v.E@^$/$d+($]@_$:$<$[$J }$|$1$2$0@3$3$3$3$3$3$3$3$3$3$3$3$3$_@g+2 X+",
"4$5$q.6$3$7$8$9$0$m.a$m.m.m.;@v.&+C+b$c$j@d$e$f$g$h$i$i+7+j$k$l$U+m.m.m.m.m.m.m.m.m.m.m.l.m$V+g+2 X+",
"n$o$p$q$r$s$t$@+u$v$s.m.E+u.v.'+w$P#x$y$z$A$B$C$D$E$F$G$H$I$J$K$t.m.m.m.m.m.m.m.m.m.m.m.l.L$V+g+2 X+",
"M$N$O$P$Q$R$S$T$U$;@E+u.v.D+]@x.d+R+V$W$X$Y$Z$`$ %.%+%@%#%$%%%t.6.m.m.m.m.m.m.m.m.m.m.m.l.(@V+g+2 X+",
"&%*%2 w y :@=%[.-%S+;%^#a@^@>%d$|+^$,%'%)%!%~%{%]%^%/%0@I+#@m.m.m.m.m.m.m.m.m.m.m.m.m.m.m.[.V+g+2 X+",
"(%_%:%<%<%b#[%m$}%|%1%2%3%4%5%6%7%d#;@8%9%0%a%b%=#f c%Q.0@m.m.m.m.m.m.m.m.m.m.m.m.m.m.m.m.[.V+g+2 X+",
"d%e%f%g%h%i%j%k%l%m%n%o%p%q%r%s%t%u%v%w%x%y%z%A%B%C%D%7$E%m.m.m.m.m.m.m.m.m.m.m.m.m.m.m.m.[.V+g+2 X+",
"F%G%M#H H%I%J%K%~#< L%&#M%N%O%P%Q%R%S%T%U%V%J#W%/#s.l.l.6.m.m.m.m.m.m.m.m.m.m.m.m.m.m.m.m.[.V+g+2 X+",
"X%Y%D K#Z%`% &.&v 2 +&@&M%@&#&$&@&M%%&&&*&=&-&;&@#>&m.m.m.m.m.m.m.m.m.m.m.m.m.m.m.m.m.m.m.[.V+g+2 X+",
",&'&)&!&~&{&]&^&/&(&_&:&<&[&}&|&1&2&3&4&5&6&7&8&l.d#m.m.m.m.m.m.m.m.m.m.m.m.m.m.m.m.m.m.m.[.V+g+2 X+",
"9&0&;@;@u.e#a&h I%v+b&c&d&e&f&f&e&}$j g&h&u i&j&s.k&m.m.m.m.m.m.m.m.m.m.m.m.m.m.m.m.m.m.m.[.V+g+2 X+",
"9&I+l&k@m&^#n&o&p&q&r&s&t&u&v&w&v+}$x&y&z&N.A&B&o.l.m.m.m.m.m.m.m.m.m.m.m.m.m.m.m.m.m.m.m.[.V+g+2 X+",
"C&D&E&x$d.*+F&G&H&I&g J&K&L&M&N&O&P&Q&R&S&N.T&U&o.l.m.m.m.m.m.m.m.m.m.m.m.m.m.m.m.m.m.m.m.[.V+g+2 X+",
"V&/@W&y.y.,+X&Y&Z&`& *.*+*@*#*$*%*F &***S&N.T&U&o.l.m.m.m.m.m.m.m.m.m.m.m.m.m.m.m.m.m.m.m.[.V+g+2 X+",
"V&=*-*y.P#=+y.y.R#;*>+A.P#>*,*'*)*!*&***S&N.T&U&o.l.m.m.m.m.m.m.m.m.m.m.m.m.m.m.m.m.m.m.m.[.V+g+2 X+",
"C&-@~*{*y.^$=@d.y.y.T. @]*F@^*/*(*_*L#:*<*[*6 }*k&|*(@n.6.m.m.m.m.m.m.m.m.m.m.m.m.m.m.m.m.[._@g+2 X+",
"C&1*2*3*Q+B+4*b.b.1+c.Q+5*v.6*7*8*9*0*a*b*c*d*e*f*g*h*(@4%m.m.m.m.m.m.m.m.m.m.m.m.m.m.m.m.[._@g+2 X+",
"C&i*j*D+k*b.y.l*a+C+O#m*D+;@e#t.m@n*m@2%o*M#p*q*r*R@s*t*U+E%m.m.m.m.m.m.m.m.m.m.m.m.m.m.m.[._@g+2 X+",
"V&>&u*v.O#y.y.v*&+^@u.;@;@n.Q.K.s.I+t.w*x*y*^.z*Q@A*B*C*H@[.D*D*D*D*D*D*D*D*D*D*D*D*D*D*#@E*F*W+H+X+",
"G*H*Q.-@T+q+,+a+w.v.u.I+m.m.m.m.m.m.t.w*I*J*K*L*|  .M*h@N*O*P*P*P*P*P*P*P*P*P*P*P*P*P*P*O*Q*R*N. . +",
"S*T*/@d#v.*+Q#1+k@E+I+U*U*m.m.m.m.E%t.w*I*J*K*V*|  .w |.|.w w w w w w w w w w w w w w w W*]#X*R@ . +",
"Y*:./#6.I+k@Z*`*E+6.E%E%E%E%E%E%E%E%E%2% =J*p*L*1 .=~#+=@=1 1 1 1 1 1 1 1 1 1 1 1 1 1 1 `.)#| #=3 $=",
"%=&=*===-=-=;=>=,=,=-==='='='='='='=)=!=~=r&{=]= +^=^=^=/=(=(=(=(=(=(=(=(=(=(=(=(=(=(=(=^=_=^=/=:=<="};
