/* XPM */
static char * brick_wall_xpm[] = {
"50 50 36 1",
" 	c #919191",
".	c #939393",
"+	c #909090",
"@	c #8C8C8C",
"#	c #949494",
"$	c #989898",
"%	c #9C9C9C",
"&	c #9A9A9A",
"*	c #8F8F8F",
"=	c #959595",
"-	c #969696",
";	c #929292",
">	c #8E8E8E",
",	c #999999",
"'	c #9F9F9F",
")	c #A1A1A1",
"!	c #9D9D9D",
"~	c #A0A0A0",
"{	c #8D8D8D",
"]	c #A3A3A3",
"^	c #9E9E9E",
"/	c #9B9B9B",
"(	c #A4A4A4",
"_	c #A2A2A2",
":	c #A6A6A6",
"<	c #A5A5A5",
"[	c #A9A9A9",
"}	c #A8A8A8",
"|	c #979797",
"1	c #A7A7A7",
"2	c #888888",
"3	c #8B8B8B",
"4	c #ACACAC",
"5	c #ABABAB",
"6	c #8A8A8A",
"7	c #898989",
" .+@#.$%&$#*=--; #.>>==,')!,~%,$- -;-$--,,$$=&;--;",
". @*+-,,,-# &=#*;#+{*.$']!^!~)/,&=.=#==&/&%'$'.->;",
",/,&~]]()^^%_%&$&,!&,_]:<<<[})'~!~!/,'))~()_)]!&,,",
"/%%}^^%'/^^'''^%/!!!<|$$|/-$$&&,&&/%(]'/'%^')!&|$&",
",,,:/$&|&%&$,$,,=#$$]##.=-.#.====/|&~)|&=&&&,-$;=-",
"$&!<-.$&&,,==&$$,,=$(,=---,$$=|;#|,^''*=&%&,==,= .",
"$=,) =-%&&&|/&%&&&||_$,-$/%-&&-+==|#!%.-&&%/,/$=+#",
"#=&~$-$&|&/&/$&%^%&&]/%-$&|,&|#=-##$&^--&&,&,|-=.-",
"#$&!=|-$$&/$$/%!%!%,]$&$/,|#$-.;+#-&$!--$|&&,|-;  ",
"|=&)-=&,,^,,$,%/^!&=)''!%/&&$|;$=-==!!#,&,%/&|#+,.",
"&$^]$%'!/)'%/|~!&%''<_<<]__!^,^/&%$%')&!~&~^'&/%&/",
"_]]_~<]1(()<(~]<_((__!]:((_<<__(_()~(__(<]:)(<!))<",
"#=.;+* .;. ;&+=&|=##=-|&&&||$=>>;**  ; *; .;.& =-/",
"--$+;  ;;# *&#-$--||==,%%&&|&=2***+* ;;+##. *&#=$=",
"-==.+;=-|==.&#-,$-||$,&!&&-|$|@;;;=-.+;=#|=#.%+-$|",
"##+.#|#===+ & |/-.-+#&&'%%,|/&*+**;#..|-.#=+*!+=/$",
"..# *#;$|&|=&=#==;=$,/,/'!/!$&{;...#;*;.$-|#.&.=-#",
"#-,$|&/!%~'&&# #|#=/,&!%!!&/!/*#..;&=|.-#--=#&;#;=",
"$.||,%~^!/%!!#|&!=.$$-'^,&^!/&++;==$$=$|$$%|=^.|,%",
"((::<<<(_<_]<(:}}1[::<<~)]_]]()_]((()(:((]<(_}]11:",
"$,^]=$/|,|=&&$=|$!$&%|$/|-&$/|-=|,%|)!~%/,,|&!,&)'",
"&&%)==&/= #=+= ==$+&&;-%$.=.=;.;#||;,$%&-#;,=%|%%!",
"/|,^= &=  =|.-.==#,/$;.,-##-=-= ==;=,-$$.-#--!%'~/",
"|#,%* =+;=#= |-$==-%.+.;#+-=.=--$=-$^$===|-#|$%'/&",
"=.+' * - ==#==. ;@ /|*++,+-=-==; *> '=#;-| *;,%/&$",
"$=#'>*=;==$*.##.--|!=+ =;===;==+;*{3/-.=;. ..=,%=|",
"==.~.*+. ##-||$$/$&^$++;;;;=#..*>*+*/%=;|-.=-|-=--",
"_]_(~)(_)~))~<([<1[]_))<)~)])~'!'/!&_)]((]__]^___]",
"|$$|$%->-&$$_+*;>..|=//#*-$=,$&$$-;.&;|,&%,|$%;$&,",
"|;..-,;;-$-$'   >+ ;.$- ;-=#!=|,.-#.-=+;$$/==!... ",
".$;.#,..&-,;&* #=+>#;$-.=#.='.*.;;+...  ||.|#' #;;",
"####-$;.$%/,%+- -+ .=&.#.  ;_|==++.;.#+=-|=%#~..;{",
"**==;#;.$,&&% ; .+;##.; .;.|_.$-=+;*+=-==||&,(++*.",
";*.#{.@ ,'~%%%++.. +#***;#+|<.$,.=**;;;*.$'',<;=;;",
" ++>*#*{#/%&/-+++..*>;;*{==#'=.-$-.=@#*=|$!'-).#. ",
"-&-$|,.|,)')~|,||&||$$$#||-|(,%/!&|$,$$,,/'!~(;+ |",
"((([4455[[}111}}<__<1~(_')]~__((<:[:[}5:1(<__~^]_)",
"-.;<!&'/,|,$!-/~^&&~%=$%$-$-&=#=-,$='&%&&$$-;.== =",
"=.{]|$,&==$&%&'!^&&^/##!=*.###.*+-=-&-,$#=*=|== # ",
" +3^.$&.+,|=!&~!&&-/&+#==+===;-=,-.=%=|&=-=$##*+.;",
";>{!-%,#=$,&,%/&$#+,$+=.=+&-#|==-###!-; -$=++# *= ",
"*>{! -+ =||$&%/$|-+-/{* | .#;..+;*+@^=##=#;;**>>+;",
" +6& #=;.=#=$&%=$--,&;;= ####==+*>+@,,= .-#.++>>{3",
" *7&# #=|=#$$-||==.%& +=.. ,= .*++*+%&;#$; >>;*>{;",
"_(]:('_((]~(:](<((<:](~<(]))__<_~])'(<]((1]^!%!'^<",
"/,%^$/,)'&%&!,,|,&&!%|%&-|$&&|=-#;-.##.#=,;--,$&$|",
"-=|$$&'!!%&-|,,.#|==&,%---,$%|,,=---.+ ===+ -,=&=.",
"#=|-=&&$^$&||##.$*$|--&#,,-;%|-&$&=====$$.=|=,.= =",
"=;,|-%&,%$=-=#. -#=|&|%$$&.+/$-$=|,=$-=||&$=|/..;=",
".=.;|,=|,$$-## .; - -=,-$,--',*$/-||$%$ $=,|-,;# ;"};
