/* XPM */
static char * back_xpm[] = {
"50 50 2 1",
" 	c #000000",
".	c #FF0000",
"..................................................",
".                                                 ",
".                                                 ",
".                                                 ",
".                                                 ",
".                                                 ",
".                                                 ",
".                                                 ",
"..................................................",
".                                                 ",
".                                                 ",
".                                                 ",
".                                                 ",
".                                                 ",
".                                                 ",
".                                                 ",
".                                                 ",
"..................................................",
".                                                 ",
".               ...          ...                  ",
".              ....          ....                 ",
".              ....          ....                 ",
".              ....          ....                 ",
".              ....          ....                 ",
".              ....          ....                 ",
".              ....    ..    ....                 ",
".              ....    ..    ....                 ",
".              ....    ..    ....                 ",
".              ..................                 ",
".              ........  ........                 ",
".               ...         ....                  ",
".                                                 ",
"..................................................",
".                                                 ",
".                                                 ",
".                                                 ",
".                                                 ",
".                                                 ",
".                                                 ",
".                                                 ",
".                                                 ",
"..................................................",
".                                                 ",
".                                                 ",
".                                                 ",
".                                                 ",
".                                                 ",
".                                                 ",
".                                                 ",
".................................................."};